<svg width="18" height="17" fill="none" xmlns="http://www.w3.org/2000/svg"><g clip-path="url(#clip0)"><path fill-rule="evenodd" clip-rule="evenodd" d="M8.869 9.627c.8 1.526 1.575 1.859 2.346 1.945l.019.002h2.804V9.237l3.959 3.636-3.959 3.635v-2.336h-2.804c-1.068-.024-2.164-.222-3.446-1.567l-.015-.015a4.884 4.884 0 01-.269-.315 9.764 9.764 0 00.463-.81c.302-.567.602-1.19.902-1.838zm-8.87 1.898h2.308c.976.08 1.802-.666 2.507-2.086l.026-.063c.162-.39.322-.765.479-1.122l.031-.072.033-.074.042-.095.034-.075.041-.091.05-.11.049-.107.049-.107.04-.087.033-.071.038-.082.035-.074.036-.076.037-.076.034-.072.038-.078.037-.076.034-.071.034-.069.023-.045.022-.045.022-.044c.238-.475.468-.902.69-1.278.344-.578.668-1.035.972-1.36l.015-.016c1.282-1.344 2.378-1.542 3.446-1.566h2.804V0l3.959 3.636-3.959 3.635V4.934h-2.804l-.02.002c-.8.09-1.606.446-2.438 2.129l-.057.126c-.17.381-.34.763-.512 1.142l-.012.026-.097.217-.024.051a84.45 84.45 0 01-.11.243l-.002.003-.077.17-.004.008-.076.164-.02.04-.023.052-.044.093-.015.032-.023.05-.036.077-.029.06-.034.071-.018.039-.042.088-.04.082-.04.085-.017.034-.027.055-.038.076-.017.036-.03.061-.034.067-.019.038-.041.083-.016.032-.026.051-.04.077-.017.034-.03.058-.034.066-.019.036-.031.06-.031.06-.02.038-.013.024-.025.048-.01.02-.019.034-.02.04-.012.021-.027.049-.009.016c-1.048 1.899-2.545 2.926-4.545 2.974H0v-2.647zm0-9.188h2.275c1.586.037 2.856.691 3.836 1.907-.44.684-.91 1.561-1.405 2.613-.68-1.282-1.472-1.95-2.398-1.873H0V2.337z" fill="currentColor"/></g><defs><clipPath id="clip0"><path d="M0 0h18v16.527H0z"/></clipPath></defs></svg>