<svg viewBox="0 0 25 25" fill="none" xmlns="http://www.w3.org/2000/svg">
	<rect x="0.875" y="1.47266" width="23" height="23" rx="11.5" fill="white" />
	<path d="M20 12.8789C20 17.2972 16.7933 20.9727 12.375 20.9727C7.95672 20.9727 4.375 17.3909 4.375 12.9727C4.375 8.55438 7.95672 4.97266 12.375 4.97266C16.7933 4.97266 20 8.46063 20 12.8789Z" fill="white" />
	<g>
		<path d="M20.035 13.154C20.035 12.6273 19.9883 12.1273 19.9083 11.6406H12.375V14.6473H16.6883C16.495 15.634 15.9283 16.4673 15.0883 17.034V19.034H17.6617C19.1683 17.6406 20.035 15.5873 20.035 13.154Z" fill="#005AE0" />
		<path d="M12.3754 20.9733C14.5354 20.9733 16.342 20.2533 17.662 19.0333L15.0887 17.0333C14.3687 17.5133 13.4554 17.8067 12.3754 17.8067C10.2887 17.8067 8.52202 16.4 7.88869 14.5H5.23535V16.56C6.54868 19.1733 9.24869 20.9733 12.3754 20.9733Z" fill="#00AA63" />
		<path d="M7.88833 14.5001C7.72167 14.0201 7.635 13.5067 7.635 12.9734C7.635 12.4401 7.72833 11.9267 7.88833 11.4467V9.38672H5.235C4.68833 10.4667 4.375 11.6801 4.375 12.9734C4.375 14.2667 4.68833 15.4801 5.235 16.5601L7.88833 14.5001Z" fill="#FBBC05" />
		<path d="M12.3754 8.13932C13.5554 8.13932 14.6087 8.54599 15.442 9.33933L17.722 7.05932C16.342 5.76599 14.5354 4.97266 12.3754 4.97266C9.24869 4.97266 6.54868 6.77266 5.23535 9.38599L7.88869 11.446C8.52202 9.54599 10.2887 8.13932 12.3754 8.13932Z" fill="#EA4335" />
	</g>
	<rect x="0.875" y="1.47266" width="23" height="23" rx="11.5" stroke="#D0D1D7" />
</svg>