<svg width="40" height="41" viewBox="0 0 40 41" fill="none" xmlns="http://www.w3.org/2000/svg">
    <path
        d="M4 37.8333H26.442C27.6267 39.0922 29.141 39.9931 30.8127 40.4333C31.1537 40.5249 31.5129 40.5249 31.854 40.4333C39.3753 38.3993 39.99 29.092 40 26.288C40.0004 25.5677 39.4286 24.9774 38.7087 24.9547C38.2227 24.9347 37.768 24.888 37.3333 24.8267V4.5C37.3311 2.29177 35.5416 0.502205 33.3333 0.5H4C1.79177 0.502205 0.00220492 2.29177 0 4.5V33.8333C0.00220492 36.0416 1.79177 37.8311 4 37.8333ZM31.5067 39.144C31.3931 39.174 31.2736 39.174 31.16 39.144C25.868 37.714 24.0033 31.744 24.0133 26.286C26.643 26.2266 29.1929 25.3714 31.3267 23.8333C33.4798 25.3528 36.0325 26.2049 38.6667 26.2833C38.658 28.848 38.116 37.358 31.5067 39.144ZM22 16.5067V16.6033C22.0478 18.2119 23.2462 19.5527 24.8393 19.78C25.0706 20.3191 25.4404 20.7875 25.9113 21.1373C26.6824 21.6871 27.6345 21.9213 28.5727 21.792C28.6355 22.2475 28.667 22.7068 28.6667 23.1667C28.6667 23.4087 28.646 23.6467 28.6293 23.8853C27.1556 24.539 25.5693 24.9012 23.958 24.952C23.2381 24.9747 22.6663 25.5651 22.6667 26.2853C22.6752 28.2033 22.9194 30.113 23.394 31.9713C21.8004 32.8307 20.0025 33.239 18.194 33.152C13.0533 32.8828 8.94638 28.7741 8.67933 23.6333C8.55064 20.9032 9.5455 18.2394 11.4324 16.262C13.3192 14.2846 15.9335 13.166 18.6667 13.1667C19.3495 13.1636 20.0307 13.2352 20.698 13.38C20.6784 13.5303 20.668 13.6817 20.6667 13.8333C20.6653 14.8847 21.1593 15.8753 22 16.5067ZM32.1453 22.7793C31.6677 22.4073 30.9983 22.4073 30.5207 22.7793C30.3913 22.88 30.2073 23.008 29.9993 23.1447C29.9989 22.63 29.9635 22.1159 29.8933 21.606C29.8421 21.2437 29.646 20.9177 29.35 20.7027C29.0582 20.4871 28.6897 20.403 28.3333 20.4707C27.7591 20.5597 27.1731 20.4141 26.7073 20.0667C26.4273 19.8597 26.2069 19.5823 26.0687 19.2627C25.8917 18.8399 25.5046 18.5421 25.0507 18.4793C24.0972 18.3442 23.3755 17.5487 23.3333 16.5867V16.5067C23.3402 16.0882 23.1464 15.6917 22.812 15.44C22.2972 15.0675 21.9946 14.4688 22 13.8333C22.0012 13.7442 22.0075 13.6551 22.0187 13.5667C22.1204 12.8762 21.6695 12.225 20.9873 12.0773C20.2246 11.914 19.4467 11.8322 18.6667 11.8333C15.5682 11.8326 12.6047 13.1009 10.466 15.3429C8.32742 17.5849 7.20038 20.605 7.34733 23.7C7.65364 29.5266 12.3099 34.1815 18.1367 34.486C18.3133 34.494 18.4887 34.498 18.664 34.498C20.4455 34.5011 22.2023 34.0821 23.7907 33.2753C24.1759 34.4148 24.7086 35.4989 25.3753 36.5H4C2.52724 36.5 1.33333 35.3061 1.33333 33.8333V9.83333H36V24.5613C34.6079 24.2339 33.2966 23.6277 32.1453 22.7793ZM4 1.83333H33.3333C34.8061 1.83333 36 3.02724 36 4.5V8.5H1.33333V4.5C1.33333 3.02724 2.52724 1.83333 4 1.83333Z"
        fill="#1863DC" />
    <path
        d="M4.6665 7.16406C5.77107 7.16406 6.6665 6.26863 6.6665 5.16406C6.6665 4.05949 5.77107 3.16406 4.6665 3.16406C3.56193 3.16406 2.6665 4.05949 2.6665 5.16406C2.6665 6.26863 3.56193 7.16406 4.6665 7.16406ZM4.6665 4.4974C5.03469 4.4974 5.33317 4.79587 5.33317 5.16406C5.33317 5.53225 5.03469 5.83073 4.6665 5.83073C4.29831 5.83073 3.99984 5.53225 3.99984 5.16406C3.99984 4.79587 4.29831 4.4974 4.6665 4.4974Z"
        fill="#1863DC" />
    <path
        d="M34.2158 28.6646L29.3491 32.9213L28.4565 32.0286C28.1949 31.776 27.7791 31.7796 27.5219 32.0368C27.2648 32.2939 27.2612 32.7097 27.5138 32.9713L28.8471 34.3046C29.0953 34.5531 29.4935 34.5665 29.7578 34.3353L35.0911 29.6686C35.3684 29.4262 35.3966 29.0049 35.1541 28.7276C34.9117 28.4504 34.4904 28.4222 34.2131 28.6646H34.2158Z"
        fill="#1863DC" />
    <path
        d="M17.3335 18.5C18.4381 18.5 19.3335 17.6046 19.3335 16.5C19.3335 15.3954 18.4381 14.5 17.3335 14.5C16.2289 14.5 15.3335 15.3954 15.3335 16.5C15.3335 17.6046 16.2289 18.5 17.3335 18.5ZM17.3335 15.8333C17.7017 15.8333 18.0002 16.1318 18.0002 16.5C18.0002 16.8682 17.7017 17.1667 17.3335 17.1667C16.9653 17.1667 16.6668 16.8682 16.6668 16.5C16.6668 16.1318 16.9653 15.8333 17.3335 15.8333Z"
        fill="#1863DC" />
    <path
        d="M18.6665 22.5C18.6665 23.6046 19.5619 24.5 20.6665 24.5C21.7711 24.5 22.6665 23.6046 22.6665 22.5C22.6665 21.3954 21.7711 20.5 20.6665 20.5C19.5619 20.5 18.6665 21.3954 18.6665 22.5ZM21.3332 22.5C21.3332 22.8682 21.0347 23.1667 20.6665 23.1667C20.2983 23.1667 19.9998 22.8682 19.9998 22.5C19.9998 22.1318 20.2983 21.8333 20.6665 21.8333C21.0347 21.8333 21.3332 22.1318 21.3332 22.5Z"
        fill="#1863DC" />
    <path
        d="M16.6668 21.8307C16.6668 20.358 15.4729 19.1641 14.0002 19.1641C12.5274 19.1641 11.3335 20.358 11.3335 21.8307C11.3335 23.3035 12.5274 24.4974 14.0002 24.4974C15.4729 24.4974 16.6668 23.3035 16.6668 21.8307ZM14.0002 23.1641C13.2638 23.1641 12.6668 22.5671 12.6668 21.8307C12.6668 21.0943 13.2638 20.4974 14.0002 20.4974C14.7365 20.4974 15.3335 21.0943 15.3335 21.8307C15.3335 22.5671 14.7365 23.1641 14.0002 23.1641Z"
        fill="#1863DC" />
    <path
        d="M17.3332 25.8359C15.8604 25.8359 14.6665 27.0298 14.6665 28.5026C14.6665 29.9754 15.8604 31.1693 17.3332 31.1693C18.8059 31.1693 19.9998 29.9754 19.9998 28.5026C19.9998 27.0298 18.8059 25.8359 17.3332 25.8359ZM17.3332 29.8359C16.5968 29.8359 15.9998 29.239 15.9998 28.5026C15.9998 27.7662 16.5968 27.1693 17.3332 27.1693C18.0696 27.1693 18.6665 27.7662 18.6665 28.5026C18.6665 29.239 18.0696 29.8359 17.3332 29.8359Z"
        fill="#1863DC" />
</svg>