<svg
		width="91"
		height="90"
		viewBox="0 0 91 90"
		fill="none"
		xmlns="http://www.w3.org/2000/svg"
	>
		<path
			d="M45.5 0.375C57.3353 0.375 68.6858 5.07655 77.0546 13.4454C85.4234 21.8142 90.125 33.1647 90.125 45C90.125 56.8353 85.4234 68.1858 77.0546 76.5546C68.6858 84.9234 57.3353 89.625 45.5 89.625C33.6647 89.625 22.3142 84.9234 13.9454 76.5546C5.57655 68.1858 0.875 56.8353 0.875 45C0.875 33.1647 5.57655 21.8142 13.9454 13.4454C22.3142 5.07655 33.6647 0.375 45.5 0.375ZM39.941 53.8039L30.0279 43.8844C29.6725 43.529 29.2506 43.2471 28.7863 43.0548C28.3219 42.8624 27.8243 42.7634 27.3217 42.7634C26.8191 42.7634 26.3214 42.8624 25.8571 43.0548C25.3928 43.2471 24.9709 43.529 24.6155 43.8844C23.8978 44.6021 23.4946 45.5755 23.4946 46.5906C23.4946 47.6056 23.8978 48.579 24.6155 49.2967L37.238 61.9193C37.5924 62.2764 38.014 62.5599 38.4784 62.7533C38.9429 62.9468 39.441 63.0464 39.9442 63.0464C40.4473 63.0464 40.9455 62.9468 41.41 62.7533C41.8744 62.5599 42.296 62.2764 42.6504 61.9193L68.7879 35.7754C69.148 35.4215 69.4345 34.9998 69.6308 34.5346C69.8272 34.0694 69.9295 33.5699 69.9318 33.065C69.9342 32.5601 69.8365 32.0597 69.6445 31.5927C69.4525 31.1257 69.17 30.7014 68.8131 30.3441C68.4563 29.9869 68.0323 29.7038 67.5655 29.5113C67.0988 29.3187 66.5985 29.2205 66.0936 29.2223C65.5887 29.224 65.0891 29.3257 64.6237 29.5215C64.1583 29.7173 63.7362 30.0033 63.3819 30.363L39.941 53.8039Z"
			fill="#2DAD70"
		/>
	</svg>