<svg width="11" height="11" viewBox="0 0 11 11" fill="inherit" xmlns="http://www.w3.org/2000/svg">
<mask id="path-1-inside-1_4567_9698" fill="inherit">
<path d="M10.2583 0.295591C10.2421 0.296101 10.226 0.297514 10.21 0.299822H7.66673C7.60931 0.29901 7.5523 0.309619 7.49901 0.331032C7.44573 0.352444 7.39723 0.384234 7.35633 0.424553C7.31544 0.464872 7.28297 0.512917 7.2608 0.565895C7.23864 0.618873 7.22723 0.675728 7.22723 0.733156C7.22723 0.790583 7.23864 0.847438 7.2608 0.900416C7.28297 0.953395 7.31544 1.00144 7.35633 1.04176C7.39723 1.08208 7.44573 1.11387 7.49901 1.13528C7.5523 1.15669 7.60931 1.1673 7.66673 1.16649H9.22064L4.76035 5.62678C4.71876 5.66671 4.68556 5.71453 4.66269 5.76746C4.63981 5.82038 4.62773 5.87733 4.62714 5.93498C4.62655 5.99263 4.63748 6.04982 4.65927 6.1032C4.68106 6.15658 4.71328 6.20507 4.75405 6.24584C4.79482 6.28661 4.84331 6.31883 4.89669 6.34062C4.95007 6.36241 5.00725 6.37334 5.06491 6.37275C5.12256 6.37216 5.17951 6.36008 5.23243 6.3372C5.28536 6.31433 5.33318 6.28113 5.37311 6.23954L9.8334 1.77925V3.33316C9.83259 3.39058 9.84319 3.44759 9.86461 3.50088C9.88602 3.55416 9.91781 3.60266 9.95813 3.64355C9.99845 3.68445 10.0465 3.71692 10.0995 3.73908C10.1524 3.76125 10.2093 3.77266 10.2667 3.77266C10.3242 3.77266 10.381 3.76125 10.434 3.73908C10.487 3.71692 10.535 3.68445 10.5753 3.64355C10.6157 3.60266 10.6474 3.55416 10.6689 3.50088C10.6903 3.44759 10.7009 3.39058 10.7001 3.33316V0.788169C10.7087 0.72578 10.7036 0.662259 10.6852 0.602031C10.6668 0.541802 10.6355 0.486312 10.5934 0.439425C10.5513 0.392538 10.4996 0.35538 10.4417 0.33054C10.3838 0.3057 10.3212 0.293773 10.2583 0.295591ZM1.60007 2.03316C1.1264 2.03316 0.733398 2.42616 0.733398 2.89982V9.39982C0.733398 9.87348 1.1264 10.2665 1.60007 10.2665H8.10007C8.57373 10.2665 8.96673 9.87348 8.96673 9.39982V5.06649V3.9493L8.10007 4.81597V5.93316V9.39982H1.60007V2.89982H5.06673H5.9334H6.18392L7.05059 2.03316H5.9334H5.06673H1.60007Z"/>
</mask>
<path d="M10.2583 0.295591C10.2421 0.296101 10.226 0.297514 10.21 0.299822H7.66673C7.60931 0.29901 7.5523 0.309619 7.49901 0.331032C7.44573 0.352444 7.39723 0.384234 7.35633 0.424553C7.31544 0.464872 7.28297 0.512917 7.2608 0.565895C7.23864 0.618873 7.22723 0.675728 7.22723 0.733156C7.22723 0.790583 7.23864 0.847438 7.2608 0.900416C7.28297 0.953395 7.31544 1.00144 7.35633 1.04176C7.39723 1.08208 7.44573 1.11387 7.49901 1.13528C7.5523 1.15669 7.60931 1.1673 7.66673 1.16649H9.22064L4.76035 5.62678C4.71876 5.66671 4.68556 5.71453 4.66269 5.76746C4.63981 5.82038 4.62773 5.87733 4.62714 5.93498C4.62655 5.99263 4.63748 6.04982 4.65927 6.1032C4.68106 6.15658 4.71328 6.20507 4.75405 6.24584C4.79482 6.28661 4.84331 6.31883 4.89669 6.34062C4.95007 6.36241 5.00725 6.37334 5.06491 6.37275C5.12256 6.37216 5.17951 6.36008 5.23243 6.3372C5.28536 6.31433 5.33318 6.28113 5.37311 6.23954L9.8334 1.77925V3.33316C9.83259 3.39058 9.84319 3.44759 9.86461 3.50088C9.88602 3.55416 9.91781 3.60266 9.95813 3.64355C9.99845 3.68445 10.0465 3.71692 10.0995 3.73908C10.1524 3.76125 10.2093 3.77266 10.2667 3.77266C10.3242 3.77266 10.381 3.76125 10.434 3.73908C10.487 3.71692 10.535 3.68445 10.5753 3.64355C10.6157 3.60266 10.6474 3.55416 10.6689 3.50088C10.6903 3.44759 10.7009 3.39058 10.7001 3.33316V0.788169C10.7087 0.72578 10.7036 0.662259 10.6852 0.602031C10.6668 0.541802 10.6355 0.486312 10.5934 0.439425C10.5513 0.392538 10.4996 0.35538 10.4417 0.33054C10.3838 0.3057 10.3212 0.293773 10.2583 0.295591ZM1.60007 2.03316C1.1264 2.03316 0.733398 2.42616 0.733398 2.89982V9.39982C0.733398 9.87348 1.1264 10.2665 1.60007 10.2665H8.10007C8.57373 10.2665 8.96673 9.87348 8.96673 9.39982V5.06649V3.9493L8.10007 4.81597V5.93316V9.39982H1.60007V2.89982H5.06673H5.9334H6.18392L7.05059 2.03316H5.9334H5.06673H1.60007Z" fill="inherit" fill-opacity="0.8"/>
<path d="M10.21 0.299822V1.29982H10.2818L10.3529 1.28956L10.21 0.299822ZM7.66673 0.299822L7.65259 1.29982H7.66673V0.299822ZM7.66673 1.16649V0.166389L7.65259 0.166589L7.66673 1.16649ZM9.22064 1.16649L9.92774 1.8736L11.6349 0.166489H9.22064V1.16649ZM4.76035 5.62678L5.45292 6.34813L5.46026 6.34108L5.46746 6.33388L4.76035 5.62678ZM5.37311 6.23954L4.66601 5.53243L4.65881 5.53963L4.65176 5.54697L5.37311 6.23954ZM9.8334 1.77925H10.8334V-0.634964L9.12629 1.07214L9.8334 1.77925ZM9.8334 3.33316L10.8334 3.3473V3.33316H9.8334ZM10.7001 3.33316H9.69997L9.70016 3.3473L10.7001 3.33316ZM10.7001 0.788169L9.7095 0.651147L9.70007 0.719334V0.788169H10.7001ZM8.96673 3.9493H9.96673V1.53509L8.25962 3.2422L8.96673 3.9493ZM8.10007 4.81597L7.39296 4.10886L7.10007 4.40176V4.81597H8.10007ZM8.10007 9.39982V10.3998H9.10007V9.39982H8.10007ZM1.60007 9.39982H0.600065V10.3998H1.60007V9.39982ZM1.60007 2.89982V1.89982H0.600065V2.89982H1.60007ZM6.18392 2.89982V3.89982H6.59813L6.89103 3.60693L6.18392 2.89982ZM7.05059 2.03316L7.75769 2.74026L9.4648 1.03316H7.05059V2.03316ZM10.2267 -0.70391C10.1733 -0.702222 10.12 -0.69755 10.0671 -0.689914L10.3529 1.28956C10.332 1.29258 10.311 1.29442 10.2899 1.29509L10.2267 -0.70391ZM10.21 -0.700178H7.66673V1.29982H10.21V-0.700178ZM7.68087 -0.700078C7.49095 -0.702763 7.30239 -0.667676 7.12615 -0.596855L7.87188 1.25892C7.80221 1.28691 7.72767 1.30078 7.65259 1.29972L7.68087 -0.700078ZM7.12615 -0.596855C6.94991 -0.526034 6.7895 -0.420892 6.65424 -0.287536L8.05842 1.13664C8.00495 1.18936 7.94154 1.23092 7.87188 1.25892L7.12615 -0.596855ZM6.65424 -0.287536C6.51899 -0.15418 6.41159 0.00472629 6.33828 0.179948L8.18332 0.951843C8.15435 1.02111 8.11189 1.08393 8.05842 1.13664L6.65424 -0.287536ZM6.33828 0.179948C6.26498 0.355175 6.22723 0.543221 6.22723 0.733156H8.22723C8.22723 0.808236 8.21231 0.882572 8.18332 0.951843L6.33828 0.179948ZM6.22723 0.733156C6.22723 0.923091 6.26498 1.11114 6.33828 1.28636L8.18332 0.514469C8.21231 0.58374 8.22723 0.658076 8.22723 0.733156H6.22723ZM6.33828 1.28636C6.41159 1.46159 6.51899 1.62049 6.65424 1.75385L8.05842 0.32967C8.11189 0.382387 8.15435 0.445204 8.18332 0.514469L6.33828 1.28636ZM6.65424 1.75385C6.7895 1.8872 6.94991 1.99235 7.12615 2.06317L7.87188 0.207394C7.94154 0.235389 8.00495 0.276952 8.05842 0.32967L6.65424 1.75385ZM7.12615 2.06317C7.30239 2.13399 7.49095 2.16908 7.68087 2.16639L7.65259 0.166589C7.72767 0.165528 7.80221 0.179398 7.87188 0.207394L7.12615 2.06317ZM7.66673 2.16649H9.22064V0.166489H7.66673V2.16649ZM8.51353 0.459383L4.05324 4.91967L5.46746 6.33388L9.92774 1.8736L8.51353 0.459383ZM4.06778 4.90542C3.93023 5.03749 3.82041 5.19568 3.74476 5.37071L5.58062 6.1642C5.55071 6.23339 5.5073 6.29592 5.45292 6.34813L4.06778 4.90542ZM3.74476 5.37071C3.6691 5.54575 3.62913 5.73413 3.62719 5.92481L5.62709 5.94516C5.62632 6.02054 5.61052 6.095 5.58062 6.1642L3.74476 5.37071ZM3.62719 5.92481C3.62525 6.11548 3.66138 6.30463 3.73345 6.48118L5.58508 5.72522C5.61358 5.79501 5.62786 5.86978 5.62709 5.94516L3.62719 5.92481ZM3.73345 6.48118C3.80553 6.65772 3.91211 6.81811 4.04694 6.95294L5.46116 5.53873C5.51446 5.59203 5.55659 5.65544 5.58508 5.72522L3.73345 6.48118ZM4.04694 6.95294C4.18178 7.08779 4.34217 7.19436 4.51871 7.26644L5.27467 5.41481C5.34445 5.4433 5.40785 5.48543 5.46116 5.53873L4.04694 6.95294ZM4.51871 7.26644C4.69525 7.33851 4.88439 7.37464 5.07508 7.3727L5.05473 5.3728C5.13011 5.37203 5.20489 5.38632 5.27467 5.41481L4.51871 7.26644ZM5.07508 7.3727C5.26577 7.37076 5.45414 7.33079 5.62918 7.25513L4.83569 5.41927C4.90488 5.38937 4.97935 5.37357 5.05473 5.3728L5.07508 7.3727ZM5.62918 7.25513C5.80421 7.17948 5.9624 7.06966 6.09446 6.93211L4.65176 5.54697C4.70397 5.49259 4.7665 5.44918 4.83569 5.41927L5.62918 7.25513ZM6.08022 6.94664L10.5405 2.48636L9.12629 1.07214L4.66601 5.53243L6.08022 6.94664ZM8.8334 1.77925V3.33316H10.8334V1.77925H8.8334ZM8.8335 3.31902C8.83081 3.50894 8.8659 3.6975 8.93672 3.87374L10.7925 3.12801C10.8205 3.19768 10.8344 3.27222 10.8333 3.3473L8.8335 3.31902ZM8.93672 3.87374C9.00754 4.04998 9.11268 4.21039 9.24604 4.34564L10.6702 2.94146C10.7229 2.99493 10.7645 3.05834 10.7925 3.12801L8.93672 3.87374ZM9.24604 4.34564C9.37939 4.4809 9.5383 4.5883 9.71352 4.6616L10.4854 2.81656C10.5547 2.84554 10.6175 2.888 10.6702 2.94146L9.24604 4.34564ZM9.71352 4.6616C9.88875 4.73491 10.0768 4.77266 10.2667 4.77266V2.77266C10.3418 2.77266 10.4162 2.78758 10.4854 2.81656L9.71352 4.6616ZM10.2667 4.77266C10.4567 4.77266 10.6447 4.73491 10.8199 4.6616L10.048 2.81656C10.1173 2.78758 10.1916 2.77266 10.2667 2.77266V4.77266ZM10.8199 4.6616C10.9952 4.5883 11.1541 4.4809 11.2874 4.34564L9.86325 2.94146C9.91596 2.888 9.97878 2.84554 10.048 2.81656L10.8199 4.6616ZM11.2874 4.34564C11.4208 4.21039 11.5259 4.04998 11.5967 3.87374L9.74097 3.12801C9.76896 3.05834 9.81053 2.99493 9.86325 2.94146L11.2874 4.34564ZM11.5967 3.87374C11.6676 3.6975 11.7027 3.50894 11.7 3.31902L9.70016 3.3473C9.6991 3.27222 9.71297 3.19768 9.74097 3.12801L11.5967 3.87374ZM11.7001 3.33316V0.788169H9.70007V3.33316H11.7001ZM11.6906 0.925191C11.7192 0.71884 11.7024 0.508749 11.6415 0.309545L9.72893 0.894516C9.70485 0.81577 9.69821 0.73272 9.7095 0.651147L11.6906 0.925191ZM11.6415 0.309545C11.5805 0.110342 11.4769 -0.0731889 11.3378 -0.228267L9.84896 1.10712C9.79398 1.04581 9.75302 0.973262 9.72893 0.894516L11.6415 0.309545ZM11.3378 -0.228267C11.1987 -0.383342 11.0275 -0.506239 10.8361 -0.588399L10.0473 1.24948C9.97163 1.217 9.90394 1.16842 9.84896 1.10712L11.3378 -0.228267ZM10.8361 -0.588399C10.6447 -0.670559 10.4376 -0.710005 10.2294 -0.703993L10.2871 1.29517C10.2048 1.29755 10.123 1.28196 10.0473 1.24948L10.8361 -0.588399ZM1.60007 1.03316C0.57412 1.03316 -0.266602 1.87388 -0.266602 2.89982H1.7334C1.7334 2.9445 1.71445 2.97774 1.69622 2.99597C1.67798 3.01421 1.64474 3.03316 1.60007 3.03316V1.03316ZM-0.266602 2.89982V9.39982H1.7334V2.89982H-0.266602ZM-0.266602 9.39982C-0.266602 10.4258 0.57412 11.2665 1.60007 11.2665V9.26649C1.64474 9.26649 1.67798 9.28544 1.69622 9.30367C1.71445 9.32191 1.7334 9.35515 1.7334 9.39982H-0.266602ZM1.60007 11.2665H8.10007V9.26649H1.60007V11.2665ZM8.10007 11.2665C9.12601 11.2665 9.96673 10.4258 9.96673 9.39982H7.96673C7.96673 9.35515 7.98568 9.32191 8.00391 9.30367C8.02215 9.28544 8.05539 9.26649 8.10007 9.26649V11.2665ZM9.96673 9.39982V5.06649H7.96673V9.39982H9.96673ZM9.96673 5.06649V3.9493H7.96673V5.06649H9.96673ZM8.25962 3.2422L7.39296 4.10886L8.80717 5.52308L9.67384 4.65641L8.25962 3.2422ZM7.10007 4.81597V5.93316H9.10007V4.81597H7.10007ZM7.10007 5.93316V9.39982H9.10007V5.93316H7.10007ZM8.10007 8.39982H1.60007V10.3998H8.10007V8.39982ZM2.60007 9.39982V2.89982H0.600065V9.39982H2.60007ZM1.60007 3.89982H5.06673V1.89982H1.60007V3.89982ZM5.06673 3.89982H5.9334V1.89982H5.06673V3.89982ZM5.9334 3.89982H6.18392V1.89982H5.9334V3.89982ZM6.89103 3.60693L7.75769 2.74026L6.34348 1.32605L5.47681 2.19272L6.89103 3.60693ZM7.05059 1.03316H5.9334V3.03316H7.05059V1.03316ZM5.9334 1.03316H5.06673V3.03316H5.9334V1.03316ZM5.06673 1.03316H1.60007V3.03316H5.06673V1.03316Z" fill="inherit" fill-opacity="0.8" mask="url(#path-1-inside-1_4567_9698)"/>
</svg>
