<svg xmlns="http://www.w3.org/2000/svg" fill="none" viewBox="0 0 20 20">
<g clip-path="url(#clip0)">
<circle cx="10" cy="10" r="10" fill="#087CE1"/>
<path d="M10.2173 7.43462C10.8896 7.43462 11.4346 6.88962 11.4346 6.21731C11.4346 5.54501 10.8896 5 10.2173 5C9.54501 5 9 5.54501 9 6.21731C9 6.88962 9.54501 7.43462 10.2173 7.43462Z" fill="white"/>
<path d="M11.4347 9.46344C11.4347 8.79113 10.8897 8.24613 10.2174 8.24613C9.54506 8.24613 9.00005 8.79113 9.00005 9.46344L9.00005 14.3327C9.00005 15.005 9.54506 15.55 10.2174 15.55C10.8897 15.55 11.4347 15.005 11.4347 14.3327L11.4347 9.46344Z" fill="white"/>
</g>
<defs>
<clipPath id="clip0">
<rect width="20" height="20" fill="white"/>
</clipPath>
</defs>
</svg>