<svg width="44" height="44" viewBox="0 0 44 44" fill="none" xmlns="http://www.w3.org/2000/svg">
    <path
        d="M39.4967 0.5H4.52505C2.31632 0.5 0.521723 2.2946 0.475708 4.54935V33.9531C0.475708 36.1618 2.2703 37.9564 4.52505 38.0025H34.0669L42.2576 43.4783C42.8098 43.8464 43.5 43.4323 43.5 42.788V4.50333C43.5 2.2946 41.7054 0.5 39.4967 0.5ZM41.9355 41.1775L34.7571 36.4379C34.619 36.3459 34.481 36.2999 34.2969 36.2999H4.52505C3.19061 36.2999 2.13226 35.1955 2.08624 33.8611V4.50333C2.08624 3.16889 3.19061 2.11054 4.52505 2.06452H39.4967C40.8311 2.06452 41.8895 3.16889 41.9355 4.50333V41.1775Z"
        fill="#1863DC" />
    <path
        d="M34.1589 19.3202C34.1589 12.602 28.7291 7.17221 22.0108 7.17221C15.3386 7.17221 9.86279 12.602 9.86279 19.3202C9.86279 26.0385 15.3386 31.4683 22.0108 31.4683C28.683 31.4683 34.1128 26.0385 34.1589 19.3202ZM31.9041 22.9094H27.7627C28.1309 20.5166 28.1309 18.0778 27.7627 15.685H31.9041C32.3183 16.7894 32.5483 18.0318 32.5483 19.2742C32.5483 20.5627 32.2722 21.8511 31.9041 22.9094ZM22.0108 29.8577C20.5844 29.8577 19.0658 27.8331 18.2376 24.566H25.7841C24.9558 27.8331 23.4373 29.8577 22.0108 29.8577ZM17.9155 22.9094C17.5473 20.5166 17.5473 18.0778 17.9155 15.685H26.1062C26.4743 18.0778 26.4743 20.5166 26.1062 22.9094H17.9155ZM11.4733 19.3202C11.4733 17.9398 11.7954 16.4673 12.1175 15.7311H16.2589C15.9368 18.1238 15.9368 20.5627 16.2589 22.9555H12.1175C11.8415 22.3112 11.4733 20.7467 11.4733 19.3202ZM22.0108 8.78275C23.4373 8.78275 24.9558 10.8074 25.7841 14.0745H18.2376C19.0658 10.8534 20.5844 8.78275 22.0108 8.78275ZM31.1219 14.1205H27.3946C27.0725 12.418 26.3823 10.8534 25.462 9.42696C27.9008 10.2552 29.8794 11.9118 31.1219 14.1205ZM18.5137 9.38094C17.5934 10.8074 16.9031 12.418 16.581 14.0745H12.8538C14.1422 11.9118 16.1209 10.2552 18.5137 9.38094ZM12.8998 24.52H16.627C16.9491 26.2225 17.6394 27.7871 18.5597 29.2135C16.1209 28.3853 14.1422 26.7287 12.8998 24.52ZM25.508 29.2595C26.4283 27.8331 27.1185 26.2225 27.4406 24.566H31.1679C29.8794 26.7287 27.9008 28.3853 25.508 29.2595Z"
        fill="#1863DC" />
</svg>