<svg width="41" height="40" viewBox="0 0 41 40" fill="none" xmlns="http://www.w3.org/2000/svg">
    <path
        d="M18.0263 5.33922L17.6748 7.48962C17.6595 7.61527 17.679 7.74271 17.7313 7.85799C17.7836 7.97326 17.8666 8.0719 17.9713 8.1431C18.076 8.2143 18.1982 8.2553 18.3246 8.2616C18.451 8.26791 18.5768 8.23928 18.688 8.17885L20.4869 7.20704L22.2858 8.20642C22.3874 8.26127 22.5012 8.28971 22.6166 8.28913C22.7595 8.29021 22.8992 8.24686 23.0164 8.16507C23.1245 8.08933 23.2087 7.98411 23.2588 7.86192C23.3089 7.73973 23.3228 7.60572 23.299 7.47584L22.9474 5.32543L24.4293 3.80912C24.5155 3.71927 24.5758 3.60775 24.6037 3.48639C24.6316 3.36503 24.6261 3.23838 24.5878 3.11989C24.5473 2.99962 24.4744 2.89285 24.3771 2.81137C24.2798 2.72989 24.1619 2.67685 24.0364 2.6581L22.017 2.34795L21.1141 0.4181C21.0593 0.297768 20.971 0.195748 20.8598 0.124208C20.7486 0.0526681 20.6191 0.0146294 20.4869 0.0146294C20.3547 0.0146294 20.2252 0.0526681 20.114 0.124208C20.0028 0.195748 19.9145 0.297768 19.8597 0.4181L18.9568 2.34795L16.9373 2.6581C16.8118 2.67685 16.6939 2.72989 16.5966 2.81137C16.4993 2.89285 16.4264 2.99962 16.386 3.11989C16.3477 3.23838 16.3422 3.36503 16.3701 3.48639C16.398 3.60775 16.4583 3.71927 16.5445 3.80912L18.0263 5.33922ZM19.5289 3.65749C19.64 3.6402 19.7452 3.596 19.8353 3.52872C19.9254 3.46144 19.9976 3.37314 20.0458 3.27152L20.4869 2.32727L20.928 3.27152C20.9761 3.37314 21.0484 3.46144 21.1385 3.52872C21.2286 3.596 21.3338 3.6402 21.4449 3.65749L22.4994 3.81601L21.7137 4.62242C21.6385 4.69975 21.5824 4.79368 21.5501 4.89663C21.5178 4.99958 21.5101 5.10868 21.5276 5.21516L21.7068 6.31103L20.8177 5.82168C20.7129 5.76119 20.5941 5.72934 20.4731 5.72934C20.3521 5.72934 20.2333 5.76119 20.1285 5.82168L19.2394 6.31103L19.4186 5.21516C19.4361 5.10868 19.4284 4.99958 19.3961 4.89663C19.3638 4.79368 19.3077 4.69975 19.2325 4.62242L18.4743 3.81601L19.5289 3.65749Z"
        fill="#1863DC" />
    <path
        d="M24.0364 34.3586L22.017 34.0485L21.1141 32.1186C21.0593 31.9983 20.971 31.8963 20.8598 31.8247C20.7486 31.7532 20.6191 31.7152 20.4869 31.7152C20.3547 31.7152 20.2252 31.7532 20.114 31.8247C20.0028 31.8963 19.9145 31.9983 19.8597 32.1186L18.9568 34.0485L16.9373 34.3586C16.8118 34.3774 16.6939 34.4304 16.5966 34.5119C16.4993 34.5934 16.4264 34.7001 16.386 34.8204C16.3477 34.9389 16.3422 35.0656 16.3701 35.1869C16.398 35.3083 16.4583 35.4198 16.5445 35.5096L18.0263 37.026L17.6748 39.1764C17.6595 39.302 17.679 39.4295 17.7313 39.5447C17.7836 39.66 17.8666 39.7586 17.9713 39.8298C18.076 39.901 18.1982 39.942 18.3246 39.9483C18.451 39.9547 18.5768 39.926 18.688 39.8656L20.4869 38.9076L22.2858 39.9069C22.3874 39.9618 22.5012 39.9902 22.6166 39.9897C22.7595 39.9907 22.8992 39.9474 23.0164 39.8656C23.1245 39.7899 23.2087 39.6846 23.2588 39.5624C23.3089 39.4403 23.3228 39.3062 23.299 39.1764L22.9474 37.026L24.4293 35.5096C24.5155 35.4198 24.5758 35.3083 24.6037 35.1869C24.6316 35.0656 24.6261 34.9389 24.5878 34.8204C24.5473 34.7001 24.4744 34.5934 24.3771 34.5119C24.2798 34.4304 24.1619 34.3774 24.0364 34.3586ZM21.7137 36.3229C21.6385 36.4003 21.5824 36.4942 21.5501 36.5972C21.5178 36.7001 21.5101 36.8092 21.5276 36.9157L21.7068 38.0116L20.8177 37.5222C20.7129 37.4617 20.5941 37.4299 20.4731 37.4299C20.3521 37.4299 20.2333 37.4617 20.1285 37.5222L19.2394 38.0116L19.4186 36.9157C19.4361 36.8092 19.4284 36.7001 19.3961 36.5972C19.3638 36.4942 19.3077 36.4003 19.2325 36.3229L18.4468 35.5165L19.5013 35.358C19.6124 35.3407 19.7176 35.2965 19.8077 35.2292C19.8978 35.162 19.9701 35.0737 20.0182 34.972L20.4869 34.0278L20.928 34.972C20.9761 35.0737 21.0484 35.162 21.1385 35.2292C21.2286 35.2965 21.3338 35.3407 21.4449 35.358L22.4994 35.5165L21.7137 36.3229Z"
        fill="#1863DC" />
    <path
        d="M6.76408 24.1467C6.90697 24.1477 7.04666 24.1044 7.16383 24.0226C7.27201 23.9469 7.35616 23.8416 7.40626 23.7194C7.45635 23.5973 7.47029 23.4633 7.44642 23.3334L7.09491 21.183L8.57676 19.6667C8.66298 19.5768 8.72325 19.4653 8.75116 19.3439C8.77907 19.2226 8.77358 19.0959 8.73528 18.9774C8.69479 18.8571 8.62189 18.7504 8.5246 18.6689C8.42731 18.5874 8.30941 18.5344 8.18389 18.5156L6.16444 18.2055L5.26155 16.2756C5.20673 16.1553 5.11844 16.0533 5.00723 15.9817C4.89602 15.9102 4.76658 15.8722 4.63435 15.8722C4.50212 15.8722 4.37267 15.9102 4.26146 15.9817C4.15025 16.0533 4.06197 16.1553 4.00715 16.2756L3.10425 18.2055L1.0848 18.5156C0.959291 18.5344 0.841392 18.5874 0.744101 18.6689C0.646809 18.7504 0.573903 18.8571 0.533417 18.9774C0.495113 19.0959 0.489625 19.2226 0.517537 19.3439C0.54545 19.4653 0.605719 19.5768 0.691941 19.6667L2.17379 21.183L1.82228 23.3334C1.80693 23.459 1.82647 23.5865 1.87877 23.7017C1.93106 23.817 2.0141 23.9157 2.11876 23.9868C2.22342 24.058 2.34566 24.099 2.47208 24.1054C2.59851 24.1117 2.72423 24.083 2.83545 24.0226L4.63435 23.0646L6.43324 24.064C6.53485 24.1188 6.64861 24.1472 6.76408 24.1467ZM5.67509 21.0727L5.85429 22.1686L4.96518 21.6792C4.8604 21.6187 4.74155 21.5869 4.62056 21.5869C4.49958 21.5869 4.38072 21.6187 4.27595 21.6792L3.38684 22.1686L3.56604 21.0727C3.58359 20.9662 3.57589 20.8571 3.54357 20.7542C3.51124 20.6512 3.4552 20.5573 3.37995 20.4799L2.62179 19.6735L3.67632 19.515C3.78743 19.4977 3.89262 19.4535 3.98272 19.3863C4.07283 19.319 4.1451 19.2307 4.19324 19.1291L4.63435 18.1848L5.07546 19.1291C5.1236 19.2307 5.19587 19.319 5.28597 19.3863C5.37608 19.4535 5.48127 19.4977 5.59238 19.515L6.64691 19.6735L5.86118 20.4799C5.78593 20.5573 5.72988 20.6512 5.69756 20.7542C5.66524 20.8571 5.65754 20.9662 5.67509 21.0727Z"
        fill="#1863DC" />
    <path
        d="M40.4745 18.9774C40.4341 18.8571 40.3611 18.7504 40.2639 18.6689C40.1666 18.5874 40.0487 18.5344 39.9232 18.5156L37.9037 18.2055L37.0008 16.2756C36.946 16.1553 36.8577 16.0533 36.7465 15.9817C36.6353 15.9102 36.5058 15.8722 36.3736 15.8722C36.2414 15.8722 36.1119 15.9102 36.0007 15.9817C35.8895 16.0533 35.8012 16.1553 35.7464 16.2756L34.8435 18.2055L32.8241 18.5156C32.6985 18.5344 32.5806 18.5874 32.4834 18.6689C32.3861 18.7504 32.3132 18.8571 32.2727 18.9774C32.2344 19.0959 32.2289 19.2226 32.2568 19.3439C32.2847 19.4653 32.345 19.5768 32.4312 19.6667L33.913 21.183L33.5615 23.3334C33.5462 23.459 33.5657 23.5865 33.618 23.7017C33.6703 23.817 33.7534 23.9157 33.858 23.9868C33.9627 24.058 34.0849 24.099 34.2113 24.1054C34.3378 24.1117 34.4635 24.083 34.5747 24.0226L36.3391 23.0646L38.138 24.064C38.2396 24.1188 38.3534 24.1472 38.4689 24.1467C38.6118 24.1477 38.7515 24.1044 38.8686 24.0226C38.9768 23.9469 39.061 23.8416 39.1111 23.7194C39.1611 23.5973 39.1751 23.4633 39.1512 23.3334L38.7997 21.183L40.2816 19.6667C40.3737 19.5805 40.4405 19.4706 40.4745 19.3491C40.5086 19.2275 40.5086 19.099 40.4745 18.9774ZM37.6004 20.4799C37.5252 20.5573 37.4691 20.6512 37.4368 20.7542C37.4045 20.8571 37.3968 20.9662 37.4143 21.0727L37.5935 22.1686L36.7044 21.6792C36.5997 21.6187 36.4808 21.5869 36.3598 21.5869C36.2388 21.5869 36.12 21.6187 36.0152 21.6792L35.1261 22.1686L35.3053 21.0727C35.3228 20.9662 35.3151 20.8571 35.2828 20.7542C35.2505 20.6512 35.1945 20.5573 35.1192 20.4799L34.3335 19.6735L35.388 19.515C35.4991 19.4977 35.6043 19.4535 35.6944 19.3863C35.7845 19.319 35.8568 19.2307 35.9049 19.1291L36.3391 18.1848L36.7803 19.1291C36.8284 19.2307 36.9007 19.319 36.9908 19.3863C37.0809 19.4535 37.1861 19.4977 37.2972 19.515L38.3517 19.6735L37.6004 20.4799Z"
        fill="#1863DC" />
    <path
        d="M29.0537 10.1648L28.7022 12.3152C28.6868 12.4408 28.7064 12.5683 28.7586 12.6836C28.8109 12.7988 28.894 12.8975 28.9986 12.9687C29.1033 13.0399 29.2255 13.0809 29.352 13.0872C29.4784 13.0935 29.6041 13.0649 29.7153 13.0044L31.5142 12.0326L33.3131 13.032C33.4147 13.0868 33.5285 13.1153 33.644 13.1147C33.7868 13.1158 33.9265 13.0724 34.0437 12.9906C34.1519 12.9149 34.236 12.8097 34.2861 12.6875C34.3362 12.5653 34.3502 12.4313 34.3263 12.3014L33.9748 10.151L35.4566 8.63469C35.5429 8.54485 35.6031 8.43332 35.631 8.31196C35.659 8.1906 35.6535 8.06395 35.6152 7.94546C35.5747 7.82519 35.5018 7.71843 35.4045 7.63695C35.3072 7.55547 35.1893 7.50243 35.0638 7.48368L33.0443 7.17352L32.1414 5.24367C32.0866 5.12334 31.9983 5.02132 31.8871 4.94978C31.7759 4.87824 31.6465 4.8402 31.5142 4.8402C31.382 4.8402 31.2526 4.87824 31.1413 4.94978C31.0301 5.02132 30.9419 5.12334 30.887 5.24367L29.9841 7.17352L27.9647 7.48368C27.8392 7.50243 27.7213 7.55547 27.624 7.63695C27.5267 7.71843 27.4538 7.82519 27.4133 7.94546C27.375 8.06395 27.3695 8.1906 27.3974 8.31196C27.4253 8.43332 27.4856 8.54485 27.5718 8.63469L29.0537 10.1648ZM30.5562 8.48306C30.6673 8.46578 30.7725 8.42157 30.8626 8.35429C30.9527 8.28702 31.025 8.19872 31.0731 8.09709L31.5142 7.15285L31.9553 8.09709C32.0035 8.19872 32.0758 8.28702 32.1659 8.35429C32.256 8.42157 32.3612 8.46578 32.4723 8.48306L33.5268 8.64159L32.7411 9.44799C32.6658 9.52532 32.6098 9.61925 32.5774 9.7222C32.5451 9.82515 32.5374 9.93426 32.555 10.0407L32.7342 11.1366L31.8451 10.6473C31.7403 10.5868 31.6214 10.5549 31.5004 10.5549C31.3795 10.5549 31.2606 10.5868 31.1558 10.6473L30.2667 11.1366L30.4459 10.0407C30.4635 9.93426 30.4558 9.82515 30.4234 9.7222C30.3911 9.61925 30.3351 9.52532 30.2598 9.44799L29.4741 8.64159L30.5562 8.48306Z"
        fill="#1863DC" />
    <path
        d="M6.9985 10.1648L6.64699 12.3152C6.63163 12.4408 6.65118 12.5683 6.70347 12.6836C6.75577 12.7988 6.8388 12.8975 6.94346 12.9687C7.04812 13.0399 7.17037 13.0809 7.29679 13.0872C7.42322 13.0935 7.54893 13.0649 7.66016 13.0044L9.45906 12.0326L11.258 13.032C11.3596 13.0868 11.4733 13.1153 11.5888 13.1147C11.7317 13.1158 11.8714 13.0724 11.9885 12.9906C12.0967 12.9149 12.1809 12.8097 12.231 12.6875C12.2811 12.5653 12.295 12.4313 12.2711 12.3014L11.9196 10.151L13.4015 8.63469C13.4877 8.54485 13.548 8.43332 13.5759 8.31196C13.6038 8.1906 13.5983 8.06395 13.56 7.94546C13.5195 7.82519 13.4466 7.71843 13.3493 7.63695C13.252 7.55547 13.1341 7.50243 13.0086 7.48368L10.9892 7.17352L10.0863 5.24367C10.0314 5.12334 9.94315 5.02132 9.83194 4.94978C9.72073 4.87824 9.59129 4.8402 9.45906 4.8402C9.32682 4.8402 9.19738 4.87824 9.08617 4.94978C8.97496 5.02132 8.88668 5.12334 8.83185 5.24367L7.92896 7.17352L5.90951 7.48368C5.784 7.50243 5.6661 7.55547 5.56881 7.63695C5.47152 7.71843 5.39861 7.82519 5.35812 7.94546C5.31982 8.06395 5.31433 8.1906 5.34224 8.31196C5.37016 8.43332 5.43043 8.54485 5.51665 8.63469L6.9985 10.1648ZM8.50102 8.48306C8.61213 8.46578 8.71733 8.42157 8.80743 8.35429C8.89753 8.28702 8.96981 8.19872 9.01795 8.09709L9.45906 7.15285L9.90016 8.09709C9.9483 8.19872 10.0206 8.28702 10.1107 8.35429C10.2008 8.42157 10.306 8.46578 10.4171 8.48306L11.4716 8.64159L10.6859 9.44799C10.6106 9.52532 10.5546 9.61925 10.5223 9.7222C10.4899 9.82515 10.4822 9.93426 10.4998 10.0407L10.679 11.1366L9.78989 10.6473C9.68511 10.5868 9.56626 10.5549 9.44527 10.5549C9.32429 10.5549 9.20543 10.5868 9.10065 10.6473L8.21154 11.1366L8.39075 10.0407C8.40829 9.93426 8.40059 9.82515 8.36827 9.7222C8.33595 9.61925 8.27991 9.52532 8.20465 9.44799L7.41893 8.64159L8.50102 8.48306Z"
        fill="#1863DC" />
    <path
        d="M13.6981 28.8499L11.6786 28.5398L10.7757 26.6099C10.7209 26.4896 10.6326 26.3876 10.5214 26.316C10.4102 26.2445 10.2807 26.2065 10.1485 26.2065C10.0163 26.2065 9.88683 26.2445 9.77562 26.316C9.66442 26.3876 9.57613 26.4896 9.52131 26.6099L8.61841 28.5398L6.59896 28.8499C6.47345 28.8687 6.35555 28.9217 6.25826 29.0032C6.16097 29.0847 6.08806 29.1914 6.04758 29.3117C6.00927 29.4302 6.00379 29.5569 6.0317 29.6782C6.05961 29.7996 6.11988 29.9111 6.2061 30.0009L7.68795 31.5173L7.33644 33.6677C7.32109 33.7933 7.34063 33.9208 7.39293 34.036C7.44522 34.1513 7.52826 34.2499 7.63292 34.3211C7.73758 34.3923 7.85982 34.4333 7.98624 34.4396C8.11267 34.4459 8.23839 34.4173 8.34961 34.3569L10.1485 33.3989L11.9474 34.3982C12.049 34.4531 12.1628 34.4815 12.2782 34.481C12.4211 34.482 12.5608 34.4387 12.678 34.3569C12.7862 34.2812 12.8703 34.1759 12.9204 34.0537C12.9705 33.9316 12.9845 33.7975 12.9606 33.6677L12.6091 31.5173L14.0909 30.0009C14.1771 29.9111 14.2374 29.7996 14.2653 29.6782C14.2932 29.5569 14.2877 29.4302 14.2494 29.3117C14.209 29.1914 14.136 29.0847 14.0388 29.0032C13.9415 28.9217 13.8236 28.8687 13.6981 28.8499ZM11.3753 30.8142C11.3001 30.8916 11.244 30.9855 11.2117 31.0885C11.1794 31.1914 11.1717 31.3005 11.1892 31.407L11.3685 32.5029L10.4793 32.0135C10.3746 31.953 10.2557 31.9212 10.1347 31.9212C10.0137 31.9212 9.89488 31.953 9.79011 32.0135L8.901 32.5029L9.0802 31.407C9.09775 31.3005 9.09005 31.1914 9.05773 31.0885C9.0254 30.9855 8.96936 30.8916 8.89411 30.8142L8.10838 30.0078L9.16291 29.8493C9.27402 29.832 9.37921 29.7878 9.46931 29.7205C9.55942 29.6533 9.63169 29.565 9.67983 29.4633L10.1485 28.5191L10.5896 29.4633C10.6378 29.565 10.71 29.6533 10.8001 29.7205C10.8902 29.7878 10.9954 29.832 11.1065 29.8493L12.1611 30.0078L11.3753 30.8142Z"
        fill="#1863DC" />
    <path
        d="M35.0638 29.5403L33.0443 29.2302L32.1414 27.3003C32.0866 27.18 31.9983 27.078 31.8871 27.0064C31.7759 26.9349 31.6465 26.8969 31.5142 26.8969C31.382 26.8969 31.2526 26.9349 31.1413 27.0064C31.0301 27.078 30.9419 27.18 30.887 27.3003L29.9841 29.2302L27.9647 29.5403C27.8392 29.5591 27.7213 29.6121 27.624 29.6936C27.5267 29.7751 27.4538 29.8818 27.4133 30.0021C27.375 30.1206 27.3695 30.2473 27.3974 30.3686C27.4253 30.49 27.4856 30.6015 27.5718 30.6913L29.0537 32.2077L28.7022 34.3581C28.6868 34.4837 28.7064 34.6112 28.7586 34.7264C28.8109 34.8417 28.894 34.9403 28.9986 35.0115C29.1033 35.0827 29.2255 35.1237 29.352 35.13C29.4784 35.1363 29.6041 35.1077 29.7153 35.0473L31.5142 34.0893L33.3131 35.0886C33.4147 35.1435 33.5285 35.1719 33.644 35.1714C33.7868 35.1724 33.9265 35.1291 34.0437 35.0473C34.1519 34.9715 34.236 34.8663 34.2861 34.7441C34.3362 34.6219 34.3502 34.4879 34.3263 34.3581L33.9748 32.2077L35.4566 30.6913C35.5429 30.6015 35.6031 30.49 35.631 30.3686C35.659 30.2473 35.6535 30.1206 35.6152 30.0021C35.5747 29.8818 35.5018 29.7751 35.4045 29.6936C35.3072 29.6121 35.1893 29.5591 35.0638 29.5403ZM32.7411 31.5046C32.6658 31.582 32.6098 31.6759 32.5774 31.7789C32.5451 31.8818 32.5374 31.9909 32.555 32.0974L32.7342 33.1933L31.8451 32.7039C31.7403 32.6434 31.6214 32.6116 31.5004 32.6116C31.3795 32.6116 31.2606 32.6434 31.1558 32.7039L30.2667 33.1933L30.4459 32.0974C30.4635 31.9909 30.4558 31.8818 30.4234 31.7789C30.3911 31.6759 30.3351 31.582 30.2598 31.5046L29.4741 30.6982L30.5286 30.5397C30.6397 30.5224 30.7449 30.4782 30.835 30.4109C30.9251 30.3437 30.9974 30.2554 31.0456 30.1537L31.5142 29.2095L31.9553 30.1537C32.0035 30.2554 32.0758 30.3437 32.1659 30.4109C32.256 30.4782 32.3612 30.5224 32.4723 30.5397L33.5268 30.6982L32.7411 31.5046Z"
        fill="#1863DC" />
    <path
        d="M24.6222 17.2436V15.8651C24.6222 14.7683 24.1865 13.7165 23.4109 12.941C22.6354 12.1654 21.5836 11.7297 20.4868 11.7297C19.39 11.7297 18.3382 12.1654 17.5626 12.941C16.7871 13.7165 16.3514 14.7683 16.3514 15.8651V17.2436C15.803 17.2436 15.2771 17.4614 14.8893 17.8492C14.5015 18.237 14.2837 18.7629 14.2837 19.3113V24.8251C14.2837 25.3735 14.5015 25.8995 14.8893 26.2872C15.2771 26.675 15.803 26.8928 16.3514 26.8928H24.6222C25.1706 26.8928 25.6965 26.675 26.0843 26.2872C26.472 25.8995 26.6899 25.3735 26.6899 24.8251V19.3113C26.6899 18.7629 26.472 18.237 26.0843 17.8492C25.6965 17.4614 25.1706 17.2436 24.6222 17.2436ZM17.7299 15.8651C17.7299 15.1339 18.0203 14.4327 18.5373 13.9157C19.0544 13.3987 19.7556 13.1082 20.4868 13.1082C21.218 13.1082 21.9192 13.3987 22.4362 13.9157C22.9532 14.4327 23.2437 15.1339 23.2437 15.8651V17.2436H17.7299V15.8651ZM25.3114 24.8251C25.3114 25.0079 25.2388 25.1832 25.1095 25.3125C24.9803 25.4418 24.805 25.5144 24.6222 25.5144H16.3514C16.1686 25.5144 15.9933 25.4418 15.864 25.3125C15.7348 25.1832 15.6622 25.0079 15.6622 24.8251V19.3113C15.6622 19.1285 15.7348 18.9532 15.864 18.8239C15.9933 18.6947 16.1686 18.622 16.3514 18.622H24.6222C24.805 18.622 24.9803 18.6947 25.1095 18.8239C25.2388 18.9532 25.3114 19.1285 25.3114 19.3113V24.8251Z"
        fill="#1863DC" />
    <path
        d="M22.0651 20.2028L19.7976 22.4772L18.9085 21.5812C18.7787 21.4514 18.6026 21.3785 18.4191 21.3785C18.2356 21.3785 18.0595 21.4514 17.9297 21.5812C17.8 21.711 17.7271 21.887 17.7271 22.0706C17.7271 22.2541 17.8 22.4301 17.9297 22.5599L19.3082 23.9384C19.3723 24.003 19.4485 24.0543 19.5325 24.0893C19.6165 24.1243 19.7066 24.1423 19.7976 24.1423C19.8886 24.1423 19.9786 24.1243 20.0626 24.0893C20.1466 24.0543 20.2228 24.003 20.2869 23.9384L23.0439 21.1815C23.1736 21.0517 23.2466 20.8757 23.2466 20.6921C23.2466 20.5086 23.1736 20.3325 23.0439 20.2028C22.9141 20.073 22.738 20.0001 22.5545 20.0001C22.371 20.0001 22.1949 20.073 22.0651 20.2028Z"
        fill="#1863DC" />
</svg>