<svg width="45" height="45" viewBox="0 0 45 45" fill="none" xmlns="http://www.w3.org/2000/svg">
    <path fill-rule="evenodd" clip-rule="evenodd"
        d="M29.7415 23.6742C30.1139 23.6742 30.4157 23.976 30.4157 24.3484V29.0675H35.1348C35.5071 29.0675 35.809 29.3693 35.809 29.7416C35.809 30.1139 35.5071 30.4158 35.1348 30.4158H29.7415C29.3692 30.4158 29.0674 30.1139 29.0674 29.7416V24.3484C29.0674 23.976 29.3692 23.6742 29.7415 23.6742Z"
        fill="#1863DC" />
    <path fill-rule="evenodd" clip-rule="evenodd"
        d="M30.1909 36.4832C34.4108 36.4832 37.8314 33.0625 37.8314 28.8427C37.8314 24.6229 34.4108 21.2023 30.1909 21.2023C25.9711 21.2023 22.5505 24.6229 22.5505 28.8427C22.5505 33.0625 25.9711 36.4832 30.1909 36.4832ZM39.1797 28.8427C39.1797 33.8072 35.1554 37.8315 30.1909 37.8315C25.2264 37.8315 21.2021 33.8072 21.2021 28.8427C21.2021 23.8782 25.2264 19.8539 30.1909 19.8539C35.1554 19.8539 39.1797 23.8782 39.1797 28.8427Z"
        fill="#1863DC" />
    <path fill-rule="evenodd" clip-rule="evenodd" d="M3 3H16.2584V4.34831H4.34831V17.1573H3V3Z" fill="#1863DC" />
    <path fill-rule="evenodd" clip-rule="evenodd" d="M41.6518 4.34831H28.8428V3H43.0001V17.1573H41.6518V4.34831Z"
        fill="#1863DC" />
    <path fill-rule="evenodd" clip-rule="evenodd" d="M4.34831 41.6517V28.8427H3V43H16.2584V41.6517H4.34831Z"
        fill="#1863DC" />
    <path fill-rule="evenodd" clip-rule="evenodd"
        d="M22.2726 9.9399C22.3189 10.4071 21.9777 10.8233 21.5106 10.8696C16.2636 11.3899 12.1644 15.8189 12.1644 21.2035C12.1644 26.9397 16.8141 31.5895 22.5503 31.5895C23.0198 31.5895 23.4003 31.9701 23.4003 32.4395C23.4003 32.9089 23.0198 33.2895 22.5503 33.2895C15.8753 33.2895 10.4644 27.8786 10.4644 21.2035C10.4644 14.9365 15.2348 9.78353 21.3429 9.17792C21.81 9.1316 22.2263 9.47275 22.2726 9.9399Z"
        fill="#045AE8" />
    <path fill-rule="evenodd" clip-rule="evenodd"
        d="M21.6642 9.25482C22.0572 9.3858 22.2696 9.81054 22.1386 10.2035C21.7258 11.4418 22.5407 12.5871 23.7698 12.5871C24.0395 12.5871 24.2885 12.732 24.4218 12.9666C24.5551 13.2011 24.5522 13.4892 24.4141 13.721C23.3496 15.5079 23.4018 17.1473 24.1626 18.2476C24.9273 19.3535 26.5766 20.1583 29.2176 19.8942C29.6298 19.853 29.9973 20.1537 30.0385 20.5659C30.0797 20.978 29.6298 20.9588 29.2176 21C26.7097 21.7685 24.1066 20.8039 22.9289 19.1008C21.9194 17.6409 21.8453 15.7545 22.6423 13.8979C21.0041 13.3169 20.1282 11.4913 20.7155 9.72916C20.8465 9.3362 21.2713 9.12383 21.6642 9.25482ZM32.1012 11.8399C32.1511 11.8399 32.199 11.8201 32.2343 11.7848C32.2696 11.7495 32.2894 11.7016 32.2894 11.6517C32.2894 11.6018 32.2696 11.5539 32.2343 11.5186C32.199 11.4833 32.1511 11.4635 32.1012 11.4635C32.0513 11.4635 32.0034 11.4833 31.9681 11.5186C31.9328 11.5539 31.913 11.6018 31.913 11.6517C31.913 11.7016 31.9328 11.7495 31.9681 11.7848C32.0034 11.8201 32.0513 11.8399 32.1012 11.8399ZM31.1736 10.7241C31.4196 10.4781 31.7533 10.3399 32.1012 10.3399C32.4491 10.3399 32.7828 10.4781 33.0288 10.7241C33.2748 10.9702 33.413 11.3038 33.413 11.6517C33.413 11.9996 33.2748 12.3333 33.0288 12.5793C32.7828 12.8253 32.4491 12.9635 32.1012 12.9635C31.7533 12.9635 31.4196 12.8253 31.1736 12.5793C30.9276 12.3333 30.7894 11.9996 30.7894 11.6517C30.7894 11.3038 30.9276 10.9702 31.1736 10.7241ZM28.6844 13.9046C28.9909 14.1833 29.0135 14.6576 28.7348 14.9641L28.7236 14.9765C28.4449 15.283 27.9706 15.3055 27.6641 15.0269C27.3576 14.7483 27.3351 14.2739 27.6137 13.9674L27.6249 13.9551C27.9036 13.6486 28.3779 13.626 28.6844 13.9046ZM33.1788 17.2754C33.4853 17.5541 33.5078 18.0284 33.2292 18.3349L33.218 18.3473C32.9393 18.6537 32.465 18.6763 32.1585 18.3977C31.852 18.119 31.8294 17.6447 32.1081 17.3382L32.1193 17.3259C32.398 17.0194 32.8723 16.9968 33.1788 17.2754ZM16.3709 18.5815C16.4208 18.5815 16.4687 18.5617 16.504 18.5264C16.5393 18.4911 16.5591 18.4432 16.5591 18.3933C16.5591 18.3434 16.5393 18.2955 16.504 18.2602C16.4687 18.2249 16.4208 18.2051 16.3709 18.2051C16.321 18.2051 16.2731 18.2249 16.2378 18.2602C16.2025 18.2955 16.1827 18.3434 16.1827 18.3933C16.1827 18.4432 16.2025 18.4911 16.2378 18.5264C16.2731 18.5617 16.321 18.5815 16.3709 18.5815ZM15.4433 17.4657C15.6893 17.2197 16.023 17.0815 16.3709 17.0815C16.7188 17.0815 17.0525 17.2197 17.2985 17.4657C17.5445 17.7117 17.6827 18.0454 17.6827 18.3933C17.6827 18.7412 17.5445 19.0749 17.2985 19.3209C17.0525 19.5669 16.7188 19.7051 16.3709 19.7051C16.023 19.7051 15.6893 19.5669 15.4433 19.3209C15.1973 19.0749 15.0591 18.7412 15.0591 18.3933C15.0591 18.0454 15.1973 17.7117 15.4433 17.4657ZM21.9428 20.6462C22.2493 20.9248 22.2719 21.3991 21.9933 21.7057L21.982 21.718C21.7034 22.0245 21.2291 22.0471 20.9226 21.7685C20.6161 21.4899 20.5935 21.0155 20.8721 20.709L20.8833 20.6967C21.162 20.3902 21.6363 20.3676 21.9428 20.6462ZM17.4484 24.017C17.7549 24.2956 17.7775 24.7699 17.4989 25.0764L17.4877 25.0888C17.2091 25.3953 16.7347 25.4179 16.4282 25.1393C16.1217 24.8607 16.0991 24.3863 16.3777 24.0798L16.3889 24.0675C16.6675 23.761 17.1419 23.7383 17.4484 24.017ZM22.2865 26.619C22.5794 26.9119 22.5794 27.3868 22.2865 27.6797C22.2164 27.7497 22.1771 27.8448 22.1771 27.9439C22.1771 28.0429 22.2164 28.138 22.2865 28.208C22.5794 28.5009 22.5794 28.9758 22.2865 29.2687C21.9936 29.5616 21.5187 29.5616 21.2258 29.2687C20.8745 28.9173 20.6771 28.4408 20.6771 27.9439C20.6771 27.447 20.8745 26.9704 21.2258 26.619C21.5187 26.3261 21.9936 26.3261 22.2865 26.619Z"
        fill="#045AE8" />
    <path fill-rule="evenodd" clip-rule="evenodd"
        d="M42.2136 39.8801C42.8593 40.6179 42.7845 41.7395 42.0466 42.3851C41.3087 43.0308 40.1872 42.956 39.5415 42.2181L34.5702 36.5256C34.2977 36.2136 34.3297 35.7398 34.6417 35.4674C34.9537 35.1949 35.4275 35.227 35.7 35.5389L40.6704 41.2304C40.6705 41.2304 40.6703 41.2303 40.6704 41.2304C40.7705 41.3446 40.9445 41.3563 41.0588 41.2563C41.1721 41.1572 41.1846 40.9859 41.0879 40.8714L35.9282 35.1907C35.6497 34.8841 35.6725 34.4098 35.9791 34.1313C36.2857 33.8528 36.7601 33.8756 37.0386 34.1822L42.2136 39.8801Z"
        fill="#1863DC" />
</svg>