<svg width="20" height="21" viewBox="0 0 20 21" fill="none" xmlns="http://www.w3.org/2000/svg">
<path d="M8.56791 3.65638L1.47446 15.4983C1.32821 15.7516 1.25083 16.0388 1.25001 16.3312C1.24919 16.6237 1.32496 16.9113 1.46979 17.1654C1.61462 17.4194 1.82346 17.6312 2.07553 17.7795C2.32759 17.9278 2.6141 18.0076 2.90655 18.0108H17.0934C17.3859 18.0076 17.6724 17.9278 17.9245 17.7795C18.1765 17.6312 18.3854 17.4194 18.5302 17.1654C18.675 16.9113 18.7508 16.6237 18.75 16.3312C18.7492 16.0388 18.6718 15.7516 18.5255 15.4983L11.4321 3.65638C11.2828 3.41025 11.0726 3.20675 10.8217 3.06552C10.5709 2.92429 10.2879 2.8501 10 2.8501C9.71213 2.8501 9.42912 2.92429 9.17827 3.06552C8.92742 3.20675 8.71721 3.41025 8.56791 3.65638Z" stroke="#A6742A" stroke-width="1.5" stroke-linecap="round" stroke-linejoin="round"/>
<path d="M10 8.625V11.125" stroke="#A6742A" stroke-width="1.5" stroke-linecap="round" stroke-linejoin="round"/>
<path d="M10 14.25H10.0083" stroke="#A6742A" stroke-width="1.5" stroke-linecap="round" stroke-linejoin="round"/>
</svg>
