<svg width="54" height="45" viewBox="0 0 54 45" fill="none" xmlns="http://www.w3.org/2000/svg">
<path d="M48.6329 5.18102C46.0982 5.22892 43.993 7.71963 44.1219 10.5456C44.1649 12.1263 44.8523 13.4674 45.8834 14.3775C40.5561 22.3286 35.1429 22.9513 28.8704 9.77926C31.1045 8.5339 32.3504 5.37261 30.7178 2.21132C29.9445 0.678577 28.3549 -0.0877971 26.7653 0.00799956C26.7223 0.00799956 26.7223 0.00799956 26.6794 0.00799956C26.6794 0.00799956 26.6364 0.00799956 26.5934 0.00799956C25.0039 -0.0398988 23.4572 0.678577 22.6409 2.21132C21.0084 5.37261 22.2543 8.5339 24.4883 9.77926C18.2159 22.9513 12.8027 22.3286 7.47538 14.3775C8.50647 13.4674 9.19386 12.0784 9.23682 10.5456C9.32274 7.71963 7.26057 5.22892 4.72582 5.18102C2.10514 5.13312 0 7.43224 0 10.354C0 13.18 2.06217 15.5271 4.63989 15.5271C4.81174 15.5271 5.02655 15.5271 5.1984 15.4792L6.95984 34.7343C7.08872 36.267 8.2487 37.4166 9.62348 37.4166H26.6794H43.7353C45.1101 37.4166 46.27 36.267 46.3989 34.7343L48.1604 15.4792C48.3322 15.5271 48.504 15.5271 48.7189 15.5271C51.2536 15.5271 53.3587 13.2279 53.3587 10.354C53.3587 7.43224 51.2106 5.13312 48.6329 5.18102Z" fill="#2D9FFF"/>
<rect x="7.30469" y="40.2346" width="38.6658" height="4.31085" rx="2.15543" fill="#2D9FFF"/>
</svg>
