<svg width="112" height="82" viewBox="0 0 112 82" fill="none" xmlns="http://www.w3.org/2000/svg">
<path d="M23.3438 52.874L30.2262 30.5085L54.0251 51.7273L59.4742 51.1539L76.966 30.5085L89.5822 51.1539L76.6773 61.5803H45.4226L23.3438 52.874Z" fill="#FFA000"/>
<path d="M102.381 27.4384L75.9367 41.3863L55.0677 18.5389L36.362 41.0264L10.54 27.4445L17.453 69.3431C17.5391 69.8503 17.8024 70.3105 18.1959 70.6418C18.5894 70.9732 19.0877 71.1542 19.6021 71.1527H93.3411C93.8544 71.1516 94.3507 70.969 94.7422 70.637C95.1337 70.3051 95.3951 69.8453 95.4801 69.3391L102.381 27.4384Z" fill="#FFC107"/>
<path d="M56.473 79.8305C76.8349 79.8305 93.3415 74.9759 93.3415 68.9873C93.3415 62.9988 76.8349 58.1442 56.473 58.1442C36.1111 58.1442 19.6045 62.9988 19.6045 68.9873C19.6045 74.9759 36.1111 79.8305 56.473 79.8305Z" fill="#FFA000"/>
<path d="M56.473 82C37.0699 82 17.4351 77.5269 17.4351 68.9874C17.4351 60.4478 37.0699 55.9747 56.473 55.9747C75.8761 55.9747 95.5109 60.4478 95.5109 68.9874C95.5109 77.5269 75.8801 82 56.473 82ZM56.473 60.3116C33.7009 60.3116 21.7719 65.9518 21.7719 68.9874C21.7719 72.023 33.6907 77.6591 56.473 77.6591C79.2553 77.6591 91.172 72.0189 91.172 68.9833C91.172 65.9477 79.2533 60.3116 56.473 60.3116Z" fill="#FFD54F"/>
<path d="M56.4625 52.319C59.9278 52.319 62.7371 49.5098 62.7371 46.0444C62.7371 42.5791 59.9278 39.7699 56.4625 39.7699C52.9972 39.7699 50.188 42.5791 50.188 46.0444C50.188 49.5098 52.9972 52.319 56.4625 52.319Z" fill="#FFD54F"/>
<path d="M63.0586 47.9028C62.1945 44.7554 59.7709 45.0665 58.4717 45.4873C61.5967 44.4707 61.3365 42.2708 60.938 40.9655C61.3446 42.2708 62.7679 44.4789 65.4578 43.3504C63.2742 44.2755 62.3938 45.4812 63.0586 47.9028Z" fill="white"/>
<path d="M53.1525 10.5443C53.1525 8.57208 49.8526 5.27216 47.8804 5.27216C49.8526 5.27216 53.1525 1.97223 53.1525 0C53.1525 1.97223 56.4525 5.27216 58.4247 5.27216C56.4525 5.27623 53.1525 8.57208 53.1525 10.5443Z" fill="#FFD83B"/>
<path d="M5.27215 66.8524C5.27215 64.8802 1.9702 61.5803 0 61.5803C1.9702 61.5803 5.27215 58.2783 5.27215 56.3081C5.27215 58.2783 8.57208 61.5803 10.5443 61.5803C8.58021 61.5803 5.27215 64.8802 5.27215 66.8524Z" fill="#FFD83B"/>
<path d="M31.1693 25.9073C31.1693 25.2181 30.0164 24.0652 29.3271 24.0652C30.0164 24.0652 31.1693 22.9124 31.1693 22.2231C31.1693 22.9124 32.3221 24.0652 33.0114 24.0652C32.3221 24.0652 31.1693 25.2201 31.1693 25.9073Z" fill="#FFD83B"/>
<path d="M81.0443 25.9073C81.0443 25.2181 79.8914 24.0652 79.2021 24.0652C79.8914 24.0652 81.0443 22.9124 81.0443 22.2231C81.0443 22.9124 82.1971 24.0652 82.8864 24.0652C82.1971 24.0652 81.0443 25.2201 81.0443 25.9073Z" fill="#FFD83B"/>
<path d="M8.95618 19.8199C8.95618 18.4435 6.6505 16.1357 5.27197 16.1357C6.6505 16.1357 8.95618 13.8301 8.95618 12.4515C8.95618 13.8301 11.2619 16.1357 12.6404 16.1357C11.2619 16.1378 8.95618 18.4435 8.95618 19.8199Z" fill="#FFD83B"/>
<path d="M107.891 20.2509C107.891 18.8724 105.584 16.5647 104.207 16.5647C105.584 16.5647 107.891 14.259 107.891 12.8805C107.891 14.259 110.197 16.5647 111.575 16.5647C110.197 16.5667 107.891 18.8724 107.891 20.2509Z" fill="#FFD83B"/>
<path d="M106.419 70.3395C106.419 68.5848 103.481 65.6468 101.727 65.6468C103.481 65.6468 106.419 62.7088 106.419 60.9541C106.419 62.7088 109.357 65.6468 111.112 65.6468C109.357 65.663 106.419 68.5929 106.419 70.3395Z" fill="#FFD83B"/>
</svg>
