<?xml version="1.0" encoding="utf-8"?>
<!-- Generator: Adobe Illustrator 25.1.0, SVG Export Plug-In . SVG Version: 6.00 Build 0)  -->
<svg version="1.1" id="Layer_1" xmlns="http://www.w3.org/2000/svg" xmlns:xlink="http://www.w3.org/1999/xlink" x="0px" y="0px"
	 viewBox="0 0 300 60" style="enable-background:new 0 0 300 60;" xml:space="preserve">
<style type="text/css">
	.st0{fill:#404041;}
	.st1{fill:#0056A7;}
	.st2{fill:#2E3191;}
</style>
<g>
	<path class="st0" d="M22.3,11.5C32.2,11.5,39.6,17,42,26H30.9c-1.7-3.6-4.9-5.3-8.7-5.3c-6.2,0-10.5,4.6-10.5,12s4.3,12,10.5,12
		c3.8,0,7-1.8,8.7-5.3H42c-2.4,9-9.8,14.5-19.7,14.5C10,53.8,1.4,45.1,1.4,32.6S10,11.5,22.3,11.5z"/>
	<path class="st0" d="M62.2,54c-9.7,0-17-6.5-17-17s7.5-17,17.2-17c9.7,0,17.2,6.5,17.2,17S71.9,54,62.2,54z M62.2,45.2
		c3.6,0,7-2.7,7-8.2c0-5.6-3.3-8.2-6.9-8.2c-3.7,0-6.9,2.6-6.9,8.2C55.5,42.5,58.5,45.2,62.2,45.2z"/>
	<path class="st0" d="M99.7,54c-9.7,0-17-6.5-17-17s7.5-17,17.2-17c9.7,0,17.2,6.5,17.2,17S109.4,54,99.7,54z M99.7,45.2
		c3.6,0,7-2.7,7-8.2c0-5.6-3.3-8.2-6.9-8.2c-3.7,0-6.9,2.6-6.9,8.2C92.9,42.5,96,45.2,99.7,45.2z"/>
	<path class="st0" d="M120.7,11.5h10.1v22.4l10-13.4h12.5L139.6,37l13.9,16.5h-12.5l-10.1-13.9v13.9h-10.1V11.5z"/>
	<path class="st0" d="M155.7,11.6c0-3.1,2.4-5.5,6-5.5c3.6,0,6,2.4,6,5.5c0,3-2.4,5.4-6,5.4C158.1,17,155.7,14.6,155.7,11.6z
		 M156.7,20.4h10.1v33h-10.1V20.4z"/>
	<path class="st0" d="M187.2,54c-9.7,0-16.7-6.5-16.7-17s6.9-17,16.7-17c9.6,0,16.5,6.4,16.5,16.5c0,0.9-0.1,2-0.2,3h-22.9
		c0.4,4.3,3,6.3,6.3,6.3c2.8,0,4.4-1.4,5.3-3.2h10.8C201.3,49,195.5,54,187.2,54z M180.7,33.8h12.7c0-3.6-2.8-5.7-6.2-5.7
		C183.8,28.1,181.3,30.1,180.7,33.8z"/>
	<path class="st0" d="M250.4,54c-9.7,0-16.7-6.5-16.7-17s6.9-17,16.7-17c9.6,0,16.5,6.4,16.5,16.5c0,0.9-0.1,2-0.2,3h-22.9
		c0.4,4.3,3,6.3,6.3,6.3c2.8,0,4.4-1.4,5.3-3.2h10.8C264.5,49,258.6,54,250.4,54z M243.8,33.8h12.7c0-3.6-2.8-5.7-6.2-5.7
		C247,28.1,244.4,30.1,243.8,33.8z"/>
	<path class="st0" d="M285.2,54c-8.8,0-14.7-4.9-15.2-11.3h10c0.2,2.3,2.3,3.8,5.1,3.8c2.6,0,4-1.2,4-2.7c0-5.3-18-1.5-18-13.6
		c0-5.6,4.8-10.2,13.4-10.2c8.5,0,13.3,4.7,13.9,11.2h-9.4c-0.3-2.2-2-3.7-4.9-3.7c-2.4,0-3.7,0.9-3.7,2.5c0,5.3,17.9,1.5,18.1,13.9
		C298.6,49.6,293.5,54,285.2,54z"/>
	<g>
		<g>
			<path class="st1" d="M214.2,21h-10.5l9.6,17.8h10.5L214.2,21z"/>
		</g>
		<g>
			<g>
				<path class="st2" d="M213.1,38.3l0.3,0.5h10.5L217,26.3L213.1,38.3z"/>
			</g>
		</g>
		<g>
			<path class="st1" d="M232.3,6l-18.9,32.8h10.5L242.8,6H232.3z"/>
		</g>
		<g>
			<path class="st1" d="M213.4,43.7h10.2V54h-10.2V43.7z"/>
		</g>
	</g>
</g>
</svg>
