<svg width="84" height="84" viewBox="0 0 84 84" fill="none" xmlns="http://www.w3.org/2000/svg">
<circle cx="42" cy="42" r="42" fill="white"/>
<g clip-path="url(#clip0_351_1979)">
<path d="M41.5701 66.3125C39.4494 65.8011 37.2936 65.4048 35.2169 64.751C32.2475 63.8167 29.6733 62.1267 27.3441 60.0582C25.8994 58.777 25.6739 57.3453 26.7273 56.1395C27.7631 54.9539 29.2154 54.9938 30.6696 56.249C40.9582 65.127 56.3727 61.5444 61.2189 48.9888C64.1656 41.3546 62.7523 34.2482 57.0505 28.4173C51.2632 22.5016 44.121 20.9926 36.4594 24.0201C29.0684 26.9406 25.0727 32.7177 24.3855 40.7349C24.3566 41.0729 24.3817 41.416 24.3817 41.897C25.0827 41.897 25.6927 41.842 26.2888 41.9097C27.3642 42.0312 27.917 43.0376 27.3146 43.9352C25.8623 46.0936 24.3585 48.2204 22.7868 50.2921C22.1587 51.1181 21.2792 51.0244 20.6674 50.1952C19.1768 48.1697 17.7107 46.1278 16.3074 44.0422C15.6132 43.0111 16.1817 42.0002 17.433 41.9008C17.9933 41.8565 18.5599 41.8932 18.9444 41.8932C19.4664 39.2898 19.7446 36.7662 20.4865 34.3951C23.8289 23.7068 34.0108 16.7302 45.0174 17.6031C56.8972 18.5462 65.8541 27.121 67.4183 38.6176C67.4591 38.9183 67.5772 39.2075 67.6595 39.5038V44.2821C67.5772 44.5758 67.4647 44.8644 67.417 45.1638C65.9816 54.1937 61.1473 60.6582 52.8229 64.2756C50.4516 65.3055 47.7889 65.6542 45.2593 66.315L41.5701 66.3125Z" fill="#2270B1"/>
<path d="M44.9899 52.9427C44.8015 54.3352 45.3756 56.1259 43.2662 56.4493C42.1004 56.6278 41.677 55.8581 41.3039 53.18C40.1104 52.9446 38.903 52.7598 37.7234 52.4572C36.2202 52.0717 35.5367 51.0153 35.8696 49.7639C36.2277 48.4176 37.2786 48.0201 38.9068 48.3461C40.3573 48.6394 41.8321 48.7937 43.3115 48.8069C44.4579 48.8132 45.5157 48.2809 45.7443 46.989C45.9768 45.673 45.0615 44.9635 44.037 44.4527C43.2951 44.0805 42.4936 43.8305 41.7341 43.4906C40.6556 43.0082 39.5243 42.6044 38.5305 41.9746C34.5555 39.4617 34.6768 34.1473 38.7523 31.7807C39.611 31.2819 40.5821 30.9793 41.5746 30.5546C41.6952 29.2747 41.2769 27.5746 43.3033 27.3138C44.4139 27.1708 44.8178 27.8632 45.2437 30.3476C46.218 30.523 47.2174 30.6375 48.181 30.892C49.4744 31.2332 50.0743 32.32 49.7369 33.5175C49.4298 34.6081 48.3927 35.0867 47.1137 34.8784C45.8674 34.6759 44.5973 34.4986 43.3404 34.517C42.3083 34.5296 41.3032 34.9297 41.079 36.1513C40.8717 37.2805 41.6714 37.8736 42.5169 38.2781C44.2129 39.0914 46.0025 39.725 47.6678 40.5947C50.5843 42.1139 51.7163 44.5502 51.0598 47.615C50.6201 49.6607 49.3562 51.071 47.5302 51.9692C46.7538 52.3528 45.907 52.5971 44.9899 52.9427Z" fill="#2270B1"/>
</g>
<defs>
<clipPath id="clip0_351_1979">
<rect width="51.6518" height="48.7822" fill="white" transform="translate(16.0078 17.5311)"/>
</clipPath>
</defs>
</svg>
