<svg width="84" height="84" viewBox="0 0 84 84" fill="none" xmlns="http://www.w3.org/2000/svg">
<circle cx="42" cy="42" r="42" fill="white"/>
<g clip-path="url(#clip0_351_1999)">
<path d="M23.1845 40.1135C23.1259 40.6574 23.047 41.1654 23.0165 41.6734C22.7568 45.5665 23.666 49.4483 25.6258 52.8133C27.2648 55.6758 29.6107 58.0622 32.4356 59.7405C34.9082 61.2262 37.685 62.123 40.5538 62.3626C44.5199 62.7193 48.4958 61.7966 51.9077 59.7277C54.8397 57.9946 57.2782 55.5281 58.9873 52.567C60.1354 50.6043 60.8508 48.4774 61.4312 46.2941C61.6679 45.3961 62.0829 45.1729 62.9586 45.4218C64.2875 45.799 65.6189 46.1658 66.9452 46.5481C67.6274 46.7456 67.8718 47.1818 67.7089 47.854C66.8663 51.2586 65.6036 54.4784 63.6052 57.375C59.9903 62.6114 55.1917 66.2546 49.0947 67.9608C40.6659 70.316 32.9473 68.6483 26.1044 63.2144C21.3643 59.448 18.4113 54.463 17.0875 48.521C16.3619 45.3068 16.2831 41.9786 16.8559 38.7332C16.9144 38.4023 16.8151 38.2842 16.5045 38.2047C15.6161 37.9764 14.7378 37.7121 13.8596 37.4581C12.9202 37.1887 12.7216 36.4113 13.4268 35.7161C16.4189 32.757 19.4151 29.8014 22.4157 26.8492C23.0776 26.1976 23.8667 26.4003 24.0958 27.2931C25.1566 31.4203 26.2096 35.551 27.2551 39.6851C27.474 40.5445 26.8732 41.1116 26.0102 40.8807C25.2287 40.6703 24.4497 40.4419 23.6682 40.2239C23.5282 40.1828 23.378 40.1571 23.1845 40.1135Z" fill="#2270B1" stroke="white" stroke-width="0.25"/>
<path d="M40.4269 16.9999C41.1473 16.9743 41.5139 17.3027 41.5827 18.0262C41.715 19.4578 41.8508 20.8886 41.99 22.3185C42.0663 23.0881 41.7354 23.5269 40.9564 23.6013C40.5975 23.6372 40.2385 23.6782 39.8796 23.6987C39.2177 23.7398 38.8206 23.4601 38.7493 22.8085C38.5796 21.2588 38.4353 19.7075 38.3165 18.1545C38.2707 17.5618 38.6195 17.2026 39.2177 17.1102H39.3068L40.4269 16.9999Z" fill="#2270B1" stroke="white" stroke-width="0.25"/>
<path d="M61.3242 39.8801C61.3242 39.1745 61.561 38.8205 62.1618 38.7307C63.6892 38.5083 65.2166 38.3057 66.744 38.1227C66.8679 38.1024 66.9946 38.1082 67.1162 38.1396C67.2377 38.171 67.3515 38.2273 67.4505 38.3051C67.5494 38.3829 67.6314 38.4805 67.6911 38.5917C67.7509 38.7029 67.7873 38.8254 67.7979 38.9514C67.876 39.3824 67.9371 39.8159 67.9812 40.2521C68.0398 40.8858 67.7648 41.2784 67.1386 41.381C65.6265 41.6034 64.1101 41.8052 62.5894 41.9865C61.9657 42.0609 61.589 41.7556 61.4744 41.1244C61.4057 40.6806 61.3675 40.2265 61.3242 39.8801Z" fill="#2270B1" stroke="white" stroke-width="0.25"/>
<path d="M32.2514 26.2363C32.0198 26.0516 31.671 25.8977 31.5259 25.6308C30.78 24.2685 30.0748 22.8831 29.3798 21.4925C29.315 21.3847 29.2732 21.2644 29.2573 21.1393C29.2414 21.0142 29.2516 20.8872 29.2873 20.7664C29.3231 20.6455 29.3835 20.5335 29.4648 20.4376C29.546 20.3418 29.6463 20.2641 29.7592 20.2097C30.1703 19.9636 30.5953 19.7417 31.032 19.5452C31.1349 19.4869 31.2486 19.4507 31.366 19.4386C31.4834 19.4265 31.6021 19.4389 31.7145 19.475C31.827 19.5111 31.9309 19.5701 32.0197 19.6483C32.1086 19.7266 32.1805 19.8225 32.231 19.93C32.9769 21.3283 33.7101 22.7317 34.3949 24.1607C34.4551 24.3094 34.4804 24.4702 34.469 24.6304C34.4575 24.7906 34.4095 24.9459 34.3287 25.0844C33.8272 25.677 33.0762 25.9054 32.2514 26.2363Z" fill="#2270B1" stroke="white" stroke-width="0.25"/>
<path d="M65.3283 31.3777C65.1348 31.6342 64.9846 31.9626 64.7224 32.1191C63.4088 32.9068 62.0723 33.6585 60.7282 34.3974C60.6246 34.4661 60.5079 34.5121 60.3856 34.5325C60.2633 34.5528 60.1382 34.5471 60.0182 34.5157C59.8982 34.4842 59.7861 34.4278 59.6892 34.35C59.5922 34.2722 59.5126 34.1747 59.4553 34.0639C59.1949 33.6576 58.9586 33.236 58.7476 32.8015C58.6861 32.7 58.6458 32.5868 58.6294 32.4689C58.6131 32.351 58.6209 32.231 58.6524 32.1162C58.6839 32.0015 58.7384 31.8945 58.8126 31.8019C58.8868 31.7093 58.979 31.633 59.0836 31.5778C60.4583 30.7696 61.8406 29.9794 63.2459 29.2328C63.3855 29.1716 63.5374 29.1442 63.6895 29.1526C63.8415 29.1611 63.9895 29.2052 64.1216 29.2815C64.7147 29.7947 65.0075 30.5233 65.3283 31.3777Z" fill="#2270B1" stroke="white" stroke-width="0.25"/>
<path d="M59.3758 23.7708C59.2774 24.0214 59.1555 24.2619 59.0118 24.4892C58.0869 25.6865 57.1534 26.8701 56.2115 28.04C56.1397 28.1486 56.0459 28.2406 55.9361 28.3099C55.8264 28.3792 55.7033 28.4241 55.575 28.4419C55.4467 28.4596 55.3161 28.4496 55.1919 28.4126C55.0678 28.3756 54.9528 28.3125 54.8547 28.2273C54.4748 27.9556 54.111 27.6618 53.7651 27.3473C53.664 27.2723 53.5798 27.1766 53.5179 27.0665C53.4561 26.9564 53.4181 26.8343 53.4063 26.7084C53.3945 26.5824 53.4093 26.4554 53.4496 26.3355C53.49 26.2157 53.555 26.1059 53.6404 26.0132C54.5823 24.797 55.5361 23.5904 56.5017 22.3931C56.904 21.9005 57.3876 21.8568 57.8942 22.2289C58.2521 22.4812 58.5923 22.7581 58.9125 23.0576C59.0911 23.2785 59.2464 23.5175 59.3758 23.7708V23.7708Z" fill="#2270B1" stroke="white" stroke-width="0.25"/>
<path d="M50.9922 19.2526C50.9183 19.5091 50.8216 19.8555 50.7198 20.2018C50.3761 21.3769 50.0401 22.5519 49.6811 23.7219C49.4265 24.5172 49.032 24.7276 48.2479 24.4916C47.8737 24.3812 47.4842 24.2863 47.1278 24.1503C46.5805 23.9476 46.3462 23.5372 46.5066 22.9676C46.9292 21.4556 47.3722 19.9495 47.8355 18.4495C47.865 18.3343 47.9174 18.2264 47.9895 18.1322C48.0616 18.0381 48.1519 17.9596 48.2549 17.9015C48.3579 17.8435 48.4715 17.8071 48.5889 17.7946C48.7063 17.782 48.825 17.7936 48.9378 17.8286C49.4186 17.9414 49.8928 18.081 50.3583 18.2468C50.7681 18.3956 50.9845 18.7035 50.9922 19.2526Z" fill="#2270B1" stroke="white" stroke-width="0.25"/>
<path d="M40.6244 44.4987C42.5456 46.427 44.7714 48.2724 45.6512 47.3887C46.9098 46.1247 47.6865 45.0228 50.4632 47.2644C53.2388 49.5047 51.1065 50.9991 49.8868 52.2228C48.479 53.6367 43.2313 52.2984 38.0443 47.0901C32.8585 41.8805 31.5296 36.6101 32.9386 35.1962C34.1583 33.97 35.6389 31.8296 37.8695 34.6172C40.1014 37.4048 39.0055 38.1849 37.7445 39.4501C36.8683 40.3338 38.7045 42.5692 40.6244 44.4987Z" fill="#2270B1" stroke="#2270B1" stroke-width="0.5"/>
</g>
<defs>
<clipPath id="clip0_351_1999">
<rect width="55" height="52" fill="white" transform="translate(13 17)"/>
</clipPath>
</defs>
</svg>
