<?xml version="1.0"?>
<svg xmlns="http://www.w3.org/2000/svg" xmlns:xlink="http://www.w3.org/1999/xlink" version="1.1" id="Layer_1" x="0px" y="0px" viewBox="0 0 512 512" style="enable-background:new 0 0 512 512;" xml:space="preserve" width="512px" height="512px" class=""><g><g>
	<g>
		<path d="M256,0C114.51,0,0,114.497,0,256c0,141.49,114.497,256,256,256c141.49,0,256-114.497,256-256C512,114.51,397.503,0,256,0z     M273.063,370.811c0,9.425-7.641,17.067-17.067,17.067s-17.067-7.641-17.067-17.067V226.843c0-9.425,7.641-17.067,17.067-17.067    s17.067,7.641,17.067,17.067V370.811z M256,192.389c-18.821,0-34.133-15.312-34.133-34.133c0-18.821,15.312-34.133,34.133-34.133    s34.133,15.312,34.133,34.133S274.821,192.389,256,192.389z" data-original="#000000" class="active-path" data-old_color="#000000" fill="#888888"/>
	</g>
</g></g> </svg>
