<svg width="56" height="56" viewBox="0 0 56 56" fill="none" xmlns="http://www.w3.org/2000/svg">
<mask id="mask0" mask-type="alpha" maskUnits="userSpaceOnUse" x="0" y="0" width="56" height="56">
<circle cx="28.1229" cy="28.1231" r="27.1721" fill="#C4C4C4"/>
</mask>
<g mask="url(#mask0)">
<path d="M48.8203 23.6771C49.2602 23.4132 49.3477 21.7876 49.3921 21.3052C49.5236 20.2069 50.8853 19.724 51.7641 20.2944C53.3017 21.3926 54.092 23.5016 54.311 25.3022C54.5309 27.1468 54.3555 29.6067 53.0378 31.0564C51.6321 32.638 48.074 33.1214 45.9659 32.9014C45.3951 32.8574 44.8677 32.7255 44.3404 32.638L43.3301 23.5886L44.4293 23.8086C45.527 24.028 47.7675 24.2485 48.7778 23.6771H48.8203Z" fill="#999966"/>
<path d="M52.2433 21.9389C51.9799 21.5875 51.6724 21.2361 51.321 21.0166C50.9696 20.7527 50.3108 20.9726 50.2658 21.412L50.2228 21.719C50.8821 21.4995 51.6285 21.6755 52.2433 21.9389ZM53.4735 28.1325C53.7369 26.7268 53.605 25.1012 53.1221 23.696C52.7707 23.2566 52.4188 22.9057 51.7599 22.6418C50.9251 22.2903 50.4862 22.4223 50.0923 22.7737C50.0478 23.1251 49.9589 23.3886 49.8723 23.652C52.1563 24.3988 53.1226 26.5948 53.474 28.176V28.1325H53.4735ZM46.7966 24.8817C46.0063 24.8817 45.1715 24.7937 44.3372 24.6183L45.127 31.9096C46.1827 32.1295 47.4114 32.1295 48.5092 31.998C49.3 29.1867 48.5092 25.8925 46.7531 24.8382L46.7966 24.8817ZM49.2565 24.3988C48.9496 24.5743 48.5087 24.7063 47.9833 24.7938C49.5639 26.4633 50.0473 29.4941 49.475 31.8661C50.7932 31.6026 51.8909 31.1193 52.4623 30.5044C52.5942 30.3724 52.6817 30.1965 52.8142 30.065C52.8142 27.5611 51.8039 24.8817 49.388 24.3548C49.3435 24.3988 49.3435 24.3988 49.299 24.3988H49.2565Z" fill="#C0C0A0"/>
<path d="M48.8176 29.128C47.7634 29.3919 46.6216 29.4359 45.7864 29.3479C45.4354 29.3039 45.1275 29.2599 44.8201 29.172L44.2932 24.648C45.1275 24.8235 45.9628 24.9114 46.7531 24.9114C47.8953 25.6143 48.6431 27.2834 48.7746 29.128H48.8176ZM52.0248 22.759C52.0674 23.0229 52.1118 23.2863 52.1558 23.5493C52.2438 24.0766 52.2438 24.6915 52.1998 25.3069C51.628 24.604 50.8821 23.9892 49.8724 23.6377C49.9594 23.3743 50.0478 23.1104 50.0918 22.759C50.4418 22.4515 50.9252 22.2756 51.7599 22.6275C51.8489 22.671 51.9364 22.715 52.0248 22.759ZM51.3655 21.0459C51.4975 21.2658 51.5845 21.4853 51.6729 21.7047C51.1896 21.5732 50.7067 21.5288 50.1793 21.6612L50.2233 21.3538C50.2663 20.9139 50.9252 20.6944 51.2775 20.9584L51.366 21.0019V21.0459H51.3655ZM49.257 24.3846C48.9496 24.56 48.5092 24.6915 47.9833 24.7795C48.9496 25.7897 49.4755 27.2834 49.6519 28.865C50.2663 28.6446 50.8377 28.3376 51.1896 27.8987C51.5415 27.5468 50.6182 24.604 49.345 24.3406C49.3005 24.3846 49.3005 24.3846 49.257 24.3846Z" fill="#FBFAC4"/>
<path d="M7.61795 23.6771C7.1776 23.4132 7.09059 21.7876 7.04564 21.3052C6.91416 20.2069 5.55248 19.724 4.67418 20.2944C3.13607 21.3926 2.34624 23.5016 2.12678 25.3022C1.90733 27.1468 2.08278 29.6067 3.40047 31.0564C4.80614 32.638 8.36381 33.1214 10.4723 32.9014C11.0432 32.8574 11.5705 32.7255 12.0979 32.638L13.1077 23.5886L12.009 23.8086C10.9112 24.028 8.67076 24.2485 7.6605 23.6771H7.61795Z" fill="#999966"/>
<path d="M4.19082 21.9389C4.45426 21.5875 4.7617 21.2361 5.11263 21.0166C5.46453 20.7527 6.12337 20.9726 6.16833 21.412L6.21087 21.719C5.55203 21.4995 4.80519 21.6755 4.19082 21.9389ZM2.96014 28.1325C2.69718 26.7268 2.82914 25.1012 3.31204 23.696C3.66345 23.2566 4.01488 22.9057 4.67373 22.6418C5.50852 22.2903 5.94791 22.4223 6.34187 22.7737C6.38634 23.1251 6.47529 23.3886 6.56181 23.652C4.27784 24.3988 3.31155 26.5948 2.95965 28.176V28.1325H2.96014ZM9.63755 24.8817C10.4279 24.8817 11.2627 24.7937 12.097 24.6183L11.3067 31.9096C10.2514 32.1295 9.02222 32.1295 7.92446 31.998C7.13365 29.1867 7.92445 25.8925 9.68105 24.8382L9.63755 24.8817ZM7.17763 24.3988C7.48458 24.5743 7.92542 24.7063 8.45086 24.7938C6.86972 26.4633 6.38682 29.4941 6.95866 31.8661C5.64097 31.6026 4.54321 31.1193 3.97137 30.5044C3.83941 30.3724 3.75239 30.1965 3.61995 30.065C3.61995 27.5611 4.63022 24.8817 7.04615 24.3548C7.09014 24.3988 7.09013 24.3988 7.13509 24.3988H7.17763Z" fill="#C0C0A0"/>
<path d="M7.6188 29.128C8.67305 29.3919 9.81479 29.4359 10.6496 29.3479C11.001 29.3039 11.3084 29.2599 11.6159 29.172L12.1428 24.648C11.3084 24.8235 10.4736 24.9114 9.68331 24.9114C8.54108 25.6143 7.79426 27.2834 7.66181 29.128H7.6188ZM4.41157 22.759C4.36855 23.0229 4.32458 23.2863 4.28011 23.5493C4.19261 24.0766 4.1926 24.6915 4.23707 25.3069C4.80795 24.604 5.55428 23.9892 6.56406 23.6377C6.47705 23.3743 6.3886 23.1104 6.34413 22.759C5.99416 22.4515 5.51126 22.2756 4.67647 22.6275C4.58752 22.671 4.50003 22.715 4.41157 22.759ZM5.07091 21.0459C4.93894 21.2658 4.85194 21.4853 4.76348 21.7047C5.24638 21.5732 5.72976 21.5288 6.25713 21.6612L6.21265 21.3538C6.17011 20.9139 5.51127 20.6944 5.15889 20.9584L5.07042 21.0019V21.0459H5.07091ZM7.17941 24.3846C7.48684 24.56 7.9272 24.6915 8.45312 24.7795C7.48684 25.7897 6.96044 27.2834 6.78449 28.865C6.17012 28.6446 5.59828 28.3376 5.24638 27.8987C4.89544 27.5468 5.81821 24.604 7.09143 24.3406C7.13542 24.3846 7.13542 24.3846 7.17941 24.3846Z" fill="#FBFAC4"/>
<path d="M12.4913 21.9272C10.9541 21.7952 9.46 22.1026 7.96684 22.3226L9.28453 21.0484C10.5587 19.8187 12.2718 18.7204 13.8984 17.9296C16.3133 16.6999 19.0812 15.7776 21.8476 15.5142C19.914 14.6794 17.718 14.284 15.6545 13.8006C23.6056 12.132 33.7948 11.5166 41.0875 17.7102C45.261 21.2683 47.5445 27.8572 47.5445 33.8308C47.5445 56.3654 9.15402 56.3654 9.15402 33.8308C9.15402 30.8001 9.90035 27.9012 11.306 25.2654C10.7796 25.3973 10.2962 25.5728 9.7679 25.7927L7.44141 26.759L9.10907 24.87C10.1198 23.7282 11.262 22.762 12.5797 22.0151L12.4913 21.9272Z" fill="#8ED41E"/>
<path d="M29.7112 14.9849C33.4453 15.4238 37.0904 16.654 40.1203 19.2454C43.8099 22.3641 45.7869 28.1623 45.7869 33.3895C45.7869 42.9643 37.8803 47.9286 29.7107 48.1921V14.9849H29.7112Z" fill="#70A91B"/>
<path d="M15.5655 19.8688C18.4649 17.9357 23.2092 17.3209 28.9199 17.6288C27.9096 16.443 26.9873 15.6957 25.6256 15.0369C28.217 14.9489 30.2811 15.5203 35.4204 17.2774C30.9849 14.6855 25.5386 13.4997 20.4424 14.0706C22.2869 14.5975 24.044 15.4323 25.6691 16.5305C20.4424 15.9597 14.4238 18.4631 12.0079 20.5276C13.59 20.3521 14.9947 20.6591 16.4893 21.3184C14.3808 22.0647 13.0186 22.7241 11.7004 23.9978C13.9844 22.8555 15.7855 21.8893 18.6848 21.2744C17.5426 20.879 16.9277 20.1762 15.5655 19.8688Z" fill="#A1E141"/>
<path d="M28.3059 14.5454C33.5782 14.5454 37.8382 18.6744 37.8382 23.8137C37.8382 28.909 33.5782 33.082 28.3059 33.082C23.0357 33.082 18.7756 28.953 18.7756 23.8137C18.7747 18.7184 23.0357 14.5454 28.3059 14.5454Z" fill="#70A91B"/>
<path d="M13.1969 32.4618C13.5043 31.8905 42.407 31.671 42.9784 32.4618C43.9877 33.7795 43.4178 35.0533 42.9784 36.1515H13.1969C12.9334 34.9653 12.494 33.6916 13.1969 32.4618Z" fill="#70A91B"/>
<path d="M13.5919 33.3018C13.8993 32.555 42.0547 32.2476 42.6261 33.3018C43.5924 35.1024 43.021 36.8595 42.6261 38.3532H13.5919C13.3279 36.7276 12.933 35.0149 13.5919 33.3018Z" fill="#4B7113"/>
<path d="M37.0035 14.1692C36.6081 6.65794 26.505 5.86713 23.8696 11.7532C28.5255 9.20534 33.2694 10.1281 37.0035 14.1692Z" fill="#70A91B"/>
<path d="M31.3799 7.92078C28.438 7.48139 25.2313 8.75558 23.9136 11.6979C25.6702 10.7316 27.4717 10.2927 29.1844 10.2927C29.5363 9.63387 30.3706 8.36017 31.4248 7.92078H31.3799Z" fill="#85C51F"/>
<path d="M28.3065 13.5786C33.0504 13.5786 36.8724 17.4002 36.8724 22.1441C36.8724 26.888 33.0504 30.7096 28.3065 30.7096C23.5636 30.7096 19.7424 26.888 19.7424 22.1441C19.7424 17.4002 23.5631 13.5786 28.3065 13.5786Z" fill="#D3E8EF"/>
<path d="M22.9042 15.7859C25.759 13.414 29.7566 13.414 31.7766 15.8739C33.7972 18.2898 33.0948 22.1989 30.2395 24.6149C27.3837 26.9868 23.3871 26.9868 21.3656 24.5269C19.346 22.1109 20.0494 18.2019 22.9042 15.7859Z" fill="white"/>
<path d="M28.5249 15.262C31.8631 15.262 34.543 17.7659 34.543 20.8842C34.543 24.0029 31.8621 26.5068 28.5249 26.5068C25.1876 26.5068 22.5073 24.0029 22.5073 20.8842C22.5073 17.7659 25.1872 15.262 28.5249 15.262Z" fill="#0D82DF"/>
<path d="M28.5249 15.262C30.15 15.262 31.6437 15.8768 32.6979 16.8431C32.303 18.2048 31.4682 19.5665 30.238 20.6207C27.8661 22.5972 24.7043 22.9051 22.5513 21.587C22.5073 21.3675 22.5073 21.1481 22.5073 20.8841C22.5073 17.7659 25.1872 15.262 28.5249 15.262Z" fill="#0399ED"/>
<path d="M28.5257 16.2834C30.6342 16.2834 32.3913 17.9086 32.3913 19.8851C32.3913 21.8621 30.6782 23.4868 28.5257 23.4868C26.4177 23.4868 24.6606 21.8621 24.6606 19.8851C24.6606 17.9086 26.3733 16.2834 28.5257 16.2834Z" fill="#232323"/>
<path d="M25.1424 15.5549C26.7236 15.5549 27.9973 16.7411 27.9973 18.2343C27.9973 19.7279 26.7236 20.9141 25.1424 20.9141C23.5613 20.9141 22.2876 19.7279 22.2876 18.2343C22.2876 16.7411 23.5613 15.5549 25.1424 15.5549Z" fill="white" fill-opacity="0.5"/>
<path d="M8.32025 35.4157C21.5856 33.4391 34.896 33.6146 48.1614 35.4157C49.1276 42.3555 48.6003 48.9454 48.1614 55.5769C34.896 56.1043 21.5856 56.1927 8.32025 55.5769C7.52944 48.857 7.44243 42.1361 8.32025 35.4157Z" fill="#9CAEB3"/>
<path d="M12.1413 54.2255C22.9032 54.6199 33.6212 54.5774 44.3822 54.2255C40.5171 52.0285 36.6515 49.9215 32.303 48.7352C30.8964 49.3941 29.4042 49.9215 27.9105 50.3604C27.6906 50.4039 27.6906 50.4039 27.4711 50.3604C26.2405 49.965 25.0112 49.4816 23.8245 48.9552C19.6075 50.1844 15.7864 51.9855 12.0968 54.2699L12.1413 54.2255ZM9.59336 37.7094C9.02249 43.0246 9.10998 48.3833 9.68181 53.6981C13.5474 51.2827 17.676 49.3496 22.0239 47.9884C17.0166 45.353 13.5025 41.575 9.59336 37.7094ZM45.7873 36.6556C34.0601 35.249 22.2879 35.1175 10.5601 36.6556C15.3915 42.0574 20.7077 46.4948 27.7795 48.8218C35.2898 46.6707 40.4726 41.9704 45.7873 36.6556ZM46.7981 53.6981C47.15 48.3833 47.5009 43.0686 46.9301 37.7538C42.9775 41.6634 38.76 45.3965 33.8401 47.9875C38.4086 49.3491 42.67 51.3706 46.8431 53.6976H46.7981V53.6981Z" fill="#D3E8EF"/>
<path d="M12.1413 54.2196C17.3236 54.3955 22.5064 54.483 27.7346 54.483V50.3545C27.6907 50.3545 27.6471 50.3545 27.5152 50.31C26.2855 49.9161 25.0562 49.4322 23.8695 48.9048C19.6525 50.1345 15.8314 51.9351 12.1413 54.2196ZM9.59336 37.7035C9.02249 43.0187 9.10998 48.3775 9.68181 53.6922C13.5474 51.2768 17.676 49.3437 22.024 47.9825C17.0166 45.3472 13.5025 41.5691 9.59336 37.7035ZM27.7346 35.551C21.9805 35.551 16.2703 35.9024 10.5601 36.6502C15.3485 42.0525 20.7077 46.4454 27.7346 48.8164V35.551Z" fill="white"/>
<path d="M20.2682 38.7057C20.2247 38.8811 20.1367 39.0576 20.0497 39.233C19.9607 39.4965 19.7853 39.759 19.5663 39.9349C19.0389 40.3303 18.3806 40.1993 17.8082 39.9789C16.5345 39.4515 15.6567 38.1778 15.1289 36.9481C14.5145 35.5415 14.47 34.5322 14.8214 32.9946C23.6944 32.5117 32.7872 32.4237 41.3962 32.9506V32.9946H41.5286C41.6606 34.4882 41.5286 35.1031 41.1777 36.3342C40.7818 37.7394 39.9465 39.4515 38.5418 40.1104C38.0145 40.3748 37.3996 40.5063 36.9162 40.1544C36.6973 39.9789 36.5223 39.7155 36.3893 39.4515C36.0819 38.9686 35.9949 38.2668 35.9065 37.7389C35.731 38.0903 35.5115 38.3098 35.1596 38.3973C34.5888 38.5292 33.9299 38.6162 33.3586 38.6607C32.7877 38.7052 32.1738 38.7497 31.5575 38.7497C30.6352 38.7497 29.6245 38.6607 28.7471 38.3982C28.6156 38.9256 28.3957 39.4075 27.8688 39.583C27.298 39.759 26.5946 39.8474 25.9798 39.8919C25.3209 39.9349 24.6621 39.9794 24.0472 39.9794C23.037 39.9794 21.8947 39.8919 20.9725 39.4965C20.6206 39.3645 20.4001 39.1006 20.2696 38.7497V38.7057H20.2682Z" fill="#999966"/>
<path d="M35.1569 32.6937C35.5088 34.6703 35.4204 37.2182 34.8495 37.3497C33.9707 37.5696 30.5885 37.9215 28.9199 37.3066C28.4795 36.4723 28.4795 34.3638 28.524 32.6507C30.8085 32.6502 33.0924 32.6502 35.1569 32.6937ZM20.9688 33.0891C20.6618 34.0119 20.3544 35.0657 20.047 36.3404C19.871 37.1312 19.7391 37.9215 19.6066 38.4919C19.4312 39.2822 19.0358 39.4146 18.2889 39.1067C16.3559 38.2729 15.3471 35.0227 15.4336 33.0452C16.7518 32.9572 18.7288 32.8697 20.9683 32.7817C23.1213 32.7377 25.5372 32.6937 27.9531 32.6937C28.1716 35.1097 28.1716 38.009 27.6457 38.6234C26.722 38.9322 23.1213 39.3711 21.3632 38.5803C20.5724 38.2294 20.8798 35.2861 20.9238 33.1336L20.9688 33.0891ZM35.5088 32.6937C35.7713 33.748 36.0792 34.8462 36.3862 36.2519C36.5616 37.1302 36.6506 37.966 36.7816 38.5359C36.9575 39.4142 37.309 39.5461 38.0113 39.1952C39.7254 38.3159 40.6916 35.0652 40.6467 32.9137C39.3739 32.8257 37.5729 32.7377 35.5088 32.6937Z" fill="#C0C0A0"/>
<path d="M28.5251 33.8811C30.5896 33.8811 32.6551 33.8811 34.5432 33.9246C34.8506 35.0233 34.8506 36.9999 33.5325 37.4827C32.1273 37.6152 30.1063 37.6582 28.9205 37.2193C28.6136 36.604 28.5251 35.2423 28.5251 33.8811ZM20.9259 34.0126C22.815 33.9686 24.9675 33.9246 27.12 33.9246C27.3384 35.5062 27.7343 38.669 25.7578 38.8444C24.3081 38.9764 22.5075 38.9764 21.3648 38.493C20.7074 38.1856 20.7945 35.9896 20.8819 34.0566L20.9259 34.0126ZM15.5237 34.2765C16.446 34.1885 17.6752 34.1441 19.1244 34.1005C19.3003 34.1005 19.6517 38.449 19.6517 38.449C19.4758 39.2398 19.0809 39.3718 18.3341 39.0644C16.7964 38.4055 15.8302 36.2081 15.5662 34.32L15.5237 34.2765ZM36.7832 38.537C36.9587 39.4153 37.3106 39.5473 38.0129 39.1963C39.4195 38.493 40.2974 36.2086 40.5613 34.2325C39.727 34.1441 38.7167 34.1006 37.5295 34.0566C36.8272 34.5839 36.6947 38.2296 36.7832 38.537Z" fill="#FBFAC4"/>
<path d="M24.7479 33.9686C24.8369 35.6827 24.7479 37.3948 24.5295 37.5263C24.0906 37.7912 22.465 38.1416 21.6746 37.4828C21.3658 37.2638 21.4102 35.5937 21.4547 34.0126C22.5085 33.9686 23.6072 33.9686 24.7929 33.9246L24.7479 33.9686ZM32.1282 33.9246C32.1717 35.1988 32.0837 36.3845 31.9083 36.4725C31.5133 36.6915 29.9752 36.9559 29.1849 36.4285C28.9215 36.253 28.9214 35.0664 28.9649 33.8811H32.1287V33.9246H32.1282ZM18.2475 34.1441C18.2035 34.6274 18.2035 35.1993 18.2035 35.7697V37.5263C18.2035 38.1856 18.028 38.3171 17.6761 38.0097C16.9743 37.4828 16.3584 35.8137 16.095 34.2765C16.7098 34.232 17.4571 34.1885 18.2475 34.1441ZM40.0344 34.1885C39.462 34.1441 38.8037 34.1005 38.0573 34.1005C38.0573 34.5834 38.1018 35.1103 38.1018 35.6822V37.5707C38.1018 38.2736 38.2333 38.4055 38.5847 38.0976C39.1995 37.5263 39.7709 35.8576 40.0344 34.1885Z" fill="white"/>
<path d="M10.9566 54.5755C10.4732 56.7715 8.27573 58.2212 6.0807 58.1332C3.04991 58.0007 -1.65048 54.663 -1.5625 51.3688C-1.51852 49.5242 -0.156831 47.8541 1.24884 46.8008C2.61052 45.7451 4.89449 44.6483 6.65206 45.1312C8.40866 45.6146 9.63837 48.0305 10.2097 49.6112C10.7361 50.9734 11.264 53.1268 10.9116 54.576H10.9566V54.5755Z" fill="#85C51F"/>
<path d="M10.2089 54.3527C10.2519 54.0893 10.2968 53.8254 10.2968 53.5179C9.72596 51.102 8.36381 48.3352 6.82666 47.8962C4.45472 47.1924 -0.332675 50.3557 -0.0701995 53.6064C1.24798 55.6269 4.05979 57.296 6.07983 57.383C7.92441 57.4715 9.81345 56.2408 10.2093 54.3962V54.3527H10.2089Z" fill="#70A91B"/>
<path d="M8.01301 51.8928C8.62738 50.6631 7.61856 48.5107 6.08045 48.6861C4.45532 48.9061 0.941162 51.322 0.941162 53.211C0.941162 54.3972 2.56628 55.232 4.2789 54.7491C5.55308 54.3972 7.52963 52.9036 8.01301 51.8928ZM9.37468 54.9676C9.68211 54.2208 9.24272 52.9036 8.36442 53.0346C7.44213 53.211 5.24518 54.7917 5.33363 55.6705C5.37665 56.3738 6.60733 56.9886 7.57409 56.6367C8.27644 56.3738 9.11075 55.5825 9.37468 54.9676Z" fill="#5D8D17"/>
<path d="M5.59743 46.1667C5.64142 46.9575 4.10379 47.6594 3.48893 47.089C2.96157 46.0783 3.0945 44.8485 3.53292 44.5851C4.0163 44.3217 5.20251 44.805 5.59743 46.1667Z" fill="#2C440C"/>
<path d="M2.61053 47.6251C2.78503 48.5025 1.60026 49.2503 1.02843 48.8549C0.282088 48.108 0.0191236 46.7903 0.36909 46.4829C0.721473 46.1755 1.99519 46.6589 2.61053 47.6251Z" fill="#2C440C"/>
<path d="M11.6144 41.6626C11.9663 41.0038 11 40.5634 10.2092 40.256C9.4174 39.993 9.02297 39.993 8.71554 40.6519C8.36364 41.3107 8.18818 42.3205 9.02298 42.584C9.8133 42.8479 11.3069 42.3205 11.6588 41.6617H11.6144V41.6626Z" fill="#2C440C"/>
<path d="M12.3174 39.1913C12.4054 39.9376 11.3502 40.333 10.4729 40.509C9.63807 40.6849 9.28617 40.5965 9.19916 39.8497C9.11022 39.1019 9.33064 37.9171 10.2094 37.7417C11.0428 37.5662 12.229 38.444 12.3174 39.1913Z" fill="#2C440C"/>
<path d="M12.4925 36.7449C12.5819 37.4482 11.5262 37.8006 10.6489 37.9761C9.81412 38.1506 9.46223 38.0636 9.37522 37.3172C9.28579 36.6139 9.50621 35.5161 10.341 35.3402C11.1763 35.1642 12.3615 35.999 12.4495 36.7009L12.4925 36.7449Z" fill="#2C440C"/>
<path d="M5.59836 35.118C5.72984 35.6903 6.82807 35.5569 7.66286 35.3828C8.49717 35.1629 8.80508 34.987 8.62913 34.4161C8.49717 33.8447 7.96982 33.0544 7.13696 33.2739C6.30216 33.4933 5.46736 34.5481 5.59836 35.1629V35.118Z" fill="#2C440C"/>
<path d="M4.85106 42.0935L5.11403 42.8398L4.54315 42.4009C4.27874 42.1809 4.06025 41.8735 3.8843 41.5221C3.92732 41.8735 3.97228 42.0939 4.06026 42.4009C3.22595 41.0387 2.47815 39.5456 2.96104 37.5695C3.4014 35.768 5.20248 34.9332 6.47619 34.5823C7.26652 34.3628 8.14434 34.2308 8.93466 34.3188C9.41804 34.3628 10.2528 34.4943 10.6043 34.9332C10.9557 35.374 11.1316 36.2953 11.2191 36.9102C11.3506 37.8765 11.3076 38.8867 11.1761 39.853C11.0437 40.7308 10.7807 41.5661 10.3413 42.2689C9.98988 42.7963 9.59399 43.1912 9.06808 43.4116C8.45177 43.6746 7.83692 43.7186 7.17758 43.5871C6.30025 43.4116 5.50943 42.8843 4.80612 42.1374L4.85106 42.0935Z" fill="#85C51F"/>
<path d="M10.1654 35.5449C10.6928 36.1607 10.9562 38.7531 10.3409 40.6412C10.1654 40.6856 9.94549 40.7291 9.72652 40.7291C8.75976 40.8176 7.83651 40.3787 7.22213 39.8513C7.26612 40.1147 7.3541 40.2902 7.44208 40.4222C6.91471 40.2037 6.47579 39.5444 6.16788 38.7971C6.2109 39.4124 6.29985 39.6758 6.38734 40.0277C5.72801 39.8078 5.20161 39.061 4.80572 38.2711C4.4543 37.5678 4.49828 36.5571 5.11314 36.1186C6.73826 34.9324 9.5061 34.8445 10.1205 35.5913L10.1654 35.5449Z" fill="#A1E141"/>
<path d="M45.524 54.5755C46.0069 56.7715 48.2028 58.2212 50.3998 58.1332C53.4301 58.0007 58.13 54.663 58.0416 51.3688C57.999 49.5242 56.6359 47.8541 55.2312 46.8008C53.8695 45.7451 51.5846 44.6483 49.828 45.1312C48.0719 45.6146 46.8417 48.0305 46.2703 49.6112C45.7429 50.9734 45.2161 53.1268 45.5684 54.576H45.524V54.5755Z" fill="#85C51F"/>
<path d="M46.2283 54.3527C46.1839 54.0893 46.1389 53.8254 46.1389 53.5179C46.7103 51.102 48.072 48.3352 49.6096 47.8962C51.981 47.1924 56.7684 50.3557 56.506 53.6064C55.1878 55.6269 52.376 57.296 50.3564 57.383C48.5113 57.4715 46.6223 56.2408 46.2269 54.3962V54.3527H46.2283Z" fill="#70A91B"/>
<path d="M48.4663 51.8928C47.8505 50.6631 48.8608 48.5107 50.3994 48.6861C52.0245 48.9061 55.5382 51.322 55.5382 53.211C55.5382 54.3972 53.9131 55.232 52.2 54.7491C50.9258 54.3972 48.9497 52.9036 48.4663 51.8928ZM47.1047 54.9676C46.7972 54.2208 47.2362 52.9036 48.1149 53.0346C49.0372 53.211 51.2327 54.7917 51.1457 55.6705C51.1017 56.3738 49.872 56.9886 48.9053 56.6367C48.2024 56.3738 47.3681 55.5825 47.1047 54.9676Z" fill="#5D8D17"/>
<path d="M50.8383 46.1667C50.7939 46.9575 52.332 47.6594 52.9464 47.089C53.4738 46.0783 53.3413 44.8485 52.9029 44.5851C52.4195 44.3217 51.2328 44.805 50.8383 46.1667Z" fill="#2C440C"/>
<path d="M53.8247 47.6251C53.6502 48.5025 54.835 49.2503 55.4068 48.8549C56.1532 48.108 56.4161 46.7903 56.0662 46.4829C55.7138 46.1755 54.4396 46.6589 53.8247 47.6251Z" fill="#2C440C"/>
<path d="M44.8216 41.6626C44.4702 41.0038 45.4365 40.5634 46.2282 40.256C47.019 39.993 47.413 39.993 47.7209 40.6519C48.0723 41.3107 48.2483 42.3205 47.413 42.584C46.6232 42.8479 45.129 42.3205 44.7776 41.6617H44.8216V41.6626Z" fill="#2C440C"/>
<path d="M44.1628 39.1913C44.0753 39.9376 45.1291 40.333 46.0079 40.509C46.8427 40.6849 47.1941 40.5965 47.2816 39.8497C47.3696 39.1019 47.1506 37.9171 46.2713 37.7417C45.437 37.5662 44.2513 38.444 44.1628 39.1913Z" fill="#2C440C"/>
<path d="M43.9433 36.7449C43.8543 37.4482 44.9095 37.8006 45.7869 37.9761C46.6217 38.1506 46.9736 38.0636 47.0606 37.3172C47.15 36.6139 46.9296 35.5161 46.0943 35.3402C45.26 35.1642 44.0743 35.999 43.9863 36.7009L43.9433 36.7449Z" fill="#2C440C"/>
<path d="M50.8844 35.118C50.7519 35.6903 49.6537 35.5569 48.8189 35.3828C47.9856 35.1629 47.6772 34.987 47.8527 34.4161C47.9856 33.8447 48.5115 33.0544 49.3458 33.2739C50.1811 33.4933 51.0154 34.5481 50.8844 35.1629V35.118Z" fill="#2C440C"/>
<path d="M51.587 42.0935L51.3236 42.8398L51.8944 42.4009C52.1593 42.1809 52.3778 41.8735 52.5533 41.5221C52.5103 41.8735 52.4658 42.0939 52.3778 42.4009C53.2121 41.0387 53.9599 39.5456 53.4765 37.5695C53.0367 35.768 51.2351 34.9332 49.9619 34.5823C49.1711 34.3628 48.2937 34.2308 47.5029 34.3188C47.02 34.3628 46.1852 34.4943 45.8338 34.9332C45.4819 35.374 45.3065 36.2953 45.219 36.9102C45.0875 37.8765 45.13 38.8867 45.2625 39.853C45.3944 40.7308 45.6569 41.5661 46.0968 42.2689C46.4477 42.7963 46.8441 43.1912 47.37 43.4116C47.9863 43.6746 48.6007 43.7186 49.26 43.5871C50.1374 43.4116 50.9282 42.8843 51.632 42.1374L51.587 42.0935Z" fill="#85C51F"/>
<path d="M46.2713 35.5449C45.7439 36.1607 45.4805 38.7531 46.0958 40.6412C46.2713 40.6856 46.4912 40.7291 46.7102 40.7291C47.677 40.8176 48.5998 40.3787 49.2146 39.8513C49.1701 40.1147 49.0826 40.2902 48.9947 40.4222C49.522 40.2037 49.9609 39.5444 50.2684 38.7971C50.2254 39.4124 50.1364 39.6758 50.0494 40.0277C50.7087 39.8078 51.2347 39.061 51.631 38.2711C51.982 37.5678 51.9385 36.5571 51.3236 36.1186C49.6985 34.9324 46.9306 34.8445 46.3163 35.5913L46.2713 35.5449Z" fill="#A1E141"/>
</g>
</svg>
