<svg fill="none" height="17" viewBox="0 0 20 17" width="20" xmlns="http://www.w3.org/2000/svg"><path d="m9.544 4.89227c-1.854-2.643-4.401-4.122995-7.669-4.391995v11.899025c3.308.216 5.772 1.617 7.669 3.816zm.912 0c1.854-2.643 4.401-4.122995 7.669-4.391995v11.899025c-3.308.216-5.772 1.617-7.669 3.816zm-9.441-1.763v10.15803c2.904-.081 5.498 1.165 7.111 2.76l.01.027c-3.224-1.301-6.794-.887-8.136-.353v-12.32303c.411-.074.743-.165 1.015-.269zm17.97 0v10.15803c-2.904-.081-5.498 1.165-7.111 2.76l-.01.027c3.224-1.301 6.794-.887 8.136-.353v-12.32303c-.411-.074-.743-.165-1.015-.269zm-6.382 8.72503s1.557-1.244 3.719-1.766c.268-.065.433-.33603.368-.60403s-.335-.433-.603-.368c-2.39.577-4.11 1.95803-4.11 1.95803-.215.172-.25.487-.077.702.172.216.487.251.703.078zm-5.249 0s-1.558-1.244-3.719-1.766c-.268-.065-.433-.33603-.369-.60403.065-.268.336-.433.604-.368 2.39.577 4.109 1.95803 4.109 1.95803.215.172.25.487.078.702-.173.216-.488.251-.703.078zm5.247-2.82803s1.558-1.232 3.721-1.754c.268-.065.433-.336.368-.604s-.335-.433-.603-.368c-2.389.577-4.108 1.942-4.108 1.942-.216.172-.252.486-.081.703.172.216.486.252.703.081zm-5.245 0s-1.558-1.232-3.721-1.754c-.268-.065-.433-.336-.369-.604.065-.268.336-.433.604-.368 2.388.577 4.107 1.942 4.107 1.942.216.172.253.486.081.703-.171.216-.486.252-.702.081zm5.252-2.643s1.555-1.276 3.714-1.798c.268-.065.433-.335.368-.603-.065-.269-.335-.434-.603-.369-2.393.578-4.115 1.997-4.115 1.997-.213.176-.243.491-.068.704s.491.244.704.069zm-5.259 0s-1.555-1.276-3.714-1.798c-.268-.065-.433-.335-.369-.603.065-.269.336-.434.604-.369 2.392.578 4.114 1.997 4.114 1.997.213.176.244.491.069.704-.176.213-.491.244-.704.069z" fill="#087ce1"/></svg>