<svg width="12" height="12" viewBox="0 0 15 15" fill="none" xmlns="http://www.w3.org/2000/svg">
	<g clip-path="url(#clip0)">
		<path d="M7.5 0.500122C3.61111 0.500122 0.5 3.61123 0.5 7.50012C0.5 11.389 3.61111 14.5001 7.5 14.5001C11.3889 14.5001 14.5 11.389 14.5 7.50012C14.5 3.61123 11.3889 0.500122 7.5 0.500122ZM7.5 12.9446C4.46667 12.9446 2.05556 10.5335 2.05556 7.50012C2.05556 4.46679 4.46667 2.05568 7.5 2.05568C10.5333 2.05568 12.9444 4.46679 12.9444 7.50012C12.9444 10.5335 10.5333 12.9446 7.5 12.9446ZM8.27778 4.38901H6.72222V6.72234H4.38889V8.2779H6.72222V10.6112H8.27778V8.2779H10.6111V6.72234H8.27778V4.38901ZM7.5 0.500122C3.61111 0.500122 0.5 3.61123 0.5 7.50012C0.5 11.389 3.61111 14.5001 7.5 14.5001C11.3889 14.5001 14.5 11.389 14.5 7.50012C14.5 3.61123 11.3889 0.500122 7.5 0.500122ZM7.5 12.9446C4.46667 12.9446 2.05556 10.5335 2.05556 7.50012C2.05556 4.46679 4.46667 2.05568 7.5 2.05568C10.5333 2.05568 12.9444 4.46679 12.9444 7.50012C12.9444 10.5335 10.5333 12.9446 7.5 12.9446ZM8.27778 4.38901H6.72222V6.72234H4.38889V8.2779H6.72222V10.6112H8.27778V8.2779H10.6111V6.72234H8.27778V4.38901Z" fill="#46B450"/>
	</g>
	<defs>
		<clipPath id="clip0">
			<rect width="15" height="14" fill="white" transform="translate(0 0.500122)"/>
		</clipPath>
	</defs>
</svg>
