<svg width="16" height="26" viewBox="0 0 16 26" fill="none" xmlns="http://www.w3.org/2000/svg">
<path d="M9.60463 23.4286C9.60463 24.3125 8.88142 25.0357 7.99749 25.0357C7.11356 25.0357 6.39035 24.3125 6.39035 23.4286C6.39035 22.5446 7.11356 21.8214 7.99749 21.8214C8.88142 21.8214 9.60463 22.5446 9.60463 23.4286ZM13.7832 20.2143C13.7832 20.5558 13.4819 20.8571 13.1403 20.8571H2.85463C2.51311 20.8571 2.21177 20.5558 2.21177 20.2143V6.07143C2.21177 5.72991 2.51311 5.42857 2.85463 5.42857H13.1403C13.4819 5.42857 13.7832 5.72991 13.7832 6.07143V20.2143ZM9.92606 3.17857C9.92606 3.35938 9.78544 3.5 9.60463 3.5H6.39035C6.20954 3.5 6.06892 3.35938 6.06892 3.17857C6.06892 2.99777 6.20954 2.85714 6.39035 2.85714H9.60463C9.78544 2.85714 9.92606 2.99777 9.92606 3.17857ZM15.7118 2.85714C15.7118 1.45089 14.5466 0.285714 13.1403 0.285714H2.85463C1.44838 0.285714 0.283203 1.45089 0.283203 2.85714V23.4286C0.283203 24.8348 1.44838 26 2.85463 26H13.1403C14.5466 26 15.7118 24.8348 15.7118 23.4286V2.85714Z" fill="#23282D"/>
</svg>
