<svg width="15" height="18" viewBox="0 0 15 18" fill="none" xmlns="http://www.w3.org/2000/svg">
<path d="M8.28878 16.4286C8.28878 16.8583 7.93276 17.2143 7.50307 17.2143C7.07338 17.2143 6.71736 16.8583 6.71736 16.4286C6.71736 15.9989 7.07338 15.6429 7.50307 15.6429C7.93276 15.6429 8.28878 15.9989 8.28878 16.4286ZM13.0031 14.4643C13.0031 14.673 12.8189 14.8571 12.6102 14.8571H2.39593C2.18722 14.8571 2.00307 14.673 2.00307 14.4643V2.67857C2.00307 2.46987 2.18722 2.28571 2.39593 2.28571H12.6102C12.8189 2.28571 13.0031 2.46987 13.0031 2.67857V14.4643ZM14.5745 2.67857C14.5745 1.59821 13.6906 0.714285 12.6102 0.714285H2.39593C1.31557 0.714285 0.431641 1.59821 0.431641 2.67857V16.0357C0.431641 17.1161 1.31557 18 2.39593 18H12.6102C13.6906 18 14.5745 17.1161 14.5745 16.0357V2.67857Z" fill="#23282D"/>
</svg>
