<svg width="31" height="26" viewBox="0 0 31 26" fill="none" xmlns="http://www.w3.org/2000/svg">
<path d="M28.002 15.5C28.002 15.7656 27.7676 16 27.502 16H2.50195C2.23633 16 2.00195 15.7656 2.00195 15.5V2.5C2.00195 2.23437 2.23633 2 2.50195 2H27.502C27.7676 2 28.002 2.23437 28.002 2.5V15.5ZM30.002 2.5C30.002 1.125 28.877 -1.90735e-06 27.502 -1.90735e-06H2.50195C1.12695 -1.90735e-06 0.00195312 1.125 0.00195312 2.5V19.5C0.00195312 20.875 1.12695 22 2.50195 22H11.002C11.002 23.3594 10.002 24.4219 10.002 25C10.002 25.5469 10.4551 26 11.002 26H19.002C19.5488 26 20.002 25.5469 20.002 25C20.002 24.4531 19.002 23.3281 19.002 22H27.502C28.877 22 30.002 20.875 30.002 19.5V2.5Z" fill="#23282D"/>
</svg>
