<svg width="14" height="17" viewBox="0 0 14 17" fill="none" xmlns="http://www.w3.org/2000/svg">
<path d="M13.1071 3.67857L10.3214 0.892857C9.99107 0.562499 9.33036 0.285713 8.85714 0.285713H0.857143C0.383929 0.285713 0 0.669642 0 1.14286V15.4286C0 15.9018 0.383929 16.2857 0.857143 16.2857H12.8571C13.3304 16.2857 13.7143 15.9018 13.7143 15.4286V5.14286C13.7143 4.66964 13.4375 4.00893 13.1071 3.67857ZM9.14286 1.5C9.29464 1.55357 9.44643 1.63393 9.50893 1.69643L12.3036 4.49107C12.3661 4.55357 12.4464 4.70536 12.5 4.85714H9.14286V1.5ZM12.5714 15.1429H1.14286V1.42857H8V5.14286C8 5.61607 8.38393 6 8.85714 6H12.5714V15.1429Z" fill="#087CE1"/>
</svg>
