<svg width="16" height="19" viewBox="0 0 16 19" fill="none" xmlns="http://www.w3.org/2000/svg">
<path d="M14.742 4.3189L11.61 1.1869C11.232 0.808899 10.494 0.502899 9.972 0.502899H0.972C0.432 0.502899 0 0.934899 0 1.4569V17.5309C0 18.0709 0.432 18.5029 0.972 18.5029H14.472C14.994 18.5029 15.426 18.0709 15.426 17.5309V5.9569C15.426 5.4349 15.12 4.6969 14.742 4.3189ZM10.278 1.8709C10.458 1.9249 10.62 2.0149 10.692 2.0869L13.842 5.2369C13.914 5.3089 14.004 5.4709 14.058 5.6509H10.278V1.8709ZM14.148 17.2069H1.278V1.7809H9V5.9569C9 6.4969 9.432 6.9289 9.972 6.9289H14.148V17.2069ZM3.852 8.5309V9.1789C3.852 9.3589 3.996 9.5029 4.176 9.5029H11.25C11.43 9.5029 11.574 9.3589 11.574 9.1789V8.5309C11.574 8.3509 11.43 8.2069 11.25 8.2069H4.176C3.996 8.2069 3.852 8.3509 3.852 8.5309ZM11.25 10.7809H4.176C3.996 10.7809 3.852 10.9249 3.852 11.1049V11.7529C3.852 11.9329 3.996 12.0769 4.176 12.0769H11.25C11.43 12.0769 11.574 11.9329 11.574 11.7529V11.1049C11.574 10.9249 11.43 10.7809 11.25 10.7809ZM11.25 13.3549H4.176C3.996 13.3549 3.852 13.4989 3.852 13.6789V14.3269C3.852 14.5069 3.996 14.6509 4.176 14.6509H11.25C11.43 14.6509 11.574 14.5069 11.574 14.3269V13.6789C11.574 13.4989 11.43 13.3549 11.25 13.3549Z" fill="#087CE1"/>
</svg>
