<svg width="12" height="13" viewBox="0 0 12 13" fill="none" xmlns="http://www.w3.org/2000/svg">
	<path d="M9.75 0.597335H2.25C1.00781 0.597335 0 1.60515 0 2.84734V10.3473C0 11.5895 1.00781 12.5973 2.25 12.5973H6.40625V7.9489H4.84375V6.1364H6.40625V4.80046C6.40625 3.25359 7.35938 2.40984 8.74219 2.40984C9.39844 2.40984 9.96875 2.45671 10.1328 2.48015V4.09734L9.17969 4.10515C8.42188 4.10515 8.28125 4.45671 8.28125 4.98015V6.1364H10.0703L9.83594 7.9489H8.28125V12.5973H9.75C10.9922 12.5973 12 11.5895 12 10.3473V2.84734C12 1.60515 10.9922 0.597335 9.75 0.597335Z" fill="white"/>
</svg>
