<svg width="636" height="129" viewBox="0 0 636 129" fill="none" xmlns="http://www.w3.org/2000/svg">
<path fill-rule="evenodd" clip-rule="evenodd" d="M123.137 36.5594C123.137 39.2431 125.312 41.4147 127.995 41.4147C130.676 41.4147 132.851 39.2431 132.851 36.5594C132.851 33.8773 130.676 31.7023 127.995 31.7023C125.312 31.7023 123.137 33.8773 123.137 36.5594Z" fill="#C9D0D6"/>
<path fill-rule="evenodd" clip-rule="evenodd" d="M17.2898 2.09042V11.2812H22.4035V32.7374H17.2898V41.2745H44.5569V32.7311H39.4462V11.2812H44.5569V2.09042H17.2898Z" fill="#C9D0D6"/>
<path fill-rule="evenodd" clip-rule="evenodd" d="M45.9724 11.289V19.8404H49.8227V32.7247H45.9724V41.2651H67.3064V32.7247H63.2394V25.3212C63.2394 22.1891 65.6002 19.8787 68.7371 19.8787C71.2082 19.8787 73.1311 21.0893 73.1311 23.7805V32.7247H69.1741V41.2651H90.0086V32.8553C89.9888 32.8113 89.971 32.7656 89.9482 32.7217H86.5437V21.4194C86.5437 14.217 81.2678 11.5775 74.7811 11.5775C70.1646 11.5775 66.6453 12.842 63.5679 16.3627C63.3478 16.6367 63.0721 16.9653 62.7982 17.1855V11.289H45.9724Z" fill="#C9D0D6"/>
<path fill-rule="evenodd" clip-rule="evenodd" d="M107.625 11.4299C98.1165 11.4299 88.7776 16.0971 88.7678 26.697C88.771 28.9521 89.1948 30.9394 89.9515 32.6695H90.0119V32.8031C92.8633 39.1111 100.191 41.9628 107.625 41.9628C113.684 41.9628 122.1 40.505 123.991 31.1839L124.084 30.1912L112.996 30.1845L112.619 30.1829C112.619 33.3346 110.332 34.8247 107.734 34.8247C102.786 34.8247 102.401 30.6965 102.401 26.7411V26.6611V26.6547C102.401 22.6991 102.786 18.5745 107.734 18.5745C111.626 18.5745 112.285 21.952 112.425 25.15L123.936 23.8847C122.707 12.153 111.163 11.4153 108.274 11.4153C107.86 11.4153 107.625 11.4299 107.625 11.4299Z" fill="#C9D0D6"/>
<path d="M505.431 117.449H510.906L513.842 100.65H508.367L507.284 106.666H502.538L503.62 100.65H498.146L495.21 117.449H500.685L501.788 111.163H506.535L505.431 117.449Z" fill="#C9D0D6"/>
<path d="M516.951 100.525L515.285 109.872C515.14 110.601 515.077 111.309 515.077 111.975C515.077 116.929 519.407 117.678 522.009 117.678C527.464 117.678 529.816 115.868 530.669 110.975L532.501 100.504H527.026L525.465 109.289C524.965 112.037 524.612 113.474 522.571 113.474C521.239 113.474 520.594 112.766 520.594 111.309C520.594 110.746 520.677 110.06 520.844 109.206L522.426 100.504H516.951V100.525Z" fill="#C9D0D6"/>
<path d="M569.975 108.852H568.392L569.121 104.897H570.599C571.806 104.897 572.452 105.5 572.452 106.604C572.452 107.998 571.515 108.852 569.975 108.852ZM561.439 117.324H566.914L567.685 112.995H570.266C575.033 112.995 577.677 110.413 577.677 105.709C577.677 102.399 575.387 100.504 571.369 100.504H564.375L561.439 117.324Z" fill="#C9D0D6"/>
<path d="M586.708 113.388C585.292 113.388 584.46 112.369 584.46 110.662C584.46 110.016 584.522 109.454 584.647 108.809C585.063 106.602 585.771 104.583 587.999 104.583C589.414 104.583 590.247 105.603 590.247 107.31C590.247 107.955 590.185 108.517 590.06 109.162C589.643 111.348 588.935 113.388 586.708 113.388ZM588.311 100.211C582.357 100.211 578.798 104.062 578.798 110.536C578.798 115.033 581.629 117.739 586.375 117.739C592.329 117.739 595.888 113.888 595.888 107.414C595.909 102.897 593.078 100.211 588.311 100.211Z" fill="#C9D0D6"/>
<path d="M614.939 117.449H620.414L622.579 105.147H626.7L627.491 100.65H613.482L612.691 105.147H617.062L614.939 117.449Z" fill="#C9D0D6"/>
<path d="M605.859 106.79C604.132 106.248 603.424 106.019 603.424 105.207C603.424 104.666 603.778 104.021 604.819 104.021C605.589 104.021 606.234 104.458 606.484 105.103L611.313 103.792C610.751 101.419 608.711 100.211 605.193 100.211C598.573 100.211 598.053 104.645 598.053 105.998C598.053 108.746 599.51 110.433 602.674 111.307C603.507 111.536 604.465 111.785 604.465 112.701C604.465 113.43 603.923 113.888 602.987 113.888C602.133 113.888 601.217 113.388 600.905 112.514L596.138 113.805C596.658 116.303 599.011 117.718 602.695 117.718C605.505 117.718 610.21 116.969 610.21 111.89C610.231 109.35 608.794 107.684 605.859 106.79Z" fill="#C9D0D6"/>
<path d="M492.154 117.449L495.11 100.65H486.055V117.449H492.154Z" fill="#C9D0D6"/>
<path d="M629.835 100.65L626.9 117.449H635.955V100.65H629.835Z" fill="#C9D0D6"/>
<path d="M535.627 100.504L532.692 117.324H538.167L539.041 112.37H543.642L544.391 108.144H539.791L540.311 105.022H546.744L547.535 100.504H535.627Z" fill="#C9D0D6"/>
<path d="M549.983 100.504L547.047 117.324H552.522L553.376 112.37H557.997L558.746 108.144H554.146L554.667 105.022H561.099L561.89 100.504H549.983Z" fill="#C9D0D6"/>
<g clip-path="url(#clip0)">
<path fill-rule="evenodd" clip-rule="evenodd" d="M283.172 14.5931C291.793 14.5931 296.103 20.4553 296.103 28.2131C296.103 35.6265 291.275 41.8351 282.654 41.8351C274.034 41.8351 269.724 35.9719 269.724 28.2131C269.724 20.7998 274.551 14.5931 283.172 14.5931ZM354.892 27.0064C354.719 33.3853 357.822 38.0408 364.03 38.0408C366.789 38.0408 368.167 37.3529 369.893 36.1452L370.581 37.0064C368.856 39.4198 365.064 41.8351 360.237 41.8351C352.479 41.8341 346.962 36.3174 346.962 28.3864C346.962 21.3175 351.444 14.5931 360.237 14.5931C367.477 14.5931 370.926 19.9386 370.926 27.0064H354.892ZM334.377 14.9376C331.964 14.9376 330.068 15.4553 328.172 16.4888C328.172 10.9721 328.172 5.97312 328.345 4.24971L316.793 6.3176V7.35204L318 7.52428C319.55 7.86876 320.069 8.72997 320.411 10.7999C320.758 14.9376 320.584 37.0054 320.411 40.6264C323.514 41.3164 326.791 41.8341 330.067 41.8341C339.205 41.8341 344.722 36.1442 344.722 27.1787C344.722 20.1108 340.24 14.9376 334.377 14.9376ZM391.446 15.9731C389.377 15.1099 386.619 14.5931 383.516 14.5931C377.138 14.5931 373.17 18.3854 373.17 22.8687C373.17 27.3519 376.099 29.2476 380.241 30.6275C384.55 32.1777 385.758 33.3853 385.758 35.4542C385.758 37.5231 384.206 39.4188 381.447 39.4188C378.172 39.4188 375.757 37.5231 373.861 32.3499L372.654 32.6964L372.827 40.282C374.896 41.1432 378.688 41.8341 381.965 41.8341C388.689 41.8341 393 38.3843 393 33.0409C393 29.4198 391.102 27.3519 386.62 25.6265C381.791 23.7309 380.069 22.5242 380.069 20.2821C380.069 18.0409 381.623 16.4888 383.692 16.4888C386.793 16.4888 388.862 18.3854 390.416 23.0409L391.622 22.6964L391.446 15.9731ZM318.515 15.2831C315.585 13.5607 310.412 14.4209 307.654 20.6285L307.825 14.5941L296.275 16.8353V17.8697L297.482 18.0419C299.035 18.2152 299.723 19.0764 299.896 21.3185C300.241 25.4563 300.069 32.6984 299.896 36.3184C299.723 38.3853 299.035 39.4198 297.482 39.593L296.275 39.7662V41.1451H312.309V39.7662L310.24 39.593C308.516 39.4198 307.999 38.3853 307.825 36.3184C307.481 33.0419 307.481 26.4907 307.654 22.3529C308.515 21.1453 312.309 20.1118 315.756 22.3529L318.515 15.2831ZM273.344 4.93867L273.518 15.1109L271.793 15.6286C270.07 10.4554 267.656 7.52528 263 7.52528H256.966C256.793 10.8008 256.621 16.3175 256.621 22.1797L260.758 22.0065C263.344 22.0065 264.549 19.9386 265.068 17.0075H266.62V29.2446H265.068C264.55 26.3145 263.344 24.2456 260.758 24.2456L256.62 24.0734C256.62 28.5546 256.792 32.1757 256.965 34.4178C257.31 37.6944 258.172 39.2455 260.413 39.4168L262.482 39.7632V41.1422H243V39.7632L244.724 39.4168C246.966 39.2465 247.827 37.6944 248.171 34.4178C248.517 29.0753 248.69 17.8677 248.171 11.6611C247.828 8.38549 246.965 7.00656 244.724 6.66208L243 6.48984V4.93867H273.344ZM282.654 16.3175C278.861 16.3175 277.827 21.4898 277.827 28.2131C277.827 34.7643 279.551 40.1087 283 40.1087C286.962 40.1087 287.999 34.9365 287.999 28.2131C287.999 21.662 286.276 16.3175 282.654 16.3175ZM330.412 39.9365C334.033 39.9365 336.62 34.593 336.62 27.6944C336.62 22.1787 334.552 17.6965 330.756 17.6965C329.893 17.6965 329.204 17.8687 328.17 18.2142C327.998 27.1787 328.17 37.3519 328.343 39.7652C328.859 39.9365 329.722 39.9365 330.412 39.9365ZM354.892 25.1108L362.995 24.9376C362.995 21.4897 362.478 16.3175 359.547 16.3175C356.617 16.3175 355.063 21.1443 354.892 25.1108Z" fill="#C9D0D6"/>
</g>
<path fill-rule="evenodd" clip-rule="evenodd" d="M583.796 0.114365C583.815 0.112839 599.833 -1.2544 599.833 12.2571C599.833 13.8827 600.13 19.5794 592.608 22.4497C596.9 23.6203 601.147 26.5698 601.147 33.6584C601.147 44.3293 592.273 45.9184 584.371 45.9854V45.9875H563.488V36.5531H567.633V9.5488H560.851L549.668 45.9875H534.987L523.46 9.5488H520.863V0.114365H540.102V9.5488H536.227L542.798 35.4802L549.939 9.5488H545.932V0.114365H583.796ZM583.796 27.3236H579.389V36.5531H583.796C589.69 36.5642 588.935 31.8809 588.938 31.9295C588.866 30.947 588.566 27.2091 583.796 27.3236ZM583.796 18.5902V18.6039C587.84 17.9412 587.957 14.9308 587.969 13.8249C587.988 12.248 587.157 9.60635 583.996 9.5488H579.389V18.5902H583.796Z" fill="#C9D0D6"/>
<path fill-rule="evenodd" clip-rule="evenodd" d="M15.2557 128.086C17.4609 128.086 18.2696 126.86 18.2696 125.684C18.2696 122.634 13.4303 123.687 13.4303 121.85C13.4303 121.078 14.1409 120.551 15.1086 120.551C16.003 120.551 16.8607 120.845 17.4733 121.531L18.0859 120.784C17.3998 120.061 16.4319 119.632 15.1945 119.632C13.5774 119.632 12.3767 120.563 12.3767 121.911C12.3767 124.827 17.216 123.651 17.216 125.758C17.216 126.395 16.7503 127.179 15.2926 127.179C14.1409 127.179 13.2587 126.616 12.732 126.003L12.1194 126.787C12.7932 127.547 13.8468 128.086 15.2557 128.086ZM136.74 128.086C138.945 128.086 139.754 126.86 139.754 125.684C139.754 122.634 134.915 123.687 134.915 121.85C134.915 121.078 135.625 120.551 136.593 120.551C137.487 120.551 138.345 120.845 138.958 121.531L139.57 120.784C138.884 120.061 137.916 119.632 136.679 119.632C135.062 119.632 133.861 120.563 133.861 121.911C133.861 124.827 138.701 123.651 138.701 125.758C138.701 126.395 138.235 127.179 136.777 127.179C135.625 127.179 134.743 126.616 134.216 126.003L133.604 126.787C134.278 127.547 135.331 128.086 136.74 128.086ZM78.9016 119.767V124.741C78.9016 126.236 79.6979 127.179 81.2049 127.179C82.7116 127.179 83.5203 126.236 83.5203 124.741V119.767H84.5494V124.753C84.5494 126.787 83.4223 128.086 81.2049 128.086C78.9996 128.086 77.8725 126.775 77.8725 124.765V119.767H78.9016ZM91.5571 128.086C93.7624 128.086 94.5711 126.86 94.5711 125.684C94.5711 122.634 89.7317 123.687 89.7317 121.85C89.7317 121.078 90.4424 120.551 91.4103 120.551C92.3044 120.551 93.1621 120.845 93.7747 121.531L94.3873 120.784C93.7012 120.061 92.7333 119.632 91.496 119.632C89.8788 119.632 88.6781 120.563 88.6781 121.911C88.6781 124.827 93.5175 123.651 93.5175 125.758C93.5175 126.395 93.0519 127.179 91.594 127.179C90.4424 127.179 89.5601 126.616 89.0334 126.003L88.4208 126.787C89.0946 127.547 90.1482 128.086 91.5571 128.086ZM127.111 128.086C129.316 128.086 130.124 126.86 130.124 125.684C130.124 122.634 125.285 123.687 125.285 121.85C125.285 121.078 125.996 120.551 126.964 120.551C127.858 120.551 128.716 120.845 129.328 121.531L129.941 120.784C129.255 120.061 128.287 119.632 127.049 119.632C125.432 119.632 124.231 120.563 124.231 121.911C124.231 124.827 129.071 123.651 129.071 125.758C129.071 126.395 128.605 127.179 127.147 127.179C125.996 127.179 125.114 126.616 124.587 126.003L123.974 126.787C124.648 127.547 125.702 128.086 127.111 128.086ZM23.2558 127.939H22.2389V119.767H23.6969L26.2453 126.064L28.7813 119.767H30.2391V127.939H29.2223V121.066L26.4535 127.939H26.037L23.2558 121.066V127.939ZM54.4846 127.032H58.2825V127.939H53.4677V119.767H54.4846V127.032ZM71.4405 127.939H67.7161V119.767H71.3548C72.7759 119.767 73.6457 120.625 73.6457 121.85C73.6457 122.879 72.9596 123.565 72.2123 123.724C73.0822 123.859 73.805 124.753 73.805 125.733C73.805 127.044 72.9351 127.939 71.4405 127.939ZM99.5573 127.939H98.5406V119.767H99.5573V127.939ZM104.936 127.939H103.919V119.767H104.96L109.665 126.15V119.767H110.682V127.939H109.701L104.936 121.421V127.939ZM120.397 120.674H116.06V123.308H120.311V124.214H116.06V127.032H120.397V127.939H115.043V119.767H120.397V120.674ZM41.5961 127.939H40.4323L39.7095 126.113H35.642L34.9192 127.939H33.7552L37.0509 119.767H38.3127L41.5961 127.939ZM45.9945 127.032H49.7924V127.939H44.9775V119.767H45.9945V127.032ZM71.2444 124.214H68.7328V127.032H71.2444C72.1878 127.032 72.7514 126.493 72.7514 125.623C72.7514 124.876 72.2368 124.214 71.2444 124.214ZM39.4154 125.219L37.6756 120.808L35.9483 125.219H39.4154ZM71.1832 120.674H68.7328V123.308H71.1832C72.1021 123.308 72.5921 122.744 72.5921 121.997C72.5921 121.262 72.1021 120.674 71.1832 120.674ZM140.485 114.373C140.485 113.193 141.203 112.095 142.641 112.095C144.018 112.095 145.048 112.919 145.048 114.234C145.048 115.873 143.964 116.477 142.97 116.477C141.597 116.477 140.485 115.764 140.485 114.373ZM27.468 81.7118L27.472 81.7091C25.7582 84.0256 19.549 94.787 15.7289 101.488L15.6391 101.646L15.9135 116.37L15.9099 116.369C15.8377 116.356 14.6683 116.149 13.7226 116.149C12.8685 116.149 11.6046 116.356 11.5266 116.369L11.5228 116.37L11.7972 101.646L11.7731 101.604C9.70795 98.0305 3.73291 87.3349 0 81.7091L0.022039 81.7142C1.89423 82.1382 2.68718 82.1112 4.57219 81.7091L4.6003 81.7588C6.98816 85.9851 10.6352 91.8762 13.7181 96.9819L13.8623 96.7446C16.9187 91.7215 21.584 84.0924 22.8625 81.7091L22.8798 81.7136C24.3497 82.0952 25.8306 82.0813 27.4707 81.7091L27.468 81.7118ZM122.569 83.3449C112.909 83.3449 105.525 88.8304 105.525 99.029C105.525 107.432 110.436 114.828 122.649 114.828C132.989 114.828 139.74 109.143 139.74 99.1777C139.74 89.7805 133.442 83.3449 122.569 83.3449ZM122.581 85.0511C129.835 85.0511 135.178 89.458 135.178 99.1777C135.178 109.744 128.715 113.17 122.592 113.17C116.051 113.17 110.092 109.331 110.092 98.9692C110.092 88.229 116.697 85.0511 122.581 85.0511ZM89.0804 84.9969C79.3801 84.9969 74.2909 91.1476 74.2909 99.1205C74.2909 107.848 79.8468 113.17 89.0663 113.17C99.0335 113.17 103.902 107.172 103.902 99.2121C103.902 90.3376 98.0881 84.9969 89.0804 84.9969ZM32.5972 85.3588C33.7149 85.7321 34.6419 85.7544 35.7812 85.357L35.7798 85.3579C39.2867 94.2315 44.8046 107.662 47.5543 112.797L47.5581 112.798L47.5545 112.797C46.3266 112.489 44.6656 112.37 42.9965 112.806L42.9969 112.806C41.9546 110.121 40.885 107.436 39.8193 104.755L39.8184 104.755C36.069 104.634 32.3202 104.649 28.5697 104.755L28.5643 104.752C27.4563 107.553 26.3485 110.338 25.3756 112.796L25.3671 112.793C25.3705 112.795 25.3738 112.797 25.3772 112.798C24.2766 112.5 22.6106 112.366 20.866 112.8L20.85 112.806L20.8516 112.803L20.866 112.8L20.8783 112.794L20.8516 112.803C24.6663 105.026 28.9086 94.596 32.5916 85.3554L32.5972 85.3588ZM72.9668 85.4746C72.5732 94.5999 72.6092 103.708 72.9713 112.803L72.954 112.799C71.4744 112.445 69.9596 112.431 68.4045 112.803L68.4133 112.798L68.3987 112.803C68.624 108.544 68.7425 104.289 68.7569 100.037C63.6441 99.9681 58.5315 99.9715 53.4187 100.043L53.416 100.041C53.4304 104.292 53.5487 108.546 53.774 112.803L53.7594 112.798L53.7684 112.803C52.2133 112.431 50.6984 112.445 49.2189 112.799L49.2014 112.803C49.565 103.672 49.5996 94.5286 49.2014 85.3673L49.2196 85.3716C50.765 85.7386 52.2823 85.7271 53.774 85.3673L53.7686 85.4744C53.5505 89.7036 53.4319 93.9364 53.4162 98.1726L53.4187 98.1715C58.5256 98.3004 63.6387 98.2905 68.7567 98.1715C68.7407 93.9 68.6204 89.6319 68.3987 85.3673L68.4162 85.3716C69.9083 85.7287 71.4259 85.7373 72.9713 85.3673L72.9668 85.4746ZM88.8434 86.6602C88.9277 86.6584 89.013 86.6602 89.0978 86.6602C95.0296 86.6602 99.3861 90.7008 99.3861 99.1435C99.3861 107.576 95.0355 111.615 89.109 111.615C82.643 111.615 78.8436 106.982 78.8436 99.1664C78.8436 90.3272 83.525 86.769 88.8434 86.6602ZM142.783 108.778C143.898 100.898 144.576 92.6166 145.227 84.3594C145.227 82.7132 146.315 82.0696 147.413 82.0696C147.605 82.0696 147.889 82.1096 147.889 82.1096L147.889 82.1114L147.89 82.1092C149.039 82.3012 149.807 83.0047 149.807 84.2154C149.807 84.6162 149.642 85.1802 149.531 85.6574C148.762 89.0505 145.756 101.038 144.49 109.041L144.492 109.046C143.986 108.842 143.465 108.666 142.793 108.78L142.782 108.782V108.782L142.778 108.782L142.783 108.778ZM34.1829 90.0909C33.1873 92.9539 31.3028 97.8095 29.3188 102.841L29.3226 102.84C32.5646 102.954 35.8082 102.952 39.0504 102.84L39.0601 102.844C37.366 98.5736 35.6993 94.3167 34.1829 90.0909Z" fill="#C9D0D6"/>
<path fill-rule="evenodd" clip-rule="evenodd" d="M307.67 128.46H298.863C298.91 127.749 298.953 127.114 298.996 126.459C299.646 126.315 300.247 126.183 300.885 126.042V101.198C300.16 101.088 299.426 100.977 298.645 100.858V98.7841C300.58 98.5154 302.541 98.2431 304.571 97.9607C304.785 98.725 304.984 99.4351 305.192 100.18C305.274 100.108 305.362 100.046 305.43 99.9667C306.876 98.3037 308.741 97.731 310.87 97.9355C313.542 98.1928 315.013 99.8788 315.75 102.286C316.079 103.359 316.3 104.489 316.385 105.607C316.56 107.909 316.599 110.224 316.153 112.506C315.989 113.348 315.757 114.196 315.421 114.983C314.393 117.386 312.51 118.653 309.924 118.879C308.603 118.995 307.309 118.867 306.08 118.321C306.003 118.287 305.916 118.276 305.79 118.244V126.044C306.428 126.175 307.069 126.308 307.805 126.459C307.76 127.117 307.717 127.768 307.67 128.46ZM402.709 118.582H397.032C396.869 118.083 396.694 117.547 396.498 116.945C396.312 117.09 396.173 117.184 396.051 117.296C393.734 119.413 390.622 119.197 388.644 118.239C387.111 117.496 386.282 116.201 385.993 114.554C385.898 114.011 385.858 113.452 385.857 112.9C385.845 109.171 385.851 105.441 385.851 101.712V100.876C385.074 100.791 384.355 100.714 383.603 100.633V98.7388C385.759 98.4887 387.927 98.2371 390.167 97.9778C390.349 98.7253 390.669 99.3988 390.667 100.173C390.657 104.08 390.658 107.986 390.666 111.893C390.667 112.423 390.701 112.957 390.771 113.483C390.961 114.917 391.882 115.767 393.318 115.792C393.819 115.8 394.333 115.7 394.824 115.581C395.363 115.45 396.044 114.526 396.044 113.984C396.047 109.678 396.044 105.372 396.041 101.065C396.041 101.024 396.017 100.983 395.978 100.86C395.24 100.787 394.516 100.715 393.737 100.638V98.7352C395.923 98.486 398.116 98.2357 400.332 97.9832C400.601 98.8078 400.889 99.5553 400.886 100.403C400.866 105.353 400.876 110.303 400.876 115.253V116.054C401.585 116.199 402.227 116.331 402.925 116.474C402.852 117.19 402.782 117.865 402.709 118.582ZM287.885 109.684C287.883 111.342 288.14 112.812 289.025 114.105C289.815 115.261 290.906 115.866 292.333 115.89C293.667 115.912 294.93 115.648 296.15 115.131C296.311 115.064 296.475 115.003 296.698 114.916C296.967 115.531 297.23 116.133 297.526 116.812C297.166 117.056 296.824 117.333 296.443 117.539C293.985 118.867 291.398 119.325 288.677 118.531C286.396 117.866 284.902 116.287 283.919 114.189C282.835 111.877 282.59 109.425 282.801 106.91C282.929 105.374 283.261 103.885 283.914 102.482C284.975 100.201 286.634 98.6105 289.154 98.08C291.56 97.5739 293.8 97.8797 295.649 99.6623C296.747 100.721 297.354 102.073 297.775 103.518C298.208 104.999 298.358 106.523 298.363 108.052C298.365 108.552 298.071 109.052 297.91 109.56C294.546 109.601 291.25 109.642 287.885 109.684ZM347.098 109.56C343.716 109.602 340.42 109.643 337.069 109.684C337.088 111.488 337.373 113.118 338.511 114.488C339.243 115.369 340.187 115.836 341.343 115.882C342.65 115.935 343.905 115.72 345.113 115.225C345.357 115.126 345.602 115.03 345.895 114.913C346.163 115.533 346.423 116.135 346.71 116.799C346.477 116.971 346.262 117.152 346.025 117.3C343.723 118.741 341.213 119.238 338.564 118.724C336.089 118.244 334.362 116.698 333.248 114.478C332.115 112.219 331.795 109.799 331.966 107.299C332.08 105.628 332.399 104.003 333.11 102.475C333.943 100.685 335.157 99.2395 337.033 98.5016C339.23 97.6365 341.446 97.5514 343.583 98.7076C344.988 99.468 345.87 100.711 346.486 102.152C347.284 104.019 347.551 105.996 347.55 108.003C347.55 108.525 347.255 109.047 347.098 109.56ZM382.756 109.561C379.35 109.602 376.069 109.642 372.736 109.682C372.658 110.404 372.775 111.074 372.903 111.738C373.099 112.752 373.474 113.689 374.149 114.491C374.91 115.392 375.873 115.847 377.049 115.887C378.332 115.932 379.565 115.712 380.751 115.224C380.994 115.124 381.241 115.034 381.54 114.919C381.809 115.544 382.069 116.148 382.367 116.843C382.258 116.915 382.147 116.984 382.039 117.06C379.907 118.545 377.519 119.127 374.969 118.847C371.824 118.501 369.724 116.652 368.585 113.789C367.11 110.084 367.174 106.319 368.691 102.636C369.665 100.271 371.384 98.6359 373.958 98.0842C375.975 97.6518 377.928 97.7814 379.694 99C380.948 99.8656 381.714 101.095 382.255 102.481C382.951 104.261 383.216 106.125 383.173 108.023C383.161 108.531 382.906 109.033 382.756 109.561ZM263.532 94.2803V98.409H267.162C267.081 99.3277 267.009 100.149 266.934 101.001C265.82 101.128 264.767 101.248 263.672 101.374C263.648 101.562 263.607 101.732 263.607 101.901C263.609 105.872 263.614 109.843 263.622 113.813C263.622 114.079 263.623 114.347 263.659 114.609C263.775 115.44 264.346 115.961 265.188 115.986C265.85 116.005 266.512 115.99 267.254 115.99C267.329 116.729 267.399 117.424 267.471 118.128C266.95 118.478 266.384 118.572 265.824 118.679C264.596 118.913 263.366 119.002 262.123 118.787C260.228 118.459 258.992 117.179 258.77 115.273C258.725 114.878 258.722 114.476 258.722 114.078C258.718 110.085 258.72 106.092 258.717 102.099C258.716 101.862 258.685 101.625 258.668 101.377C257.895 101.249 257.178 101.129 256.376 100.995C256.413 100.168 256.45 99.3592 256.49 98.4686C257.343 98.427 258.173 98.3865 259.072 98.3424C259.454 97.0527 259.835 95.7664 260.224 94.4512C261.311 94.3955 262.369 94.3409 263.532 94.2803ZM417.864 117.337C417.864 118.144 417.116 118.79 416.166 118.79C415.216 118.79 414.459 118.144 414.459 117.337C414.459 116.54 415.216 115.893 416.166 115.893C417.116 115.893 417.864 116.54 417.864 117.337ZM403.922 98.9904C405.937 98.7124 407.882 98.4443 409.867 98.1706C410.026 98.7916 410.171 99.3604 410.306 99.8851C411.144 99.4992 411.957 99.0383 412.828 98.749C413.682 98.4647 414.593 98.3475 415.482 98.1703C416.251 98.0165 416.878 98.2434 417.349 98.9814C417.155 100.715 416.954 102.515 416.743 104.397C415.652 104.356 414.597 104.316 413.486 104.275C413.361 103.279 413.24 102.321 413.106 101.258C412.383 101.51 411.724 101.74 411.052 101.974V116.081C411.695 116.227 412.355 116.377 413.071 116.539C413.027 117.224 412.984 117.898 412.94 118.597H404.155C404.187 117.881 404.217 117.222 404.249 116.534C404.857 116.384 405.435 116.242 406.059 116.087V101.405C405.384 101.323 404.693 101.24 403.922 101.146V98.9904ZM356.965 118.589H348.223V116.481C348.894 116.336 349.514 116.203 350.173 116.062V101.402C349.456 101.32 348.719 101.236 347.943 101.147V98.9871C349.844 98.7151 351.725 98.4458 353.707 98.1631C353.884 98.8057 354.056 99.4291 354.223 100.039C354.66 99.7094 355.111 99.3181 355.61 99.0012C357.514 97.7907 359.565 97.5835 361.663 98.3445C363.426 98.9847 364.35 100.38 364.656 102.192C364.741 102.693 364.774 103.207 364.776 103.716C364.785 107.579 364.781 111.442 364.781 115.305V116.056C365.534 116.207 366.18 116.336 366.868 116.474C366.829 117.194 366.792 117.87 366.753 118.586H359.972C359.964 118.433 359.951 118.285 359.951 118.138C359.951 113.631 359.964 109.124 359.939 104.617C359.935 104.011 359.796 103.386 359.61 102.805C359.384 102.1 358.822 101.718 358.092 101.558C357.393 101.404 356.705 101.461 356.067 101.73C355.504 101.967 355.054 102.412 355.052 103.079C355.039 107.342 355.048 111.604 355.051 115.867C355.051 115.91 355.072 115.952 355.1 116.063C355.71 116.187 356.352 116.318 357.094 116.47C357.052 117.167 357.009 117.861 356.965 118.589ZM246.67 118.585H237.838C237.876 117.89 237.911 117.217 237.951 116.478C238.588 116.34 239.207 116.205 239.823 116.07C239.963 115.594 239.999 102.147 239.851 101.398C239.135 101.318 238.396 101.235 237.627 101.149V98.9931C239.516 98.7223 241.414 98.4503 243.405 98.1649C243.579 98.8042 243.745 99.412 243.929 100.085C244.091 99.9415 244.273 99.773 244.463 99.6129C246.31 98.053 248.43 97.5853 250.752 98.1508C252.766 98.6422 253.921 100.013 254.327 102.016C254.432 102.534 254.468 103.073 254.47 103.602C254.482 107.486 254.476 111.371 254.476 115.255V116.055C255.19 116.195 255.836 116.323 256.553 116.464C256.536 116.819 256.513 117.162 256.505 117.506C256.497 117.856 256.503 118.206 256.503 118.589H249.679V117.819C249.679 113.558 249.683 109.296 249.673 105.034C249.672 104.527 249.63 104.013 249.552 103.512C249.369 102.332 248.672 101.632 247.481 101.519C246.618 101.437 245.746 101.457 245.114 102.235C244.865 102.541 244.744 102.854 244.746 103.261C244.761 106.501 244.754 109.741 244.754 112.982C244.754 113.781 244.752 114.58 244.755 115.379C244.756 115.596 244.775 115.813 244.787 116.062C245.493 116.206 246.118 116.333 246.796 116.471C246.754 117.187 246.713 117.866 246.67 118.585ZM326.925 118.586H318.222V116.551C318.846 116.392 319.438 116.243 320.071 116.082V101.398C319.364 101.316 318.671 101.236 317.945 101.153V98.9937C319.878 98.7226 321.822 98.45 323.847 98.1661C324.017 98.7586 324.182 99.3412 324.348 99.9202C324.921 99.621 325.48 99.3067 326.057 99.0321C327.132 98.5214 328.287 98.3262 329.456 98.1646C330.233 98.0569 330.847 98.2482 331.354 98.9565C331.164 100.691 330.967 102.493 330.758 104.396C329.668 104.356 328.597 104.317 327.487 104.276C327.364 103.278 327.249 102.341 327.113 101.24C326.341 101.524 325.687 101.763 325.034 102.003V116.081C325.726 116.235 326.39 116.383 327.096 116.541L326.925 118.586ZM236.226 118.586H218.416V116.029C219.276 115.881 220.077 115.743 220.917 115.598V92.3058C219.963 92.2015 219.043 92.101 218.122 92V89.4689H235.84C235.706 91.7898 235.571 94.1109 235.432 96.5085C234.25 96.4665 233.131 96.427 231.954 96.3856C231.873 94.922 231.794 93.51 231.713 92.0458H226.3V102.422H228.645C228.826 101.668 229.006 100.919 229.194 100.137H231.611V107.275H229.237C229.043 106.508 228.845 105.724 228.641 104.915H226.31V115.93H231.752C231.925 114.364 232.098 112.807 232.279 111.166C233.499 111.207 234.687 111.246 235.941 111.288C236.037 113.736 236.13 116.139 236.226 118.586ZM277.757 118.576H269.033V116.548C269.658 116.389 270.25 116.237 270.856 116.083V101.396C270.149 101.314 269.474 101.236 268.758 101.153V98.9877C270.73 98.7142 272.674 98.4443 274.678 98.1667C274.832 98.782 274.974 99.3526 275.129 99.9715C275.364 99.8291 275.601 99.6809 275.842 99.5403C277.247 98.7208 278.775 98.3283 280.384 98.1523C281.162 98.0677 281.713 98.319 282.162 98.9706C281.963 100.74 281.762 102.541 281.554 104.403C280.438 104.357 279.383 104.314 278.289 104.269C278.166 103.275 278.051 102.337 277.931 101.361C277.137 101.425 276.474 101.667 275.849 102.087V116.076C276.505 116.225 277.165 116.375 277.872 116.535C277.833 117.217 277.796 117.871 277.757 118.576ZM414.967 117.346C414.967 117.95 415.476 118.429 416.166 118.429C416.857 118.429 417.365 117.95 417.365 117.337C417.365 116.741 416.857 116.254 416.157 116.254C415.476 116.254 414.967 116.741 414.967 117.346ZM415.955 118.026H415.485V116.691C415.591 116.674 415.84 116.649 416.157 116.649C416.502 116.649 416.655 116.691 416.77 116.75C416.867 116.808 416.934 116.909 416.934 117.044C416.934 117.178 416.79 117.295 416.579 117.346V117.362C416.752 117.413 416.847 117.513 416.895 117.707C416.943 117.9 416.972 117.976 417.001 118.026H416.473C416.425 117.976 416.397 117.858 416.368 117.74C416.339 117.606 416.262 117.539 416.109 117.539H415.955V118.026ZM415.974 117.262H416.109C416.281 117.262 416.397 117.203 416.397 117.102C416.397 116.993 416.291 116.934 416.128 116.934C416.07 116.934 416.013 116.943 415.974 116.943V117.262ZM305.755 115.473C307.337 116.143 308.856 116.178 310.408 115.634C310.717 115.526 310.896 115.343 310.969 115.046C311.156 114.275 311.39 113.508 311.503 112.724C311.844 110.344 311.8 107.948 311.623 105.559C311.562 104.749 311.411 103.928 311.169 103.152C310.641 101.461 309.493 100.809 307.74 101.099C307.653 101.113 307.567 101.14 307.481 101.157C306.427 101.359 305.758 102.16 305.757 103.238C305.754 107.117 305.755 110.996 305.755 114.875V115.473ZM343.127 107.059C343.066 106.39 343.033 105.799 342.956 105.215C342.81 104.114 342.592 103.029 342.034 102.048C341.311 100.777 340.226 100.412 338.873 100.962C338.531 101.101 338.291 101.312 338.131 101.663C337.539 102.968 337.247 104.347 337.078 105.759C337.019 106.254 336.99 106.754 336.938 107.348C339.046 107.25 341.044 107.156 343.127 107.059ZM293.939 107.061C293.885 106.445 293.855 105.938 293.794 105.435C293.648 104.244 293.423 103.07 292.821 102.01C292.16 100.846 291.159 100.482 289.89 100.891C289.39 101.052 289.06 101.333 288.861 101.825C288.196 103.466 287.868 105.173 287.786 106.934C287.781 107.055 287.829 107.178 287.86 107.345C289.876 107.251 291.859 107.158 293.939 107.061ZM378.757 107.064C378.696 105.665 378.54 104.381 378.145 103.13C377.944 102.491 377.628 101.923 377.215 101.388C376.428 100.369 373.984 100.575 373.609 101.972C373.305 103.102 372.922 104.208 372.767 105.374C372.683 106.004 372.566 106.631 372.688 107.345C374.7 107.252 376.68 107.159 378.757 107.064Z" fill="#C9D0D6"/>
<defs>
<clipPath id="clip0">
<rect width="150" height="38" fill="white" transform="translate(243 4)"/>
</clipPath>
</defs>
</svg>
