<svg width="10" height="16" viewBox="0 0 10 16" fill="none" xmlns="http://www.w3.org/2000/svg">
<path fill-rule="evenodd" clip-rule="evenodd" d="M6.64027 1.12191C6.64027 1.12191 4.21868 -0.450641 2.74655 2.07067C1.99585 3.35635 2.99758 5.43268 2.80613 5.39408C1.56245 5.15642 0.772853 5.34875 0.40159 5.93724C1.32062 6.21294 1.69114 6.73941 1.17793 7.92708C0.738872 8.94324 -0.0465933 9.88242 0.00216803 10.987C0.0904008 13.3031 1.36224 14.5958 3.34085 15.1625C2.35737 14.2753 1.95741 12.5829 2.22752 11.7665C2.65345 10.4792 3.66108 9.9063 4.31719 8.96529C4.64093 8.50092 4.64688 7.96919 4.40241 7.13855C6.2112 8.6701 6.09878 10.1465 5.05262 11.5477C5.75596 11.9557 6.42491 11.6861 7.05282 10.6072C7.67024 12.521 6.89568 13.9079 5.8167 15.1201C8.16289 14.4268 9.41917 12.7843 9.43118 10.1235C9.34621 8.0262 8.30918 6.16698 6.10208 4.04061C4.85993 2.84387 5.31756 1.20113 6.64027 1.12191Z" fill="#FE3B00"/>
</svg>
