<svg width="114" height="100" viewBox="0 0 114 100" fill="none" xmlns="http://www.w3.org/2000/svg">
<g clip-path="url(#clip0)">
<path fill-rule="evenodd" clip-rule="evenodd" d="M58.2507 37.0532C56.728 36.2291 54.8939 36.2492 53.3913 37.1085C44.4416 42.214 13.2054 60.0381 3.42151 65.621C2.81347 65.9678 2.44158 66.611 2.44158 67.3044C2.43655 68.0029 2.81347 68.6462 3.41648 68.9929C12.8235 74.3849 42.1401 91.1789 53.0647 97.4351C55.6325 98.9075 58.7934 98.8924 61.3512 97.3999C71.9693 91.1838 100.065 74.7467 109.929 68.9728C110.638 68.5557 111.065 67.7919 111.055 66.9728C111.04 66.1537 110.582 65.4 109.864 65.013C99.1501 59.209 67.3311 41.9728 58.2507 37.0532Z" fill="#D7DFE5" fill-opacity="0.16"/>
<path fill-rule="evenodd" clip-rule="evenodd" d="M30.0231 79.0669C29.5105 78.7302 29.199 78.1523 29.199 77.5342C29.199 71.2177 29.199 36.5895 29.199 28.6196C29.199 27.6046 29.7366 26.6699 30.611 26.1624C37.5608 22.1373 67.9377 4.53925 74.0432 1.00156C74.7166 0.609605 75.5357 0.559349 76.2492 0.870907C77.204 1.28297 78.5356 1.86089 79.3748 2.2227C79.8522 2.42873 80.1638 2.90109 80.1638 3.41868C80.1638 9.45385 80.1638 45.5292 80.1638 53.092C80.1638 53.9513 79.7015 54.7403 78.9527 55.1674C72.3045 58.9513 40.2392 77.1926 34.214 80.6197C33.616 80.9614 32.8773 80.9363 32.2994 80.5594C31.611 80.1071 30.6864 79.499 30.0231 79.0669Z" fill="#E5F1FC"/>
<path fill-rule="evenodd" clip-rule="evenodd" d="M29.6562 79.6247C30.3195 80.0619 31.2441 80.6649 31.9325 81.1172C32.7164 81.6348 33.7265 81.6649 34.5456 81.2026C40.5707 77.7754 72.636 59.5342 79.2843 55.7503C80.239 55.2076 80.832 54.1925 80.832 53.092C80.832 45.5292 80.832 9.45387 80.832 3.41869C80.832 2.62975 80.3647 1.92115 79.6411 1.60457C78.8019 1.24276 77.4702 0.669927 76.5155 0.257867C75.6059 -0.139118 74.5657 -0.0788439 73.7064 0.418644C67.6008 3.95633 37.224 21.5544 30.2793 25.5795C29.1938 26.2076 28.5255 27.3684 28.5255 28.6196C28.5255 36.5895 28.5255 71.2177 28.5255 77.5343C28.5255 78.3785 28.9526 79.1674 29.6562 79.6247ZM30.3948 78.5091C30.0632 78.293 29.8672 77.9262 29.8672 77.5343C29.8672 71.2177 29.8672 36.5895 29.8672 28.6196C29.8672 27.8458 30.2793 27.1272 30.9476 26.7403C37.8973 22.7151 68.2743 5.11717 74.3798 1.57948C74.8672 1.29807 75.4652 1.26286 75.9828 1.48397C76.9375 1.89603 78.2692 2.47395 79.1084 2.83576C79.3395 2.93626 79.4903 3.16743 79.4903 3.41869C79.4903 9.45387 79.4903 45.5292 79.4903 53.092C79.4903 53.7101 79.1586 54.278 78.621 54.5845C71.9727 58.3684 39.9074 76.6096 33.8823 80.0368C33.5003 80.2528 33.033 80.2377 32.6662 79.9965L30.3948 78.5091Z" fill="#1B374C"/>
<path fill-rule="evenodd" clip-rule="evenodd" d="M79.7431 2.55428C79.7431 2.55428 42.6024 23.8457 35.0194 28.1925C34.1099 28.7101 33.5521 29.6799 33.5471 30.7252C33.5169 39.3181 33.3762 80.8006 33.3762 80.8006C33.3762 80.9362 33.4868 81.0518 33.6275 81.0518C33.7632 81.0518 33.8787 80.9413 33.8787 80.8006C33.8787 80.8006 34.0195 39.3181 34.0496 30.7252C34.0496 29.8608 34.5169 29.0618 35.2707 28.6297C42.8486 24.2829 79.9893 2.99146 79.9893 2.99146C80.1099 2.92111 80.1551 2.77039 80.0848 2.64979C80.0144 2.52918 79.8637 2.48393 79.7431 2.55428Z" fill="#1B374C"/>
<path fill-rule="evenodd" clip-rule="evenodd" d="M77.0738 7.78751L45.7924 25.883L45.8174 29.672L77.0738 11.883V7.78751Z" fill="white"/>
<path d="M42.5211 31.2589C43.5421 30.6708 44.3698 29.3664 44.3698 28.3454C44.3698 27.3244 43.5421 26.9735 42.5211 27.5616C41.5001 28.1496 40.6725 29.454 40.6725 30.475C40.6725 31.496 41.5001 31.8469 42.5211 31.2589Z" fill="#83C11F" fill-opacity="0.16"/>
<path d="M38.2054 33.6528C39.2264 33.0647 40.0541 31.7603 40.0541 30.7394C40.0541 29.7184 39.2264 29.3674 38.2054 29.9555C37.1845 30.5436 36.3568 31.848 36.3568 32.869C36.3568 33.8899 37.1845 34.2409 38.2054 33.6528Z" fill="#FF0002" fill-opacity="0.13"/>
<path fill-rule="evenodd" clip-rule="evenodd" d="M77.0737 15.4153L36.4606 38.1539L36.3551 76.169L77.0737 52.9379V15.4153Z" fill="#FEFFFF"/>
<path fill-rule="evenodd" clip-rule="evenodd" d="M73.8896 35.0752L40.0409 54.0896L39.9865 56.6432L73.8896 37.5647V35.0752Z" fill="#E5F1FC"/>
<path fill-rule="evenodd" clip-rule="evenodd" d="M73.8896 39.02L40.0409 58.0343L39.9865 60.5879L73.8896 41.5094V39.02Z" fill="#E5F1FC"/>
<path fill-rule="evenodd" clip-rule="evenodd" d="M73.8896 45.8591L40.0409 64.8735L39.9865 67.4271L73.8896 48.3486V45.8591Z" fill="#E5F1FC"/>
<path fill-rule="evenodd" clip-rule="evenodd" d="M73.8896 49.8039L40.0409 68.8183L39.9865 71.3719L73.8896 52.2933V49.8039Z" fill="#E5F1FC"/>
<path fill-rule="evenodd" clip-rule="evenodd" d="M77.325 15.4152C77.325 15.3248 77.2798 15.2444 77.2044 15.1992C77.124 15.154 77.0285 15.154 76.9531 15.1942L36.335 37.9329C36.2597 37.9781 36.2094 38.0635 36.2094 38.1539L36.1039 76.164C36.1039 76.2544 36.1541 76.3399 36.2295 76.3851C36.3099 76.4304 36.4054 76.4304 36.4808 76.3851L77.1994 53.159C77.2798 53.1138 77.325 53.0283 77.325 52.9379V15.4152ZM36.7119 38.2997L36.6114 75.7318L76.8225 52.7921V15.8424L36.7119 38.2997Z" fill="#1B374C"/>
<path fill-rule="evenodd" clip-rule="evenodd" d="M73.9062 18.8637L40.0574 37.9037L39.9695 49.3479L73.9062 30.6002V18.8637Z" fill="#0482DF" fill-opacity="0.2"/>
<path fill-rule="evenodd" clip-rule="evenodd" d="M73.909 18.7824L88.7079 19.7573L88.5119 32.8527L48.5069 55.1542L39.9692 49.3452L40.0547 37.903L73.909 18.7824Z" fill="#63AEED" fill-opacity="0.15"/>
<path fill-rule="evenodd" clip-rule="evenodd" d="M89.0788 20.2029C89.0788 20.0435 88.9984 19.894 88.8577 19.8143C88.722 19.731 88.5511 19.7288 88.4104 19.8065C83.4808 22.5105 52.9331 39.2678 48.9029 41.4787C48.6316 41.6272 48.4657 41.911 48.4607 42.2204C48.4456 44.3473 48.3853 52.6339 48.3652 54.8837C48.3652 55.0014 48.4255 55.1108 48.5311 55.1683C48.6316 55.2294 48.7572 55.2311 48.8577 55.1745C53.119 52.8219 83.5411 36.0158 88.4205 33.3202C88.8275 33.0958 89.0788 32.6683 89.0788 32.203C89.0788 29.837 89.0788 22.5833 89.0788 20.2029Z" fill="#0482DF"/>
<path fill-rule="evenodd" clip-rule="evenodd" d="M87.3061 25.7844C87.3061 25.6253 87.2227 25.4774 87.0851 25.3958C86.9486 25.3139 86.7781 25.3107 86.6379 25.3866C84.7067 26.4335 79.1532 29.4443 77.5415 30.3184C77.2674 30.4666 77.0969 30.7518 77.0957 31.0627C77.0906 31.9129 77.0805 33.6251 77.0755 34.5122C77.0742 34.6294 77.1361 34.7385 77.2371 34.7981C77.3382 34.8582 77.4619 34.8608 77.5655 34.8046C79.2428 33.8866 84.7295 30.8849 86.6417 29.8385C87.0522 29.6141 87.3061 29.1848 87.3061 28.7175C87.3061 27.8997 87.3061 26.6034 87.3061 25.7844Z" fill="#83C11F"/>
<path fill-rule="evenodd" clip-rule="evenodd" d="M75.5668 32.4032C75.5668 32.244 75.4836 32.096 75.3468 32.0144C75.21 31.9328 75.0404 31.9289 74.9006 32.0047C71.3674 33.9106 54.8847 42.8015 51.97 44.374C51.6964 44.5213 51.5269 44.8035 51.5239 45.1124C51.512 45.9644 51.4882 47.6893 51.4763 48.5819C51.4733 48.7 51.5358 48.8092 51.6369 48.8691C51.735 48.9309 51.8629 48.9329 51.964 48.8778C55.0304 47.2178 71.3763 38.3651 74.8977 36.4584C75.3111 36.2347 75.5668 35.8035 75.5668 35.3344C75.5668 34.5155 75.5668 33.2209 75.5668 32.4032Z" fill="white"/>
</g>
<defs>
<clipPath id="clip0">
<rect width="113.065" height="100" fill="white" transform="translate(0.467285)"/>
</clipPath>
</defs>
</svg>
