<svg width="114" height="100" viewBox="0 0 114 100" fill="none" xmlns="http://www.w3.org/2000/svg">
<g clip-path="url(#clip0)">
<path fill-rule="evenodd" clip-rule="evenodd" d="M58.2508 37.0532C56.7282 36.2291 54.894 36.2492 53.3915 37.1085C44.4417 42.214 13.2056 60.0381 3.42164 65.621C2.8136 65.9678 2.4417 66.611 2.4417 67.3044C2.43667 68.0029 2.81359 68.6462 3.41661 68.9929C12.8236 74.3849 42.1402 91.1789 53.0648 97.4351C55.6327 98.9075 58.7935 98.8924 61.3513 97.3999C71.9694 91.1838 100.065 74.7467 109.929 68.9728C110.638 68.5557 111.065 67.7919 111.055 66.9728C111.04 66.1537 110.582 65.4 109.864 65.013C99.1503 59.209 67.3312 41.9728 58.2508 37.0532Z" fill="#D7DFE5" fill-opacity="0.16"/>
<path fill-rule="evenodd" clip-rule="evenodd" d="M30.0232 79.0669C29.5106 78.7302 29.199 78.1523 29.199 77.5342C29.199 71.2177 29.199 36.5895 29.199 28.6196C29.199 27.6046 29.7367 26.6699 30.6111 26.1624C37.5608 22.1373 67.9377 4.53925 74.0432 1.00156C74.7166 0.609605 75.5357 0.559349 76.2493 0.870907C77.2041 1.28297 78.5357 1.86089 79.3749 2.2227C79.8523 2.42873 80.1638 2.90109 80.1638 3.41868C80.1638 9.45385 80.1638 45.5292 80.1638 53.092C80.1638 53.9513 79.7015 54.7403 78.9528 55.1674C72.3046 58.9513 40.2392 77.1926 34.2141 80.6197C33.6161 80.9614 32.8774 80.9363 32.2995 80.5594C31.6111 80.1071 30.6865 79.499 30.0232 79.0669Z" fill="#E5F1FC"/>
<path fill-rule="evenodd" clip-rule="evenodd" d="M29.6563 79.6247C30.3197 80.0619 31.2442 80.6649 31.9327 81.1172C32.7166 81.6348 33.7267 81.6649 34.5458 81.2026C40.5709 77.7754 72.6362 59.5342 79.2844 55.7503C80.2392 55.2076 80.8322 54.1925 80.8322 53.092C80.8322 45.5292 80.8322 9.45387 80.8322 3.41869C80.8322 2.62975 80.3649 1.92115 79.6413 1.60457C78.8021 1.24276 77.4704 0.669927 76.5156 0.257867C75.6061 -0.139118 74.5659 -0.0788439 73.7066 0.418644C67.601 3.95633 37.2242 21.5544 30.2795 25.5795C29.194 26.2076 28.5257 27.3684 28.5257 28.6196C28.5257 36.5895 28.5257 71.2177 28.5257 77.5343C28.5257 78.3785 28.9528 79.1674 29.6563 79.6247ZM30.395 78.5091C30.0634 78.293 29.8674 77.9262 29.8674 77.5343C29.8674 71.2177 29.8674 36.5895 29.8674 28.6196C29.8674 27.8458 30.2794 27.1272 30.9478 26.7403C37.8975 22.7151 68.2744 5.11717 74.38 1.57948C74.8674 1.29807 75.4654 1.26286 75.983 1.48397C76.9377 1.89603 78.2694 2.47395 79.1086 2.83576C79.3397 2.93626 79.4905 3.16743 79.4905 3.41869C79.4905 9.45387 79.4905 45.5292 79.4905 53.092C79.4905 53.7101 79.1588 54.278 78.6211 54.5845C71.9729 58.3684 39.9076 76.6096 33.8824 80.0368C33.5005 80.2528 33.0332 80.2377 32.6664 79.9965L30.395 78.5091Z" fill="#1B374C"/>
<path fill-rule="evenodd" clip-rule="evenodd" d="M79.7433 2.55428C79.7433 2.55428 42.6025 23.8457 35.0196 28.1925C34.1101 28.7101 33.5523 29.6799 33.5473 30.7252C33.5171 39.3181 33.3764 80.8006 33.3764 80.8006C33.3764 80.9362 33.487 81.0518 33.6277 81.0518C33.7633 81.0518 33.8789 80.9413 33.8789 80.8006C33.8789 80.8006 34.0196 39.3181 34.0498 30.7252C34.0498 29.8608 34.5171 29.0618 35.2709 28.6297C42.8488 24.2829 79.9895 2.99146 79.9895 2.99146C80.1101 2.92111 80.1553 2.77039 80.0849 2.64979C80.0146 2.52918 79.8639 2.48393 79.7433 2.55428Z" fill="#1B374C"/>
<path fill-rule="evenodd" clip-rule="evenodd" d="M77.0739 7.78751L45.7925 25.883L45.8176 29.672L77.0739 11.883V7.78751Z" fill="white"/>
<path d="M42.5212 31.2589C43.5422 30.6708 44.3698 29.3664 44.3698 28.3454C44.3698 27.3244 43.5422 26.9735 42.5212 27.5616C41.5002 28.1496 40.6725 29.454 40.6725 30.475C40.6725 31.496 41.5002 31.8469 42.5212 31.2589Z" fill="#83C11F" fill-opacity="0.16"/>
<path d="M38.2056 33.6528C39.2266 33.0647 40.0543 31.7603 40.0543 30.7394C40.0543 29.7184 39.2266 29.3674 38.2056 29.9555C37.1847 30.5436 36.357 31.848 36.357 32.869C36.357 33.8899 37.1847 34.2409 38.2056 33.6528Z" fill="#FF0002" fill-opacity="0.13"/>
<path fill-rule="evenodd" clip-rule="evenodd" d="M77.0739 15.4153L36.4608 38.1539L36.3553 76.169L77.0739 52.9379V15.4153Z" fill="#BCDEF7"/>
<path fill-rule="evenodd" clip-rule="evenodd" d="M77.3251 15.4152C77.3251 15.3248 77.2799 15.2444 77.2045 15.1992C77.1241 15.154 77.0286 15.154 76.9533 15.1942L36.3352 37.9329C36.2598 37.9781 36.2095 38.0635 36.2095 38.1539L36.104 76.164C36.104 76.2544 36.1543 76.3399 36.2296 76.3851C36.31 76.4304 36.4055 76.4304 36.4809 76.3851L77.1995 53.159C77.2799 53.1138 77.3251 53.0283 77.3251 52.9379V15.4152ZM36.7121 38.2997L36.6115 75.7318L76.8226 52.7921V15.8424L36.7121 38.2997Z" fill="#1B374C"/>
<path fill-rule="evenodd" clip-rule="evenodd" d="M77.0748 15.4162L89.7231 16.0243L86.115 44.7529L49.8286 75.5469L36.3563 76.165L36.4568 38.1549L77.0748 15.4162Z" fill="#63AEED" fill-opacity="0.15"/>
<path fill-rule="evenodd" clip-rule="evenodd" d="M89.7232 16.0231L49.9292 38.3032L49.8257 75.5517L89.7232 52.789V16.0231Z" fill="#0482DF"/>
<path fill-rule="evenodd" clip-rule="evenodd" d="M83.6884 26.305C83.6884 26.2062 83.6359 26.1136 83.5494 26.0642C83.463 26.0148 83.3581 26.0148 83.2716 26.0611C80.3422 27.7002 62.7843 37.5318 59.3271 39.4673C58.9628 39.671 58.7375 40.0568 58.7344 40.4736C58.7282 42.6436 58.7097 49.4161 58.7066 51.5954C58.7035 51.7374 58.7807 51.867 58.9011 51.938C59.0246 52.009 59.1758 52.009 59.2962 51.9411C62.7658 49.9625 80.3546 39.9303 83.2994 38.248C83.5587 38.0998 83.7192 37.825 83.7192 37.5256C83.713 35.5686 83.6915 28.2466 83.6884 26.305Z" fill="#BCDEF7"/>
<path fill-rule="evenodd" clip-rule="evenodd" d="M83.6884 40.241C83.6884 40.1514 83.6421 40.0712 83.568 40.028C83.4908 39.9847 83.3982 39.9817 83.321 40.0249C80.4348 41.6424 61.3428 52.329 58.9783 53.6563C58.827 53.7366 58.7375 53.894 58.7375 54.0638C58.7344 54.7984 58.7282 56.8018 58.7252 57.6661C58.7252 57.7494 58.7715 57.8266 58.8425 57.8698C58.9165 57.9131 59.0061 57.9131 59.0771 57.8698C61.8737 56.2801 80.4626 45.7077 83.3457 44.0686C83.5772 43.9359 83.7192 43.6889 83.7161 43.4235C83.71 42.6425 83.6976 41.0096 83.6884 40.241Z" fill="white"/>
<path fill-rule="evenodd" clip-rule="evenodd" d="M83.6884 46.29C83.6884 46.2159 83.6513 46.1511 83.5865 46.1141C83.5247 46.077 83.4445 46.077 83.3828 46.111C80.7127 47.605 61.3088 58.4706 58.969 59.7795C58.8239 59.8597 58.7375 60.011 58.7375 60.1746C58.7344 60.9 58.7282 62.928 58.7252 63.7923C58.7252 63.8757 58.7715 63.9498 58.8425 63.993C58.9135 64.0331 58.9999 64.0362 59.074 63.993C61.8984 62.3878 81.0738 51.479 83.4723 50.1146C83.6266 50.0281 83.7192 49.8676 83.7192 49.6917C83.7131 48.9725 83.6945 47.074 83.6884 46.29Z" fill="#83C11F"/>
</g>
<defs>
<clipPath id="clip0">
<rect width="113.065" height="100" fill="white" transform="translate(0.467346)"/>
</clipPath>
</defs>
</svg>
