<svg width="114" height="100" viewBox="0 0 114 100" fill="none" xmlns="http://www.w3.org/2000/svg">
<path fill-rule="evenodd" clip-rule="evenodd" d="M58.2445 37.158C56.7295 36.338 54.9045 36.3579 53.4095 37.2129C44.5045 42.2929 13.4245 60.0279 3.6895 65.5829C3.0845 65.9279 2.71447 66.5679 2.71447 67.2579C2.70947 67.9529 3.0845 68.593 3.6845 68.938C13.0445 74.303 42.2145 91.013 53.0845 97.238C55.6395 98.703 58.7845 98.6879 61.3295 97.2029C71.8945 91.0179 99.8495 74.663 109.664 68.918C110.369 68.503 110.794 67.743 110.784 66.928C110.769 66.113 110.314 65.363 109.599 64.978C98.9395 59.203 67.2795 42.0529 58.2445 37.158Z" fill="#D7DFE5" fill-opacity="0.16"/>
<path fill-rule="evenodd" clip-rule="evenodd" d="M30.158 78.9615C29.648 78.6265 29.338 78.0516 29.338 77.4366C29.338 71.1516 29.338 36.6965 29.338 28.7665C29.338 27.7565 29.873 26.8266 30.743 26.3216C37.658 22.3166 67.883 4.80655 73.958 1.28655C74.628 0.896549 75.443 0.846544 76.153 1.15654C77.103 1.56654 78.428 2.14158 79.263 2.50158C79.738 2.70658 80.048 3.17658 80.048 3.69158C80.048 9.69658 80.048 45.5916 80.048 53.1166C80.048 53.9716 79.588 54.7566 78.843 55.1816C72.228 58.9466 40.323 77.0966 34.328 80.5066C33.733 80.8466 32.998 80.8216 32.423 80.4466C31.738 79.9966 30.818 79.3915 30.158 78.9615Z" fill="#E5F1FC"/>
<path fill-rule="evenodd" clip-rule="evenodd" d="M29.793 79.5165C30.453 79.9515 31.373 80.5516 32.058 81.0016C32.838 81.5166 33.843 81.5466 34.658 81.0866C40.653 77.6766 72.558 59.5265 79.173 55.7615C80.123 55.2215 80.713 54.2116 80.713 53.1166C80.713 45.5916 80.713 9.69659 80.713 3.69159C80.713 2.90659 80.248 2.20154 79.528 1.88654C78.693 1.52654 77.368 0.956574 76.418 0.546574C75.513 0.151574 74.478 0.211547 73.623 0.706547C67.548 4.22655 37.323 21.7366 30.413 25.7416C29.333 26.3666 28.668 27.5215 28.668 28.7665C28.668 36.6965 28.668 71.1516 28.668 77.4366C28.668 78.2766 29.093 79.0615 29.793 79.5165ZM30.528 78.4066C30.198 78.1916 30.003 77.8266 30.003 77.4366C30.003 71.1516 30.003 36.6965 30.003 28.7665C30.003 27.9965 30.413 27.2815 31.078 26.8965C37.993 22.8915 68.218 5.38158 74.293 1.86158C74.778 1.58158 75.373 1.54654 75.888 1.76654C76.838 2.17654 78.163 2.75158 78.998 3.11158C79.228 3.21158 79.378 3.44159 79.378 3.69159C79.378 9.69659 79.378 45.5916 79.378 53.1166C79.378 53.7316 79.048 54.2966 78.513 54.6016C71.898 58.3666 39.993 76.5166 33.998 79.9266C33.618 80.1416 33.153 80.1265 32.788 79.8865L30.528 78.4066Z" fill="#1B374C"/>
<path fill-rule="evenodd" clip-rule="evenodd" d="M79.6295 2.83152C79.6295 2.83152 42.6745 24.0165 35.1295 28.3415C34.2245 28.8565 33.6695 29.8215 33.6645 30.8615C33.6345 39.4115 33.4945 80.6866 33.4945 80.6866C33.4945 80.8216 33.6045 80.9366 33.7445 80.9366C33.8795 80.9366 33.9945 80.8266 33.9945 80.6866C33.9945 80.6866 34.1345 39.4115 34.1645 30.8615C34.1645 30.0015 34.6295 29.2065 35.3795 28.7765C42.9195 24.4515 79.8745 3.26651 79.8745 3.26651C79.9945 3.19651 80.0394 3.04655 79.9694 2.92655C79.8994 2.80655 79.7495 2.76152 79.6295 2.83152Z" fill="#1B374C"/>
<path fill-rule="evenodd" clip-rule="evenodd" d="M76.9735 8.03857L45.8485 26.0436L45.8734 29.8136L76.9735 12.1136V8.03857Z" fill="white"/>
<path d="M42.5936 31.3926C43.6095 30.8075 44.433 29.5096 44.433 28.4938C44.433 27.4779 43.6095 27.1287 42.5936 27.7138C41.5777 28.299 40.7542 29.5968 40.7542 30.6127C40.7542 31.6286 41.5777 31.9778 42.5936 31.3926Z" fill="#83C11F" fill-opacity="0.16"/>
<path d="M38.2996 33.7745C39.3154 33.1894 40.139 31.8915 40.139 30.8756C40.139 29.8597 39.3154 29.5106 38.2996 30.0957C37.2837 30.6808 36.4602 31.9787 36.4602 32.9946C36.4602 34.0105 37.2837 34.3596 38.2996 33.7745Z" fill="#FF0002" fill-opacity="0.13"/>
<path fill-rule="evenodd" clip-rule="evenodd" d="M76.9735 15.6282L36.5635 38.2532L36.4585 76.0782L76.9735 52.9632V15.6282Z" fill="#BCDEF7"/>
<path fill-rule="evenodd" clip-rule="evenodd" d="M77.2235 15.6282C77.2235 15.5382 77.1785 15.4582 77.1035 15.4132C77.0235 15.3682 76.9285 15.3682 76.8535 15.4082L36.4385 38.0332C36.3635 38.0782 36.3135 38.1632 36.3135 38.2532L36.2085 76.0732C36.2085 76.1632 36.2585 76.2482 36.3335 76.2932C36.4135 76.3382 36.5085 76.3382 36.5835 76.2932L77.0985 53.1832C77.1785 53.1382 77.2235 53.0532 77.2235 52.9632V15.6282ZM36.8135 38.3982L36.7135 75.6432L76.7235 52.8182V16.0532L36.8135 38.3982Z" fill="#1B374C"/>
<path fill-rule="evenodd" clip-rule="evenodd" d="M76.9745 15.6292L89.5595 16.2342L85.9695 44.8192L49.8645 75.4592L36.4595 76.0742L36.5595 38.2542L76.9745 15.6292Z" fill="#63AEED" fill-opacity="0.15"/>
<path fill-rule="evenodd" clip-rule="evenodd" d="M89.5596 16.233L49.9645 38.4017L49.8616 75.464L89.5596 52.8151V16.233Z" fill="#0482DF"/>
<path fill-rule="evenodd" clip-rule="evenodd" d="M86.5478 28.7038C86.5478 28.6085 86.4976 28.5182 86.4148 28.4681C86.3296 28.4204 86.2267 28.4179 86.144 28.4655C84.476 29.3961 78.1502 32.9277 76.3192 33.9485C76.0082 34.1216 75.8176 34.4477 75.8176 34.8013C75.8176 36.4843 75.8176 41.3804 75.8176 42.8151C75.8176 42.9004 75.8627 42.9756 75.933 43.0183C76.0057 43.0609 76.0935 43.0634 76.1688 43.0208C77.7941 42.1153 84.5964 38.3179 86.2067 37.4199C86.4174 37.302 86.5478 37.0763 86.5478 36.8355C86.5478 35.3782 86.5478 30.2765 86.5478 28.7038Z" fill="#BCDEF7"/>
<path fill-rule="evenodd" clip-rule="evenodd" d="M86.5478 39.011C86.5478 38.9584 86.5227 38.9107 86.4776 38.8856C86.4324 38.858 86.3772 38.8581 86.3321 38.8831C84.9475 39.6557 77.3501 43.8971 76.0158 44.6395C75.8929 44.7097 75.8176 44.8402 75.8176 44.9806C75.8176 45.4823 75.8176 46.6862 75.8176 47.2581C75.8176 47.3233 75.8527 47.3835 75.9079 47.4161C75.9656 47.4512 76.0333 47.4512 76.091 47.4186C77.611 46.5708 84.9952 42.4498 86.3396 41.6999C86.4675 41.6271 86.5478 41.4917 86.5478 41.3412C86.5478 40.812 86.5478 39.5478 86.5478 39.011Z" fill="white"/>
<path fill-rule="evenodd" clip-rule="evenodd" d="M86.5478 43.2035C86.5478 43.1509 86.5227 43.1032 86.4776 43.0781C86.4324 43.0505 86.3772 43.0506 86.3321 43.0757C84.9475 43.8482 77.3501 48.0896 76.0158 48.832C75.8929 48.9022 75.8176 49.0327 75.8176 49.1731C75.8176 49.6748 75.8176 50.8787 75.8176 51.4506C75.8176 51.5158 75.8527 51.576 75.9079 51.6086C75.9656 51.6437 76.0333 51.6437 76.091 51.6111C77.611 50.7633 84.9952 46.6423 86.3396 45.8924C86.4675 45.8196 86.5478 45.6842 86.5478 45.5337C86.5478 45.0045 86.5478 43.7403 86.5478 43.2035Z" fill="#83C11F"/>
<path d="M63.0066 58.7306C68.0097 55.8489 72.0654 49.457 72.0654 44.4539C72.0654 39.4508 68.0097 37.7311 63.0066 40.6129C58.0035 43.4946 53.9477 49.8865 53.9477 54.8896C53.9477 59.8927 58.0035 61.6124 63.0066 58.7306Z" fill="#BCDEF7"/>
<path fill-rule="evenodd" clip-rule="evenodd" d="M63.708 48.9805L69.565 37.71C69.6075 37.6285 69.7085 37.5965 69.79 37.639C69.8715 37.6815 69.9035 37.7825 69.861 37.864L64.013 49.116L74.9065 43.0705C74.987 43.026 75.0885 43.055 75.1335 43.1355C75.178 43.216 75.149 43.3175 75.0685 43.362L64.045 49.4795L72.461 52.148C72.5485 52.176 72.5975 52.27 72.5695 52.3575C72.5415 52.445 72.448 52.4935 72.36 52.466L63.782 49.746L64.9885 62.1815C64.9975 62.273 64.9305 62.3545 64.839 62.3635C64.7475 62.372 64.6655 62.305 64.657 62.2135L63.4845 50.133L56.866 62.8675C56.8235 62.9495 56.723 62.981 56.6415 62.939C56.56 62.8965 56.528 62.7955 56.5705 62.714L63.2065 49.945L52.1765 56.0665C52.096 56.111 51.9945 56.082 51.9495 56.0015C51.905 55.921 51.934 55.8195 52.0145 55.775L63.2065 49.5635L53.902 46.6135C53.8145 46.5855 53.7655 46.492 53.7935 46.404C53.8215 46.3165 53.915 46.268 54.0025 46.2955L63.4015 49.2755L62.383 38.778C62.374 38.6865 62.441 38.605 62.5325 38.596C62.624 38.5875 62.706 38.6545 62.7145 38.746L63.708 48.9805Z" fill="#0482DF"/>
<path fill-rule="evenodd" clip-rule="evenodd" d="M72.6299 43.6802C72.8108 43.4819 73.0065 43.3088 73.2281 43.2138C73.8051 42.9665 74.2736 43.3223 74.2736 44.0078C74.2736 44.6933 73.8051 45.4507 73.2281 45.698C73.0799 45.7615 72.9389 45.7852 72.8112 45.7738L72.8109 45.7737C72.7197 45.7671 72.6694 45.7587 72.6086 45.7404L71.0995 45.364C71.6117 44.805 72.1515 44.2048 72.6299 43.6802ZM73.7978 44.2117C73.7978 44.5908 73.5386 45.0096 73.2194 45.1465C72.9001 45.2833 72.6409 45.0866 72.6409 44.7075C72.6409 44.3285 72.9001 43.9096 73.2194 43.7728C73.5386 43.6359 73.7978 43.8327 73.7978 44.2117Z" fill="white"/>
</svg>
