<svg width="18" height="14" viewBox="0 0 18 14" fill="none" xmlns="http://www.w3.org/2000/svg">
<g clip-path="url(#clip0)">
<path fill-rule="evenodd" clip-rule="evenodd" d="M17.7934 2.66314C17.7934 2.95029 17.6786 3.23743 17.472 3.444L7.59943 13.3166C7.39286 13.5231 7.10571 13.638 6.81857 13.638C6.53143 13.638 6.24429 13.5231 6.03771 13.3166L0.321429 7.59943C0.114857 7.39286 0 7.10571 0 6.81857C0 6.53229 0.114857 6.24514 0.321429 6.03857L1.88229 4.47686C2.08886 4.27029 2.376 4.15543 2.66314 4.15543C2.95029 4.15543 3.23657 4.27029 3.444 4.47686L6.81857 7.86343L14.3494 0.321429C14.556 0.114857 14.8431 0 15.1303 0C15.4166 0 15.7037 0.114857 15.9103 0.321429L17.472 1.88229C17.6786 2.08971 17.7934 2.376 17.7934 2.66314Z" fill="#46B450"/>
</g>
<defs>
<clipPath id="clip0">
<rect width="18" height="13.7143" fill="white"/>
</clipPath>
</defs>
</svg>
