<svg width="25" height="25" viewBox="0 1 20 21" fill="none" xmlns="http://www.w3.org/2000/svg">
<path fill-rule="evenodd" clip-rule="evenodd" d="M9.99689 1.00009C15.5142 1.00009 19.9936 5.47946 19.9936 10.9968C19.9936 16.5141 15.5142 20.9935 9.99689 20.9935C4.47955 20.9935 0.000183105 16.5141 0.000183105 10.9968C0.000183105 5.47946 4.47955 1.00009 9.99689 1.00009ZM15.2574 8.54082C15.2574 8.3706 15.1896 8.20135 15.067 8.0798L14.1439 7.15675C14.0224 7.03418 13.8521 6.96629 13.6829 6.96629C13.5127 6.96629 13.3435 7.03418 13.2209 7.15675L8.76788 11.6138L6.77287 9.61278C6.65026 9.49016 6.48106 9.42227 6.31084 9.42227C6.14164 9.42227 5.97142 9.49016 5.84987 9.61278L4.92682 10.5358C4.8042 10.6574 4.73636 10.8276 4.73636 10.9968C4.73636 11.166 4.8042 11.3362 4.92682 11.4578L8.30687 14.8368C8.42846 14.9595 8.59868 15.0273 8.76788 15.0273C8.9381 15.0273 9.1073 14.9595 9.22992 14.8368L15.067 9.00179C15.1896 8.88024 15.2574 8.71002 15.2574 8.54082Z" fill="#46B450"/>
</svg>
