<svg width="16" height="16" viewBox="0 0 20 20" fill="none" xmlns="http://www.w3.org/2000/svg">
<path fill-rule="evenodd" clip-rule="evenodd" d="M10 0C4.48 0 0 4.48 0 10C0 15.52 4.48 20 10 20C15.52 20 20 15.52 20 10C20 4.48 15.52 0 10 0ZM9.00005 16H11.0001V14.0001H9.00005V16ZM5.99995 8.00005C5.99995 5.79005 7.78995 4.00005 9.99995 4.00005C12.2099 4.00005 13.9999 5.79005 13.9999 8.00005C13.9999 9.28297 13.2099 9.97337 12.4407 10.6456C11.711 11.2833 10.9999 11.9047 10.9999 13.0001H8.99995C8.99995 11.1788 9.94207 10.4566 10.7704 9.82172C11.4202 9.32366 11.9999 8.87927 11.9999 8.00005C11.9999 6.90005 11.0999 6.00005 9.99995 6.00005C8.89995 6.00005 7.99995 6.90005 7.99995 8.00005H5.99995Z" fill="#C9D0D6"/>
</svg>
