<svg width="25" height="25" viewBox="0 0 25 25" fill="none" xmlns="http://www.w3.org/2000/svg">
<path fill-rule="evenodd" clip-rule="evenodd" d="M0.926025 12.4259C0.926025 5.8019 6.30203 0.425903 12.926 0.425903C19.55 0.425903 24.926 5.8019 24.926 12.4259C24.926 19.0499 19.55 24.4259 12.926 24.4259C6.30203 24.4259 0.926025 19.0499 0.926025 12.4259ZM14.1261 19.6258H11.7261V17.2258H14.1261V19.6258ZM12.9259 22.0258C7.6339 22.0258 3.3259 17.7178 3.3259 12.4258C3.3259 7.13378 7.6339 2.82578 12.9259 2.82578C18.2179 2.82578 22.5259 7.13378 22.5259 12.4258C22.5259 17.7178 18.2179 22.0258 12.9259 22.0258ZM8.12591 10.0259C8.12591 7.37391 10.2739 5.22591 12.9259 5.22591C15.5779 5.22591 17.7259 7.37391 17.7259 10.0259C17.7259 11.5654 16.7779 12.3939 15.8548 13.2006C14.9791 13.9658 14.1259 14.7115 14.1259 16.0259H11.7259C11.7259 13.8404 12.8565 12.9738 13.8504 12.2119C14.6302 11.6142 15.3259 11.081 15.3259 10.0259C15.3259 8.70591 14.2459 7.62591 12.9259 7.62591C11.6059 7.62591 10.5259 8.70591 10.5259 10.0259H8.12591Z" fill="white"/>
</svg>
