<svg width="25" height="26" viewBox="0 0 25 26" fill="none" xmlns="http://www.w3.org/2000/svg">
<path fill-rule="evenodd" clip-rule="evenodd" d="M0.925781 13.4259C0.925781 6.80193 6.30178 1.42593 12.9258 1.42593C19.5498 1.42593 24.9258 6.80193 24.9258 13.4259C24.9258 20.0499 19.5498 25.4259 12.9258 25.4259C6.30178 25.4259 0.925781 20.0499 0.925781 13.4259ZM14.1259 20.6258H11.7259V18.2258H14.1259V20.6258ZM12.9257 23.0258C7.63366 23.0258 3.32566 18.7178 3.32566 13.4258C3.32566 8.13381 7.63366 3.82581 12.9257 3.82581C18.2177 3.82581 22.5257 8.13381 22.5257 13.4258C22.5257 18.7178 18.2177 23.0258 12.9257 23.0258ZM8.12567 11.0259C8.12567 8.37394 10.2737 6.22594 12.9257 6.22594C15.5777 6.22594 17.7257 8.37394 17.7257 11.0259C17.7257 12.5654 16.7776 13.3939 15.8546 14.2006C14.9789 14.9659 14.1257 15.7115 14.1257 17.0259H11.7257C11.7257 14.8404 12.8562 13.9738 13.8502 13.212C14.6299 12.6143 15.3257 12.081 15.3257 11.0259C15.3257 9.70594 14.2457 8.62594 12.9257 8.62594C11.6057 8.62594 10.5257 9.70594 10.5257 11.0259H8.12567Z" fill="white"/>
</svg>
