<svg width="25" height="26" viewBox="0 0 25 26" fill="none" xmlns="http://www.w3.org/2000/svg">
<path fill-rule="evenodd" clip-rule="evenodd" d="M12.9258 1.42593C6.30178 1.42593 0.925781 6.80193 0.925781 13.4259C0.925781 20.0499 6.30178 25.4259 12.9258 25.4259C19.5498 25.4259 24.9258 20.0499 24.9258 13.4259C24.9258 6.80193 19.5498 1.42593 12.9258 1.42593ZM11.7259 20.6258H14.1259V18.2258H11.7259V20.6258ZM8.12567 11.0259C8.12567 8.37393 10.2737 6.22593 12.9257 6.22593C15.5777 6.22593 17.7257 8.37393 17.7257 11.0259C17.7257 12.5654 16.7776 13.3939 15.8546 14.2006C14.9789 14.9658 14.1257 15.7115 14.1257 17.0259H11.7257C11.7257 14.8404 12.8562 13.9738 13.8502 13.2119C14.6299 12.6143 15.3257 12.081 15.3257 11.0259C15.3257 9.70593 14.2457 8.62593 12.9257 8.62593C11.6057 8.62593 10.5257 9.70593 10.5257 11.0259H8.12567Z" fill="white"/>
</svg>
