<svg width="56" height="56" viewBox="0 0 56 56" fill="none" xmlns="http://www.w3.org/2000/svg">
<mask id="mask0" mask-type="alpha" maskUnits="userSpaceOnUse" x="0" y="0" width="56" height="56">
<circle cx="28.1229" cy="28.1231" r="27.1721" fill="#C4C4C4"/>
</mask>
<g mask="url(#mask0)">
<path d="M48.8203 23.6771C49.2602 23.4132 49.3477 21.7876 49.3921 21.3052C49.5236 20.2069 50.8853 19.724 51.7641 20.2944C53.3017 21.3926 54.092 23.5016 54.311 25.3022C54.5309 27.1468 54.3555 29.6067 53.0378 31.0564C51.6321 32.638 48.074 33.1214 45.9659 32.9014C45.3951 32.8574 44.8677 32.7255 44.3404 32.638L43.3301 23.5886L44.4293 23.8086C45.527 24.028 47.7675 24.2485 48.7778 23.6771H48.8203Z" fill="#999966"/>
<path d="M52.2434 21.9389C51.9799 21.5875 51.6725 21.2361 51.3211 21.0166C50.9697 20.7527 50.3108 20.9726 50.2659 21.412L50.2228 21.719C50.8822 21.4995 51.6285 21.6755 52.2434 21.9389ZM53.4736 28.1325C53.737 26.7268 53.605 25.1012 53.1222 23.696C52.7707 23.2566 52.4188 22.9057 51.76 22.6418C50.9252 22.2903 50.4863 22.4223 50.0923 22.7737C50.0479 23.1251 49.9589 23.3886 49.8724 23.652C52.1564 24.3988 53.1226 26.5948 53.4741 28.176V28.1325H53.4736ZM46.7966 24.8817C46.0063 24.8817 45.1715 24.7937 44.3372 24.6183L45.127 31.9096C46.1827 32.1295 47.4115 32.1295 48.5093 31.998C49.3001 29.1867 48.5093 25.8925 46.7531 24.8382L46.7966 24.8817ZM49.2566 24.3988C48.9496 24.5743 48.5088 24.7063 47.9834 24.7938C49.564 26.4633 50.0474 29.4941 49.4751 31.8661C50.7932 31.6026 51.891 31.1193 52.4623 30.5044C52.5943 30.3724 52.6818 30.1965 52.8142 30.065C52.8142 27.5611 51.804 24.8817 49.388 24.3548C49.3436 24.3988 49.3436 24.3988 49.2991 24.3988H49.2566Z" fill="#C0C0A0"/>
<path d="M48.8177 29.128C47.7634 29.3919 46.6217 29.4359 45.7864 29.3479C45.4355 29.3039 45.1276 29.2599 44.8202 29.172L44.2933 24.648C45.1276 24.8235 45.9629 24.9114 46.7532 24.9114C47.8954 25.6143 48.6432 27.2834 48.7747 29.128H48.8177ZM52.0249 22.759C52.0674 23.0229 52.1119 23.2863 52.1559 23.5493C52.2439 24.0766 52.2439 24.6915 52.1999 25.3069C51.628 24.604 50.8822 23.9892 49.8724 23.6377C49.9594 23.3743 50.0479 23.1104 50.0919 22.759C50.4418 22.4515 50.9252 22.2756 51.76 22.6275C51.849 22.671 51.9364 22.715 52.0249 22.759ZM51.3656 21.0459C51.4975 21.2658 51.5845 21.4853 51.673 21.7047C51.1896 21.5732 50.7067 21.5288 50.1794 21.6612L50.2234 21.3538C50.2664 20.9139 50.9252 20.6944 51.2776 20.9584L51.3661 21.0019V21.0459H51.3656ZM49.2571 24.3846C48.9496 24.56 48.5093 24.6915 47.9834 24.7795C48.9497 25.7897 49.4756 27.2834 49.652 28.865C50.2664 28.6446 50.8377 28.3376 51.1896 27.8987C51.5415 27.5468 50.6183 24.604 49.3451 24.3406C49.3006 24.3846 49.3006 24.3846 49.2571 24.3846Z" fill="#FBFAC4"/>
<path d="M7.61802 23.6771C7.17766 23.4132 7.09065 21.7876 7.0457 21.3052C6.91422 20.2069 5.55254 19.724 4.67424 20.2944C3.13613 21.3926 2.3463 23.5016 2.12684 25.3022C1.90739 27.1468 2.08284 29.6067 3.40053 31.0564C4.8062 32.638 8.36387 33.1214 10.4724 32.9014C11.0432 32.8574 11.5706 32.7255 12.098 32.638L13.1077 23.5886L12.009 23.8086C10.9113 24.028 8.67082 24.2485 7.66056 23.6771H7.61802Z" fill="#999966"/>
<path d="M4.19088 21.9389C4.45432 21.5875 4.76176 21.2361 5.11269 21.0166C5.46459 20.7527 6.12344 20.9726 6.16839 21.412L6.21093 21.719C5.55209 21.4995 4.80526 21.6755 4.19088 21.9389ZM2.9602 28.1325C2.69724 26.7268 2.8292 25.1012 3.3121 23.696C3.66352 23.2566 4.01494 22.9057 4.67379 22.6418C5.50859 22.2903 5.94797 22.4223 6.34193 22.7737C6.3864 23.1251 6.47535 23.3886 6.56187 23.652C4.2779 24.3988 3.31161 26.5948 2.95971 28.176V28.1325H2.9602ZM9.63761 24.8817C10.4279 24.8817 11.2627 24.7937 12.0971 24.6183L11.3067 31.9096C10.2515 32.1295 9.02228 32.1295 7.92452 31.998C7.13371 29.1867 7.92451 25.8925 9.68111 24.8382L9.63761 24.8817ZM7.17769 24.3988C7.48464 24.5743 7.92548 24.7063 8.45092 24.7938C6.86978 26.4633 6.38688 29.4941 6.95872 31.8661C5.64103 31.6026 4.54327 31.1193 3.97143 30.5044C3.83947 30.3724 3.75245 30.1965 3.62001 30.065C3.62001 27.5611 4.63028 24.8817 7.04621 24.3548C7.0902 24.3988 7.0902 24.3988 7.13515 24.3988H7.17769Z" fill="#C0C0A0"/>
<path d="M7.61886 29.128C8.67311 29.3919 9.81485 29.4359 10.6496 29.3479C11.0011 29.3039 11.3085 29.2599 11.6159 29.172L12.1428 24.648C11.3085 24.8235 10.4737 24.9114 9.68337 24.9114C8.54115 25.6143 7.79432 27.2834 7.66188 29.128H7.61886ZM4.41163 22.759C4.36861 23.0229 4.32464 23.2863 4.28017 23.5493C4.19267 24.0766 4.19266 24.6915 4.23714 25.3069C4.80801 24.604 5.55434 23.9892 6.56412 23.6377C6.47711 23.3743 6.38866 23.1104 6.34419 22.759C5.99422 22.4515 5.51132 22.2756 4.67653 22.6275C4.58758 22.671 4.50009 22.715 4.41163 22.759ZM5.07097 21.0459C4.93901 21.2658 4.852 21.4853 4.76355 21.7047C5.24644 21.5732 5.72982 21.5288 6.25719 21.6612L6.21271 21.3538C6.17017 20.9139 5.51133 20.6944 5.15895 20.9584L5.07048 21.0019V21.0459H5.07097ZM7.17947 24.3846C7.4869 24.56 7.92726 24.6915 8.45318 24.7795C7.4869 25.7897 6.96051 27.2834 6.78455 28.865C6.17018 28.6446 5.59834 28.3376 5.24644 27.8987C4.8955 27.5468 5.81827 24.604 7.09149 24.3406C7.13548 24.3846 7.13548 24.3846 7.17947 24.3846Z" fill="#FBFAC4"/>
<path d="M12.4913 21.9272C10.9542 21.7952 9.46006 22.1026 7.9669 22.3226L9.28459 21.0484C10.5588 19.8187 12.2719 18.7204 13.8984 17.9296C16.3134 16.6999 19.0812 15.7776 21.8476 15.5142C19.9141 14.6794 17.7181 14.284 15.6546 13.8006C23.6057 12.132 33.7948 11.5166 41.0876 17.7102C45.2611 21.2683 47.5445 27.8572 47.5445 33.8308C47.5445 56.3654 9.15408 56.3654 9.15408 33.8308C9.15408 30.8001 9.90042 27.9012 11.3061 25.2654C10.7797 25.3973 10.2963 25.5728 9.76797 25.7927L7.44147 26.759L9.10913 24.87C10.1199 23.7282 11.2621 22.762 12.5798 22.0151L12.4913 21.9272Z" fill="#8ED41E"/>
<path d="M29.7112 14.9849C33.4453 15.4238 37.0905 16.654 40.1203 19.2454C43.8099 22.3641 45.787 28.1623 45.787 33.3895C45.787 42.9643 37.8803 47.9286 29.7108 48.1921V14.9849H29.7112Z" fill="#70A91B"/>
<path d="M15.5657 19.8688C18.465 17.9357 23.2093 17.3209 28.92 17.6288C27.9097 16.443 26.9874 15.6957 25.6258 15.0369C28.2172 14.9489 30.2812 15.5203 35.4205 17.2774C30.985 14.6855 25.5388 13.4997 20.4425 14.0706C22.2871 14.5975 24.0441 15.4323 25.6693 16.5305C20.4425 15.9597 14.4239 18.4631 12.008 20.5276C13.5901 20.3521 14.9948 20.6591 16.4894 21.3184C14.3809 22.0647 13.0187 22.7241 11.7006 23.9978C13.9845 22.8555 15.7856 21.8893 18.6849 21.2744C17.5427 20.879 16.9278 20.1762 15.5657 19.8688Z" fill="#A1E141"/>
<path d="M28.306 14.5454C33.5782 14.5454 37.8382 18.6744 37.8382 23.8137C37.8382 28.909 33.5782 33.082 28.306 33.082C23.0357 33.082 18.7757 28.953 18.7757 23.8137C18.7747 18.7184 23.0357 14.5454 28.306 14.5454Z" fill="#70A91B"/>
<path d="M13.1969 32.4618C13.5044 31.8905 42.4071 31.671 42.9784 32.4618C43.9877 33.7795 43.4178 35.0533 42.9784 36.1515H13.1969C12.9335 34.9653 12.4941 33.6916 13.1969 32.4618Z" fill="#70A91B"/>
<path d="M13.5919 33.3018C13.8994 32.555 42.0548 32.2476 42.6261 33.3018C43.5924 35.1024 43.0211 36.8595 42.6261 38.3532H13.5919C13.328 36.7276 12.9331 35.0149 13.5919 33.3018Z" fill="#4B7113"/>
<path d="M37.0036 14.1692C36.6082 6.65794 26.5051 5.86713 23.8697 11.7532C28.5256 9.20534 33.2695 10.1281 37.0036 14.1692Z" fill="#70A91B"/>
<path d="M31.3799 7.92078C28.4381 7.48139 25.2313 8.75558 23.9136 11.6979C25.6702 10.7316 27.4718 10.2927 29.1844 10.2927C29.5363 9.63387 30.3706 8.36017 31.4249 7.92078H31.3799Z" fill="#85C51F"/>
<path d="M28.3065 13.5786C33.0504 13.5786 36.8725 17.4002 36.8725 22.1441C36.8725 26.888 33.0504 30.7096 28.3065 30.7096C23.5636 30.7096 19.7425 26.888 19.7425 22.1441C19.7425 17.4002 23.5631 13.5786 28.3065 13.5786Z" fill="#D3E8EF"/>
<path d="M22.9043 15.7859C25.7591 13.414 29.7566 13.414 31.7767 15.8739C33.7972 18.2898 33.0949 22.1989 30.2395 24.6149C27.3837 26.9868 23.3872 26.9868 21.3657 24.5269C19.3461 22.1109 20.0494 18.2019 22.9043 15.7859Z" fill="white"/>
<path d="M28.525 19.2617C31.8632 19.2617 34.543 21.7656 34.543 24.8839C34.543 28.0027 31.8622 30.5066 28.525 30.5066C25.1877 30.5066 22.5074 28.0027 22.5074 24.8839C22.5074 21.7656 25.1872 19.2617 28.525 19.2617Z" fill="#0D82DF"/>
<path d="M28.525 19.2617C30.1501 19.2617 31.6437 19.8766 32.698 20.8428C32.3031 22.2045 31.4683 23.5662 30.2381 24.6205C27.8661 26.597 24.7043 26.9049 22.5514 25.5867C22.5074 25.3673 22.5074 25.1478 22.5074 24.8839C22.5074 21.7656 25.1872 19.2617 28.525 19.2617Z" fill="#0399ED"/>
<path d="M28.5258 21.2832C30.6343 21.2832 32.3914 22.9083 32.3914 24.8849C32.3914 26.8619 30.6783 28.4865 28.5258 28.4865C26.4178 28.4865 24.6607 26.8619 24.6607 24.8849C24.6607 22.9083 26.3733 21.2832 28.5258 21.2832Z" fill="#232323"/>
<path d="M28.5258 21.2688C29.8875 21.2688 31.0737 21.9277 31.7765 22.894C31.3806 23.5088 30.8538 24.0797 30.2389 24.5631C28.6568 25.8812 26.7238 26.4521 25.0116 26.3202C24.7922 25.8812 24.6607 25.3539 24.6607 24.8265C24.6607 22.85 26.3733 21.2249 28.5258 21.2249V21.2688Z" fill="#323232"/>
<path d="M25.1425 19.5549C26.7236 19.5549 27.9973 20.7411 27.9973 22.2343C27.9973 23.7279 26.7236 24.9141 25.1425 24.9141C23.5614 24.9141 22.2877 23.7279 22.2877 22.2343C22.2877 20.7411 23.5614 19.5549 25.1425 19.5549Z" fill="white"/>
<path d="M8.32031 35.4157C21.5857 33.4391 34.896 33.6146 48.1614 35.4157C49.1277 42.3555 48.6003 48.9454 48.1614 55.5769C34.896 56.1043 21.5857 56.1927 8.32031 55.5769C7.5295 48.857 7.4425 42.1361 8.32031 35.4157Z" fill="#9CAEB3"/>
<path d="M12.1413 54.2255C22.9033 54.6199 33.6212 54.5774 44.3822 54.2255C40.5171 52.0285 36.6515 49.9215 32.3031 48.7352C30.8964 49.3941 29.4042 49.9215 27.9106 50.3604C27.6907 50.4039 27.6907 50.4039 27.4712 50.3604C26.2405 49.965 25.0113 49.4816 23.8246 48.9552C19.6076 50.1844 15.7865 51.9855 12.0968 54.2699L12.1413 54.2255ZM9.59342 37.7094C9.02255 43.0246 9.11004 48.3833 9.68187 53.6981C13.5475 51.2827 17.676 49.3496 22.024 47.9884C17.0167 45.353 13.5025 41.575 9.59342 37.7094ZM45.7874 36.6556C34.0601 35.249 22.2879 35.1175 10.5602 36.6556C15.3916 42.0574 20.7078 46.4948 27.7796 48.8218C35.2899 46.6707 40.4727 41.9704 45.7874 36.6556ZM46.7982 53.6981C47.1501 48.3833 47.501 43.0686 46.9301 37.7538C42.9775 41.6634 38.76 45.3965 33.8402 47.9875C38.4086 49.3491 42.6701 51.3706 46.8431 53.6976H46.7982V53.6981Z" fill="#D3E8EF"/>
<path d="M12.1413 54.2196C17.3236 54.3955 22.5065 54.483 27.7347 54.483V50.3545C27.6907 50.3545 27.6472 50.3545 27.5152 50.31C26.2855 49.9161 25.0563 49.4322 23.8696 48.9048C19.6526 50.1345 15.8315 51.9351 12.1413 54.2196ZM9.59343 37.7035C9.02255 43.0187 9.11004 48.3775 9.68188 53.6922C13.5475 51.2768 17.676 49.3437 22.024 47.9825C17.0167 45.3472 13.5025 41.5691 9.59343 37.7035ZM27.7347 35.551C21.9805 35.551 16.2704 35.9024 10.5602 36.6502C15.3486 42.0525 20.7078 46.4454 27.7347 48.8164V35.551Z" fill="white"/>
<path d="M20.2682 38.7057C20.2247 38.8811 20.1368 39.0576 20.0497 39.233C19.9608 39.4965 19.7853 39.759 19.5664 39.9349C19.039 40.3303 18.3806 40.1993 17.8083 39.9789C16.5346 39.4515 15.6568 38.1778 15.1289 36.9481C14.5146 35.5415 14.4701 34.5322 14.8215 32.9946C23.6944 32.5117 32.7873 32.4237 41.3962 32.9506V32.9946H41.5287C41.6607 34.4882 41.5287 35.1031 41.1778 36.3342C40.7819 37.7394 39.9466 39.4515 38.5419 40.1104C38.0145 40.3748 37.3997 40.5063 36.9163 40.1544C36.6973 39.9789 36.5223 39.7155 36.3894 39.4515C36.082 38.9686 35.995 38.2668 35.9065 37.7389C35.731 38.0903 35.5116 38.3098 35.1597 38.3973C34.5888 38.5292 33.93 38.6162 33.3586 38.6607C32.7878 38.7052 32.1739 38.7497 31.5575 38.7497C30.6353 38.7497 29.6245 38.6607 28.7472 38.3982C28.6157 38.9256 28.3958 39.4075 27.8689 39.583C27.298 39.759 26.5947 39.8474 25.9798 39.8919C25.321 39.9349 24.6621 39.9794 24.0473 39.9794C23.037 39.9794 21.8948 39.8919 20.9725 39.4965C20.6206 39.3645 20.4002 39.1006 20.2697 38.7497V38.7057H20.2682Z" fill="#999966"/>
<path d="M35.157 32.6937C35.5089 34.6703 35.4204 37.2182 34.8496 37.3497C33.9708 37.5696 30.5886 37.9215 28.92 37.3066C28.4796 36.4723 28.4796 34.3638 28.5241 32.6507C30.8085 32.6502 33.0925 32.6502 35.157 32.6937ZM20.9689 33.0891C20.6619 34.0119 20.3545 35.0657 20.047 36.3404C19.8711 37.1312 19.7391 37.9215 19.6067 38.4919C19.4312 39.2822 19.0358 39.4146 18.289 39.1067C16.356 38.2729 15.3471 35.0227 15.4337 33.0452C16.7518 32.9572 18.7289 32.8697 20.9684 32.7817C23.1213 32.7377 25.5373 32.6937 27.9532 32.6937C28.1717 35.1097 28.1717 38.009 27.6458 38.6234C26.722 38.9322 23.1213 39.3711 21.3633 38.5803C20.5725 38.2294 20.8799 35.2861 20.9239 33.1336L20.9689 33.0891ZM35.5089 32.6937C35.7714 33.748 36.0793 34.8462 36.3862 36.2519C36.5617 37.1302 36.6506 37.966 36.7816 38.5359C36.9576 39.4142 37.309 39.5461 38.0114 39.1952C39.7254 38.3159 40.6917 35.0652 40.6467 32.9137C39.374 32.8257 37.5729 32.7377 35.5089 32.6937Z" fill="#C0C0A0"/>
<path d="M28.5252 33.8811C30.5897 33.8811 32.6552 33.8811 34.5433 33.9246C34.8507 35.0233 34.8507 36.9999 33.5325 37.4827C32.1273 37.6152 30.1063 37.6582 28.9206 37.2193C28.6137 36.604 28.5252 35.2423 28.5252 33.8811ZM20.926 34.0126C22.815 33.9686 24.9675 33.9246 27.12 33.9246C27.3385 35.5062 27.7344 38.669 25.7579 38.8444C24.3082 38.9764 22.5076 38.9764 21.3649 38.493C20.7075 38.1856 20.7945 35.9896 20.882 34.0566L20.926 34.0126ZM15.5237 34.2765C16.446 34.1885 17.6753 34.1441 19.1244 34.1005C19.3004 34.1005 19.6518 38.449 19.6518 38.449C19.4759 39.2398 19.0809 39.3718 18.3341 39.0644C16.7965 38.4055 15.8302 36.2081 15.5663 34.32L15.5237 34.2765ZM36.7832 38.537C36.9587 39.4153 37.3106 39.5473 38.013 39.1963C39.4196 38.493 40.2974 36.2086 40.5613 34.2325C39.727 34.1441 38.7168 34.1006 37.5296 34.0566C36.8272 34.5839 36.6948 38.2296 36.7832 38.537Z" fill="#FBFAC4"/>
<path d="M24.748 33.9686C24.837 35.6827 24.748 37.3948 24.5295 37.5263C24.0906 37.7912 22.465 38.1416 21.6747 37.4828C21.3658 37.2638 21.4103 35.5937 21.4547 34.0126C22.5085 33.9686 23.6072 33.9686 24.793 33.9246L24.748 33.9686ZM32.1282 33.9246C32.1718 35.1988 32.0838 36.3845 31.9083 36.4725C31.5134 36.6915 29.9753 36.9559 29.185 36.4285C28.9215 36.253 28.9215 35.0664 28.965 33.8811H32.1287V33.9246H32.1282ZM18.2475 34.1441C18.2035 34.6274 18.2035 35.1993 18.2035 35.7697V37.5263C18.2035 38.1856 18.0281 38.3171 17.6762 38.0097C16.9743 37.4828 16.3585 35.8137 16.095 34.2765C16.7099 34.232 17.4572 34.1885 18.2475 34.1441ZM40.0344 34.1885C39.4621 34.1441 38.8037 34.1005 38.0574 34.1005C38.0574 34.5834 38.1019 35.1103 38.1019 35.6822V37.5707C38.1019 38.2736 38.2333 38.4055 38.5847 38.0976C39.1996 37.5263 39.771 35.8576 40.0344 34.1885Z" fill="white"/>
<path d="M10.9566 54.5755C10.4732 56.7715 8.27579 58.2212 6.08076 58.1332C3.04997 58.0007 -1.65042 54.663 -1.56244 51.3688C-1.51845 49.5242 -0.15677 47.8541 1.2489 46.8008C2.61058 45.7451 4.89455 44.6483 6.65212 45.1312C8.40872 45.6146 9.63843 48.0305 10.2098 49.6112C10.7362 50.9734 11.264 53.1268 10.9116 54.576H10.9566V54.5755Z" fill="#85C51F"/>
<path d="M10.2089 54.3527C10.2519 54.0893 10.2969 53.8254 10.2969 53.5179C9.72602 51.102 8.36387 48.3352 6.82672 47.8962C4.45478 47.1924 -0.332613 50.3557 -0.0701385 53.6064C1.24804 55.6269 4.05985 57.296 6.07989 57.383C7.92447 57.4715 9.81351 56.2408 10.2094 54.3962V54.3527H10.2089Z" fill="#70A91B"/>
<path d="M8.01307 51.8928C8.62744 50.6631 7.61862 48.5107 6.08051 48.6861C4.45539 48.9061 0.941223 51.322 0.941223 53.211C0.941223 54.3972 2.56634 55.232 4.27896 54.7491C5.55315 54.3972 7.52969 52.9036 8.01307 51.8928ZM9.37474 54.9676C9.68217 54.2208 9.24278 52.9036 8.36448 53.0346C7.44219 53.211 5.24524 54.7917 5.33369 55.6705C5.37672 56.3738 6.60739 56.9886 7.57415 56.6367C8.2765 56.3738 9.11081 55.5825 9.37474 54.9676Z" fill="#5D8D17"/>
<path d="M5.59749 46.1667C5.64148 46.9575 4.10385 47.6594 3.489 47.089C2.96163 46.0783 3.09456 44.8485 3.53298 44.5851C4.01636 44.3217 5.20257 44.805 5.59749 46.1667Z" fill="#2C440C"/>
<path d="M2.61059 47.6251C2.78509 48.5025 1.60032 49.2503 1.02849 48.8549C0.282149 48.108 0.0191846 46.7903 0.369151 46.4829C0.721534 46.1755 1.99525 46.6589 2.61059 47.6251Z" fill="#2C440C"/>
<path d="M11.6144 41.6626C11.9663 41.0038 11 40.5634 10.2092 40.256C9.41746 39.993 9.02303 39.993 8.7156 40.6519C8.3637 41.3107 8.18824 42.3205 9.02304 42.584C9.81336 42.8479 11.307 42.3205 11.6589 41.6617H11.6144V41.6626Z" fill="#2C440C"/>
<path d="M12.3175 39.1913C12.4055 39.9376 11.3503 40.333 10.4729 40.509C9.63813 40.6849 9.28623 40.5965 9.19922 39.8497C9.11028 39.1019 9.3307 37.9171 10.2095 37.7417C11.0428 37.5662 12.229 38.444 12.3175 39.1913Z" fill="#2C440C"/>
<path d="M12.4926 36.7449C12.582 37.4482 11.5263 37.8006 10.649 37.9761C9.81418 38.1506 9.46229 38.0636 9.37528 37.3172C9.28585 36.6139 9.50627 35.5161 10.3411 35.3402C11.1763 35.1642 12.3616 35.999 12.4496 36.7009L12.4926 36.7449Z" fill="#2C440C"/>
<path d="M5.59842 35.118C5.7299 35.6903 6.82813 35.5569 7.66292 35.3828C8.49723 35.1629 8.80514 34.987 8.62919 34.4161C8.49723 33.8447 7.96988 33.0544 7.13702 33.2739C6.30223 33.4933 5.46743 34.5481 5.59842 35.1629V35.118Z" fill="#2C440C"/>
<path d="M4.85113 42.0935L5.11409 42.8398L4.54321 42.4009C4.27881 42.1809 4.06031 41.8735 3.88436 41.5221C3.92738 41.8735 3.97235 42.0939 4.06032 42.4009C3.22601 41.0387 2.47821 39.5456 2.96111 37.5695C3.40147 35.768 5.20254 34.9332 6.47625 34.5823C7.26658 34.3628 8.1444 34.2308 8.93472 34.3188C9.4181 34.3628 10.2529 34.4943 10.6043 34.9332C10.9557 35.374 11.1317 36.2953 11.2192 36.9102C11.3507 37.8765 11.3076 38.8867 11.1762 39.853C11.0437 40.7308 10.7808 41.5661 10.3414 42.2689C9.98995 42.7963 9.59406 43.1912 9.06814 43.4116C8.45183 43.6746 7.83698 43.7186 7.17765 43.5871C6.30031 43.4116 5.5095 42.8843 4.80618 42.1374L4.85113 42.0935Z" fill="#85C51F"/>
<path d="M10.1655 35.5449C10.6929 36.1607 10.9563 38.7531 10.341 40.6412C10.1655 40.6856 9.94555 40.7291 9.72658 40.7291C8.75982 40.8176 7.83657 40.3787 7.22219 39.8513C7.26618 40.1147 7.35416 40.2902 7.44214 40.4222C6.91477 40.2037 6.47585 39.5444 6.16794 38.7971C6.21096 39.4124 6.29991 39.6758 6.3874 40.0277C5.72807 39.8078 5.20167 39.061 4.80578 38.2711C4.45436 37.5678 4.49834 36.5571 5.1132 36.1186C6.73833 34.9324 9.50616 34.8445 10.1205 35.5913L10.1655 35.5449Z" fill="#A1E141"/>
<path d="M45.524 54.5755C46.0069 56.7715 48.2029 58.2212 50.3999 58.1332C53.4302 58.0007 58.1301 54.663 58.0416 51.3688C57.9991 49.5242 56.6359 47.8541 55.2312 46.8008C53.8696 45.7451 51.5846 44.6483 49.828 45.1312C48.0719 45.6146 46.8417 48.0305 46.2704 49.6112C45.743 50.9734 45.2161 53.1268 45.5685 54.576H45.524V54.5755Z" fill="#85C51F"/>
<path d="M46.2284 54.3527C46.1839 54.0893 46.139 53.8254 46.139 53.5179C46.7103 51.102 48.072 48.3352 49.6096 47.8962C51.9811 47.1924 56.7685 50.3557 56.506 53.6064C55.1879 55.6269 52.376 57.296 50.3565 57.383C48.5114 57.4715 46.6224 56.2408 46.227 54.3962V54.3527H46.2284Z" fill="#70A91B"/>
<path d="M48.4664 51.8928C47.8506 50.6631 48.8608 48.5107 50.3994 48.6861C52.0246 48.9061 55.5382 51.322 55.5382 53.211C55.5382 54.3972 53.9131 55.232 52.2 54.7491C50.9258 54.3972 48.9498 52.9036 48.4664 51.8928ZM47.1047 54.9676C46.7973 54.2208 47.2362 52.9036 48.115 53.0346C49.0373 53.211 51.2328 54.7917 51.1458 55.6705C51.1018 56.3738 49.8721 56.9886 48.9053 56.6367C48.2025 56.3738 47.3682 55.5825 47.1047 54.9676Z" fill="#5D8D17"/>
<path d="M50.8384 46.1667C50.7939 46.9575 52.3321 47.6594 52.9465 47.089C53.4738 46.0783 53.3414 44.8485 52.9029 44.5851C52.4196 44.3217 51.2328 44.805 50.8384 46.1667Z" fill="#2C440C"/>
<path d="M53.8248 47.6251C53.6503 48.5025 54.8351 49.2503 55.4069 48.8549C56.1532 48.108 56.4162 46.7903 56.0662 46.4829C55.7138 46.1755 54.4397 46.6589 53.8248 47.6251Z" fill="#2C440C"/>
<path d="M44.8217 41.6626C44.4703 41.0038 45.4365 40.5634 46.2283 40.256C47.0191 39.993 47.413 39.993 47.721 40.6519C48.0724 41.3107 48.2483 42.3205 47.413 42.584C46.6232 42.8479 45.1291 42.3205 44.7777 41.6617H44.8217V41.6626Z" fill="#2C440C"/>
<path d="M44.1629 39.1913C44.0754 39.9376 45.1292 40.333 46.008 40.509C46.8428 40.6849 47.1942 40.5965 47.2817 39.8497C47.3696 39.1019 47.1507 37.9171 46.2714 37.7417C45.4371 37.5662 44.2513 38.444 44.1629 39.1913Z" fill="#2C440C"/>
<path d="M43.9433 36.7449C43.8544 37.4482 44.9096 37.8006 45.7869 37.9761C46.6217 38.1506 46.9736 38.0636 47.0606 37.3172C47.1501 36.6139 46.9297 35.5161 46.0944 35.3402C45.2601 35.1642 44.0743 35.999 43.9863 36.7009L43.9433 36.7449Z" fill="#2C440C"/>
<path d="M50.8844 35.118C50.7519 35.6903 49.6537 35.5569 48.8189 35.3828C47.9856 35.1629 47.6772 34.987 47.8527 34.4161C47.9856 33.8447 48.5115 33.0544 49.3458 33.2739C50.1811 33.4933 51.0154 34.5481 50.8844 35.1629V35.118Z" fill="#2C440C"/>
<path d="M51.5871 42.0935L51.3236 42.8398L51.8945 42.4009C52.1594 42.1809 52.3779 41.8735 52.5533 41.5221C52.5103 41.8735 52.4659 42.0939 52.3779 42.4009C53.2122 41.0387 53.96 39.5456 53.4766 37.5695C53.0367 35.768 51.2352 34.9332 49.9619 34.5823C49.1711 34.3628 48.2938 34.2308 47.503 34.3188C47.0201 34.3628 46.1853 34.4943 45.8339 34.9332C45.482 35.374 45.3065 36.2953 45.219 36.9102C45.0875 37.8765 45.1301 38.8867 45.2625 39.853C45.3945 40.7308 45.657 41.5661 46.0968 42.2689C46.4478 42.7963 46.8441 43.1912 47.3701 43.4116C47.9864 43.6746 48.6008 43.7186 49.2601 43.5871C50.1374 43.4116 50.9282 42.8843 51.632 42.1374L51.5871 42.0935Z" fill="#85C51F"/>
<path d="M46.2714 35.5449C45.744 36.1607 45.4805 38.7531 46.0959 40.6412C46.2714 40.6856 46.4913 40.7291 46.7103 40.7291C47.677 40.8176 48.5998 40.3787 49.2147 39.8513C49.1702 40.1147 49.0827 40.2902 48.9947 40.4222C49.5221 40.2037 49.961 39.5444 50.2684 38.7971C50.2254 39.4124 50.1365 39.6758 50.0495 40.0277C50.7088 39.8078 51.2347 39.061 51.6311 38.2711C51.982 37.5678 51.9385 36.5571 51.3237 36.1186C49.6985 34.9324 46.9307 34.8445 46.3163 35.5913L46.2714 35.5449Z" fill="#A1E141"/>
</g>
</svg>
