<svg width="114" height="100" viewBox="0 0 114 100" fill="none" xmlns="http://www.w3.org/2000/svg">
<g clip-path="url(#clip0)">
<path fill-rule="evenodd" clip-rule="evenodd" d="M58.2508 37.0532C56.7282 36.2291 54.894 36.2492 53.3915 37.1085C44.4417 42.214 13.2056 60.0381 3.42164 65.621C2.8136 65.9678 2.4417 66.611 2.4417 67.3044C2.43667 68.0029 2.81359 68.6462 3.41661 68.9929C12.8236 74.3849 42.1402 91.1789 53.0648 97.4351C55.6327 98.9075 58.7935 98.8924 61.3513 97.3999C71.9694 91.1838 100.065 74.7467 109.929 68.9728C110.638 68.5557 111.065 67.7919 111.055 66.9728C111.04 66.1537 110.582 65.4 109.864 65.013C99.1503 59.209 67.3312 41.9728 58.2508 37.0532Z" fill="#D7DFE5" fill-opacity="0.16"/>
<path fill-rule="evenodd" clip-rule="evenodd" d="M30.0232 79.0669C29.5106 78.7302 29.199 78.1524 29.199 77.5343C29.199 71.2177 29.199 36.5895 29.199 28.6196C29.199 27.6046 29.7367 26.6699 30.6111 26.1624C37.5608 22.1373 67.9377 4.53925 74.0432 1.00156C74.7166 0.609605 75.5357 0.559349 76.2493 0.870907C77.2041 1.28297 78.5357 1.86089 79.3749 2.2227C79.8523 2.42873 80.1638 2.90109 80.1638 3.41868C80.1638 9.45386 80.1638 45.5292 80.1638 53.092C80.1638 53.9513 79.7015 54.7403 78.9528 55.1674C72.3046 58.9513 40.2392 77.1926 34.2141 80.6197C33.6161 80.9614 32.8774 80.9363 32.2995 80.5594C31.6111 80.1071 30.6865 79.499 30.0232 79.0669Z" fill="#E5F1FC"/>
<path fill-rule="evenodd" clip-rule="evenodd" d="M29.6563 79.6247C30.3197 80.0619 31.2442 80.6649 31.9327 81.1172C32.7166 81.6348 33.7267 81.6649 34.5458 81.2026C40.5709 77.7754 72.6362 59.5342 79.2844 55.7503C80.2392 55.2076 80.8322 54.1925 80.8322 53.092C80.8322 45.5292 80.8322 9.45387 80.8322 3.41869C80.8322 2.62975 80.3649 1.92115 79.6413 1.60457C78.8021 1.24276 77.4704 0.669927 76.5156 0.257867C75.6061 -0.139118 74.5659 -0.0788439 73.7066 0.418644C67.601 3.95633 37.2242 21.5544 30.2795 25.5795C29.194 26.2076 28.5257 27.3684 28.5257 28.6196C28.5257 36.5895 28.5257 71.2177 28.5257 77.5343C28.5257 78.3785 28.9528 79.1674 29.6563 79.6247ZM30.395 78.5091C30.0634 78.293 29.8674 77.9262 29.8674 77.5343C29.8674 71.2177 29.8674 36.5895 29.8674 28.6196C29.8674 27.8458 30.2794 27.1272 30.9478 26.7403C37.8975 22.7151 68.2744 5.11717 74.38 1.57948C74.8674 1.29807 75.4654 1.26286 75.983 1.48397C76.9377 1.89603 78.2694 2.47395 79.1086 2.83576C79.3397 2.93626 79.4905 3.16743 79.4905 3.41869C79.4905 9.45387 79.4905 45.5292 79.4905 53.092C79.4905 53.7101 79.1588 54.278 78.6211 54.5845C71.9729 58.3684 39.9076 76.6096 33.8824 80.0368C33.5005 80.2529 33.0332 80.2377 32.6664 79.9965L30.395 78.5091Z" fill="#1B374C"/>
<path fill-rule="evenodd" clip-rule="evenodd" d="M79.7433 2.55428C79.7433 2.55428 42.6025 23.8457 35.0196 28.1925C34.1101 28.7101 33.5523 29.6799 33.5473 30.7252C33.5171 39.3181 33.3764 80.8006 33.3764 80.8006C33.3764 80.9362 33.487 81.0518 33.6277 81.0518C33.7633 81.0518 33.8789 80.9413 33.8789 80.8006C33.8789 80.8006 34.0196 39.3181 34.0498 30.7252C34.0498 29.8608 34.5171 29.0618 35.2709 28.6297C42.8488 24.2829 79.9895 2.99146 79.9895 2.99146C80.1101 2.92111 80.1553 2.77039 80.0849 2.64979C80.0146 2.52918 79.8639 2.48393 79.7433 2.55428Z" fill="#1B374C"/>
<path fill-rule="evenodd" clip-rule="evenodd" d="M77.0739 7.78751L45.7925 25.883L45.8176 29.672L77.0739 11.883V7.78751Z" fill="white"/>
<path d="M42.5212 31.2589C43.5422 30.6708 44.3698 29.3664 44.3698 28.3454C44.3698 27.3244 43.5422 26.9735 42.5212 27.5616C41.5002 28.1496 40.6725 29.454 40.6725 30.475C40.6725 31.496 41.5002 31.8469 42.5212 31.2589Z" fill="#83C11F" fill-opacity="0.16"/>
<path d="M38.2056 33.6528C39.2266 33.0648 40.0543 31.7604 40.0543 30.7394C40.0543 29.7184 39.2266 29.3675 38.2056 29.9556C37.1847 30.5436 36.357 31.848 36.357 32.869C36.357 33.89 37.1847 34.2409 38.2056 33.6528Z" fill="#FF0002" fill-opacity="0.13"/>
<path fill-rule="evenodd" clip-rule="evenodd" d="M77.0739 15.4153L36.4608 38.1539L36.3553 76.169L77.0739 52.9379V15.4153Z" fill="#FEFFFF"/>
<path fill-rule="evenodd" clip-rule="evenodd" d="M77.3251 15.4152C77.3251 15.3248 77.2799 15.2444 77.2045 15.1992C77.1241 15.154 77.0286 15.154 76.9533 15.1942L36.3352 37.9329C36.2598 37.9781 36.2095 38.0635 36.2095 38.1539L36.104 76.164C36.104 76.2544 36.1543 76.3399 36.2296 76.3851C36.31 76.4304 36.4055 76.4304 36.4809 76.3851L77.1995 53.159C77.2799 53.1138 77.3251 53.0283 77.3251 52.9379V15.4152ZM36.7121 38.2997L36.6115 75.7318L76.8226 52.7921V15.8424L36.7121 38.2997Z" fill="#1B374C"/>
<path fill-rule="evenodd" clip-rule="evenodd" d="M73.9063 20.8742L40.0576 39.8886L40.0032 42.4422L73.9063 23.3637V20.8742Z" fill="#E5F1FC"/>
<path fill-rule="evenodd" clip-rule="evenodd" d="M73.9063 24.824L40.0576 43.8383L40.0032 46.3919L73.9063 27.3134V24.824Z" fill="#E5F1FC"/>
<path fill-rule="evenodd" clip-rule="evenodd" d="M73.9063 45.0049L40.0576 64.0193L40.0032 66.5729L73.9063 47.4944V45.0049Z" fill="#E5F1FC"/>
<path fill-rule="evenodd" clip-rule="evenodd" d="M73.9063 48.9496L40.0576 67.964L40.0032 70.5176L73.9063 51.439V48.9496Z" fill="#E5F1FC"/>
<path fill-rule="evenodd" clip-rule="evenodd" d="M73.9063 29.4114L40.0576 48.4514L39.9696 59.8956L73.9063 41.1479V29.4114Z" fill="#0482DF" fill-opacity="0.2"/>
<path fill-rule="evenodd" clip-rule="evenodd" d="M73.9091 29.4108L88.5121 29.9636V43.4811L48.5975 67.6872L39.9694 59.9736L40.0548 48.5314L73.9091 29.4108Z" fill="#63AEED" fill-opacity="0.15"/>
<path fill-rule="evenodd" clip-rule="evenodd" d="M89.0789 30.4139C89.0789 30.2546 88.9985 30.1051 88.8578 30.0254C88.7221 29.9421 88.5513 29.9398 88.4106 30.0176C83.4809 32.7215 52.9332 49.4789 48.9031 51.6898C48.6317 51.8382 48.4659 52.122 48.4608 52.4315C48.4407 54.7882 48.3704 64.769 48.3503 67.2615C48.3503 67.3792 48.4106 67.4886 48.5111 67.5496C48.6116 67.6107 48.7372 67.6124 48.8428 67.5541C53.1041 65.196 83.5412 48.3521 88.4206 45.6529C88.8277 45.4266 89.0789 44.9992 89.0789 44.5339C89.0789 41.8946 89.0789 33.0732 89.0789 30.4139Z" fill="#0482DF"/>
<path fill-rule="evenodd" clip-rule="evenodd" d="M87.3062 40.6739C87.3062 40.5147 87.2229 40.3668 87.0852 40.2853C86.9488 40.2034 86.7783 40.2001 86.6381 40.276C84.7069 41.3229 79.1533 44.3338 77.5416 45.2078C77.2676 45.3561 77.097 45.6413 77.0958 45.9522C77.0907 46.8023 77.0806 48.5146 77.0756 49.4017C77.0743 49.5188 77.1362 49.628 77.2372 49.6875C77.3383 49.7477 77.4621 49.7502 77.5656 49.694C79.243 48.7761 84.7296 45.7743 86.6419 44.7279C87.0523 44.5036 87.3062 44.0742 87.3062 43.6069C87.3062 42.7892 87.3062 41.4928 87.3062 40.6739Z" fill="#83C11F"/>
<path fill-rule="evenodd" clip-rule="evenodd" d="M61.6997 48.3774C61.6997 48.2183 61.6163 48.0704 61.4787 47.9888C61.3423 47.9069 61.1717 47.9037 61.0315 47.9796C59.1004 49.0265 53.5468 52.0373 51.9351 52.9113C51.6611 53.0596 51.4905 53.3448 51.4893 53.6557C51.4842 54.5059 51.4741 56.2181 51.4691 57.1052C51.4678 57.2224 51.5297 57.3315 51.6307 57.3911C51.7318 57.4512 51.8556 57.4537 51.9591 57.3975C53.6365 56.4796 59.1231 53.4779 61.0353 52.4315C61.4458 52.2071 61.6997 51.7778 61.6997 51.3105C61.6997 50.4927 61.6997 49.1963 61.6997 48.3774Z" fill="#BCDEF7"/>
<path fill-rule="evenodd" clip-rule="evenodd" d="M75.5669 47.2926C75.5669 47.1335 75.4836 46.9855 75.3468 46.9039C75.21 46.8222 75.0405 46.8184 74.9007 46.8942C71.3674 48.8001 54.8847 57.691 51.9701 59.2634C51.6964 59.4107 51.5269 59.693 51.5239 60.0018C51.512 60.8538 51.4883 62.5788 51.4764 63.4713C51.4734 63.5894 51.5358 63.6986 51.637 63.7586C51.7351 63.8203 51.863 63.8223 51.9641 63.7672C55.0304 62.1073 71.3763 53.2546 74.8977 51.3478C75.3111 51.1241 75.5669 50.693 75.5669 50.2239C75.5669 49.4049 75.5669 48.1104 75.5669 47.2926Z" fill="white"/>
<path fill-rule="evenodd" clip-rule="evenodd" d="M87.3055 34.3931C87.3055 34.234 87.2222 34.086 87.0854 34.0044C86.9486 33.9228 86.7791 33.9189 86.6393 33.9947C83.106 35.9006 66.6233 44.7915 63.7086 46.364C63.435 46.5113 63.2655 46.7935 63.2625 47.1023C63.2506 47.9544 63.2268 49.6793 63.2149 50.5719C63.212 50.69 63.2744 50.7992 63.3755 50.8591C63.4737 50.9209 63.6016 50.9228 63.7027 50.8677C66.769 49.2078 83.1149 40.3551 86.6363 38.4483C87.0497 38.2246 87.3055 37.7935 87.3055 37.3244C87.3055 36.5055 87.3055 35.2109 87.3055 34.3931Z" fill="#BCDEF7"/>
</g>
<defs>
<clipPath id="clip0">
<rect width="113.065" height="100" fill="white" transform="translate(0.467346)"/>
</clipPath>
</defs>
</svg>
