<?xml version="1.0" encoding="utf-8"?>
<!-- Generator: Adobe Illustrator 17.0.0, SVG Export Plug-In . SVG Version: 6.00 Build 0)  -->
<!DOCTYPE svg PUBLIC "-//W3C//DTD SVG 1.1//EN" "http://www.w3.org/Graphics/SVG/1.1/DTD/svg11.dtd">
<svg version="1.1" id="edd_logo" xmlns="http://www.w3.org/2000/svg" xmlns:xlink="http://www.w3.org/1999/xlink" x="0px" y="0px"
	 width="111.515px" height="111.515px" viewBox="0 0 111.515 111.515" enable-background="new 0 0 111.515 111.515"
	 xml:space="preserve">
<g>
	<path fill="#1D2428" d="M95.183,16.33C85.095,6.24,71.154,0,55.76,0C40.362,0,26.422,6.24,16.332,16.33
		C6.24,26.42,0,40.362,0,55.758s6.24,29.338,16.33,39.428c10.09,10.092,24.032,16.33,39.43,16.33
		c15.396,0,29.338-6.243,39.425-16.33c10.09-10.092,16.33-24.032,16.33-39.428S105.273,26.42,95.183,16.33z M93.343,93.343
		c-9.618,9.618-22.907,15.568-37.585,15.568s-27.969-5.95-37.588-15.568S2.602,70.436,2.602,55.758
		c0-14.678,5.95-27.967,15.568-37.585S41.077,2.604,55.756,2.604c14.678,0,27.967,5.95,37.585,15.568
		c9.618,9.618,15.568,22.907,15.568,37.585C108.911,70.436,102.961,83.725,93.343,93.343z"/>
	<path fill="#1D2428" d="M103.723,55.293C103.472,29.015,82.096,7.79,55.76,7.79c-26.339,0-47.717,21.227-47.963,47.505
		l21.994-21.994l7.376,7.376L21.072,56.773h69.377L74.353,40.678l7.376-7.376L103.723,55.293z M55.758,47.05L35.32,25.604h13.582
		V15.034c0-2.744,3.085-4.993,6.856-4.993s6.856,2.247,6.856,4.993v10.571h13.582L55.758,47.05z"/>
	<path fill="#1D2428" d="M61.719,82.754c-1.09-0.709-2.47-1.345-4.135-1.898c-1.273-0.439-2.321-0.853-3.139-1.252
		c-0.811-0.395-1.41-0.834-1.793-1.296c-0.393-0.471-0.576-1.036-0.576-1.684c0-0.518,0.156-1.011,0.49-1.478
		c0.328-0.465,0.841-0.853,1.538-1.145c0.704-0.297,1.6-0.458,2.713-0.462c0.897,0.005,1.715,0.077,2.456,0.205
		c0.732,0.132,1.38,0.293,1.935,0.476c0.562,0.19,1.018,0.369,1.375,0.539l1.238-3.733c-0.748-0.376-1.687-0.688-2.825-0.941
		c-0.967-0.214-2.072-0.337-3.329-0.379v-3.863h-3.404v4.056c-0.546,0.088-1.069,0.207-1.564,0.351
		c-1.252,0.369-2.328,0.883-3.218,1.552c-0.883,0.667-1.566,1.447-2.035,2.342c-0.472,0.894-0.704,1.88-0.713,2.939
		c0.007,1.227,0.328,2.307,0.962,3.241c0.634,0.934,1.538,1.745,2.704,2.44c1.162,0.692,2.548,1.289,4.152,1.791
		c1.204,0.386,2.184,0.788,2.932,1.201c0.748,0.411,1.296,0.864,1.638,1.359c0.349,0.495,0.521,1.069,0.513,1.71
		c0,0.704-0.207,1.315-0.611,1.842c-0.4,0.52-0.99,0.929-1.766,1.22c-0.776,0.293-1.724,0.437-2.834,0.446
		c-0.904-0.007-1.78-0.084-2.635-0.23c-0.848-0.153-1.645-0.351-2.379-0.597c-0.741-0.246-1.389-0.513-1.952-0.813l-1.196,3.889
		c0.541,0.297,1.217,0.564,2.044,0.811c0.827,0.249,1.738,0.446,2.734,0.597c0.99,0.146,2.007,0.221,3.041,0.23l0.181-0.002v3.994
		h3.404v-4.314c0.432-0.083,0.843-0.183,1.234-0.299c1.366-0.411,2.5-0.971,3.396-1.689c0.904-0.711,1.573-1.536,2.016-2.465
		c0.441-0.929,0.662-1.912,0.662-2.96c0-1.227-0.263-2.312-0.804-3.245C63.627,84.292,62.813,83.467,61.719,82.754z"/>
</g>
</svg>
