<svg width="62" height="62" viewBox="0 0 126 126" version="1.1" xmlns="http://www.w3.org/2000/svg">
	<g transform="matrix(1,0,0,1,-65.292,-0.3225)">
		<path d="M147.996,126.011L75.63,126.011C69.917,126.011 65.292,121.386 65.292,115.673L65.292,93.363C65.292,87.65 69.917,83.025 75.63,83.025L105.012,83.025L105.012,50.38C105.012,44.667 109.637,40.042 115.35,40.042L147.996,40.042L147.996,126.011Z" style="fill:rgb(255,197,23);"/>
		<path d="M180.642,126.011L147.996,126.011L147.996,10.661C147.996,4.948 152.621,0.323 158.334,0.323L180.642,0.323C186.355,0.323 190.98,4.948 190.98,10.661L190.98,115.673C190.708,121.385 186.083,126.01 180.642,126.01Z" style="fill:rgb(245,126,2);"/>
	</g>
</svg>
