<svg width="70" height="58" viewBox="0 0 887 744" version="1.1" xmlns="http://www.w3.org/2000/svg">
	<path d="M747.6 234.4c6.5-4 7.8-28 8.5-35 2-16.3 22-23.5 35-15 22.8 16.2 34.5 47.4 37.7 74 3.3 27.3.7 63.6-18.8 85-20.8 23.5-73.4 30.6-104.6 27.3-8.4-.6-16.2-2.6-24-3.8l-15-133.8 16.3 3.2c16.3 3.3 49.4 6.5 64.3-2h.6z" fill="#996"/>
	<path d="M798.3 208.4a54.3 54.3 0 0 0-13.6-13.6c-5.2-4-15-.7-15.6 5.8l-.7 4.6c9.8-3.3 20.8-.7 29.9 3.2m18.2 91.6c3.9-20.8 2-44.8-5.2-65.6a45.5 45.5 0 0 0-20.1-15.6c-12.4-5.2-18.9-3.3-24.7 2-.7 5.1-2 9-3.3 13 33.8 11 48 43.4 53.3 66.8v-.6zm-98.7-48a178 178 0 0 1-36.4-4l11.7 107.8a161 161 0 0 0 50 1.3c11.7-41.6 0-90.2-26-105.8l.7.6zm36.3-7.2c-4.5 2.6-11 4.5-18.8 5.8 23.4 24.7 30.5 69.5 22 104.6 19.6-4 35.8-11 44.2-20.2 2-2 3.3-4.5 5.2-6.5 0-37-14.9-76.6-50.6-84.4-.7.7-.7.7-1.3.7h-.7z" fill="#c0c0a0"/>
	<path d="M747.6 314.9a136.3 136.3 0 0 1-44.8 3.2c-5.2-.6-9.7-1.3-14.3-2.6l-7.7-66.8a178 178 0 0 0 36.3 3.9c17 10.3 28 35 30 62.3h.5zm47.5-94.2l1.9 11.7c1.3 7.8 1.3 17 .6 26a76.1 76.1 0 0 0-34.4-24.7c1.3-3.9 2.6-7.8 3.3-13 5.2-4.5 12.3-7.1 24.6-2l4 2m-9.8-25.3c2 3.3 3.2 6.5 4.6 9.8-7.2-2-14.3-2.6-22.1-.7l.6-4.5c.7-6.5 10.4-9.8 15.6-5.9l1.3.7v.6zm-31.2 49.4c-4.5 2.6-11 4.5-18.8 5.8 14.3 15 22 37 24.7 60.4 9-3.3 17.5-7.8 22.7-14.3 5.2-5.2-8.4-48.7-27.3-52.6-.6.7-.6.7-1.3.7" fill="#fbfac4"/>
	<path d="M138.6 234.4c-6.6-4-7.8-28-8.5-35-2-16.3-22-23.5-35-15-22.8 16.2-34.5 47.4-37.7 74-3.3 27.3-.7 63.6 18.8 85C97 367 149.6 374 180.7 370.8c8.5-.6 16.3-2.6 24-3.8l15-133.8-16.2 3.2c-16.3 3.3-49.4 6.5-64.3-2h-.6z" fill="#996"/>
	<path d="M87.9 208.4a54.4 54.4 0 0 1 13.6-13.6c5.2-4 15-.7 15.6 5.8l.7 4.6a43.3 43.3 0 0 0-29.9 3.2M69.7 300c-3.9-20.8-2-44.8 5.2-65.6A45.5 45.5 0 0 1 95 218.8c12.4-5.2 18.9-3.3 24.7 2 .7 5.1 2 9 3.3 13-33.8 11-48.1 43.4-53.3 66.8v-.6zm98.7-48c11.7 0 24-1.4 36.4-4L193 355.8a161 161 0 0 1-50 1.3c-11.7-41.6 0-90.2 26-105.8l-.7.6zm-36.3-7.2c4.5 2.6 11 4.5 18.8 5.8-23.4 24.7-30.5 69.5-22 104.6-19.6-4-35.8-11-44.2-20.2-2-2-3.3-4.5-5.2-6.5 0-37 14.9-76.6 50.6-84.4.7.7.7.7 1.3.7h.7z" fill="#c0c0a0"/>
	<path d="M138.6 314.9c15.5 3.9 32.4 4.5 44.8 3.2a93 93 0 0 0 14.2-2.6l7.8-66.8a178 178 0 0 1-36.3 3.9c-17 10.3-28 35-30 62.3h-.5zM91 220.7l-1.9 11.7c-1.3 7.8-1.3 17-.6 26a76 76 0 0 1 34.4-24.7c-1.3-3.9-2.6-7.8-3.3-13-5.2-4.5-12.3-7.1-24.6-2l-4 2m9.8-25.3c-2 3.3-3.3 6.5-4.6 9.8 7.2-2 14.3-2.6 22.1-.7l-.6-4.5c-.7-6.5-10.4-9.8-15.6-5.9l-1.3.7v.6zm31.2 49.4c4.5 2.6 11 4.5 18.8 5.8-14.3 15-22 37-24.7 60.4-9-3.3-17.5-7.8-22.7-14.3-5.2-5.2 8.4-48.7 27.3-52.6.6.7.6.7 1.3.7" fill="#fbfac4"/>
	<path d="M210.6 208.4c-22.7-2-44.8 2.6-66.9 5.8l19.5-18.8a274 274 0 0 1 68.2-46A334.1 334.1 0 0 1 349 113.5c-28.5-12.3-61-18.2-91.5-25.3 117.5-24.7 268.2-33.8 376 57.8 61.7 52.6 95.4 150 95.4 238.3 0 333.1-567.5 333.1-567.5 0 0-44.8 11-87.7 31.8-126.6-7.8 1.9-15 4.5-22.7 7.7L136 279.8l24.6-27.9c15-16.9 31.8-31.2 51.3-42.2l-1.3-1.3z" fill="#8ed41e"/>
	<path d="M465.2 105.8c55.2 6.5 109 24.7 153.9 63 54.5 46 83.7 131.8 83.7 209 0 141.6-116.9 215-237.6 219v-491z" fill="#70a91b"/>
	<path d="M256 177.9c43-28.6 113-37.7 197.5-33.1a138.9 138.9 0 0 0-48.7-38.3c38.3-1.3 68.8 7.1 144.8 33a366.8 366.8 0 0 0-221.4-47.3 271 271 0 0 1 77.2 36.3c-77.2-8.4-166.2 28.6-202 59.1 23.5-2.6 44.2 2 66.3 11.7-31.1 11-51.3 20.8-70.8 39.6 33.8-16.9 60.4-31.1 103.3-40.2-16.9-5.9-26-16.3-46.1-20.8" fill="#a1e141"/>
	<path d="M444.4 99.3c78 0 140.9 61 140.9 137 0 75.3-63 137-141 137-77.8 0-140.8-61-140.8-137 0-75.3 63-137 140.9-137" fill="#70a91b"/>
	<path d="M221 364.2c4.6-8.4 431.8-11.6 440.3 0 15 19.5 6.5 38.4 0 54.6H221c-3.9-17.5-10.4-36.4 0-54.6" fill="#70a91b"/>
	<path d="M226.9 376.6c4.5-11 420.7-15.6 429.2 0 14.3 26.6 5.8 52.6 0 74.7H226.9c-4-24-9.8-49.4 0-74.7" fill="#4b7113"/>
	<path d="M573 93.5C567-17.5 417.8-29.3 378.8 57.8c68.8-37.7 139-24 194.2 35.7" fill="#70a91b"/>
	<path d="M489.8 1.3C446.4-5.2 399 13.6 379.5 57c26-14.3 52.6-20.8 77.9-20.8 5.2-9.7 17.5-28.5 33.1-35h-.7z" fill="#85c51f"/>
	<path d="M444.4 85C514.5 85 571 141.5 571 211.6c0 70.2-56.5 126.7-126.6 126.7a126.4 126.4 0 0 1-126.6-126.7c0-70 56.5-126.6 126.6-126.6" fill="#d3e8ef"/>
	<path d="M364.5 117.5c42.2-35 101.3-35 131.2 1.3 29.9 35.7 19.5 93.5-22.7 129.2-42.2 35-101.3 35-131.2-1.3-29.9-35.7-19.5-93.5 22.7-129.2" fill="#fff"/>
	<path d="M447.6 168.8c49.4 0 89 37 89 83.1 0 46.1-39.6 83.1-89 83.1-49.3 0-89-37-89-83 0-46.2 39.7-83.2 89-83.2" fill="#0d82df"/>
	<path d="M447.6 168.8c24 0 46.1 9 61.7 23.4A117.7 117.7 0 0 1 473 248c-35.1 29.2-81.8 33.8-113.7 14.3-.6-3.2-.6-6.5-.6-10.4 0-46 39.6-83.1 89-83.1" fill="#0399ed"/>
	<path d="M447.6 198.7c31.2 0 57.2 24 57.2 53.2 0 29.2-25.3 53.3-57.2 53.3-31.1 0-57.1-24-57.1-53.3 0-29.2 25.3-53.2 57.1-53.2" fill="#232323"/>
	<path d="M447.6 198.7c20.2 0 37.7 9.7 48 24-5.8 9-13.5 17.5-22.6 24.7-23.4 19.5-52 27.9-77.3 26a50.2 50.2 0 0 1-5.2-22.1c0-29.3 25.3-53.3 57.1-53.3v.7z" fill="#323232"/>
	<path d="M397.6 173.3c23.4 0 42.2 17.6 42.2 39.6 0 22.1-18.8 39.7-42.2 39.7-23.3 0-42.2-17.6-42.2-39.7 0-22 18.9-39.6 42.2-39.6" fill="#fff"/>
	<path d="M149 407.8c196-29.3 392.8-26.7 589 0 14.2 102.5 6.4 200 0 298a6845.3 6845.3 0 0 1-589 0 1205 1205 0 0 1 0-298" fill="#9caeb3"/>
	<path d="M205.4 685.7c159.1 5.8 317.6 5.2 476.7 0-57.2-32.5-114.3-63.6-178.6-81.2a457.8 457.8 0 0 1-65 24c-3.2.7-3.2.7-6.4 0-18.2-5.8-36.4-13-54-20.7a696.3 696.3 0 0 0-173.3 78.5l.6-.6zm-37.6-244.2c-8.5 78.6-7.2 157.8 1.3 236.4a789.2 789.2 0 0 1 182.4-84.4c-74-39-126-94.8-183.7-152m535-15.6c-173.3-20.8-347.4-22.7-520.7 0 71.4 79.9 150 145.5 254.5 179.9 111-31.8 187.7-101.3 266.2-179.9m15 252c5.2-78.6 10.4-157.2 2-235.7-58.5 57.8-120.9 113-193.6 151.3 67.6 20 130.5 50 192.2 84.4h-.6z" fill="#d3e8ef"/>
	<path d="M205.4 685.7c76.6 2.6 153.3 3.9 230.6 3.9v-61c-.7 0-1.3 0-3.3-.7-18.2-5.8-36.3-13-53.9-20.8a696.7 696.7 0 0 0-173.4 78.6m-37.6-244.2c-8.5 78.6-7.2 157.8 1.3 236.4a789.2 789.2 0 0 1 182.4-84.4c-74-39-126-94.8-183.7-152M436 409.7c-85.1 0-169.5 5.2-254 16.2 70.8 80 150 144.9 254 179.9V409.7z" fill="#fff"/>
	<path d="M325.6 456.5c-.7 2.6-2 5.2-3.3 7.8-1.3 3.9-3.9 7.7-7.1 10.3-7.8 5.9-17.5 4-26 .7-18.8-7.8-31.8-26.6-39.6-44.8-9.1-20.8-9.8-35.7-4.6-58.5 131.2-7.1 265.6-8.4 393-.6v.6h1.9c2 22.1 0 31.2-5.2 49.4-5.9 20.8-18.2 46-39 55.8-7.8 4-16.9 5.9-24 .7a31.5 31.5 0 0 1-7.8-10.4c-4.6-7.2-5.8-17.5-7.2-25.3-2.5 5.2-5.8 8.4-11 9.7-8.4 2-18.2 3.2-26.6 3.9-8.5.7-17.5 1.3-26.6 1.3-13.7 0-28.6-1.3-41.6-5.2-2 7.8-5.2 15-13 17.5-8.4 2.6-18.8 4-27.9 4.6-9.7.6-19.5 1.3-28.6 1.3-15 0-31.8-1.3-45.4-7.1-5.2-2-8.5-5.9-10.4-11v-.7z" fill="#996"/>
	<path d="M545.7 367.5c5.2 29.2 3.9 66.9-4.6 68.8-13 3.3-63 8.5-87.6-.6-6.5-12.3-6.5-43.5-5.9-68.8 33.8 0 67.6 0 98 .6M336 373.3a586 586 0 0 0-13.6 48.1c-2.6 11.7-4.5 23.4-6.5 31.8-2.6 11.7-8.4 13.7-19.5 9.1-28.5-12.3-43.5-60.4-42.2-89.6 19.5-1.3 48.7-2.6 81.8-4 31.9-.6 67.6-1.2 103.3-1.2 3.2 35.7 3.2 78.6-4.5 87.7-13.7 4.5-67 11-93-.7-11.6-5.2-7-48.7-6.4-80.5l.6-.7zm215-5.8c3.9 15.6 8.4 31.8 13 52.6 2.6 13 3.9 25.3 5.8 33.8 2.6 13 7.8 14.9 18.2 9.7 25.3-13 39.6-61 39-92.9-18.9-1.3-45.5-2.6-76-3.2" fill="#c0c0a0"/>
	<path d="M447.6 385c30.6 0 61 0 89 .7 4.5 16.2 4.5 45.4-15 52.6-20.7 2-50.6 2.6-68.1-4-4.6-9-5.9-29.1-5.9-49.3m-112.3 2c28-.7 59.7-1.3 91.6-1.3 3.2 23.4 9 70.1-20.2 72.7-21.4 2-48 2-65-5.2-9.6-4.5-8.3-37-7-65.6l.6-.6zm-79.9 3.9c13.7-1.3 31.8-2 53.3-2.6 2.6 0 7.8 64.3 7.8 64.3-2.6 11.7-8.5 13.6-19.5 9-22.8-9.7-37-42.2-41-70l-.6-.7zm314.3 63c2.6 13 7.8 14.9 18.2 9.7 20.8-10.4 33.8-44.2 37.7-73.4-12.4-1.3-27.3-2-44.8-2.6-10.4 7.8-12.4 61.7-11 66.3" fill="#fbfac4"/>
	<path d="M391.8 386.3c1.3 25.4 0 50.7-3.2 52.6-6.5 4-30.6 9.1-42.2-.6-4.6-3.3-4-28-3.3-51.3 15.6-.7 31.8-.7 49.4-1.3l-.7.6zm109.1-.6c.6 18.8-.7 36.3-3.3 37.6-5.8 3.3-28.5 7.2-40.2-.6-4-2.6-4-20.1-3.3-37.7H501v.7zm-205.2 3.2c-.7 7.2-.7 15.6-.7 24v26c0 9.8-2.6 11.7-7.8 7.2-10.3-7.8-19.4-32.5-23.3-55.2 9-.7 20.1-1.3 31.8-2m322 .7c-8.4-.7-18.1-1.3-29.2-1.3 0 7.1.7 14.9.7 23.4v27.9c0 10.4 2 12.3 7.1 7.8 9.1-8.5 17.6-33.2 21.5-57.8" fill="#fff"/>
	<path d="M187.9 690.9c-7.1 32.4-39.6 53.9-72 52.6-44.9-2-114.4-51.3-113-100 .6-27.3 20.7-52 41.5-67.6 20.1-15.6 53.9-31.8 79.9-24.6 26 7.1 44.1 42.8 52.6 66.2 7.7 20.1 15.5 52 10.3 73.4h.7z" fill="#85c51f"/>
	<path d="M176.9 687.6c.6-3.9 1.3-7.8 1.3-12.3-8.5-35.7-28.6-76.6-51.3-83.1-35.1-10.4-105.9 36.3-102 84.4 19.5 29.9 61 54.5 91 55.8 27.2 1.3 55.1-16.9 61-44.1v-.7z" fill="#70a91b"/>
	<path d="M144.4 651.3c9-18.2-5.8-50-28.6-47.4-24 3.2-76 39-76 66.8 0 17.6 24 30 49.4 22.8 18.8-5.2 48-27.3 55.2-42.2m20.1 45.4c4.6-11-2-30.5-15-28.6-13.5 2.6-46 26-44.7 39 .6 10.4 18.8 19.5 33.1 14.3a55 55 0 0 0 26.6-24.7" fill="#5d8d17"/>
	<path d="M108.7 566.9c.6 11.6-22.1 22-31.2 13.6-7.8-15-5.8-33.1.7-37 7.1-4 24.6 3.2 30.5 23.4M64.5 588.3c2.6 13-15 24-23.4 18.2-11-11-14.9-30.6-9.7-35.1 5.2-4.5 24 2.6 33.1 16.9M31.4 620.7c4 8.5-4.5 20.2-14.3 19.5C6.7 632.4-3 614.2 1 609.7c3.9-5.2 21.4 0 30.5 11M197.6 500c5.2-9.8-9-16.3-20.7-20.8-11.7-4-17.6-4-22.1 5.8-5.2 9.8-7.8 24.7 4.5 28.6 11.7 3.9 33.8-4 39-13.6h-.7z" fill="#2c440c"/>
	<path d="M208 463.6c1.3 11-14.3 16.9-27.2 19.5-12.4 2.6-17.6 1.3-18.9-9.8-1.3-11 2-28.5 15-31.1 12.3-2.6 29.8 10.4 31.1 21.4" fill="#2c440c"/>
	<path d="M210.6 427.2c1.3 10.4-14.3 15.6-27.2 18.2-12.4 2.6-17.6 1.3-18.9-9.7-1.3-10.4 2-26.6 14.3-29.2 12.4-2.6 29.9 9.7 31.2 20l.6.7zM108.7 403.2c2 8.5 18.2 6.5 30.5 4 12.3-3.3 16.9-6 14.3-14.4-2-8.4-9.8-20.1-22-16.9-12.4 3.3-24.8 18.9-22.8 28v-.7z" fill="#2c440c"/>
	<path d="M97.6 506.5l4 11L93 511a40 40 0 0 1-9.8-13 75 75 0 0 0 2.7 13c-12.4-20.1-23.4-42.2-16.3-71.4 6.5-26.7 33.1-39 52-44.2a99.4 99.4 0 0 1 36.3-3.9c7.2.7 19.5 2.6 24.7 9.1 5.2 6.5 7.8 20.1 9 29.2a163 163 0 0 1-.6 43.5c-2 13-5.8 25.4-12.3 35.8a42.7 42.7 0 0 1-18.8 16.8 45.9 45.9 0 0 1-28 2.6 67.3 67.3 0 0 1-35-21.4l.6-.6z" fill="#85c51f"/>
	<path d="M176.2 409.7c7.8 9.1 11.7 47.4 2.6 75.3a51.6 51.6 0 0 1-46.1-11.7c.7 4 2 6.5 3.3 8.5-7.8-3.2-14.3-13-18.9-24 .7 9 2 13 3.3 18.2-9.8-3.3-17.6-14.3-23.4-26-5.2-10.4-4.6-25.3 4.5-31.8 24-17.6 65-18.9 74-7.8l.7-.7z" fill="#a1e141"/>
	<path d="M699 690.9c7 32.4 39.5 53.9 72 52.6 44.8-2 114.3-51.3 113-100-.6-27.3-20.8-52-41.5-67.6-20.2-15.6-54-31.8-80-24.6-25.9 7.1-44 42.8-52.5 66.2-7.8 20.1-15.6 52-10.4 73.4h-.7z" fill="#85c51f"/>
	<path d="M709.3 687.6c-.6-3.9-1.3-7.8-1.3-12.3 8.5-35.7 28.6-76.6 51.3-83.1 35-10.4 105.9 36.3 102 84.4-19.5 29.9-61 54.5-91 55.8-27.2 1.3-55.1-16.9-61-44.1v-.7z" fill="#70a91b"/>
	<path d="M742.5 651.3c-9.2-18.2 5.8-50 28.5-47.4 24 3.2 76 39 76 66.8 0 17.6-24 30-49.4 22.8-18.8-5.2-48-27.3-55.1-42.2m-20.2 45.4c-4.5-11 2-30.5 15-28.6 13.6 2.6 46 26 44.8 39-.7 10.4-18.9 19.5-33.2 14.3a54.9 54.9 0 0 1-26.6-24.7" fill="#5d8d17"/>
	<path d="M777.5 566.9c-.6 11.6 22.1 22 31.2 13.6 7.8-15 5.8-33.1-.7-37-7.1-4-24.6 3.2-30.5 23.4M821.7 588.3c-2.6 13 15 24 23.4 18.2 11-11 14.9-30.6 9.7-35.1-5.2-4.5-24 2.6-33.1 16.9M854.8 620.7c-4 8.5 4.5 20.2 14.3 19.5 10.4-7.8 20-26 16.2-30.5-3.9-5.2-21.4 0-30.5 11M688.5 500c-5.1-9.8 9.1-16.3 20.8-20.8 11.7-4 17.6-4 22.1 5.8 5.2 9.8 7.8 24.7-4.5 28.6-11.7 3.9-33.8-4-39-13.6h.6z" fill="#2c440c"/>
	<path d="M678.8 463.6c-1.3 11 14.3 16.9 27.3 19.5 12.3 2.6 17.5 1.3 18.8-9.8 1.3-11-2-28.5-15-31.1-12.3-2.6-29.8 10.4-31 21.4" fill="#2c440c"/>
	<path d="M675.6 427.2c-1.3 10.4 14.3 15.6 27.2 18.2 12.4 2.6 17.6 1.3 18.9-9.7 1.3-10.4-2-26.6-14.3-29.2-12.4-2.6-29.9 9.7-31.2 20l-.6.7zM778.2 403.2c-2 8.5-18.2 6.5-30.6 4-12.3-3.3-16.8-6-14.3-14.4 2-8.4 9.8-20.1 22.1-16.9 12.4 3.3 24.7 18.9 22.8 28v-.7z" fill="#2c440c"/>
	<path d="M788.6 506.5l-4 11 8.5-6.5c4-3.2 7.1-7.8 9.7-13a75 75 0 0 1-2.6 13c12.4-20.1 23.4-42.2 16.3-71.4-6.5-26.7-33.1-39-52-44.2a99.4 99.4 0 0 0-36.3-3.9c-7.2.7-19.5 2.6-24.7 9.1-5.2 6.5-7.8 20.1-9 29.2-2 14.3-1.4 29.3.6 43.5 2 13 5.8 25.4 12.3 35.8 5.2 7.8 11 13.6 18.8 16.8a45.9 45.9 0 0 0 28 2.6 67.4 67.4 0 0 0 35-21.4l-.6-.6z" fill="#85c51f"/>
	<path d="M710 409.7c-7.8 9.1-11.7 47.4-2.6 75.3a51.6 51.6 0 0 0 46.1-11.7c-.7 4-2 6.5-3.3 8.5 7.8-3.2 14.3-13 18.9-24-.7 9-2 13-3.3 18.2 9.8-3.3 17.6-14.3 23.4-26 5.2-10.4 4.6-25.3-4.5-31.8-24-17.6-65-18.9-74-7.8l-.7-.7z" fill="#a1e141"/>
</svg>
