<svg width="14" height="19" viewBox="0 0 14 19" fill="none" xmlns="http://www.w3.org/2000/svg">
<path d="M7 0.499268C3.13833 0.499268 0 3.6376 0 7.49927C0 9.85593 1.365 11.8276 2.95167 13.2043C3.45333 13.6359 4.32833 14.3243 5.11 15.3393C5.97333 16.4709 6.755 17.6843 7 18.5009C7.245 17.6843 8.02667 16.4709 8.89 15.3393C9.67167 14.3243 10.5467 13.6359 11.0483 13.2043C12.635 11.8276 14 9.85593 14 7.49927C14 3.6376 10.8617 0.499268 7 0.499268ZM7 3.48593C7.52704 3.48593 8.04892 3.58974 8.53584 3.79143C9.02276 3.99312 9.46518 4.28874 9.83786 4.66141C10.2105 5.03408 10.5061 5.47651 10.7078 5.96343C10.9095 6.45035 11.0133 6.97223 11.0133 7.49927C11.0133 8.02631 10.9095 8.54818 10.7078 9.0351C10.5061 9.52202 10.2105 9.96445 9.83786 10.3371C9.46518 10.7098 9.02276 11.0054 8.53584 11.2071C8.04892 11.4088 7.52704 11.5126 7 11.5126C5.9356 11.5126 4.91479 11.0898 4.16214 10.3371C3.4095 9.58448 2.98667 8.56367 2.98667 7.49927C2.98667 6.43487 3.4095 5.41406 4.16214 4.66141C4.91479 3.90877 5.9356 3.48593 7 3.48593Z" fill="#6C7781"/>
</svg>
