<svg width="24" height="18" viewBox="0 0 24 18" fill="none" xmlns="http://www.w3.org/2000/svg">
	<path d="M11.3542 5.30945C9.14783 2.47388 6.11669 0.886042 2.2275 0.597443V13.3634C6.16429 13.5951 9.09666 15.0982 11.3542 17.4574V5.30945ZM12.4396 5.30945C14.646 2.47388 17.6772 0.886042 21.5663 0.597443V13.3634C17.6295 13.5951 14.6972 15.0982 12.4396 17.4574V5.30945ZM1.20403 3.41799V14.3161C4.66003 14.2292 7.7471 15.566 9.66671 17.2772L9.67861 17.3062C5.84178 15.9104 1.59318 16.3545 -0.00390625 16.9275V3.70659C0.485218 3.6272 0.880326 3.52957 1.20403 3.41799ZM22.5898 3.41799V14.3161C19.1338 14.2292 16.0467 15.566 14.1271 17.2772L14.1152 17.3062C17.9521 15.9104 22.2007 16.3545 23.7977 16.9275V3.70659C23.3086 3.6272 22.9135 3.52957 22.5898 3.41799ZM14.9947 12.7787C14.9947 12.7787 16.8477 11.4441 19.4206 10.884C19.7396 10.8143 19.9359 10.5235 19.8586 10.236C19.7812 9.94849 19.4599 9.77147 19.141 9.84121C16.2967 10.4602 14.2497 11.9419 14.2497 11.9419C13.9938 12.1264 13.9522 12.4644 14.1581 12.695C14.3628 12.9268 14.7376 12.9643 14.9947 12.7787ZM8.74796 12.7787C8.74796 12.7787 6.89381 11.4441 4.32204 10.884C4.0031 10.8143 3.80674 10.5235 3.8829 10.236C3.96026 9.94849 4.28277 9.77147 4.60171 9.84121C7.44601 10.4602 9.49176 11.9419 9.49176 11.9419C9.74763 12.1264 9.78928 12.4644 9.58459 12.695C9.37871 12.9268 9.00383 12.9643 8.74796 12.7787ZM14.9923 9.74465C14.9923 9.74465 16.8465 8.42289 19.4206 7.86285C19.7396 7.79312 19.9359 7.50237 19.8586 7.21485C19.7812 6.92732 19.4599 6.7503 19.141 6.82003C16.2978 7.43907 14.2521 8.90353 14.2521 8.90353C13.995 9.08806 13.9522 9.42494 14.1557 9.65775C14.3604 9.88949 14.7341 9.92811 14.9923 9.74465ZM8.75034 9.74465C8.75034 9.74465 6.89619 8.42289 4.32204 7.86285C4.0031 7.79312 3.80674 7.50237 3.8829 7.21485C3.96026 6.92732 4.28277 6.7503 4.60171 6.82003C7.44363 7.43907 9.48938 8.90353 9.48938 8.90353C9.74644 9.08806 9.79047 9.42494 9.58578 9.65775C9.38228 9.88949 9.0074 9.92811 8.75034 9.74465ZM15.0007 6.90908C15.0007 6.90908 16.8512 5.54011 19.4206 4.98008C19.7396 4.91034 19.9359 4.62067 19.8586 4.33314C19.7812 4.04454 19.4599 3.86752 19.141 3.93726C16.2931 4.55737 14.2438 6.07976 14.2438 6.07976C13.9903 6.26858 13.9546 6.60653 14.1628 6.83505C14.3711 7.06357 14.7472 7.09683 15.0007 6.90908ZM8.74201 6.90908C8.74201 6.90908 6.89143 5.54011 4.32204 4.98008C4.0031 4.91034 3.80674 4.62067 3.8829 4.33314C3.96026 4.04454 4.28277 3.86752 4.60171 3.93726C7.44839 4.55737 9.49771 6.07976 9.49771 6.07976C9.7512 6.26858 9.78809 6.60653 9.57983 6.83505C9.37037 7.06357 8.9955 7.09683 8.74201 6.90908Z" fill="#6C7781"/>
</svg>
