<svg width="20" height="20" viewBox="2 0 22 20" fill="none" xmlns="http://www.w3.org/2000/svg">
<g clip-path="url(#clip0)">
<path fill-rule="evenodd" clip-rule="evenodd" d="M10.3179 1.94999C10.6649 1.36225 11.3061 1.00018 11.9999 1.00018C12.6938 1.00018 13.335 1.36225 13.682 1.94999C15.8443 5.61301 19.5772 11.9366 21.7397 15.5998C22.0867 16.1876 22.0867 16.9119 21.7397 17.4997C21.3928 18.0876 20.7516 18.4497 20.0577 18.4497H3.9422C3.2483 18.4497 2.60709 18.0876 2.26011 17.4997C1.91318 16.9119 1.91322 16.1876 2.2602 15.5998C4.42272 11.9366 8.15559 5.61301 10.3179 1.94999ZM12.0072 15.8402C11.7122 15.8402 11.4546 15.7468 11.2346 15.5599C11.0146 15.3731 10.9046 15.1117 10.9046 14.7758C10.9046 14.4825 11.0097 14.233 11.2201 14.0272C11.4305 13.8214 11.688 13.7185 11.9927 13.7185C12.2974 13.7185 12.5573 13.8214 12.7725 14.0272C12.9877 14.233 13.0953 14.4825 13.0953 14.7758C13.0953 15.107 12.9865 15.3672 12.7689 15.5564C12.5513 15.7456 12.2974 15.8402 12.0072 15.8402ZM11.202 11.1711L10.9699 7.77222C10.9263 7.10993 10.9046 6.6345 10.9046 6.34593C10.9046 5.95329 11.0097 5.64699 11.2201 5.42703C11.4305 5.20707 11.7074 5.09709 12.0507 5.09709C12.4667 5.09709 12.7447 5.23781 12.885 5.51928C13.0252 5.80076 13.0953 6.2064 13.0953 6.73621C13.0953 7.04846 13.0784 7.3654 13.0445 7.68707L12.7326 11.1853C12.6988 11.6016 12.6262 11.9209 12.515 12.1433C12.4038 12.3656 12.22 12.4768 11.9637 12.4768C11.7025 12.4768 11.5212 12.3692 11.4196 12.1539C11.318 11.9387 11.2455 11.6111 11.202 11.1711Z" fill="#F56E28"/>
</g>
<defs>
<clipPath id="clip0">
<rect width="20" height="17.5" fill="white" transform="translate(2 1)"/>
</clipPath>
</defs>
</svg>
