<svg width="24" height="18" viewBox="0 0 24 18" fill="none" xmlns="http://www.w3.org/2000/svg">
	<path d="M17.1429 9.02614C17.1429 9.32078 16.9955 9.60203 16.7411 9.74935L9.88393 14.0351C9.75 14.1288 9.58929 14.169 9.42857 14.169C9.28125 14.169 9.14732 14.1288 9.01339 14.0619C8.74554 13.9145 8.57143 13.6199 8.57143 13.3119V4.74042C8.57143 4.43239 8.74554 4.13774 9.01339 3.99042C9.28125 3.8431 9.61607 3.8431 9.88393 4.01721L16.7411 8.30292C16.9955 8.45024 17.1429 8.73149 17.1429 9.02614ZM24 9.02614C24 7.11096 24 5.07524 23.5848 3.21364C23.2902 1.90114 22.2455 0.93685 20.9866 0.789528C18.0134 0.454707 15 0.454707 12 0.454707C9 0.454707 5.98661 0.454707 3.01339 0.789528C1.75446 0.93685 0.723214 1.90114 0.428571 3.21364C0 5.07524 0 7.11096 0 9.02614C0 10.9413 0 12.977 0.415179 14.8386C0.709821 16.1511 1.75446 17.1154 3.01339 17.2627C5.98661 17.5976 9 17.5976 12 17.5976C15 17.5976 18.0134 17.5976 20.9866 17.2627C22.2455 17.1154 23.2902 16.1511 23.5714 14.8386C24 12.977 24 10.9413 24 9.02614Z" fill="#6C7781"/>
</svg>
