<svg width="114" height="100" viewBox="0 0 114 100" fill="none" xmlns="http://www.w3.org/2000/svg">
<g clip-path="url(#clip0)">
<path fill-rule="evenodd" clip-rule="evenodd" d="M58.2507 37.0532C56.728 36.2291 54.8939 36.2492 53.3913 37.1085C44.4416 42.214 13.2054 60.0381 3.42151 65.621C2.81347 65.9678 2.44158 66.611 2.44158 67.3044C2.43655 68.0029 2.81347 68.6462 3.41648 68.9929C12.8235 74.3849 42.1401 91.1789 53.0647 97.4351C55.6325 98.9075 58.7934 98.8924 61.3512 97.3999C71.9693 91.1838 100.065 74.7467 109.929 68.9728C110.638 68.5557 111.065 67.7919 111.055 66.9728C111.04 66.1537 110.582 65.4 109.864 65.013C99.1501 59.209 67.3311 41.9728 58.2507 37.0532Z" fill="#D7DFE5" fill-opacity="0.16"/>
<path fill-rule="evenodd" clip-rule="evenodd" d="M30.0231 79.0669C29.5105 78.7302 29.199 78.1523 29.199 77.5342C29.199 71.2177 29.199 36.5895 29.199 28.6196C29.199 27.6046 29.7366 26.6699 30.611 26.1624C37.5608 22.1373 67.9377 4.53925 74.0432 1.00156C74.7166 0.609605 75.5357 0.559349 76.2492 0.870907C77.204 1.28297 78.5356 1.86089 79.3748 2.2227C79.8522 2.42873 80.1638 2.90109 80.1638 3.41868C80.1638 9.45385 80.1638 45.5292 80.1638 53.092C80.1638 53.9513 79.7015 54.7403 78.9527 55.1674C72.3045 58.9513 40.2392 77.1926 34.214 80.6197C33.616 80.9614 32.8773 80.9363 32.2994 80.5594C31.611 80.1071 30.6864 79.499 30.0231 79.0669Z" fill="#E5F1FC"/>
<path fill-rule="evenodd" clip-rule="evenodd" d="M29.6562 79.6247C30.3195 80.0619 31.2441 80.6649 31.9325 81.1172C32.7164 81.6348 33.7265 81.6649 34.5456 81.2026C40.5707 77.7754 72.636 59.5342 79.2843 55.7503C80.239 55.2076 80.832 54.1925 80.832 53.092C80.832 45.5292 80.832 9.45387 80.832 3.41869C80.832 2.62975 80.3647 1.92115 79.6411 1.60457C78.8019 1.24276 77.4702 0.669927 76.5155 0.257867C75.6059 -0.139118 74.5657 -0.0788439 73.7064 0.418644C67.6008 3.95633 37.224 21.5544 30.2793 25.5795C29.1938 26.2076 28.5255 27.3684 28.5255 28.6196C28.5255 36.5895 28.5255 71.2177 28.5255 77.5343C28.5255 78.3785 28.9526 79.1674 29.6562 79.6247ZM30.3948 78.5091C30.0632 78.293 29.8672 77.9262 29.8672 77.5343C29.8672 71.2177 29.8672 36.5895 29.8672 28.6196C29.8672 27.8458 30.2793 27.1272 30.9476 26.7403C37.8973 22.7151 68.2743 5.11717 74.3798 1.57948C74.8672 1.29807 75.4652 1.26286 75.9828 1.48397C76.9375 1.89603 78.2692 2.47395 79.1084 2.83576C79.3395 2.93626 79.4903 3.16743 79.4903 3.41869C79.4903 9.45387 79.4903 45.5292 79.4903 53.092C79.4903 53.7101 79.1586 54.278 78.621 54.5845C71.9727 58.3684 39.9074 76.6096 33.8823 80.0368C33.5003 80.2528 33.033 80.2377 32.6662 79.9965L30.3948 78.5091Z" fill="#1B374C"/>
<path fill-rule="evenodd" clip-rule="evenodd" d="M79.7431 2.55428C79.7431 2.55428 42.6024 23.8457 35.0194 28.1925C34.1099 28.7101 33.5521 29.6799 33.5471 30.7252C33.5169 39.3181 33.3762 80.8006 33.3762 80.8006C33.3762 80.9362 33.4868 81.0518 33.6275 81.0518C33.7632 81.0518 33.8787 80.9413 33.8787 80.8006C33.8787 80.8006 34.0195 39.3181 34.0496 30.7252C34.0496 29.8608 34.5169 29.0618 35.2707 28.6297C42.8486 24.2829 79.9893 2.99146 79.9893 2.99146C80.1099 2.92111 80.1551 2.77039 80.0848 2.64979C80.0144 2.52918 79.8637 2.48393 79.7431 2.55428Z" fill="#1B374C"/>
<path fill-rule="evenodd" clip-rule="evenodd" d="M77.0738 7.78751L45.7924 25.883L45.8174 29.672L77.0738 11.883V7.78751Z" fill="white"/>
<path d="M42.5211 31.2589C43.5421 30.6708 44.3698 29.3664 44.3698 28.3454C44.3698 27.3244 43.5421 26.9735 42.5211 27.5616C41.5001 28.1496 40.6725 29.454 40.6725 30.475C40.6725 31.496 41.5001 31.8469 42.5211 31.2589Z" fill="#83C11F" fill-opacity="0.16"/>
<path d="M38.2054 33.6528C39.2264 33.0647 40.0541 31.7603 40.0541 30.7394C40.0541 29.7184 39.2264 29.3674 38.2054 29.9555C37.1845 30.5436 36.3568 31.848 36.3568 32.869C36.3568 33.8899 37.1845 34.2409 38.2054 33.6528Z" fill="#FF0002" fill-opacity="0.13"/>
<path fill-rule="evenodd" clip-rule="evenodd" d="M77.0737 15.4153L36.4606 38.1539L36.3551 76.169L77.0737 52.9379V15.4153Z" fill="#FEFFFF"/>
<path fill-rule="evenodd" clip-rule="evenodd" d="M77.325 15.4152C77.325 15.3248 77.2798 15.2444 77.2044 15.1992C77.124 15.154 77.0285 15.154 76.9531 15.1942L36.335 37.9329C36.2597 37.9781 36.2094 38.0635 36.2094 38.1539L36.1039 76.164C36.1039 76.2544 36.1541 76.3399 36.2295 76.3851C36.3099 76.4304 36.4054 76.4304 36.4808 76.3851L77.1994 53.159C77.2798 53.1138 77.325 53.0283 77.325 52.9379V15.4152ZM36.7119 38.2997L36.6114 75.7318L76.8225 52.7921V15.8424L36.7119 38.2997Z" fill="#1B374C"/>
<path fill-rule="evenodd" clip-rule="evenodd" d="M69.6929 27.562L88.7682 26.3308L86.1149 44.7529L63.4466 65.4866L47.4768 60.7077L47.5321 39.969L69.6929 27.562Z" fill="#63AEED" fill-opacity="0.15"/>
<path fill-rule="evenodd" clip-rule="evenodd" d="M69.6895 27.5637L47.5332 39.9687L47.4756 60.7078L69.6895 48.0341V27.5637Z" fill="#BCDEF7"/>
<path fill-rule="evenodd" clip-rule="evenodd" d="M89.7237 27.203C89.7237 26.9119 89.5682 26.6407 89.3168 26.4918C89.0621 26.3429 88.7511 26.3396 88.4931 26.4819C83.736 29.1482 66.6363 38.7186 63.487 40.4818C63.1793 40.6571 62.9874 40.9814 62.9841 41.3353C62.9775 44.6302 62.9312 61.108 62.9213 64.9752C62.9213 65.1439 63.0106 65.2994 63.1561 65.3821C63.3017 65.4681 63.4803 65.4681 63.6259 65.3854C67.3078 63.2847 84.3149 53.582 88.6949 51.0844C89.33 50.7205 89.7237 50.0423 89.7237 49.3112C89.7237 45.2058 89.7237 31.6326 89.7237 27.203Z" fill="#0482DF"/>
<path fill-rule="evenodd" clip-rule="evenodd" d="M87.2393 30.9681C87.2393 30.7463 87.1209 30.5421 86.9293 30.4312C86.7377 30.3177 86.5032 30.3152 86.3091 30.4236C82.7874 32.395 70.3188 39.3754 67.4525 40.9813C67.087 41.1855 66.8626 41.5712 66.8601 41.9871C66.8551 43.8375 66.8424 48.9651 66.8374 50.8205C66.8374 50.9617 66.9105 51.0927 67.034 51.1633C67.155 51.2364 67.3063 51.2364 67.4273 51.1658C70.4701 49.4314 84.2571 41.5661 86.8461 40.0888C87.1057 39.9426 87.2645 39.6653 87.2645 39.3679C87.2595 37.8427 87.2469 33.1059 87.2393 30.9681Z" fill="#BCDEF7"/>
<path fill-rule="evenodd" clip-rule="evenodd" d="M87.2419 41.7489C87.2394 41.6607 87.194 41.58 87.1184 41.5372C87.0427 41.4918 86.9494 41.4918 86.8738 41.5347C84.3226 42.964 69.197 51.4319 67.1021 52.6041C66.9534 52.6873 66.8626 52.8436 66.8601 53.0125C66.8601 53.6276 66.8551 55.1099 66.8551 55.8284C66.8526 55.9141 66.8979 55.9922 66.971 56.0326C67.0416 56.0754 67.1324 56.0754 67.2055 56.0351C69.6735 54.6309 84.3479 46.2841 86.8915 44.8371C87.1209 44.706 87.2646 44.459 87.2621 44.1943C87.257 43.559 87.2469 42.3767 87.2419 41.7489Z" fill="white"/>
<path fill-rule="evenodd" clip-rule="evenodd" d="M87.2419 46.7273C87.2394 46.6441 87.1965 46.5685 87.1234 46.5256C87.0503 46.4827 86.962 46.4827 86.8889 46.5231C84.3856 47.9272 69.1542 56.453 67.092 57.6076C66.9509 57.6883 66.8626 57.837 66.8626 58.0009C66.8601 58.6084 66.8551 60.1109 66.8525 60.8344C66.8525 60.9176 66.8979 60.9933 66.9685 61.0336C67.0391 61.0764 67.1273 61.0764 67.2004 61.0361C69.7113 59.6067 85.0461 50.8868 87.0503 49.7474C87.1814 49.6692 87.2645 49.528 87.262 49.3743C87.2595 48.8096 87.2469 47.4155 87.2419 46.7273Z" fill="#83C11F"/>
</g>
<defs>
<clipPath id="clip0">
<rect width="113.065" height="100" fill="white" transform="translate(0.467285)"/>
</clipPath>
</defs>
</svg>
