<svg width="20" height="20" viewBox="0 0 20 20" fill="none" xmlns="http://www.w3.org/2000/svg">
<path fill-rule="evenodd" clip-rule="evenodd" d="M9.99688 9.15527e-05C15.5142 9.15527e-05 19.9936 4.47946 19.9936 9.9968C19.9936 15.5141 15.5142 19.9935 9.99688 19.9935C4.47955 19.9935 0.000183105 15.5141 0.000183105 9.9968C0.000183105 4.47946 4.47955 9.15527e-05 9.99688 9.15527e-05ZM10.005 16.1581C9.67403 16.1581 9.38512 16.0509 9.13819 15.8366C8.89131 15.6223 8.76788 15.3225 8.76788 14.9372C8.76788 14.6008 8.88589 14.3146 9.12192 14.0785C9.35795 13.8425 9.64691 13.7245 9.98875 13.7245C10.3306 13.7245 10.6223 13.8425 10.8637 14.0785C11.1052 14.3146 11.2259 14.6008 11.2259 14.9372C11.2259 15.317 11.1038 15.6155 10.8596 15.8325C10.6154 16.0496 10.3306 16.1581 10.005 16.1581ZM9.10158 10.8026L8.84114 6.90397C8.79228 6.1443 8.76788 5.59898 8.76788 5.26799C8.76788 4.81762 8.88589 4.46629 9.12192 4.21399C9.35795 3.96169 9.6686 3.83549 10.0539 3.83549C10.5205 3.83549 10.8325 3.99694 10.9899 4.3198C11.1472 4.64266 11.2259 5.10794 11.2259 5.71564C11.2259 6.07375 11.2069 6.43733 11.1689 6.80629L10.8189 10.8188C10.7809 11.2964 10.6995 11.6626 10.5748 11.9176C10.45 12.1726 10.2438 12.3001 9.9562 12.3001C9.66318 12.3001 9.45969 12.1767 9.34574 11.9298C9.2318 11.6829 9.15039 11.3072 9.10158 10.8026Z" fill="#DC3232"/>
</svg>
