<svg width="16" height="15" viewBox="0 0 16 15" fill="none" xmlns="http://www.w3.org/2000/svg">
<path d="M13.2448 0.646447C13.151 0.552678 13.0239 0.5 12.8913 0.5C12.7586 0.5 12.6315 0.552678 12.5377 0.646447L8 5.18414L3.4623 0.646447C3.36854 0.552678 3.24136 0.5 3.10875 0.5C2.97614 0.5 2.84896 0.552678 2.7552 0.646447L1.52145 1.8802C1.42768 1.97396 1.375 2.10114 1.375 2.23375C1.375 2.36636 1.42768 2.49354 1.52145 2.5873L6.05914 7.125L1.52145 11.6627C1.42768 11.7565 1.375 11.8836 1.375 12.0163C1.375 12.1489 1.42768 12.276 1.52145 12.3698L2.7552 13.6036C2.95046 13.7988 3.26704 13.7988 3.4623 13.6036L8 9.06586L12.5377 13.6036C12.733 13.7988 13.0495 13.7988 13.2448 13.6036L14.4786 12.3698C14.6738 12.1745 14.6738 11.858 14.4786 11.6627L9.94086 7.125L14.4786 2.5873C14.6738 2.39204 14.6738 2.07546 14.4786 1.8802L13.2448 0.646447Z" fill="#DC3232" stroke="#DC3232" stroke-linejoin="round"/>
</svg>
