<svg width="16" height="15" viewBox="0 0 16 15" fill="none" xmlns="http://www.w3.org/2000/svg">
<path d="M13.2448 0.646447C13.151 0.552678 13.0239 0.5 12.8913 0.5C12.7586 0.5 12.6315 0.552678 12.5377 0.646447L12.1301 1.05405L12.4836 1.4076L11.6684 2.22281L11.3149 1.86926L10.4997 2.68447L10.8532 3.03802L10.038 3.85323L9.68447 3.49968L8.86926 4.31488L9.22281 4.66844L8.4076 5.48365L8.05405 5.13009L8 5.18414L7.94595 5.13009L7.5924 5.48365L6.77719 4.66844L7.13074 4.31488L6.31553 3.49968L5.96198 3.85323L5.14677 3.03802L5.50032 2.68447L4.68512 1.86926L4.33156 2.22281L3.51635 1.4076L3.86991 1.05405L3.4623 0.646447C3.36854 0.552678 3.24136 0.5 3.10875 0.5C2.97614 0.5 2.84896 0.552678 2.7552 0.646447L2.44676 0.954884L2.80031 1.30844L2.7552 1.35355L2.22855 1.8802L2.18344 1.92531L1.82988 1.57176L1.52145 1.8802C1.42768 1.97396 1.375 2.10114 1.375 2.23375C1.375 2.36636 1.42768 2.49354 1.52145 2.5873L1.92905 2.99491L2.2826 2.64135L3.09781 3.45656L2.74426 3.81012L3.55947 4.62532L3.91302 4.27177L4.72823 5.08698L4.37468 5.44053L5.18988 6.25574L5.54344 5.90219L6.35865 6.7174L6.00509 7.07095L6.05914 7.125L6.00509 7.17905L6.35865 7.5326L5.54344 8.34781L5.18988 7.99426L4.37468 8.80947L4.72823 9.16302L3.91302 9.97823L3.55947 9.62468L2.74426 10.4399L3.09781 10.7934L2.2826 11.6086L1.92905 11.2551L1.52145 11.6627C1.42768 11.7565 1.375 11.8836 1.375 12.0163C1.375 12.1489 1.42768 12.276 1.52145 12.3698L1.82988 12.6782L2.18344 12.3247L2.22855 12.3698L2.7552 12.8964L2.80031 12.9416L2.44676 13.2951L2.7552 13.6036C2.95046 13.7988 3.26704 13.7988 3.4623 13.6036L3.86991 13.1959L3.51635 12.8424L4.33156 12.0272L4.68512 12.3807L5.50032 11.5655L5.14677 11.212L5.96198 10.3968L6.31553 10.7503L7.13074 9.93512L6.77719 9.58156L7.5924 8.76635L7.94595 9.11991L8 9.06586L8.05405 9.11991L8.4076 8.76635L9.22281 9.58156L8.86926 9.93512L9.68447 10.7503L10.038 10.3968L10.8532 11.212L10.4997 11.5655L11.3149 12.3807L11.6684 12.0272L12.4836 12.8424L12.1301 13.1959L12.5377 13.6036C12.733 13.7988 13.0495 13.7988 13.2448 13.6036L13.5532 13.2951L13.1997 12.9416L13.2448 12.8964L13.7714 12.3698L13.8166 12.3247L14.1701 12.6782L14.4786 12.3698C14.6738 12.1745 14.6738 11.858 14.4786 11.6627L14.0709 11.2551L13.7174 11.6086L12.9022 10.7934L13.2557 10.4399L12.4405 9.62468L12.087 9.97823L11.2718 9.16302L11.6253 8.80947L10.8101 7.99426L10.4566 8.34781L9.64135 7.5326L9.99491 7.17905L9.94086 7.125L9.99491 7.07095L9.64135 6.7174L10.4566 5.90219L10.8101 6.25574L11.6253 5.44053L11.2718 5.08698L12.087 4.27177L12.4405 4.62532L13.2557 3.81012L12.9022 3.45656L13.7174 2.64135L14.0709 2.99491L14.4786 2.5873C14.6738 2.39204 14.6738 2.07546 14.4786 1.8802L14.1701 1.57176L13.8166 1.92531L13.7714 1.8802L13.2448 1.35355L13.1997 1.30844L13.5532 0.954884L13.2448 0.646447Z" stroke="#DC3232" stroke-linejoin="round" stroke-dasharray="1 1"/>
</svg>
