<svg width="18" height="19" viewBox="0 0 18 19" fill="none" xmlns="http://www.w3.org/2000/svg">
<path fill-rule="evenodd" clip-rule="evenodd" d="M5.95 16.45C5.1 16.45 2.55 13.9 2.55 13.05C2.55 12.767 2.83305 12.2 3.4 11.35L0 10.5L1.7 7.95L5.1 8.8C8.5 3.7 13.6 2 17 2C17 5.4 15.3 10.5 10.2 13.9L11.05 17.3L8.5 19L7.65 15.6C6.8 16.167 6.23305 16.45 5.95 16.45ZM5.134 13.866C5.4349 14.1678 5.74515 14.4372 6.00355 14.6225C6.1931 14.5171 6.4294 14.3709 6.70735 14.1856L9.25735 12.4856C12.5707 10.2756 14.5605 7.032 15.1292 3.87085C11.968 4.44035 8.72355 6.42935 6.5144 9.74265L4.8144 12.2927C4.6291 12.5706 4.4829 12.8069 4.37665 12.9965C4.56365 13.2549 4.83225 13.566 5.13315 13.8669L5.134 13.866Z" fill="white"/>
<path d="M11.475 8.8C12.1792 8.8 12.75 8.22916 12.75 7.525C12.75 6.82084 12.1792 6.25 11.475 6.25C10.7708 6.25 10.2 6.82084 10.2 7.525C10.2 8.22916 10.7708 8.8 11.475 8.8Z" fill="white"/>
<path fill-rule="evenodd" clip-rule="evenodd" d="M1.7 13.9L2.55 15.175C1.98305 15.742 1.7 16.45 1.7 17.3C2.55 17.3 3.25805 17.017 3.825 16.45L5.1 17.3C3.96695 18.4331 2.26695 19 0 19C0 16.7331 0.56695 15.0331 1.7 13.9Z" fill="white"/>
</svg>
