<svg fill="none" height="19" viewBox="0 0 19 19" width="19" xmlns="http://www.w3.org/2000/svg"><g fill="#087ce1"><path clip-rule="evenodd" d="m6.65 16.15c-.95 0-3.8-2.85-3.8-3.8 0-.3164.31635-.95.95-1.9l-3.8-.95 1.9-2.85 3.8.95c3.8-5.7 9.5-7.6 13.3-7.6 0 3.8-1.9 9.5-7.6 13.3l.95 3.8-2.85 1.9-.95-3.8c-.95.6336-1.58365.95-1.9.95zm-.912-2.888c.3363.3372.68305.6384.97185.8455.21185-.1178.47595-.2812.7866-.4883l2.84995-1.9c3.7032-2.47 5.9271-6.0952 6.5626-9.62825-3.533.6365-7.15915 2.8595-9.6282 6.5626l-1.9 2.84995c-.2071.3107-.3705.5748-.48925.7866.209.2888.5092.6366.8455.9728z" fill-rule="evenodd"/><path d="m12.825 7.6c.787 0 1.425-.63799 1.425-1.425s-.638-1.425-1.425-1.425-1.425.63799-1.425 1.425.638 1.425 1.425 1.425z"/><path clip-rule="evenodd" d="m1.9 13.3.95 1.425c-.63365.6337-.95 1.425-.95 2.375.95 0 1.74135-.3164 2.375-.95l1.425.95c-1.26635 1.2664-3.16635 1.9-5.7 1.9 0-2.5336.63365-4.4337 1.9-5.7z" fill-rule="evenodd"/></g></svg>