<svg width="12" height="13" viewBox="0 0 12 13" fill="none" xmlns="http://www.w3.org/2000/svg">
<path d="M10.2857 2.42857H9.42857V1.78571C9.42857 1.19643 8.94643 0.714285 8.35714 0.714285H7.92857C7.33929 0.714285 6.85714 1.19643 6.85714 1.78571V2.42857H4.28571V1.78571C4.28571 1.19643 3.80357 0.714285 3.21429 0.714285H2.78571C2.19643 0.714285 1.71429 1.19643 1.71429 1.78571V2.42857H0.857143C0.388393 2.42857 0 2.81696 0 3.28571V11.8571C0 12.3259 0.388393 12.7143 0.857143 12.7143H10.2857C10.7545 12.7143 11.1429 12.3259 11.1429 11.8571V3.28571C11.1429 2.81696 10.7545 2.42857 10.2857 2.42857ZM7.71429 1.78571C7.71429 1.66518 7.80804 1.57143 7.92857 1.57143H8.35714C8.47768 1.57143 8.57143 1.66518 8.57143 1.78571V3.71429C8.57143 3.83482 8.47768 3.92857 8.35714 3.92857H7.92857C7.80804 3.92857 7.71429 3.83482 7.71429 3.71429V1.78571ZM2.57143 1.78571C2.57143 1.66518 2.66518 1.57143 2.78571 1.57143H3.21429C3.33482 1.57143 3.42857 1.66518 3.42857 1.78571V3.71429C3.42857 3.83482 3.33482 3.92857 3.21429 3.92857H2.78571C2.66518 3.92857 2.57143 3.83482 2.57143 3.71429V1.78571ZM10.2857 11.8571H0.857143V5H10.2857V11.8571ZM6 8V6.5C6 6.37946 5.90625 6.28571 5.78571 6.28571H5.35714C5.23661 6.28571 5.14286 6.37946 5.14286 6.5V8H3.64286C3.52232 8 3.42857 8.09375 3.42857 8.21429V8.64286C3.42857 8.76339 3.52232 8.85714 3.64286 8.85714H5.14286V10.3571C5.14286 10.4777 5.23661 10.5714 5.35714 10.5714H5.78571C5.90625 10.5714 6 10.4777 6 10.3571V8.85714H7.5C7.62054 8.85714 7.71429 8.76339 7.71429 8.64286V8.21429C7.71429 8.09375 7.62054 8 7.5 8H6Z" fill="#6C7781"/>
</svg>
