<svg width="15" height="17" viewBox="0 0 15 17" fill="none" xmlns="http://www.w3.org/2000/svg">
<path d="M13.7338 2.57143H12.591V1.71428C12.591 0.928571 11.9481 0.285713 11.1624 0.285713H10.591C9.80525 0.285713 9.16239 0.928571 9.16239 1.71428V2.57143H5.73382V1.71428C5.73382 0.928571 5.09096 0.285713 4.30525 0.285713H3.73382C2.9481 0.285713 2.30525 0.928571 2.30525 1.71428V2.57143H1.16239C0.537388 2.57143 0.0195312 3.08928 0.0195312 3.71428V15.1429C0.0195312 15.7679 0.537388 16.2857 1.16239 16.2857H13.7338C14.3588 16.2857 14.8767 15.7679 14.8767 15.1429V3.71428C14.8767 3.08928 14.3588 2.57143 13.7338 2.57143ZM10.3052 1.71428C10.3052 1.55357 10.4302 1.42857 10.591 1.42857H11.1624C11.3231 1.42857 11.4481 1.55357 11.4481 1.71428V4.28571C11.4481 4.44643 11.3231 4.57143 11.1624 4.57143H10.591C10.4302 4.57143 10.3052 4.44643 10.3052 4.28571V1.71428ZM3.4481 1.71428C3.4481 1.55357 3.5731 1.42857 3.73382 1.42857H4.30525C4.46596 1.42857 4.59096 1.55357 4.59096 1.71428V4.28571C4.59096 4.44643 4.46596 4.57143 4.30525 4.57143H3.73382C3.5731 4.57143 3.4481 4.44643 3.4481 4.28571V1.71428ZM13.7338 15.1429H1.16239V6H13.7338V15.1429ZM8.01953 10V8C8.01953 7.83929 7.89453 7.71429 7.73382 7.71429H7.16239C7.00167 7.71429 6.87667 7.83929 6.87667 8V10H4.87667C4.71596 10 4.59096 10.125 4.59096 10.2857V10.8571C4.59096 11.0179 4.71596 11.1429 4.87667 11.1429H6.87667V13.1429C6.87667 13.3036 7.00167 13.4286 7.16239 13.4286H7.73382C7.89453 13.4286 8.01953 13.3036 8.01953 13.1429V11.1429H10.0195C10.1802 11.1429 10.3052 11.0179 10.3052 10.8571V10.2857C10.3052 10.125 10.1802 10 10.0195 10H8.01953Z" fill="#087CE1"/>
</svg>
