<svg width="13" height="13" viewBox="0 0 13 13" fill="none" xmlns="http://www.w3.org/2000/svg">
<path d="M8.35714 5.83877C8.35714 7.63062 6.899 9.08877 5.10714 9.08877C3.31529 9.08877 1.85714 7.63062 1.85714 5.83877C1.85714 4.04692 3.31529 2.58877 5.10714 2.58877C6.899 2.58877 8.35714 4.04692 8.35714 5.83877ZM12.0714 11.8745C12.0714 11.6278 11.9699 11.3884 11.803 11.2216L9.31473 8.7333C9.90234 7.88453 10.2143 6.86891 10.2143 5.83877C10.2143 3.01678 7.92913 0.731628 5.10714 0.731628C2.28516 0.731628 0 3.01678 0 5.83877C0 8.66076 2.28516 10.9459 5.10714 10.9459C6.13728 10.9459 7.1529 10.634 8.00167 10.0464L10.49 12.5274C10.6568 12.7015 10.8962 12.8031 11.1429 12.8031C11.6507 12.8031 12.0714 12.3823 12.0714 11.8745Z" fill="#C9D0D6"/>
</svg>
