<svg width="114" height="100" viewBox="0 0 114 100" fill="none" xmlns="http://www.w3.org/2000/svg">
<g clip-path="url(#clip0)">
<path fill-rule="evenodd" clip-rule="evenodd" d="M58.2508 37.0532C56.7282 36.2291 54.894 36.2492 53.3915 37.1085C44.4417 42.214 13.2056 60.0381 3.42164 65.621C2.8136 65.9678 2.4417 66.611 2.4417 67.3044C2.43667 68.0029 2.81359 68.6462 3.41661 68.9929C12.8236 74.3849 42.1402 91.1789 53.0648 97.4351C55.6327 98.9075 58.7935 98.8924 61.3513 97.3999C71.9694 91.1838 100.065 74.7467 109.929 68.9728C110.638 68.5557 111.065 67.7919 111.055 66.9728C111.04 66.1537 110.582 65.4 109.864 65.013C99.1503 59.209 67.3312 41.9728 58.2508 37.0532Z" fill="#D7DFE5" fill-opacity="0.16"/>
<path fill-rule="evenodd" clip-rule="evenodd" d="M30.0232 79.0669C29.5106 78.7302 29.199 78.1523 29.199 77.5342C29.199 71.2177 29.199 36.5895 29.199 28.6196C29.199 27.6046 29.7367 26.6699 30.6111 26.1624C37.5608 22.1373 67.9377 4.53925 74.0432 1.00156C74.7166 0.609605 75.5357 0.559349 76.2493 0.870907C77.2041 1.28297 78.5357 1.86089 79.3749 2.2227C79.8523 2.42873 80.1638 2.90109 80.1638 3.41868C80.1638 9.45385 80.1638 45.5292 80.1638 53.092C80.1638 53.9513 79.7015 54.7403 78.9528 55.1674C72.3046 58.9513 40.2392 77.1926 34.2141 80.6197C33.6161 80.9614 32.8774 80.9363 32.2995 80.5594C31.6111 80.1071 30.6865 79.499 30.0232 79.0669Z" fill="#E5F1FC"/>
<path fill-rule="evenodd" clip-rule="evenodd" d="M29.6563 79.6247C30.3197 80.0619 31.2442 80.6649 31.9327 81.1172C32.7166 81.6348 33.7267 81.6649 34.5458 81.2026C40.5709 77.7754 72.6362 59.5342 79.2844 55.7503C80.2392 55.2076 80.8322 54.1925 80.8322 53.092C80.8322 45.5292 80.8322 9.45387 80.8322 3.41869C80.8322 2.62975 80.3649 1.92115 79.6413 1.60457C78.8021 1.24276 77.4704 0.669927 76.5156 0.257867C75.6061 -0.139118 74.5659 -0.0788439 73.7066 0.418644C67.601 3.95633 37.2242 21.5544 30.2795 25.5795C29.194 26.2076 28.5257 27.3684 28.5257 28.6196C28.5257 36.5895 28.5257 71.2177 28.5257 77.5343C28.5257 78.3785 28.9528 79.1674 29.6563 79.6247ZM30.395 78.5091C30.0634 78.293 29.8674 77.9262 29.8674 77.5343C29.8674 71.2177 29.8674 36.5895 29.8674 28.6196C29.8674 27.8458 30.2794 27.1272 30.9478 26.7403C37.8975 22.7151 68.2744 5.11717 74.38 1.57948C74.8674 1.29807 75.4654 1.26286 75.983 1.48397C76.9377 1.89603 78.2694 2.47395 79.1086 2.83576C79.3397 2.93626 79.4905 3.16743 79.4905 3.41869C79.4905 9.45387 79.4905 45.5292 79.4905 53.092C79.4905 53.7101 79.1588 54.278 78.6211 54.5845C71.9729 58.3684 39.9076 76.6096 33.8824 80.0368C33.5005 80.2528 33.0332 80.2377 32.6664 79.9965L30.395 78.5091Z" fill="#1B374C"/>
<path fill-rule="evenodd" clip-rule="evenodd" d="M79.7432 2.55428C79.7432 2.55428 42.6025 23.8457 35.0196 28.1925C34.1101 28.7101 33.5523 29.6799 33.5472 30.7252C33.5171 39.3181 33.3764 80.8006 33.3764 80.8006C33.3764 80.9362 33.4869 81.0518 33.6276 81.0518C33.7633 81.0518 33.8789 80.9413 33.8789 80.8006C33.8789 80.8006 34.0196 39.3181 34.0498 30.7252C34.0498 29.8608 34.5171 29.0618 35.2709 28.6297C42.8487 24.2829 79.9895 2.99146 79.9895 2.99146C80.1101 2.92111 80.1553 2.77039 80.0849 2.64979C80.0146 2.52918 79.8638 2.48393 79.7432 2.55428Z" fill="#1B374C"/>
<path fill-rule="evenodd" clip-rule="evenodd" d="M77.0739 7.78751L45.7925 25.883L45.8176 29.672L77.0739 11.883V7.78751Z" fill="white"/>
<path d="M42.5212 31.2589C43.5422 30.6708 44.3699 29.3664 44.3699 28.3454C44.3699 27.3244 43.5422 26.9735 42.5212 27.5616C41.5002 28.1496 40.6726 29.454 40.6726 30.475C40.6726 31.496 41.5002 31.8469 42.5212 31.2589Z" fill="#83C11F" fill-opacity="0.16"/>
<path d="M38.2056 33.6528C39.2266 33.0647 40.0543 31.7603 40.0543 30.7394C40.0543 29.7184 39.2266 29.3674 38.2056 29.9555C37.1847 30.5436 36.357 31.848 36.357 32.869C36.357 33.8899 37.1847 34.2409 38.2056 33.6528Z" fill="#FF0002" fill-opacity="0.13"/>
<path fill-rule="evenodd" clip-rule="evenodd" d="M77.0739 15.4153L36.4608 38.1539L36.3553 76.169L77.0739 52.9379V15.4153Z" fill="#FEFFFF"/>
<path fill-rule="evenodd" clip-rule="evenodd" d="M77.3251 15.4152C77.3251 15.3248 77.2799 15.2444 77.2045 15.1992C77.1241 15.154 77.0286 15.154 76.9533 15.1942L36.3352 37.9329C36.2598 37.9781 36.2095 38.0635 36.2095 38.1539L36.104 76.164C36.104 76.2544 36.1543 76.3399 36.2296 76.3851C36.31 76.4304 36.4055 76.4304 36.4809 76.3851L77.1995 53.159C77.2799 53.1138 77.3251 53.0283 77.3251 52.9379V15.4152ZM36.7121 38.2997L36.6115 75.7318L76.8226 52.7921V15.8424L36.7121 38.2997Z" fill="#1B374C"/>
<path fill-rule="evenodd" clip-rule="evenodd" d="M74.4669 28.8283L88.7683 26.3308L89.7231 48.7831L76.1051 58.0544H61.7784V35.9137L74.4669 28.8283Z" fill="#63AEED" fill-opacity="0.15"/>
<path fill-rule="evenodd" clip-rule="evenodd" d="M89.7238 26.6275C89.7238 26.4456 89.6279 26.2769 89.4691 26.1843C89.3103 26.0916 89.1151 26.0883 88.9563 26.1776C86.3925 27.6068 78.1917 32.1852 76.0745 33.3662C75.7635 33.5382 75.5717 33.869 75.5717 34.223C75.5717 37.4947 75.5717 53.7376 75.5717 57.5486C75.5717 57.714 75.661 57.8695 75.8032 57.9555C75.9488 58.0382 76.1274 58.0415 76.273 57.9588C78.7243 56.5892 86.9119 52.0207 89.1548 50.7702C89.5055 50.5717 89.7238 50.2013 89.7238 49.7944C89.7238 46.3738 89.7238 30.551 89.7238 26.6275Z" fill="#0482DF"/>
<path fill-rule="evenodd" clip-rule="evenodd" d="M88.4777 30.1491C88.4777 30.0533 88.4273 29.9625 88.3441 29.9121C88.2584 29.8642 88.1551 29.8617 88.0719 29.9096C86.3955 30.8448 80.038 34.3941 78.1978 35.4201C77.8852 35.594 77.6936 35.9217 77.6936 36.2772C77.6936 37.9687 77.6936 42.8893 77.6936 44.3312C77.6936 44.417 77.739 44.4926 77.8096 44.5354C77.8827 44.5783 77.9709 44.5808 78.0465 44.5379C79.68 43.6279 86.5165 39.8114 88.1349 38.9089C88.3466 38.7905 88.4777 38.5636 88.4777 38.3216C88.4777 36.857 88.4777 31.7296 88.4777 30.1491Z" fill="#BCDEF7"/>
<path fill-rule="evenodd" clip-rule="evenodd" d="M88.4777 41.0106C88.4777 40.9577 88.4525 40.9098 88.4071 40.8846C88.3618 40.8569 88.3063 40.8569 88.2609 40.8821C86.8694 41.6585 79.2338 45.9212 77.8928 46.6674C77.7692 46.738 77.6936 46.8691 77.6936 47.0102C77.6936 47.5144 77.6936 48.7244 77.6936 49.2991C77.6936 49.3647 77.7289 49.4252 77.7843 49.458C77.8423 49.4932 77.9104 49.4932 77.9684 49.4605C79.496 48.6084 86.9173 44.4667 88.2685 43.713C88.397 43.6399 88.4777 43.5038 88.4777 43.3525C88.4777 42.8206 88.4777 41.5501 88.4777 41.0106Z" fill="white"/>
<path fill-rule="evenodd" clip-rule="evenodd" d="M88.4777 45.2242C88.4777 45.1713 88.4525 45.1234 88.4071 45.0982C88.3618 45.0704 88.3063 45.0705 88.2609 45.0957C86.8694 45.8721 79.2338 50.1348 77.8928 50.881C77.7692 50.9515 77.6936 51.0826 77.6936 51.2238C77.6936 51.728 77.6936 52.9379 77.6936 53.5127C77.6936 53.5782 77.7289 53.6387 77.7843 53.6715C77.8423 53.7068 77.9104 53.7068 77.9684 53.674C79.496 52.822 86.9173 48.6803 88.2685 47.9266C88.397 47.8535 88.4777 47.7173 88.4777 47.5661C88.4777 47.0342 88.4777 45.7637 88.4777 45.2242Z" fill="#83C11F"/>
<path fill-rule="evenodd" clip-rule="evenodd" d="M74.4651 28.8308L61.7806 35.9114V58.0514L74.4651 50.9709V28.8308Z" fill="#BCDEF7"/>
</g>
<defs>
<clipPath id="clip0">
<rect width="113.065" height="100" fill="white" transform="translate(0.467346)"/>
</clipPath>
</defs>
</svg>
