<svg viewBox="0 0 225 200" xmlns="http://www.w3.org/2000/svg" fill-rule="evenodd" clip-rule="evenodd" stroke-linejoin="round" stroke-miterlimit="2"><path d="M115.109 74.416a9.933 9.933 0 00-9.67.11c-17.81 10.16-79.97 45.63-99.44 56.74a3.857 3.857 0 00-1.95 3.35c-.01 1.39.74 2.67 1.94 3.36 18.72 10.73 77.06 44.15 98.8 56.6a16.47 16.47 0 0016.49-.07c21.13-12.37 77.04-45.08 96.67-56.57a4.55 4.55 0 002.24-3.98 4.533 4.533 0 00-2.37-3.9l-102.71-55.64z" fill="#d7dfe5" fill-opacity=".16"/><path d="M58.936 158.023a3.654 3.654 0 01-1.64-3.05v-97.34c0-2.02 1.07-3.88 2.81-4.89 13.83-8.01 74.28-43.03 86.43-50.07a4.86 4.86 0 014.39-.26c1.9.82 4.55 1.97 6.22 2.69.95.41 1.57 1.35 1.57 2.38v98.85c0 1.71-.92 3.28-2.41 4.13-13.23 7.53-77.04 43.83-89.03 50.65-1.19.68-2.66.63-3.81-.12-1.37-.9-3.21-2.11-4.53-2.97z" fill="#e5f1fc"/><path d="M58.206 159.133c1.32.87 3.16 2.07 4.53 2.97a4.99 4.99 0 005.2.17c11.99-6.82 75.8-43.12 89.03-50.65 1.9-1.08 3.08-3.1 3.08-5.29V7.483c0-1.57-.93-2.98-2.37-3.61-1.67-.72-4.32-1.86-6.22-2.68a6.196 6.196 0 00-5.59.32c-12.15 7.04-72.6 42.06-86.42 50.07a6.996 6.996 0 00-3.49 6.05v97.34c0 1.68.85 3.25 2.25 4.16zm1.47-2.22a2.311 2.311 0 01-1.05-1.94v-97.34c0-1.54.82-2.97 2.15-3.74 13.83-8.01 74.28-43.03 86.43-50.07.97-.56 2.16-.63 3.19-.19 1.9.82 4.55 1.97 6.22 2.69.46.2.76.66.76 1.16v98.85c0 1.23-.66 2.36-1.73 2.97-13.23 7.53-77.04 43.83-89.03 50.65-.76.43-1.69.4-2.42-.08l-4.52-2.96z" fill="#1b374c"/><path d="M157.879 5.763l-89 51.02a5.827 5.827 0 00-2.93 5.04c-.06 17.1-.34 99.65-.34 99.65 0 .27.22.5.5.5.27 0 .5-.22.5-.5 0 0 .28-82.55.34-99.65 0-1.72.93-3.31 2.43-4.17 15.08-8.65 88.99-51.02 88.99-51.02.24-.14.33-.44.19-.68a.497.497 0 00-.68-.19z" fill="#1b374c"/><path d="M152.567 16.177l-62.25 36.01.05 7.54 62.2-35.4v-8.15z" fill="#fff"/><circle cx="1023.62" cy="1331.24" r="3.506" fill="#83c11f" fill-opacity=".16" transform="matrix(1.04929 -.60438 0 1.04929 -990.267 -718.993)"/><circle cx="1023.62" cy="1331.24" r="3.506" fill="#ff0002" fill-opacity=".13" transform="matrix(1.04929 -.60438 0 1.04929 -998.855 -714.229)"/><path d="M152.567 31.356l-80.82 45.25-.21 75.65 81.03-46.23v-74.67z" fill="#feffff"/><path d="M153.067 31.356c0-.18-.09-.34-.24-.43a.523.523 0 00-.5-.01l-80.83 45.25a.52.52 0 00-.25.44l-.21 75.64c0 .18.1.35.25.44.16.09.35.09.5 0l81.03-46.22a.5.5 0 00.25-.44v-74.67zm-80.82 45.54l-.2 74.49 80.02-45.65v-73.53l-79.82 44.69z" fill="#1b374c"/><text x="444.258" y="668.964" font-family="'Roboto-Black','Roboto'" font-weight="900" font-size="26" fill="#0482df" transform="matrix(.62225 -.35926 0 .72826 -191.789 -198.067)">T<tspan x="457.551px 466.641px 480.733px 494.292px 507.521px 520.789px" y="668.964px 668.964px 668.964px 668.964px 668.964px 668.964px">ruLead</tspan></text><path d="M119.333 87.922c1.788-1.974 3.427-5.86 3.427-8.126V65.814c-3.003.088-6.286 1.132-9.61 3.057-3.323 1.912-6.607 4.658-9.61 8.037v13.988c0 2.263 1.643 4.257 3.428 4.165l6.182-.325 6.183-6.814z" fill="#0482df" fill-rule="nonzero"/><path d="M118.514 75.141c0-.2-.069-.36-.194-.432l-.941-.543c-.125-.072-.298-.052-.47.048-.174.1-.347.28-.471.496l-4.54 7.872-2.035-1.183c-.125-.072-.298-.052-.471.048s-.346.28-.471.496l-.941 1.63a1.372 1.372 0 00-.194.655c0 .2.07.36.194.432l3.446 1.99c.125.071.298.052.471-.048s.346-.28.471-.496l5.952-10.31a1.37 1.37 0 00.194-.655z" fill="#fff" fill-rule="nonzero"/></svg>
