<svg width="13" height="11" viewBox="0 0 13 11" fill="none" xmlns="http://www.w3.org/2000/svg">
	<path d="M12.6563 1.78484C12.2031 1.98015 11.7109 2.12077 11.2031 2.17546C11.7266 1.86296 12.125 1.37077 12.3125 0.784836C11.8281 1.0739 11.2813 1.28484 10.7109 1.39421C10.25 0.902023 9.59375 0.597336 8.86719 0.597336C7.46875 0.597336 6.34375 1.73015 6.34375 3.12077C6.34375 3.31609 6.36719 3.5114 6.40625 3.6989C4.3125 3.58952 2.44531 2.58952 1.20313 1.05827C0.984375 1.43327 0.859375 1.86296 0.859375 2.33171C0.859375 3.20671 1.30469 3.98015 1.98438 4.43327C1.57031 4.41765 1.17969 4.30046 0.84375 4.11296C0.84375 4.12077 0.84375 4.1364 0.84375 4.14421C0.84375 5.37077 1.71094 6.3864 2.86719 6.62077C2.65625 6.67546 2.42969 6.70671 2.20313 6.70671C2.03906 6.70671 1.88281 6.69109 1.72656 6.66765C2.04688 7.66765 2.97656 8.39421 4.08594 8.41765C3.21875 9.09734 2.13281 9.49577 0.953125 9.49577C0.742188 9.49577 0.546875 9.48796 0.34375 9.46452C1.46094 10.1833 2.78906 10.5973 4.21875 10.5973C8.85938 10.5973 11.3984 6.75359 11.3984 3.41765C11.3984 3.30827 11.3984 3.1989 11.3906 3.08952C11.8828 2.73015 12.3125 2.28484 12.6563 1.78484Z" fill="white"/>
</svg>
