<svg fill="none" height="17" viewBox="0 0 20 17" width="20" xmlns="http://www.w3.org/2000/svg"><path d="m9.54414 4.89259c-1.85375-2.64358-4.40068-4.123329-7.66881-4.392559v11.898969c3.30792.216 5.77242 1.617 7.66881 3.8163zm.91246 0c1.8538-2.64358 4.4007-4.123329 7.6688-4.392559v11.898969c-3.3079.216-5.7724 1.617-7.6688 3.8163zm-9.44134-1.7636v10.15851c2.90388-.0817 5.49791 1.1642 7.11167 2.7601l.00934.0272c-3.22386-1.3011-6.79328-.8877-8.13578172-.3533v-12.32369c.41135772-.07309.74310972-.16487 1.01477172-.26882zm17.97024 0v10.15851c-2.9039-.0817-5.4979 1.1642-7.1117 2.7601l-.0093.0272c3.2238-1.3011 6.7933-.8877 8.1358-.3533v-12.32369c-.4114-.07309-.7432-.16487-1.0148-.26882z" fill="#087ce1"/></svg>