<svg width="14" height="11" viewBox="0 0 14 11" fill="none" xmlns="http://www.w3.org/2000/svg">
	<path d="M10 5.59734C10 5.76921 9.91406 5.93327 9.76563 6.01921L5.76563 8.51921C5.6875 8.5739 5.59375 8.59734 5.5 8.59734C5.41406 8.59734 5.33594 8.5739 5.25781 8.53484C5.10156 8.4489 5 8.27702 5 8.09734V3.09734C5 2.91765 5.10156 2.74577 5.25781 2.65984C5.41406 2.5739 5.60938 2.5739 5.76563 2.67546L9.76563 5.17546C9.91406 5.2614 10 5.42546 10 5.59734ZM14 5.59734C14 4.48015 14 3.29265 13.7578 2.20671C13.5859 1.44109 12.9766 0.878585 12.2422 0.792648C10.5078 0.597336 8.75 0.597336 7 0.597336C5.25 0.597336 3.49219 0.597336 1.75781 0.792648C1.02344 0.878585 0.421875 1.44109 0.25 2.20671C0 3.29265 0 4.48015 0 5.59734C0 6.71452 0 7.90202 0.242188 8.98796C0.414063 9.75359 1.02344 10.3161 1.75781 10.402C3.49219 10.5973 5.25 10.5973 7 10.5973C8.75 10.5973 10.5078 10.5973 12.2422 10.402C12.9766 10.3161 13.5859 9.75359 13.75 8.98796C14 7.90202 14 6.71452 14 5.59734Z" fill="white"/>
</svg>
