<svg width="78" height="78" viewBox="0 0 78 78" fill="none" xmlns="http://www.w3.org/2000/svg">
<rect x="0.5" y="0.5" width="77" height="77" rx="3.5" fill="#E5F1FC" fill-opacity="0.2" stroke="#E5F1FC"/>
<path fill-rule="evenodd" clip-rule="evenodd" d="M38.6052 43.4196C41.0482 48.0833 43.4187 49.1015 45.7739 49.3652L45.8317 49.3715H54.4026V42.2284L66.5 53.339L54.4026 64.4497V57.3095H45.8317C42.5683 57.2354 39.219 56.6311 35.3026 52.5227L35.2565 52.4743C34.9877 52.1874 34.7138 51.8667 34.4348 51.513C34.9161 50.7591 35.3735 49.961 35.8076 49.1182C35.81 49.1137 35.8478 49.0401 35.8478 49.0401C36.7704 47.3043 37.6888 45.4004 38.6052 43.4196ZM11.5 49.2202H18.552C21.533 49.4663 24.0587 47.1864 26.2129 42.8458L26.293 42.6527C26.7882 41.4584 27.2759 40.3148 27.7552 39.2248L27.8521 39.0048L27.9523 38.7786L28.0813 38.4885L28.1837 38.2594L28.3092 37.9805L28.4604 37.6463L28.6111 37.3158L28.7612 36.9891L28.8837 36.7242L28.9854 36.506L29.1018 36.2572L29.2082 36.0314L29.3187 35.7982L29.4298 35.5651L29.5343 35.3472L29.65 35.1074L29.7624 34.8762L29.869 34.6584L29.9723 34.4485L30.0412 34.3093L30.1094 34.1721L30.1767 34.0373C30.9033 32.5852 31.6076 31.2806 32.2878 30.1326C33.3354 28.3649 34.3267 26.9678 35.2565 25.9754L35.3026 25.927C39.219 21.8185 42.5683 21.2143 45.8317 21.1402H54.4026V14L66.5 25.1107L54.4026 36.2212V29.0782H45.8317L45.7739 29.0845C43.3271 29.3585 40.864 30.4466 38.32 35.5904L38.147 35.9763C37.6258 37.14 37.105 38.3085 36.5831 39.4659L36.5469 39.5461C36.4473 39.7668 36.3477 39.987 36.248 40.2069L36.1766 40.3642C36.0636 40.613 35.9506 40.8609 35.8376 41.1076L35.834 41.1155C35.7549 41.2885 35.6758 41.4609 35.5966 41.6326L35.5845 41.6587C35.5073 41.8264 35.4301 41.9935 35.3527 42.16L35.2948 42.2846L35.2212 42.4429L35.0884 42.7269L35.0421 42.8257L34.972 42.975C34.9346 43.0544 34.8972 43.1337 34.86 43.2127L34.7736 43.3952L34.6697 43.6138L34.6138 43.7312L34.4851 44.0002L34.3638 44.2522L34.2386 44.511L34.1887 44.6136L34.1052 44.7846L33.9916 45.0165L33.9375 45.1265L33.8457 45.3121L33.7443 45.5162L33.6859 45.6334L33.5586 45.8871L33.5099 45.9835L33.4302 46.141L33.3105 46.3759L33.2571 46.48L33.1664 46.6564L33.0619 46.858L33.0041 46.9692L32.9083 47.152L32.813 47.3329L32.7506 47.4505L32.7128 47.5241L32.6372 47.6701L32.6046 47.7321L32.5494 47.8365L32.4841 47.9588L32.4489 48.024L32.3679 48.1725L32.3415 48.2205C29.1372 54.0244 24.5633 57.165 18.4492 57.3095H11.5V49.2202ZM11.5 21.1402H18.4492C23.2975 21.2548 27.1774 23.2533 30.1736 26.9698C28.8311 29.061 27.3915 31.7407 25.8793 34.9539C23.7989 31.0365 21.3804 28.996 18.552 29.2294H11.5V21.1402Z" fill="#087CE1"/>
</svg>
