<svg width="114" height="100" viewBox="0 0 113 100" fill="none" xmlns="http://www.w3.org/2000/svg">
<path fill-rule="evenodd" clip-rule="evenodd" d="M57.4944 37.158C55.9794 36.338 54.1544 36.3579 52.6594 37.2129C43.7544 42.2929 12.6744 60.0279 2.93944 65.5829C2.33444 65.9279 1.9644 66.5679 1.9644 67.2579C1.9594 67.9529 2.33444 68.593 2.93444 68.938C12.2944 74.303 41.4644 91.013 52.3344 97.238C54.8894 98.703 58.0345 98.6879 60.5795 97.2029C71.1445 91.0179 99.0994 74.663 108.914 68.918C109.619 68.503 110.044 67.743 110.034 66.928C110.019 66.113 109.564 65.363 108.849 64.978C98.1894 59.203 66.5294 42.0529 57.4944 37.158Z" fill="#D7DFE5" fill-opacity="0.16"/>
<path fill-rule="evenodd" clip-rule="evenodd" d="M29.4079 78.9615C28.8979 78.6265 28.5879 78.0516 28.5879 77.4366C28.5879 71.1516 28.5879 36.6965 28.5879 28.7665C28.5879 27.7565 29.1229 26.8266 29.9929 26.3216C36.9079 22.3166 67.1329 4.80655 73.2079 1.28655C73.8779 0.896549 74.6929 0.846544 75.4029 1.15654C76.3529 1.56654 77.6779 2.14158 78.5129 2.50158C78.9879 2.70658 79.2979 3.17658 79.2979 3.69158C79.2979 9.69658 79.2979 45.5916 79.2979 53.1166C79.2979 53.9716 78.8379 54.7566 78.0929 55.1816C71.4779 58.9466 39.5729 77.0966 33.5779 80.5066C32.9829 80.8466 32.2479 80.8216 31.6729 80.4466C30.9879 79.9966 30.0679 79.3915 29.4079 78.9615Z" fill="#E5F1FC"/>
<path fill-rule="evenodd" clip-rule="evenodd" d="M29.043 79.5165C29.703 79.9515 30.6229 80.5516 31.3079 81.0016C32.0879 81.5166 33.093 81.5466 33.908 81.0866C39.903 77.6766 71.8079 59.5265 78.4229 55.7615C79.3729 55.2215 79.963 54.2116 79.963 53.1166C79.963 45.5916 79.963 9.69659 79.963 3.69159C79.963 2.90659 79.498 2.20154 78.778 1.88654C77.943 1.52654 76.618 0.956574 75.668 0.546574C74.763 0.151574 73.7279 0.211547 72.8729 0.706547C66.7979 4.22655 36.573 21.7366 29.663 25.7416C28.583 26.3666 27.918 27.5215 27.918 28.7665C27.918 36.6965 27.918 71.1516 27.918 77.4366C27.918 78.2766 28.343 79.0615 29.043 79.5165ZM29.778 78.4066C29.448 78.1916 29.2529 77.8266 29.2529 77.4366C29.2529 71.1516 29.2529 36.6965 29.2529 28.7665C29.2529 27.9965 29.6629 27.2815 30.3279 26.8965C37.2429 22.8915 67.468 5.38158 73.543 1.86158C74.028 1.58158 74.6229 1.54654 75.1379 1.76654C76.0879 2.17654 77.4129 2.75158 78.2479 3.11158C78.4779 3.21158 78.6279 3.44159 78.6279 3.69159C78.6279 9.69659 78.6279 45.5916 78.6279 53.1166C78.6279 53.7316 78.2979 54.2966 77.7629 54.6016C71.1479 58.3666 39.2429 76.5166 33.2479 79.9266C32.8679 80.1416 32.403 80.1265 32.038 79.8865L29.778 78.4066Z" fill="#1B374C"/>
<path fill-rule="evenodd" clip-rule="evenodd" d="M78.8794 2.83152C78.8794 2.83152 41.9244 24.0165 34.3794 28.3415C33.4744 28.8565 32.9194 29.8215 32.9144 30.8615C32.8844 39.4115 32.7444 80.6866 32.7444 80.6866C32.7444 80.8216 32.8544 80.9366 32.9944 80.9366C33.1294 80.9366 33.2444 80.8266 33.2444 80.6866C33.2444 80.6866 33.3844 39.4115 33.4144 30.8615C33.4144 30.0015 33.8794 29.2065 34.6294 28.7765C42.1694 24.4515 79.1244 3.26651 79.1244 3.26651C79.2444 3.19651 79.2894 3.04655 79.2194 2.92655C79.1494 2.80655 78.9994 2.76152 78.8794 2.83152Z" fill="#1B374C"/>
<path fill-rule="evenodd" clip-rule="evenodd" d="M76.2234 8.03857L45.0984 26.0436L45.1234 29.8136L76.2234 12.1136V8.03857Z" fill="white"/>
<path d="M41.8435 31.3926C42.8594 30.8075 43.6829 29.5096 43.6829 28.4938C43.6829 27.4779 42.8594 27.1287 41.8435 27.7138C40.8277 28.299 40.0042 29.5968 40.0042 30.6127C40.0042 31.6286 40.8277 31.9778 41.8435 31.3926Z" fill="#83C11F" fill-opacity="0.16"/>
<path d="M37.5496 33.7745C38.5655 33.1893 39.389 31.8915 39.389 30.8756C39.389 29.8597 38.5655 29.5105 37.5496 30.0957C36.5337 30.6808 35.7102 31.9787 35.7102 32.9945C35.7102 34.0104 36.5337 34.3596 37.5496 33.7745Z" fill="#FF0002" fill-opacity="0.13"/>
<path fill-rule="evenodd" clip-rule="evenodd" d="M76.2235 15.6282L35.8135 38.2532L35.7085 76.0782L76.2235 52.9632V15.6282Z" fill="#BCDEF7"/>
<path fill-rule="evenodd" clip-rule="evenodd" d="M76.4735 15.6282C76.4735 15.5382 76.4285 15.4582 76.3535 15.4132C76.2735 15.3682 76.1785 15.3682 76.1035 15.4082L35.6885 38.0332C35.6135 38.0782 35.5635 38.1632 35.5635 38.2532L35.4585 76.0732C35.4585 76.1632 35.5085 76.2482 35.5835 76.2932C35.6635 76.3382 35.7585 76.3382 35.8335 76.2932L76.3485 53.1832C76.4285 53.1382 76.4735 53.0532 76.4735 52.9632V15.6282ZM36.0635 38.3982L35.9635 75.6432L75.9735 52.8182V16.0532L36.0635 38.3982Z" fill="#1B374C"/>
<path fill-rule="evenodd" clip-rule="evenodd" d="M76.2245 15.6292L88.8095 16.2342L85.2195 44.8192L49.1145 75.4592L35.7095 76.0742L35.8095 38.2542L76.2245 15.6292Z" fill="#63AEED" fill-opacity="0.15"/>
<path fill-rule="evenodd" clip-rule="evenodd" d="M88.8096 16.233L49.2145 38.4018L49.1116 75.464L88.8096 52.8152V16.233Z" fill="#0482DF"/>
<path fill-rule="evenodd" clip-rule="evenodd" d="M85.7978 28.7038C85.7978 28.6085 85.7476 28.5182 85.6649 28.4681C85.5796 28.4204 85.4768 28.4179 85.394 28.4655C83.726 29.3961 77.4003 32.9277 75.5693 33.9485C75.2583 34.1216 75.0676 34.4477 75.0676 34.8013C75.0676 36.4843 75.0676 41.3804 75.0676 42.8151C75.0676 42.9004 75.1128 42.9756 75.183 43.0183C75.2557 43.0609 75.3435 43.0634 75.4188 43.0208C77.0441 42.1153 83.8464 38.3179 85.4567 37.4199C85.6674 37.302 85.7978 37.0763 85.7978 36.8355C85.7978 35.3782 85.7978 30.2765 85.7978 28.7038Z" fill="#BCDEF7"/>
<path fill-rule="evenodd" clip-rule="evenodd" d="M85.7978 39.011C85.7978 38.9584 85.7727 38.9107 85.7276 38.8856C85.6824 38.858 85.6273 38.8581 85.5821 38.8831C84.1976 39.6557 76.6002 43.8971 75.2658 44.6395C75.1429 44.7097 75.0676 44.8402 75.0676 44.9806C75.0676 45.4823 75.0676 46.6862 75.0676 47.2581C75.0676 47.3233 75.1027 47.3835 75.1579 47.4161C75.2156 47.4512 75.2833 47.4512 75.341 47.4186C76.861 46.5708 84.2452 42.4498 85.5896 41.6999C85.7175 41.6271 85.7978 41.4917 85.7978 41.3412C85.7978 40.812 85.7978 39.5478 85.7978 39.011Z" fill="white"/>
<path fill-rule="evenodd" clip-rule="evenodd" d="M85.7978 43.2035C85.7978 43.1509 85.7727 43.1032 85.7276 43.0781C85.6824 43.0505 85.6273 43.0506 85.5821 43.0757C84.1976 43.8482 76.6002 48.0896 75.2658 48.832C75.1429 48.9022 75.0676 49.0327 75.0676 49.1731C75.0676 49.6748 75.0676 50.8787 75.0676 51.4506C75.0676 51.5158 75.1027 51.576 75.1579 51.6086C75.2156 51.6437 75.2833 51.6437 75.341 51.6111C76.861 50.7633 84.2452 46.6423 85.5896 45.8924C85.7175 45.8196 85.7978 45.6842 85.7978 45.5337C85.7978 45.0045 85.7978 43.7403 85.7978 43.2035Z" fill="#83C11F"/>
<path d="M62.2566 58.7306C67.2597 55.8489 71.3155 49.457 71.3155 44.4539C71.3155 39.4508 67.2597 37.7311 62.2566 40.6129C57.2535 43.4946 53.1978 49.8865 53.1978 54.8896C53.1978 59.8927 57.2535 61.6124 62.2566 58.7306Z" fill="#BCDEF7"/>
<path fill-rule="evenodd" clip-rule="evenodd" d="M62.9578 48.9806L68.8148 37.71C68.8573 37.6285 68.9583 37.5965 69.0398 37.639C69.1213 37.6815 69.1533 37.7825 69.1108 37.864L63.2628 49.1161L74.1563 43.0706C74.2368 43.0261 74.3383 43.0551 74.3833 43.1356C74.4278 43.2161 74.3988 43.3176 74.3183 43.3621L63.2948 49.4796L71.7108 52.1481C71.7983 52.1761 71.8473 52.2701 71.8193 52.3576C71.7913 52.4451 71.6978 52.4936 71.6098 52.4661L63.0318 49.7461L64.2383 62.1816C64.2473 62.2731 64.1803 62.3546 64.0888 62.3636C63.9973 62.3721 63.9153 62.3051 63.9068 62.2136L62.7343 50.1331L56.1158 62.8676C56.0733 62.9496 55.9728 62.9811 55.8913 62.9391C55.8098 62.8966 55.7778 62.7956 55.8203 62.7141L62.4563 49.9451L51.4263 56.0666C51.3458 56.1111 51.2443 56.0821 51.1993 56.0016C51.1548 55.9211 51.1838 55.8196 51.2643 55.7751L62.4563 49.5636L53.1518 46.6136C53.0643 46.5856 53.0153 46.4921 53.0433 46.4041C53.0713 46.3166 53.1648 46.2681 53.2523 46.2956L62.6513 49.2756L61.6328 38.778C61.6238 38.6865 61.6908 38.6051 61.7823 38.5961C61.8738 38.5876 61.9558 38.6545 61.9643 38.746L62.9578 48.9806Z" fill="#0482DF"/>
<path fill-rule="evenodd" clip-rule="evenodd" d="M71.8797 43.6802C72.0606 43.4819 72.2563 43.3088 72.4779 43.2138C73.0549 42.9665 73.5234 43.3223 73.5234 44.0078C73.5234 44.6933 73.0549 45.4507 72.4779 45.698C72.3297 45.7615 72.1887 45.7852 72.061 45.7738L72.0607 45.7737C71.9696 45.7671 71.9192 45.7587 71.8584 45.7404L70.3494 45.364C70.8615 44.805 71.4013 44.2048 71.8797 43.6802ZM73.0476 44.2117C73.0476 44.5908 72.7884 45.0096 72.4692 45.1465C72.1499 45.2833 71.8907 45.0866 71.8907 44.7075C71.8907 44.3285 72.1499 43.9096 72.4692 43.7728C72.7884 43.6359 73.0476 43.8327 73.0476 44.2117Z" fill="white"/>
</svg>
