<svg width="78" height="78" viewBox="0 0 78 78" fill="none" xmlns="http://www.w3.org/2000/svg">
<rect x="0.5" y="0.5" width="77" height="77" rx="3.5" fill="#E5F1FC" fill-opacity="0.2" stroke="#E5F1FC"/>
<path d="M65.8571 56H14.4286V18.2857H11V59.4286H65.8571V56ZM62.4286 22.5714C62.4286 22.0893 62.0536 21.7143 61.5714 21.7143H49.9196C49.1696 21.7143 48.7679 22.625 49.3304 23.1875L52.5714 26.4286L40.1429 38.8571L33.9018 32.6161C33.5536 32.2679 33.0179 32.2679 32.6696 32.6161L17 48.2857L22.1429 53.4286L33.2857 42.2857L39.5268 48.5268C39.875 48.875 40.4107 48.875 40.7589 48.5268L57.7143 31.5714L60.9554 34.8125C61.5179 35.375 62.4286 34.9732 62.4286 34.2232V22.5714Z" fill="#0482DF"/>
</svg>
