<svg width="114" height="100" viewBox="0 0 114 100" fill="none" xmlns="http://www.w3.org/2000/svg">
<g clip-path="url(#clip0)">
<path fill-rule="evenodd" clip-rule="evenodd" d="M57.7835 37.0532C56.2609 36.2291 54.4267 36.2492 52.9242 37.1085C43.9744 42.214 12.7383 60.0381 2.95435 65.621C2.34631 65.9678 1.97441 66.611 1.97441 67.3044C1.96939 68.0029 2.34631 68.6462 2.94932 68.9929C12.3564 74.3849 41.6729 91.1789 52.5975 97.4351C55.1654 98.9075 58.3262 98.8924 60.884 97.3999C71.5021 91.1838 99.5976 74.7467 109.462 68.9728C110.17 68.5557 110.598 67.7919 110.588 66.9728C110.572 66.1537 110.115 65.4 109.397 65.013C98.683 59.209 66.8639 41.9728 57.7835 37.0532Z" fill="#D7DFE5" fill-opacity="0.16"/>
<path fill-rule="evenodd" clip-rule="evenodd" d="M29.5558 79.0669C29.0433 78.7302 28.7317 78.1523 28.7317 77.5342C28.7317 71.2177 28.7317 36.5895 28.7317 28.6196C28.7317 27.6046 29.2693 26.6699 30.1437 26.1624C37.0935 22.1373 67.4704 4.53925 73.5759 1.00156C74.2493 0.609605 75.0684 0.559349 75.7819 0.870907C76.7367 1.28297 78.0684 1.86089 78.9076 2.2227C79.3849 2.42873 79.6965 2.90109 79.6965 3.41868C79.6965 9.45385 79.6965 45.5292 79.6965 53.092C79.6965 53.9513 79.2342 54.7403 78.4855 55.1674C71.8372 58.9513 39.7719 77.1926 33.7468 80.6197C33.1488 80.9614 32.41 80.9363 31.8322 80.5594C31.1437 80.1071 30.2191 79.499 29.5558 79.0669Z" fill="#E5F1FC"/>
<path fill-rule="evenodd" clip-rule="evenodd" d="M29.189 79.6247C29.8523 80.0619 30.7769 80.6649 31.4653 81.1172C32.2493 81.6348 33.2593 81.6649 34.0784 81.2026C40.1036 77.7754 72.1688 59.5342 78.8171 55.7503C79.7719 55.2076 80.3649 54.1925 80.3649 53.092C80.3649 45.5292 80.3649 9.45387 80.3649 3.41869C80.3649 2.62975 79.8975 1.92115 79.1739 1.60457C78.3347 1.24276 77.0031 0.669927 76.0483 0.257867C75.1388 -0.139118 74.0985 -0.0788439 73.2392 0.418644C67.1337 3.95633 36.7568 21.5544 29.8121 25.5795C28.7267 26.2076 28.0583 27.3684 28.0583 28.6196C28.0583 36.5895 28.0583 71.2177 28.0583 77.5343C28.0583 78.3785 28.4855 79.1674 29.189 79.6247ZM29.9277 78.5091C29.596 78.293 29.4 77.9262 29.4 77.5343C29.4 71.2177 29.4 36.5895 29.4 28.6196C29.4 27.8458 29.8121 27.1272 30.4804 26.7403C37.4302 22.7151 67.8071 5.11717 73.9126 1.57948C74.4001 1.29807 74.998 1.26286 75.5156 1.48397C76.4704 1.89603 77.802 2.47395 78.6412 2.83576C78.8724 2.93626 79.0231 3.16743 79.0231 3.41869C79.0231 9.45387 79.0231 45.5292 79.0231 53.092C79.0231 53.7101 78.6915 54.278 78.1538 54.5845C71.5056 58.3684 39.4402 76.6096 33.4151 80.0368C33.0332 80.2528 32.5659 80.2377 32.199 79.9965L29.9277 78.5091Z" fill="#1B374C"/>
<path fill-rule="evenodd" clip-rule="evenodd" d="M79.276 2.55428C79.276 2.55428 42.1353 23.8457 34.5524 28.1925C33.6429 28.7101 33.0851 29.6799 33.08 30.7252C33.0499 39.3181 32.9092 80.8006 32.9092 80.8006C32.9092 80.9362 33.0197 81.0518 33.1604 81.0518C33.2961 81.0518 33.4117 80.9413 33.4117 80.8006C33.4117 80.8006 33.5524 39.3181 33.5826 30.7252C33.5826 29.8608 34.0499 29.0618 34.8037 28.6297C42.3816 24.2829 79.5223 2.99146 79.5223 2.99146C79.6429 2.92111 79.6881 2.77039 79.6177 2.64979C79.5474 2.52918 79.3966 2.48393 79.276 2.55428Z" fill="#1B374C"/>
<path fill-rule="evenodd" clip-rule="evenodd" d="M76.6066 7.78751L45.3252 25.883L45.3503 29.672L76.6066 11.883V7.78751Z" fill="white"/>
<path d="M42.054 31.2589C43.0749 30.6708 43.9026 29.3664 43.9026 28.3454C43.9026 27.3244 43.0749 26.9735 42.054 27.5616C41.033 28.1496 40.2053 29.454 40.2053 30.475C40.2053 31.496 41.033 31.8469 42.054 31.2589Z" fill="#83C11F" fill-opacity="0.16"/>
<path d="M37.7383 33.6528C38.7593 33.0647 39.5869 31.7603 39.5869 30.7394C39.5869 29.7184 38.7593 29.3674 37.7383 29.9555C36.7173 30.5436 35.8896 31.848 35.8896 32.869C35.8896 33.8899 36.7173 34.2409 37.7383 33.6528Z" fill="#FF0002" fill-opacity="0.13"/>
<path fill-rule="evenodd" clip-rule="evenodd" d="M76.6066 15.4153L35.9935 38.1539L35.8879 76.169L76.6066 52.9379V15.4153Z" fill="#FEFFFF"/>
<path fill-rule="evenodd" clip-rule="evenodd" d="M76.8578 15.4152C76.8578 15.3248 76.8126 15.2444 76.7372 15.1992C76.6568 15.154 76.5614 15.154 76.486 15.1942L35.8679 37.9329C35.7925 37.9781 35.7423 38.0635 35.7423 38.1539L35.6367 76.164C35.6367 76.2544 35.687 76.3399 35.7623 76.3851C35.8427 76.4304 35.9382 76.4304 36.0136 76.3851L76.7322 53.159C76.8126 53.1138 76.8578 53.0283 76.8578 52.9379V15.4152ZM36.2448 38.2997L36.1443 75.7318L76.3553 52.7921V15.8424L36.2448 38.2997Z" fill="#1B374C"/>
<path fill-rule="evenodd" clip-rule="evenodd" d="M69.2256 27.562L88.3009 26.3308L85.6477 44.7529L62.9793 65.4866L47.0095 60.7077L47.0648 39.969L69.2256 27.562Z" fill="#63AEED" fill-opacity="0.15"/>
<path fill-rule="evenodd" clip-rule="evenodd" d="M69.2225 27.5637L47.0661 39.9687L47.0085 60.7078L69.2225 48.0341V27.5637Z" fill="#BCDEF7"/>
<path fill-rule="evenodd" clip-rule="evenodd" d="M89.2565 27.203C89.2565 26.9119 89.1011 26.6407 88.8496 26.4918C88.5949 26.3429 88.284 26.3396 88.0259 26.4819C83.2688 29.1482 66.1691 38.7186 63.0198 40.4818C62.7121 40.6571 62.5203 40.9814 62.517 41.3353C62.5103 44.6302 62.464 61.108 62.4541 64.9752C62.4541 65.1439 62.5434 65.2994 62.689 65.3821C62.8345 65.4681 63.0132 65.4681 63.1587 65.3854C66.8407 63.2847 83.8478 53.582 88.2277 51.0844C88.8629 50.7205 89.2565 50.0423 89.2565 49.3112C89.2565 45.2058 89.2565 31.6326 89.2565 27.203Z" fill="#0482DF"/>
<path fill-rule="evenodd" clip-rule="evenodd" d="M86.7723 30.9681C86.7723 30.7463 86.6538 30.5421 86.4622 30.4312C86.2706 30.3177 86.0362 30.3152 85.8421 30.4236C82.3203 32.395 69.8518 39.3754 66.9855 40.9813C66.6199 41.1855 66.3956 41.5712 66.3931 41.9871C66.388 43.8375 66.3754 48.9651 66.3704 50.8205C66.3704 50.9617 66.4435 51.0927 66.567 51.1633C66.688 51.2364 66.8393 51.2364 66.9603 51.1658C70.003 49.4314 83.79 41.5661 86.379 40.0888C86.6387 39.9426 86.7975 39.6653 86.7975 39.3679C86.7925 37.8427 86.7799 33.1059 86.7723 30.9681Z" fill="#BCDEF7"/>
<path fill-rule="evenodd" clip-rule="evenodd" d="M86.7746 41.7489C86.7721 41.6607 86.7267 41.58 86.6511 41.5372C86.5755 41.4918 86.4822 41.4918 86.4065 41.5347C83.8553 42.964 68.7298 51.4319 66.6349 52.6041C66.4861 52.6873 66.3954 52.8436 66.3928 53.0125C66.3928 53.6276 66.3878 55.1099 66.3878 55.8284C66.3853 55.9141 66.4307 55.9922 66.5038 56.0326C66.5743 56.0754 66.6651 56.0754 66.7382 56.0351C69.2062 54.6309 83.8806 46.2841 86.4242 44.8371C86.6536 44.706 86.7973 44.459 86.7948 44.1943C86.7897 43.559 86.7797 42.3767 86.7746 41.7489Z" fill="white"/>
<path fill-rule="evenodd" clip-rule="evenodd" d="M86.7748 46.7273C86.7723 46.6441 86.7294 46.5685 86.6563 46.5256C86.5832 46.4827 86.495 46.4827 86.4219 46.5231C83.9186 47.9272 68.6871 56.453 66.625 57.6076C66.4838 57.6883 66.3956 57.837 66.3956 58.0009C66.3931 58.6084 66.388 60.1109 66.3855 60.8344C66.3855 60.9176 66.4309 60.9933 66.5015 61.0336C66.5721 61.0764 66.6603 61.0764 66.7334 61.0361C69.2442 59.6067 84.5791 50.8868 86.5832 49.7474C86.7143 49.6692 86.7975 49.528 86.795 49.3743C86.7925 48.8096 86.7799 47.4155 86.7748 46.7273Z" fill="#83C11F"/>
</g>
<defs>
<clipPath id="clip0">
<rect width="113.065" height="100" fill="white"/>
</clipPath>
</defs>
</svg>
