<svg width="78" height="78" viewBox="0 0 78 78" fill="none" xmlns="http://www.w3.org/2000/svg">
<rect x="0.5" y="0.5" width="77" height="77" rx="3.5" fill="#E5F1FC" fill-opacity="0.2" stroke="#E5F1FC"/>
<path fill-rule="evenodd" clip-rule="evenodd" d="M29.073 30.5952C34.4515 24.3636 35.9056 22.7116 36.2977 22.2741C36.6595 21.8264 37.1934 21.5235 37.7984 21.4665C37.8666 21.4601 37.936 21.4568 38.0063 21.4568C38.0749 21.4568 38.1427 21.4599 38.2095 21.4662C40.2218 21.4643 48.9407 21.4568 48.9407 21.4568H48.9478C49.6083 21.459 50.2005 21.7534 50.6017 22.2174C50.6017 22.2174 56.8608 28.5237 57.2426 28.9085L62.6769 23.6271C62.7403 23.5572 62.8081 23.4912 62.8798 23.43L62.8799 23.4299C63.2636 23.1021 63.7612 22.9042 64.3047 22.9042C65.5164 22.9042 66.5 23.8878 66.5 25.0995C66.5 25.6291 66.3121 26.1152 65.9994 26.4945C65.9006 26.6141 65.7896 26.7231 65.668 26.8197L58.8275 33.5353C58.4277 33.9524 57.8652 34.2121 57.2426 34.2121C56.732 34.2121 56.2618 34.0373 55.8885 33.7443C55.7574 33.6414 55.6384 33.5239 55.5337 33.3944L51.5979 29.5113L45.1479 36.8792L50.7775 42.5771C50.9192 42.6947 51.049 42.8263 51.1649 42.9692L51.1651 42.9694C51.5531 43.4483 51.7859 44.0583 51.7859 44.7223C51.7859 44.8195 51.7809 44.9155 51.771 45.0102L51.7859 45.0039L51.7531 45.1508C51.734 45.2732 51.7071 45.3931 51.6728 45.5097L48.2408 60.8754C48.2259 60.9604 48.2072 61.044 48.1848 61.126L48.1847 61.1261C47.8623 62.3088 46.7796 63.1795 45.4951 63.1795C43.9568 63.1795 42.7078 61.9304 42.7078 60.392C42.7078 60.0564 42.7671 59.7346 42.876 59.4368L45.5448 47.6662L45.4951 47.6635L45.5031 47.6226L38.8062 41.1363L32.8895 47.6635C32.3791 48.2319 31.6386 48.5897 30.8152 48.5897C30.7018 48.5897 30.5898 48.5828 30.4795 48.5695L30.4883 48.5897L18.1425 48.5745C18.0464 48.5845 17.949 48.5897 17.8501 48.5897C17.749 48.5897 17.6492 48.5842 17.5508 48.5737H17.5506C16.1528 48.4241 15.0627 47.2394 15.0627 45.8022C15.0627 44.3138 16.2318 43.0962 17.7009 43.0187L17.7011 43.0148L17.8028 43.0151C17.8185 43.015 17.8343 43.0148 17.8501 43.0148C17.8737 43.0148 17.8971 43.0151 17.9205 43.0156L28.1039 43.0564L42.9674 25.8528L43.0202 25.841L39.0005 25.851L32.1918 33.701L32.1828 33.6929C31.7835 34.1056 31.224 34.3624 30.6049 34.3624C29.3934 34.3624 28.4096 33.3786 28.4096 32.1671C28.4096 31.551 28.6639 30.994 29.073 30.5952ZM21.6867 36.4962C21.6867 36.0151 21.296 35.6245 20.8149 35.6245H12.3718C11.8907 35.6245 11.5 36.0151 11.5 36.4962V39.1265C11.5 39.6076 11.8907 39.9983 12.3718 39.9983H20.8149C21.296 39.9983 21.6867 39.6076 21.6867 39.1265V36.4962ZM27.3115 26.1141C27.3115 25.633 26.921 25.2423 26.4399 25.2423H12.3718C11.8907 25.2423 11.5 25.633 11.5 26.1141V28.7445C11.5 29.2256 11.8907 29.6161 12.3718 29.6161H26.4399C26.921 29.6161 27.3115 29.2256 27.3115 28.7445V26.1141ZM53.8823 14C56.263 14 58.1958 15.9327 58.1958 18.3135C58.1958 20.6941 56.263 22.627 53.8823 22.627C51.5017 22.627 49.5688 20.6941 49.5688 18.3135C49.5688 15.9327 51.5017 14 53.8823 14ZM46.3889 15.749C46.3889 15.2586 45.9906 14.8602 45.5001 14.8602H12.389C11.8983 14.8602 11.5 15.2586 11.5 15.749V18.3452C11.5 18.8357 11.8983 19.234 12.389 19.234H45.5001C45.9906 19.234 46.3889 18.8357 46.3889 18.3452V15.749Z" fill="#087CE1"/>
</svg>
