<svg width="114" height="100" viewBox="0 0 110 99" fill="none" xmlns="http://www.w3.org/2000/svg">
<path fill-rule="evenodd" clip-rule="evenodd" d="M56.7835 37.0532C55.2609 36.2291 53.4267 36.2492 51.9242 37.1085C42.9744 42.214 11.7383 60.0381 1.95435 65.621C1.34631 65.9677 0.974415 66.6109 0.974415 67.3044C0.96939 68.0029 1.34631 68.6462 1.94932 68.9929C11.3564 74.3849 40.6729 91.1788 51.5975 97.4351C54.1654 98.9075 57.3262 98.8924 59.884 97.3999C70.5021 91.1838 98.5976 74.7467 108.462 68.9728C109.17 68.5557 109.598 67.7919 109.588 66.9728C109.572 66.1537 109.115 65.3999 108.397 65.013C97.683 59.209 65.8639 41.9728 56.7835 37.0532Z" fill="#D7DFE5" fill-opacity="0.16"/>
<path fill-rule="evenodd" clip-rule="evenodd" d="M28.5558 79.0669C28.0433 78.7302 27.7317 78.1524 27.7317 77.5343C27.7317 71.2177 27.7317 36.5895 27.7317 28.6197C27.7317 27.6046 28.2693 26.67 29.1437 26.1624C36.0935 22.1373 66.4704 4.53928 72.5759 1.0016C73.2493 0.609635 74.0684 0.559379 74.7819 0.870937C75.7367 1.283 77.0684 1.86092 77.9076 2.22273C78.3849 2.42876 78.6965 2.90112 78.6965 3.41871C78.6965 9.45389 78.6965 45.5292 78.6965 53.0921C78.6965 53.9514 78.2342 54.7403 77.4855 55.1674C70.8372 58.9514 38.7719 77.1926 32.7468 80.6197C32.1488 80.9614 31.41 80.9363 30.8322 80.5594C30.1437 80.1072 29.2191 79.4991 28.5558 79.0669Z" fill="#E5F1FC"/>
<path fill-rule="evenodd" clip-rule="evenodd" d="M28.189 79.6246C28.8523 80.0618 29.7769 80.6649 30.4653 81.1171C31.2493 81.6347 32.2593 81.6648 33.0784 81.2025C39.1036 77.7754 71.1688 59.5342 77.8171 55.7503C78.7719 55.2075 79.3649 54.1925 79.3649 53.092C79.3649 45.5292 79.3649 9.45383 79.3649 3.41866C79.3649 2.62971 78.8975 1.92112 78.1739 1.60454C77.3347 1.24273 76.0031 0.669896 75.0483 0.257836C74.1388 -0.139149 73.0985 -0.0788744 72.2392 0.418613C66.1337 3.9563 35.7568 21.5543 28.8121 25.5794C27.7267 26.2076 27.0583 27.3684 27.0583 28.6196C27.0583 36.5895 27.0583 71.2176 27.0583 77.5342C27.0583 78.3784 27.4855 79.1674 28.189 79.6246ZM28.9277 78.5091C28.596 78.293 28.4 77.9262 28.4 77.5342C28.4 71.2176 28.4 36.5895 28.4 28.6196C28.4 27.8457 28.8121 27.1272 29.4804 26.7402C36.4302 22.7151 66.8071 5.11713 72.9126 1.57945C73.4001 1.29804 73.998 1.26283 74.5156 1.48394C75.4704 1.896 76.802 2.47392 77.6412 2.83573C77.8724 2.93623 78.0231 3.1674 78.0231 3.41866C78.0231 9.45383 78.0231 45.5292 78.0231 53.092C78.0231 53.7101 77.6915 54.2779 77.1538 54.5845C70.5056 58.3684 38.4402 76.6096 32.4151 80.0367C32.0332 80.2528 31.5659 80.2377 31.199 79.9965L28.9277 78.5091Z" fill="#1B374C"/>
<path fill-rule="evenodd" clip-rule="evenodd" d="M78.276 2.55422C78.276 2.55422 41.1353 23.8457 33.5524 28.1924C32.6429 28.71 32.0851 29.6799 32.08 30.7251C32.0499 39.3181 31.9092 80.8005 31.9092 80.8005C31.9092 80.9362 32.0197 81.0518 32.1604 81.0518C32.2961 81.0518 32.4117 80.9412 32.4117 80.8005C32.4117 80.8005 32.5524 39.3181 32.5826 30.7251C32.5826 29.8608 33.0499 29.0618 33.8037 28.6296C41.3816 24.2829 78.5223 2.9914 78.5223 2.9914C78.6429 2.92105 78.6881 2.77033 78.6177 2.64973C78.5474 2.52912 78.3966 2.48387 78.276 2.55422Z" fill="#1B374C"/>
<path fill-rule="evenodd" clip-rule="evenodd" d="M75.6066 7.78748L44.3252 25.883L44.3503 29.6719L75.6066 11.883V7.78748Z" fill="white"/>
<path d="M41.054 31.2588C42.0749 30.6707 42.9026 29.3664 42.9026 28.3454C42.9026 27.3244 42.0749 26.9735 41.054 27.5615C40.033 28.1496 39.2053 29.454 39.2053 30.475C39.2053 31.496 40.033 31.8469 41.054 31.2588Z" fill="#83C11F" fill-opacity="0.16"/>
<path d="M36.7383 33.6528C37.7593 33.0647 38.5869 31.7603 38.5869 30.7394C38.5869 29.7184 37.7593 29.3674 36.7383 29.9555C35.7173 30.5436 34.8896 31.848 34.8896 32.869C34.8896 33.8899 35.7173 34.2409 36.7383 33.6528Z" fill="#FF0002" fill-opacity="0.13"/>
<path fill-rule="evenodd" clip-rule="evenodd" d="M75.6066 15.4152L34.9935 38.1539L34.8879 76.1689L75.6066 52.9378V15.4152Z" fill="#FEFFFF"/>
<path fill-rule="evenodd" clip-rule="evenodd" d="M72.4225 35.0752L38.5737 54.0896L38.5193 56.6432L72.4225 37.5646V35.0752Z" fill="#E5F1FC"/>
<path fill-rule="evenodd" clip-rule="evenodd" d="M72.4225 39.0199L38.5737 58.0343L38.5193 60.5879L72.4225 41.5093V39.0199Z" fill="#E5F1FC"/>
<path fill-rule="evenodd" clip-rule="evenodd" d="M72.4225 45.8591L38.5737 64.8734L38.5193 67.427L72.4225 48.3485V45.8591Z" fill="#E5F1FC"/>
<path fill-rule="evenodd" clip-rule="evenodd" d="M72.4225 49.8038L38.5737 68.8182L38.5193 71.3718L72.4225 52.2933V49.8038Z" fill="#E5F1FC"/>
<path fill-rule="evenodd" clip-rule="evenodd" d="M75.8578 15.4152C75.8578 15.3247 75.8126 15.2444 75.7372 15.1991C75.6568 15.1539 75.5614 15.1539 75.486 15.1941L34.8679 37.9328C34.7925 37.978 34.7423 38.0634 34.7423 38.1539L34.6367 76.1639C34.6367 76.2544 34.687 76.3398 34.7623 76.3851C34.8427 76.4303 34.9382 76.4303 35.0136 76.3851L75.7322 53.159C75.8126 53.1137 75.8578 53.0283 75.8578 52.9378V15.4152ZM35.2448 38.2996L35.1443 75.7318L75.3553 52.7921V15.8424L35.2448 38.2996Z" fill="#1B374C"/>
<path fill-rule="evenodd" clip-rule="evenodd" d="M72.4391 18.8636L38.5904 37.9037L38.5024 49.3479L72.4391 30.6002V18.8636Z" fill="#0482DF" fill-opacity="0.2"/>
<path fill-rule="evenodd" clip-rule="evenodd" d="M72.4417 18.7823L87.2406 19.7573L87.0447 32.8527L47.0396 55.1542L38.502 49.3452L38.5874 37.903L72.4417 18.7823Z" fill="#63AEED" fill-opacity="0.15"/>
<path fill-rule="evenodd" clip-rule="evenodd" d="M87.6115 20.2028C87.6115 20.0435 87.5311 19.894 87.3904 19.8143C87.2547 19.731 87.0839 19.7287 86.9432 19.8065C82.0135 22.5104 51.4658 39.2678 47.4356 41.4787C47.1643 41.6271 46.9985 41.9109 46.9934 42.2204C46.9784 44.3473 46.918 52.6338 46.8979 54.8837C46.8979 55.0014 46.9583 55.1108 47.0638 55.1683C47.1643 55.2294 47.2899 55.2311 47.3904 55.1745C51.6517 52.8219 82.0738 36.0158 86.9532 33.3202C87.3602 33.0957 87.6115 32.6682 87.6115 32.203C87.6115 29.837 87.6115 22.5833 87.6115 20.2028Z" fill="#0482DF"/>
<path fill-rule="evenodd" clip-rule="evenodd" d="M85.839 25.7844C85.839 25.6253 85.7557 25.4774 85.618 25.3958C85.4816 25.3139 85.3111 25.3107 85.1709 25.3866C83.2397 26.4335 77.6861 29.4443 76.0745 30.3184C75.8004 30.4666 75.6299 30.7518 75.6286 31.0627C75.6236 31.9129 75.6135 33.6251 75.6084 34.5122C75.6072 34.6294 75.669 34.7385 75.7701 34.7981C75.8711 34.8582 75.9949 34.8608 76.0985 34.8046C77.7758 33.8866 83.2624 30.8849 85.1747 29.8385C85.5852 29.6141 85.839 29.1848 85.839 28.7175C85.839 27.8997 85.839 26.6034 85.839 25.7844Z" fill="#83C11F"/>
<path fill-rule="evenodd" clip-rule="evenodd" d="M74.0997 32.4032C74.0997 32.244 74.0164 32.096 73.8796 32.0144C73.7428 31.9328 73.5733 31.9289 73.4335 32.0047C69.9002 33.9106 53.4175 42.8015 50.5028 44.374C50.2292 44.5213 50.0597 44.8035 50.0567 45.1124C50.0448 45.9644 50.021 47.6893 50.0091 48.5819C50.0062 48.7 50.0686 48.8092 50.1697 48.8691C50.2679 48.9309 50.3958 48.9329 50.4969 48.8778C53.5632 47.2178 69.9091 38.3651 73.4305 36.4584C73.8439 36.2347 74.0997 35.8035 74.0997 35.3344C74.0997 34.5155 74.0997 33.2209 74.0997 32.4032Z" fill="white"/>
</svg>
