<svg width="100" height="84" viewBox="0 0 100 84" fill="none" xmlns="http://www.w3.org/2000/svg">
<path d="M84.7004 26.7949C85.4335 26.3551 85.5794 23.6457 85.6535 22.8417C85.8726 21.0113 88.1421 20.2065 89.6067 21.1571C92.1694 22.9875 93.4866 26.5025 93.8516 29.5035C94.2182 32.5778 93.9257 36.6776 91.7296 39.0937C89.3868 41.7298 83.4565 42.5354 79.9432 42.1689C78.9917 42.0955 78.1128 41.8756 77.2338 41.7298L75.55 26.6475L77.3821 27.0141C79.2117 27.3798 82.9458 27.7472 84.6295 26.7949H84.7004Z" fill="#999966"/>
<path d="M90.4055 23.8979C89.9664 23.3122 89.454 22.7265 88.8683 22.3607C88.2827 21.9208 87.1846 22.2874 87.1097 23.0197L87.038 23.5313C88.1368 23.1656 89.3807 23.4588 90.4055 23.8979ZM92.4558 34.2205C92.8949 31.8777 92.6749 29.1683 91.8701 26.8264C91.2844 26.094 90.6979 25.5091 89.5999 25.0693C88.2085 24.4836 87.477 24.7035 86.8204 25.2892C86.7463 25.8749 86.5981 26.314 86.4539 26.753C90.2605 27.9977 91.8709 31.6577 92.4566 34.293V34.2205H92.4558ZM81.3277 28.8026C80.0105 28.8026 78.6192 28.6559 77.2286 28.3635L78.545 40.5157C80.3045 40.8823 82.3524 40.8822 84.182 40.6631C85.5 35.9775 84.182 30.4872 81.2552 28.7301L81.3277 28.8026ZM85.4275 27.9978C84.9159 28.2902 84.1812 28.5101 83.3055 28.6559C85.9399 31.4386 86.7455 36.4899 85.7917 40.4432C87.9886 40.0041 89.8182 39.1985 90.7704 38.1737C90.9904 37.9538 91.1362 37.6605 91.3569 37.4414C91.3569 33.2682 89.6732 28.8026 85.6466 27.9244C85.5725 27.9978 85.5725 27.9978 85.4984 27.9978H85.4275Z" fill="#C0C0A0"/>
<path d="M84.696 35.8797C82.939 36.3195 81.0361 36.3928 79.644 36.2462C79.0591 36.1729 78.5459 36.0996 78.0335 35.953L77.1554 28.4131C78.5459 28.7055 79.938 28.8522 81.2552 28.8522C83.1589 30.0235 84.4052 32.8054 84.6244 35.8797H84.696ZM90.0414 25.2647C90.1123 25.7046 90.1864 26.1436 90.2597 26.5819C90.4063 27.4608 90.4063 28.4856 90.333 29.5112C89.38 28.3398 88.1369 27.315 86.4539 26.7293C86.5989 26.2902 86.7464 25.8504 86.8197 25.2647C87.403 24.7523 88.2086 24.459 89.5999 25.0455C89.7481 25.1181 89.894 25.1914 90.0414 25.2647ZM88.9425 22.4095C89.1624 22.7761 89.3075 23.1418 89.4549 23.5076C88.6493 23.2885 87.8444 23.2144 86.9655 23.4351L87.0388 22.9227C87.1105 22.1896 88.2086 21.8238 88.7959 22.2637L88.9433 22.3362V22.4095H88.9425ZM85.4284 27.974C84.916 28.2665 84.1821 28.4856 83.3055 28.6322C84.916 30.316 85.7925 32.8054 86.0866 35.4414C87.1105 35.074 88.0628 34.5624 88.6493 33.8309C89.2358 33.2444 87.697 28.3398 85.575 27.9007C85.5009 27.974 85.5009 27.974 85.4284 27.974Z" fill="#FBFAC4"/>
<path d="M16.03 26.7949C15.296 26.3551 15.151 23.6457 15.0761 22.8417C14.857 21.0113 12.5875 20.2065 11.1237 21.1571C8.56016 22.9875 7.24377 26.5025 6.87801 29.5035C6.51225 32.5778 6.80468 36.6776 9.00083 39.0937C11.3436 41.7298 17.2731 42.5354 20.7872 42.1689C21.7387 42.0955 22.6176 41.8756 23.4966 41.7298L25.1795 26.6475L23.3483 27.0141C21.5187 27.3798 17.7846 27.7472 16.1009 26.7949H16.03Z" fill="#999966"/>
<path d="M10.3181 23.8979C10.7571 23.3122 11.2695 22.7265 11.8544 22.3607C12.4409 21.9208 13.539 22.2874 13.6139 23.0197L13.6848 23.5313C12.5867 23.1656 11.342 23.4588 10.3181 23.8979ZM8.26694 34.2205C7.82867 31.8777 8.04861 29.1683 8.85343 26.8264C9.43913 26.094 10.0248 25.5091 11.1229 25.0693C12.5142 24.4836 13.2466 24.7035 13.9031 25.2892C13.9773 25.8749 14.1255 26.314 14.2697 26.753C10.4631 27.9977 8.85263 31.6577 8.26612 34.293V34.2205H8.26694ZM19.3959 28.8026C20.7131 28.8026 22.1045 28.6559 23.495 28.3635L22.1778 40.5157C20.4191 40.8823 18.3704 40.8822 16.5408 40.6631C15.2228 35.9775 16.5408 30.4872 19.4684 28.7301L19.3959 28.8026ZM15.2961 27.9978C15.8077 28.2902 16.5424 28.5101 17.4181 28.6559C14.7829 31.4386 13.9781 36.4899 14.9311 40.4432C12.735 40.0041 10.9054 39.1985 9.95233 38.1737C9.73239 37.9538 9.58736 37.6605 9.36662 37.4414C9.36662 33.2682 11.0504 28.8026 15.0769 27.9244C15.1503 27.9978 15.1503 27.9978 15.2252 27.9978H15.2961Z" fill="#C0C0A0"/>
<path d="M16.0314 35.8797C17.7885 36.3195 19.6914 36.3928 21.0827 36.2462C21.6684 36.1729 22.1808 36.0996 22.6932 35.953L23.5713 28.4131C22.1808 28.7055 20.7894 28.8522 19.4722 28.8522C17.5685 30.0235 16.3238 32.8054 16.1031 35.8797H16.0314ZM10.686 25.2647C10.6143 25.7046 10.541 26.1436 10.4669 26.5819C10.3211 27.4608 10.321 28.4856 10.3952 29.5112C11.3466 28.3398 12.5905 27.315 14.2735 26.7293C14.1285 26.2902 13.981 25.8504 13.9069 25.2647C13.3236 24.7523 12.5188 24.459 11.1275 25.0455C10.9792 25.1181 10.8334 25.1914 10.686 25.2647ZM11.7849 22.4095C11.5649 22.7761 11.4199 23.1418 11.2725 23.5076C12.0773 23.2885 12.883 23.2144 13.7619 23.4351L13.6878 22.9227C13.6169 22.1896 12.5188 21.8238 11.9315 22.2637L11.7841 22.3362V22.4095H11.7849ZM15.2991 27.974C15.8114 28.2665 16.5454 28.4856 17.4219 28.6322C15.8114 30.316 14.9341 32.8054 14.6409 35.4414C13.6169 35.074 12.6638 34.5624 12.0773 33.8309C11.4924 33.2444 13.0304 28.3398 15.1524 27.9007C15.2257 27.974 15.2257 27.974 15.2991 27.974Z" fill="#FBFAC4"/>
<path d="M24.1522 23.8788C21.5902 23.6588 19.1 24.1712 16.6114 24.5378L18.8076 22.4141C20.9312 20.3646 23.7864 18.5342 26.4974 17.2162C30.5223 15.1667 35.1354 13.6295 39.746 13.1905C36.5235 11.7991 32.8635 11.1401 29.4242 10.3345C42.6761 7.55348 59.658 6.5279 71.8125 16.8504C78.7684 22.7807 82.5742 33.7623 82.5742 43.7182C82.5742 81.276 18.5901 81.276 18.5901 43.7182C18.5901 38.6669 19.834 33.8356 22.1767 29.4425C21.2994 29.6624 20.4938 29.9548 19.6132 30.3214L15.7357 31.9319L18.5152 28.7835C20.1997 26.8806 22.1034 25.2701 24.2996 24.0254L24.1522 23.8788Z" fill="#8ED41E"/>
<path d="M52.852 12.3079C59.0755 13.0394 65.1508 15.0897 70.2005 19.4087C76.3499 24.6066 79.6449 34.2702 79.6449 42.9823C79.6449 58.9403 66.4672 67.2141 52.8512 67.6532V12.3079H52.852Z" fill="#70A91B"/>
<path d="M29.276 20.4478C34.1081 17.2261 42.0154 16.2013 51.5332 16.7145C49.8494 14.7383 48.3122 13.4928 46.0428 12.3947C50.3618 12.2481 53.8018 13.2004 62.3673 16.1288C54.9748 11.809 45.8978 9.83283 37.404 10.7843C40.4783 11.6624 43.4067 13.0537 46.1153 14.8841C37.404 13.9327 27.373 18.1051 23.3465 21.5459C25.9833 21.2535 28.3245 21.765 30.8155 22.8639C27.3013 24.1078 25.0311 25.2067 22.8341 27.3295C26.6407 25.4258 29.6425 23.8154 34.4747 22.7906C32.571 22.1316 31.5462 20.9602 29.276 20.4478Z" fill="#A1E141"/>
<path d="M50.5099 11.5754C59.297 11.5754 66.397 18.4572 66.397 27.0226C66.397 35.5148 59.297 42.4698 50.5099 42.4698C41.7261 42.4698 34.6261 35.5881 34.6261 27.0226C34.6245 18.5305 41.7261 11.5754 50.5099 11.5754Z" fill="#70A91B"/>
<path d="M25.3282 41.4364C25.8406 40.4841 74.0118 40.1184 74.964 41.4364C76.6462 43.6325 75.6964 45.7554 74.964 47.5858H25.3282C24.8891 45.6088 24.1568 43.4859 25.3282 41.4364Z" fill="#70A91B"/>
<path d="M25.9865 42.8361C26.4989 41.5914 73.4246 41.0791 74.3768 42.8361C75.9873 45.8371 75.035 48.7656 74.3768 51.255H25.9865C25.5466 48.5457 24.8884 45.6913 25.9865 42.8361Z" fill="#4B7113"/>
<path d="M65.0059 10.9487C64.3469 -1.57002 47.5084 -2.88805 43.1161 6.92216C50.8759 2.67566 58.7824 4.21363 65.0059 10.9487Z" fill="#70A91B"/>
<path d="M55.6331 0.534549C50.7301 -0.197772 45.3855 1.92589 43.1893 6.82978C46.117 5.21932 49.1196 4.48779 51.974 4.48779C52.5605 3.38971 53.951 1.26687 55.708 0.534549H55.6331Z" fill="#85C51F"/>
<path d="M50.5108 9.96411C58.4173 9.96411 64.7874 16.3334 64.7874 24.2399C64.7874 32.1464 58.4173 38.5157 50.5108 38.5157C42.606 38.5157 36.2374 32.1464 36.2374 24.2399C36.2374 16.3334 42.6052 9.96411 50.5108 9.96411Z" fill="#D3E8EF"/>
<path d="M41.5071 13.6432C46.2651 9.68991 52.9277 9.68989 56.2944 13.7898C59.662 17.8163 58.4914 24.3315 53.7325 28.358C48.9729 32.3113 42.3119 32.3113 38.9427 28.2114C35.5768 24.1848 36.749 17.6697 41.5071 13.6432Z" fill="white"/>
<path d="M50.8749 19.4363C56.4385 19.4363 60.905 23.6095 60.905 28.8066C60.905 34.0045 56.4369 38.1777 50.8749 38.1777C45.3128 38.1777 40.8456 34.0045 40.8456 28.8066C40.8456 23.6095 45.312 19.4363 50.8749 19.4363Z" fill="#0D82DF"/>
<path d="M50.8748 19.4363C53.5834 19.4363 56.0728 20.461 57.8298 22.0715C57.1716 24.3409 55.7803 26.6104 53.73 28.3675C49.7768 31.6617 44.5071 32.1749 40.9189 29.9779C40.8456 29.6122 40.8456 29.2464 40.8456 28.8066C40.8456 23.6094 45.312 19.4363 50.8748 19.4363Z" fill="#0399ED"/>
<path d="M50.8763 22.8054C54.3904 22.8054 57.3189 25.514 57.3189 28.8082C57.3189 32.1033 54.4638 34.811 50.8763 34.811C47.3629 34.811 44.4344 32.1033 44.4344 28.8082C44.4344 25.514 47.2888 22.8054 50.8763 22.8054Z" fill="#232323"/>
<path d="M50.8763 22.7816C53.1457 22.7816 55.1228 23.8796 56.2942 25.4901C55.6343 26.5149 54.7562 27.4663 53.7314 28.272C51.0946 30.4689 47.8729 31.4204 45.0193 31.2004C44.6536 30.4689 44.4344 29.59 44.4344 28.711C44.4344 25.4168 47.2888 22.7083 50.8763 22.7083V22.7816Z" fill="#323232"/>
<path d="M45.2374 19.925C47.8727 19.925 49.9955 21.9021 49.9955 24.3907C49.9955 26.8801 47.8727 28.8571 45.2374 28.8571C42.6022 28.8571 40.4794 26.8801 40.4794 24.3907C40.4794 21.9021 42.6022 19.925 45.2374 19.925Z" fill="white"/>
<path d="M17.2005 46.3593C39.3094 43.0651 61.4933 43.3576 83.6023 46.3593C85.2128 57.9258 84.3338 68.909 83.6023 79.9615C61.4933 80.8404 39.3094 80.9878 17.2005 79.9615C15.8824 68.7616 15.7374 57.5601 17.2005 46.3593Z" fill="#9CAEB3"/>
<path d="M23.5688 77.7092C41.5054 78.3666 59.3687 78.2957 77.3036 77.7092C70.8618 74.0476 64.4192 70.5359 57.1717 68.5589C54.8273 69.6569 52.3403 70.5359 49.8509 71.2674C49.4843 71.3399 49.4844 71.3399 49.1186 71.2674C47.0675 70.6084 45.0187 69.8028 43.0409 68.9254C36.0126 70.9741 29.6441 73.976 23.4947 77.7834L23.5688 77.7092ZM19.3223 50.1824C18.3709 59.0411 18.5167 67.9724 19.4697 76.8303C25.9124 72.8045 32.7933 69.5828 40.0399 67.3141C31.6944 62.9218 25.8375 56.625 19.3223 50.1824ZM79.6456 48.4261C60.1002 46.0817 40.4798 45.8626 20.9336 48.4261C28.9859 57.4291 37.8462 64.8247 49.6326 68.7031C62.1497 65.118 70.7877 57.284 79.6456 48.4261ZM81.3302 76.8303C81.9167 67.9724 82.5016 59.1144 81.5501 50.2565C74.9625 56.7725 67.9333 62.9944 59.7336 67.3126C67.3476 69.582 74.4501 72.9512 81.4051 76.8295H81.3302V76.8303Z" fill="#D3E8EF"/>
<path d="M23.5688 77.6992C32.206 77.9925 40.844 78.1383 49.5577 78.1383V71.2574C49.4844 71.2574 49.4119 71.2574 49.192 71.1833C47.1425 70.5267 45.0937 69.7203 43.1159 68.8413C36.0876 70.8908 29.719 73.8918 23.5688 77.6992ZM19.3223 50.1724C18.3709 59.0312 18.5167 67.9624 19.4697 76.8203C25.9124 72.7945 32.7933 69.5728 40.04 67.3042C31.6944 62.9119 25.8375 56.6151 19.3223 50.1724ZM49.5577 46.585C39.9675 46.585 30.4505 47.1706 20.9336 48.417C28.9142 57.4207 37.8463 64.7423 49.5577 68.6939V46.585Z" fill="white"/>
<path d="M37.1137 51.8426C37.0411 52.135 36.8945 52.4291 36.7495 52.7215C36.6013 53.1606 36.3088 53.598 35.9439 53.8913C35.0649 54.5503 33.9676 54.332 33.0138 53.9646C30.8909 53.0857 29.4279 50.9628 28.5482 48.9133C27.5242 46.5689 27.4501 44.8867 28.0358 42.324C42.824 41.5192 57.9787 41.3726 72.327 42.2507V42.324H72.5478C72.7677 44.8134 72.5478 45.8382 71.9629 47.8901C71.3031 50.2321 69.9109 53.0857 67.5698 54.1837C66.6908 54.6244 65.6661 54.8435 64.8604 54.257C64.4955 53.9646 64.2038 53.5255 63.9823 53.0857C63.4699 52.2808 63.3249 51.1111 63.1775 50.2313C62.885 50.817 62.5193 51.1828 61.9328 51.3286C60.9813 51.5485 59.8832 51.6935 58.931 51.7676C57.9795 51.8417 56.9564 51.9159 55.9292 51.9159C54.392 51.9159 52.7075 51.7676 51.2452 51.3302C51.0261 52.2091 50.6596 53.0123 49.7814 53.3048C48.83 53.598 47.6578 53.7455 46.633 53.8196C45.5349 53.8913 44.4368 53.9654 43.4121 53.9654C41.7283 53.9654 39.8246 53.8196 38.2875 53.1606C37.701 52.9406 37.3336 52.5008 37.1161 51.9159V51.8426H37.1137Z" fill="#999966"/>
<path d="M61.9283 41.8228C62.5148 45.117 62.3673 49.3635 61.4159 49.5827C59.9513 49.9492 54.3142 50.5357 51.5332 49.511C50.7993 48.1204 50.7993 44.6063 50.8734 41.7511C54.6808 41.7503 58.4874 41.7503 61.9283 41.8228ZM38.2814 42.4818C37.7698 44.0198 37.2574 45.7761 36.745 47.9005C36.4518 49.2185 36.2318 50.5357 36.0111 51.4864C35.7186 52.8036 35.0596 53.0243 33.8149 52.5111C30.5932 51.1214 28.9118 45.7043 29.056 42.4085C31.253 42.2619 34.5481 42.1161 38.2806 41.9694C41.8688 41.8961 45.8954 41.8228 49.9219 41.8228C50.2861 45.8494 50.2861 50.6815 49.4096 51.7055C47.87 52.2203 41.8688 52.9518 38.9387 51.6338C37.6207 51.0489 38.1331 46.1434 38.2064 42.5559L38.2814 42.4818ZM62.5148 41.8228C62.9522 43.5799 63.4654 45.4103 63.977 47.7531C64.2695 49.2169 64.4177 50.6098 64.636 51.5597C64.9293 53.0235 65.515 53.2434 66.6856 52.6586C69.5423 51.1931 71.1528 45.7753 71.0779 42.1894C68.9566 42.0428 65.9548 41.8961 62.5148 41.8228Z" fill="#C0C0A0"/>
<path d="M50.8753 43.8018C54.3161 43.8018 57.7586 43.8018 60.9054 43.8743C61.4178 45.7055 61.4178 48.9997 59.2208 49.8045C56.8788 50.0252 53.5105 50.0969 51.5343 49.3654C51.0227 48.3399 50.8753 46.0704 50.8753 43.8018ZM38.2099 44.0209C41.3583 43.9476 44.9458 43.8743 48.5333 43.8743C48.8974 46.5103 49.5573 51.7815 46.263 52.074C43.8469 52.2939 40.846 52.2939 38.9414 51.4882C37.8458 50.9759 37.9908 47.3159 38.1366 44.0942L38.2099 44.0209ZM29.2062 44.4608C30.7433 44.3141 32.792 44.24 35.2073 44.1675C35.5006 44.1675 36.0863 51.4149 36.0863 51.4149C35.793 52.7329 35.1348 52.9529 33.8901 52.4405C31.3274 51.3424 29.717 47.68 29.2771 44.5333L29.2062 44.4608ZM64.6387 51.5616C64.9311 53.0254 65.5176 53.2453 66.6882 52.6605C69.0326 51.4883 70.4956 47.6809 70.9355 44.3874C69.545 44.24 67.8612 44.1675 65.8826 44.0942C64.712 44.9731 64.4912 51.0492 64.6387 51.5616Z" fill="#FBFAC4"/>
<path d="M44.58 43.9476C44.7282 46.8044 44.58 49.6579 44.2158 49.877C43.4843 50.3185 40.775 50.9026 39.4578 49.8045C38.943 49.4396 39.0171 46.6561 39.0912 44.0209C40.8475 43.9476 42.6787 43.9476 44.6549 43.8743L44.58 43.9476ZM56.8804 43.8743C56.9529 45.9979 56.8063 47.9741 56.5138 48.1208C55.8556 48.4857 53.2921 48.9264 51.9749 48.0474C51.5358 47.755 51.5358 45.7772 51.6083 43.8018H56.8812V43.8743H56.8804ZM33.7458 44.24C33.6725 45.0457 33.6725 45.9987 33.6725 46.9494V49.877C33.6725 50.9759 33.3801 51.195 32.7936 50.6827C31.6238 49.8045 30.5974 47.0227 30.1583 44.4608C31.1831 44.3866 32.4286 44.3141 33.7458 44.24ZM70.0573 44.3141C69.1035 44.24 68.0062 44.1675 66.7623 44.1675C66.7623 44.9723 66.8364 45.8505 66.8364 46.8035V49.9512C66.8364 51.1225 67.0555 51.3425 67.6412 50.8293C68.666 49.877 69.6183 47.096 70.0573 44.3141Z" fill="white"/>
<path d="M21.5943 78.2922C20.7887 81.9522 17.1262 84.3683 13.4679 84.2216C8.41656 84.0009 0.582577 78.438 0.729202 72.9476C0.802514 69.8733 3.07199 67.0899 5.41477 65.3344C7.68423 63.5749 11.4909 61.7469 14.4201 62.5517C17.3478 63.3574 19.3973 67.3839 20.3496 70.0183C21.2269 72.2886 22.1067 75.8777 21.5194 78.293H21.5943V78.2922Z" fill="#85C51F"/>
<path d="M20.3481 77.9211C20.4198 77.4821 20.4948 77.0422 20.4948 76.5298C19.5433 72.5033 17.273 67.8918 14.7111 67.1603C10.7579 65.9873 2.77892 71.2594 3.21637 76.6772C5.41333 80.0448 10.0997 82.8266 13.4664 82.9716C16.5407 83.1191 19.6891 81.0679 20.3489 77.9936V77.9211H20.3481Z" fill="#70A91B"/>
<path d="M16.6884 73.8213C17.7123 71.7718 16.031 68.1844 13.4675 68.4768C10.7589 68.8434 4.90198 72.8699 4.90198 76.0183C4.90198 77.9953 7.61051 79.3866 10.4649 78.5818C12.5885 77.9953 15.8827 75.5059 16.6884 73.8213ZM18.9578 78.946C19.4702 77.7013 18.7379 75.5059 17.2741 75.7242C15.7369 76.0183 12.0753 78.6527 12.2228 80.1173C12.2945 81.2895 14.3456 82.3143 15.9569 81.7278C17.1274 81.2895 18.518 79.9707 18.9578 78.946Z" fill="#5D8D17"/>
<path d="M12.6624 64.2777C12.7357 65.5957 10.173 66.7655 9.14826 65.8148C8.26932 64.1302 8.49087 62.0807 9.22158 61.6416C10.0272 61.2025 12.0042 62.0082 12.6624 64.2777Z" fill="#2C440C"/>
<path d="M7.68426 66.7087C7.97509 68.1709 6.00048 69.4172 5.04742 68.7582C3.80352 67.5135 3.36525 65.3174 3.94852 64.805C4.53583 64.2926 6.65869 65.0983 7.68426 66.7087Z" fill="#2C440C"/>
<path d="M3.94885 70.3721C4.39033 71.3243 3.43647 72.6415 2.33839 72.569C1.16861 71.6901 0.0705336 69.6406 0.507992 69.1274C0.947867 68.5426 2.92489 69.1274 3.94885 70.3721Z" fill="#2C440C"/>
<path d="M22.6907 56.7711C23.2772 55.6731 21.6667 54.9391 20.3487 54.4267C19.029 53.9885 18.3717 53.9885 17.8593 55.0866C17.2728 56.1846 16.9803 57.8676 18.3717 58.3067C19.6889 58.7466 22.1783 57.8676 22.7648 56.7695H22.6907V56.7711Z" fill="#2C440C"/>
<path d="M23.8624 52.6524C24.009 53.8963 22.2504 54.5553 20.7881 54.8485C19.3968 55.1418 18.8103 54.9943 18.6653 53.7496C18.5171 52.5033 18.8844 50.5287 20.3491 50.2363C21.738 49.9438 23.715 51.4068 23.8624 52.6524Z" fill="#2C440C"/>
<path d="M24.1542 48.5749C24.3033 49.7471 22.5438 50.3344 21.0816 50.6268C19.6902 50.9177 19.1037 50.7726 18.9587 49.5288C18.8097 48.3566 19.1771 46.527 20.5684 46.2337C21.9605 45.9405 23.9359 47.3318 24.0826 48.5016L24.1542 48.5749Z" fill="#2C440C"/>
<path d="M12.664 45.8633C12.8831 46.8172 14.7135 46.5948 16.1048 46.3048C17.4953 45.9382 18.0085 45.645 17.7153 44.6935C17.4953 43.7413 16.6164 42.4241 15.2283 42.7898C13.837 43.1556 12.4456 44.9135 12.664 45.9382V45.8633Z" fill="#2C440C"/>
<path d="M11.4185 57.489L11.8568 58.7329L10.9053 58.0014C10.4646 57.6348 10.1005 57.1225 9.80721 56.5368C9.87891 57.1225 9.95385 57.4898 10.1005 58.0014C8.70995 55.7311 7.46362 53.2426 8.26845 49.9491C9.00238 46.9466 12.0042 45.5552 14.127 44.9703C15.4442 44.6046 16.9073 44.3847 18.2245 44.5313C19.0301 44.6046 20.4214 44.8237 21.0071 45.5552C21.5928 46.29 21.8861 47.8255 22.0319 48.8503C22.251 50.4607 22.1794 52.1445 21.9602 53.7549C21.7395 55.218 21.3012 56.6101 20.5689 57.7815C19.9832 58.6604 19.3234 59.3186 18.4468 59.686C17.4196 60.1242 16.3949 60.1975 15.296 59.9784C13.8338 59.686 12.5158 58.807 11.3436 57.5623L11.4185 57.489Z" fill="#85C51F"/>
<path d="M20.2758 46.5749C21.1547 47.6013 21.5938 51.922 20.5682 55.0688C20.2758 55.1429 19.9092 55.2154 19.5442 55.2154C17.933 55.3628 16.3942 54.6313 15.3703 53.7524C15.4436 54.1914 15.5902 54.4839 15.7368 54.7038C14.8579 54.3397 14.1264 53.2408 13.6132 51.9953C13.6849 53.0209 13.8331 53.4599 13.9789 54.0464C12.8801 53.6799 12.0027 52.4351 11.3429 51.1187C10.7572 49.9465 10.8305 48.262 11.8553 47.5312C14.5638 45.5542 19.1769 45.4076 20.2008 46.6523L20.2758 46.5749Z" fill="#A1E141"/>
<path d="M79.2066 78.2922C80.0115 81.9522 83.6715 84.3683 87.3331 84.2216C92.3836 84.0009 100.217 78.438 100.069 72.9476C99.9984 69.8733 97.7265 67.0899 95.3854 65.3344C93.1159 63.5749 89.3077 61.7469 86.38 62.5517C83.4531 63.3574 81.4028 67.3839 80.4505 70.0183C79.5716 72.2886 78.6935 75.8777 79.2808 78.293H79.2066V78.2922Z" fill="#85C51F"/>
<path d="M80.3806 77.9211C80.3065 77.4821 80.2316 77.0422 80.2316 76.5298C81.1838 72.5033 83.4533 67.8918 86.016 67.1603C89.9684 65.9873 97.9474 71.2594 97.5099 76.6772C95.313 80.0448 90.6266 82.8266 87.2607 82.9716C84.1856 83.1191 81.0372 81.0679 80.3782 77.9936V77.9211H80.3806Z" fill="#70A91B"/>
<path d="M84.1106 73.8213C83.0842 71.7718 84.768 68.1844 87.3323 68.4768C90.0409 68.8434 95.897 72.8699 95.897 76.0183C95.897 77.9953 93.1885 79.3866 90.3333 78.5818C88.2097 77.9953 84.9163 75.5059 84.1106 73.8213ZM81.8412 78.946C81.3288 77.7013 82.0603 75.5059 83.5249 75.7242C85.0621 76.0183 88.7213 78.6527 88.5762 80.1173C88.5029 81.2895 86.4534 82.3143 84.8421 81.7278C83.6707 81.2895 82.2802 79.9707 81.8412 78.946Z" fill="#5D8D17"/>
<path d="M88.064 64.2777C87.9898 65.5957 90.5534 66.7655 91.5774 65.8148C92.4564 64.1302 92.2356 62.0807 91.5049 61.6416C90.6992 61.2025 88.7214 62.0082 88.064 64.2777Z" fill="#2C440C"/>
<path d="M93.0413 66.7087C92.7504 68.1709 94.725 69.4172 95.6781 68.7582C96.9219 67.5135 97.3602 65.3174 96.7769 64.805C96.1896 64.2926 94.066 65.0983 93.0413 66.7087Z" fill="#2C440C"/>
<path d="M96.7783 70.3721C96.3376 71.3243 97.2915 72.6415 98.3888 72.569C99.5586 71.6901 100.657 69.6406 100.219 69.1274C99.7793 68.5426 97.8031 69.1274 96.7783 70.3721Z" fill="#2C440C"/>
<path d="M78.0361 56.7711C77.4504 55.6731 79.0608 54.9391 80.3804 54.4267C81.6984 53.9885 82.355 53.9885 82.8681 55.0866C83.4538 56.1846 83.7471 57.8676 82.355 58.3067C81.0386 58.7466 78.5484 57.8676 77.9628 56.7695H78.0361V56.7711Z" fill="#2C440C"/>
<path d="M76.9381 52.6524C76.7923 53.8963 78.5486 54.5553 80.0132 54.8485C81.4046 55.1418 81.9902 54.9943 82.1361 53.7496C82.2827 52.5033 81.9177 50.5287 80.4523 50.2363C79.0617 49.9438 77.0855 51.4068 76.9381 52.6524Z" fill="#2C440C"/>
<path d="M76.5721 48.5749C76.4239 49.7471 78.1826 50.3344 79.6448 50.6268C81.0361 50.9177 81.6227 50.7726 81.7677 49.5288C81.9167 48.3566 81.5493 46.527 80.1572 46.2337C78.7667 45.9405 76.7905 47.3318 76.6438 48.5016L76.5721 48.5749Z" fill="#2C440C"/>
<path d="M88.1406 45.8633C87.9199 46.8172 86.0895 46.5948 84.6981 46.3048C83.3092 45.9382 82.7952 45.645 83.0877 44.6935C83.3092 43.7413 84.1858 42.4241 85.5763 42.7898C86.9684 43.1556 88.3589 44.9135 88.1406 45.9382V45.8633Z" fill="#2C440C"/>
<path d="M89.3117 57.489L88.8727 58.7329L89.8241 58.0014C90.2656 57.6348 90.6297 57.1225 90.9222 56.5368C90.8505 57.1225 90.7764 57.4898 90.6297 58.0014C92.0203 55.7311 93.2666 53.2426 92.4609 49.9491C91.7278 46.9466 88.7252 45.5552 86.6032 44.9703C85.2852 44.6046 83.8229 44.3847 82.5049 44.5313C81.7001 44.6046 80.3088 44.8237 79.7231 45.5552C79.1366 46.29 78.8441 47.8255 78.6983 48.8503C78.4792 50.4607 78.5501 52.1445 78.7708 53.7549C78.9908 55.218 79.4282 56.6101 80.1613 57.7815C80.7462 58.6604 81.4069 59.3186 82.2834 59.686C83.3106 60.1242 84.3345 60.1975 85.4334 59.9784C86.8956 59.686 88.2137 58.807 89.3867 57.5623L89.3117 57.489Z" fill="#85C51F"/>
<path d="M80.4522 46.5749C79.5733 47.6013 79.1342 51.922 80.1598 55.0688C80.4522 55.1429 80.8188 55.2154 81.1837 55.2154C82.795 55.3628 84.333 54.6313 85.3578 53.7524C85.2836 54.1914 85.1378 54.4839 84.9912 54.7038C85.8701 54.3397 86.6017 53.2408 87.114 51.9953C87.0423 53.0209 86.8941 53.4599 86.7491 54.0464C87.848 53.6799 88.7245 52.4351 89.3851 51.1187C89.97 49.9465 89.8975 48.262 88.8727 47.5312C86.1642 45.5542 81.5511 45.4076 80.5271 46.6523L80.4522 46.5749Z" fill="#A1E141"/>
</svg>
