<?xml version="1.0" encoding="utf-8"?>
<svg viewBox="0 0 584 448" xmlns="http://www.w3.org/2000/svg" fill-rule="evenodd" clip-rule="evenodd" stroke-linejoin="round" stroke-miterlimit="1.41421">
  <path d="M189.59818 18.37229s-66.37622-41.54605-106.72752 25.0658c-20.57684 33.96683 6.88083 88.82258 1.63307 87.80267-34.08952-6.27889-55.73244-1.19743-65.90882 14.34997 25.19084 7.2841 35.34685 21.19308 21.27964 52.57056-12.03466 26.84669-33.5644 51.6592-32.22785 80.84196 2.41847 61.18891 37.27982 95.34118 91.51387 110.31304-26.95745-23.4387-37.92038-68.15075-30.5167-89.71924 11.67478-34.0098 39.29428-49.14561 57.27836-74.00675 8.87378-12.26831 9.03675-26.31638 2.33586-48.2614 49.5793 40.46282 46.49765 79.46814 17.82225 116.48678 19.27877 10.77916 37.61482 3.65675 54.82594-24.84757 16.92366 50.56354-4.30731 87.20452-33.88242 119.22877 64.3097-18.3154 98.7444-61.7113 99.07373-132.00817-2.32907-55.40867-30.75436-104.52828-91.25131-160.70584-34.04765-31.6172-21.50372-75.01762 14.7519-77.11058z" fill="#ed4500"/>
  <path d="M583.79669 80.02688v292.83723c-.00695 7.44431-6.13186 13.56391-13.56379 13.56043H98.05177c-7.4368 0-13.55684-6.12795-13.55684-13.57436V80.02688c0-7.45058 6.12283-13.58132 13.5638-13.58132H570.2329c7.43888 0 13.56379 6.13074 13.56379 13.58132z" fill="#fff" fill-rule="nonzero"/>
  <path d="M561.1278 107.46498c0-2.94215-2.38806-5.33112-5.33142-5.33112H113.58244c-2.94337 0-5.33142 2.38897-5.33142 5.33112v45.02798c0 2.94215 2.38805 5.33069 5.33142 5.33069h442.21394c2.94336 0 5.33142-2.38854 5.33142-5.33069v-45.02798z" fill="#d2def2"/>
  <path d="M304.51417 141.38434c-1.39732 1.9698-3.31104 3.19358-5.70392 3.19358-3.57855 0-5.5883-1.95022-4.89943-7.60996l1.43553-11.91277h5.85678l-1.24445 10.15347c-.38216 3.09763-.13327 4.11092 1.24445 4.11092 1.66483 0 3.96168-2.81078 4.30562-5.5452l1.072-8.71919h5.87637l-2.35466 19.15951h-5.8754l.34394-2.83036h-.05683zm17.02356-16.32915h3.96266l-.57422 4.761h-3.98127l-.93775 7.85863c-.13425 1.09063.23027 1.587.86132 1.587.5164 0 1.16802-.20951 1.93331-.59231l.95637 4.5319c-1.68442.93693-3.36885 1.37651-5.16792 1.37651-2.96612 0-5.10913-1.70154-4.57313-6.1189l1.0328-8.64283h-1.91372l.57422-4.761h1.93331l.70846-5.58337 6.02826-1.1856-.8427 6.76897zm-74.75845 19.52273c3.65595 0 6.31634-1.47245 8.3065-4.22645l-4.57412-2.86756c-1.12883 1.3579-2.1822 1.85427-3.32965 1.85427-1.11021 0-2.58396-.66867-2.58396-3.3463 0-3.19358 1.79907-6.04254 4.287-6.06115.95637 0 2.04796.24868 2.79366 1.4147l4.49767-3.34631c-1.39633-2.1421-3.88426-3.30812-6.9464-3.30812-6.54565 0-10.56514 5.41106-10.56514 11.54955 0 5.41107 3.11996 8.33737 8.11542 8.33737h-.00098zm37.66682-19.86734c-6.77493 0-10.58375 5.46883-10.58375 11.62591 0 5.23876 3.2346 8.24143 8.09582 8.24143 7.34914 0 10.66018-5.45023 10.66018-11.68368 0-5.23876-3.2346-8.18366-8.17225-8.18366zm-84.79837 15.06816l-4.42124-4.09232c-1.43554 1.7593-3.50212 2.88714-5.79897 2.88714-3.13857 0-5.0905-2.10294-5.0905-6.1189 0-5.00967 3.04254-10.40214 7.65486-10.40214 2.39289 0 3.9999 1.43427 5.14833 3.5568l5.01407-3.7477c-2.66039-4.3596-6.18112-5.83206-9.8939-5.83206-8.45936 0-14.52682 7.59136-14.52682 16.5974 0 8.06913 4.88081 11.95096 11.2922 11.95096 4.43987 0 8.07623-1.85525 10.62197-4.79918zm62.24237 4.43596h-5.8754l3.54033-28.8352h5.8754l-2.1244 17.41978h.09603c3.10036-2.12253 4.49768-4.64645 5.24435-7.74507h6.08608c-.74668 3.92002-2.6986 7.13318-5.3786 9.6757l.51738 1.64476c.87994 2.754 1.8755 3.21218 3.57855 3.3659l-1.32089 4.77959c-.42135.03818-.8035.05776-1.72264.05776-3.00433-.01958-4.42027-2.27525-5.45405-5.52561l-.26848-.88015h-.03822c-.70748.4014-1.43455.76462-2.18123 1.10924l-.57421 4.9333zm-32.07853-4.49372c-.99459 0-2.06658-.53553-2.58396-1.7779l.24889-.34462c5.6461-.86057 10.88947-3.07806 10.88947-7.45723 0-3.72813-3.32965-5.44926-6.50644-5.44926-6.60247 0-10.54553 5.50604-10.54553 11.70228 0 5.1624 3.02392 8.1641 8.038 8.1641 3.75199 0 6.31635-1.4147 8.3261-4.2059l-4.36344-2.56309c-1.0916 1.41567-2.23904 1.93162-3.5031 1.93162zm-22.80391 4.49372h-5.85678l3.5413-28.8352h5.85679l-1.53157 12.4101h.13327c1.68442-2.00797 3.80882-3.07902 6.35456-3.07902 3.63636 0 5.12872 2.42896 4.42125 7.78226l-1.55018 11.72186h-5.85678l1.39732-10.38255c.34394-2.63945.13326-3.86323-1.14843-3.86323-1.74224 0-4.21057 2.3712-4.88081 7.03723l-.87994 7.20855zm76.96025-14.26536c1.0524 0 2.71723.44056 2.71723 3.3277 0 3.13582-1.68443 6.06114-4.287 6.06114-1.2817 0-2.60258-.91734-2.60258-3.32672 0-2.94491 1.55018-6.06212 4.17235-6.06212zm-52.54835-.34364c.84172 0 1.32089.45916 1.32089 1.08965 0 1.7407-2.4311 2.65805-5.24435 3.17498l-.2489-.1723c.70846-2.6003 2.4311-4.09233 4.17236-4.09233z" fill="#fff" fill-rule="nonzero"/>
  <path d="M402.2168 176.1176c0-1.10118-.89386-1.9952-1.99462-1.9952H110.24521c-1.10076 0-1.99462.89402-1.99462 1.9952v15.59036c0 1.10118.89386 1.99503 1.99462 1.99503h289.97697c1.10076 0 1.99462-.89385 1.99462-1.99503v-15.59037zM561.12665 176.1176c0-1.10118-.89418-1.9952-1.99526-1.9952H445.53555c-1.10108 0-1.99526.89402-1.99526 1.9952v15.59036c0 1.10118.89418 1.99503 1.99526 1.99503h113.59584c1.10108 0 1.99526-.89385 1.99526-1.99503v-15.59037zM402.2168 205.48833c0-1.10117-.89386-1.99518-1.99462-1.99518H110.24521c-1.10076 0-1.99462.894-1.99462 1.99518v15.59037c0 1.10117.89386 1.99503 1.99462 1.99503h289.97697c1.10076 0 1.99462-.89386 1.99462-1.99503v-15.59037zM561.12665 205.48833c0-1.10117-.89418-1.99518-1.99526-1.99518H445.53555c-1.10108 0-1.99526.894-1.99526 1.99518v15.59037c0 1.10117.89418 1.99503 1.99526 1.99503h113.59584c1.10108 0 1.99526-.89386 1.99526-1.99503v-15.59037zM402.2168 234.85907c0-1.10118-.89386-1.99519-1.99462-1.99519H110.24521c-1.10076 0-1.99462.89401-1.99462 1.99519v15.59036c0 1.10118.89386 1.99504 1.99462 1.99504h289.97697c1.10076 0 1.99462-.89386 1.99462-1.99504v-15.59036zM561.12665 234.85907c0-1.10118-.89418-1.99519-1.99526-1.99519H445.53555c-1.10108 0-1.99526.89401-1.99526 1.99519v15.59036c0 1.10118.89418 1.99504 1.99526 1.99504h113.59584c1.10108 0 1.99526-.89386 1.99526-1.99504v-15.59036zM561.12665 283.811c0-1.10118-.89418-1.9952-1.99526-1.9952H445.53555c-1.10108 0-1.99526.89402-1.99526 1.9952v15.59036c0 1.10117.89418 1.99503 1.99526 1.99503h113.59584c1.10108 0 1.99526-.89386 1.99526-1.99503v-15.59037zM400.21898 283.811c0-1.10118-.89385-1.9952-1.99514-1.9952h-93.99827c-1.1013 0-1.99515.89402-1.99515 1.9952v15.59036c0 1.10117.89386 1.99503 1.99515 1.99503h93.99827c1.10129 0 1.99514-.89386 1.99514-1.99503v-15.59037z" fill="#d2def2"/>
  <path d="M561.12587 335.46628c0-1.68715-1.36918-3.0569-3.057-3.0569H111.4404c-1.68782 0-3.057 1.36975-3.057 3.0569v23.88655c0 1.68715 1.36918 3.05666 3.057 3.05666h446.62846c1.68783 0 3.057-1.36951 3.057-3.05666v-23.88655z" fill="#b1f6dc"/>
  <g transform="matrix(.34795 0 0 .32413 77.16395 71.70824)">
    <circle cx="186.632" cy="234.546" r="10.39" fill="#fff"/>
    <circle cx="186.632" cy="234.546" r="10.39" fill="#fff" transform="translate(42)"/>
    <path d="M151.22262 144.6002c2.00801-.17762 3.95468 1.0272 4.63305 3.01951l20.8177 61.13133h63.95896c2.4731 0 4.4804 2.0073 4.4804 4.47968v.05279c0 2.47239-2.0073 4.47969-4.4804 4.47969h-67.16321c-1.99803 0-3.69218-1.31038-4.26926-3.11867-.0856-.17333-.1605-.3538-.2247-.54212l-20.59942-60.49005h-15.39572c-2.47239 0-4.47969-2.0073-4.47969-4.47969v-.05278c0-2.47239 2.0073-4.47969 4.4797-4.47969h18.2426z" fill="#fff"/>
    <path d="M200.7482 118.73991c-.83199-1.95645-3.01793-2.90164-4.87745-2.11087l-28.63923 12.17895c-1.85951.79076-2.69402 3.02042-1.86204 4.97687l18.02561 42.38784c.83199 1.95644 3.01682 2.90211 4.87634 2.11135l28.63922-12.17896c1.85952-.79076 2.69515-3.0209 1.86316-4.97734l-18.0256-42.38784z" fill="#fff"/>
    <path d="M245.72468 136.85363c-.1633-1.8178-1.67331-3.17057-3.36862-3.01828l-26.1101 2.34559c-1.69531.1523-2.93902 1.75245-2.77572 3.57024l3.04851 33.935c.1633 1.8178 1.6723 3.17066 3.3676 3.01837l26.11011-2.34559c1.6953-.1523 2.94003-1.75254 2.77673-3.57034l-3.04851-33.935z" fill="#fff"/>
    <path d="M230.54506 149.70948c.7378-1.81209-.06063-3.85311-1.78099-4.55355l-26.49594-10.7878c-1.72036-.70044-3.71635.20284-4.45414 2.01493l-15.96242 39.20534c-.73779 1.8121.0596 3.8527 1.77996 4.55313l26.49594 10.7878c1.72036.70044 3.71738-.20242 4.45517-2.0145l15.96242-39.20535z" fill="#eaf0f9"/>
    <path d="M251.34 170.774c.195-2.488-.547-4.956-2.058-6.854-1.512-1.897-3.668-3.067-5.988-3.247-14.863-1.153-45.056-3.497-62.463-4.848-2.894-.225-5.697 1.139-7.447 3.624-1.75 2.484-2.209 5.751-1.219 8.679 3.002 8.88 6.807 20.136 9.121 26.977 1.248 3.694 4.518 6.154 8.179 6.154h51.673c4.421 0 8.104-3.636 8.474-8.365.505-6.462 1.204-15.406 1.728-22.12z" fill="#fff"/>
  </g>
  <path d="M581.2833 66.06111H87.03028c-1.39079 0-2.53493 1.20616-2.53493 2.67232v11.3004h499.30178V68.75567v-.02223c0-1.45783-1.13308-2.6601-2.51385-2.67232z" fill="#3f3d56" fill-rule="nonzero"/>
  <circle cx="96.72" cy="164.18" r="6.5" fill="#fff" transform="matrix(.55606 0 0 .55558 41.2557 -18.16968)"/>
  <circle cx="114.22" cy="164.18" r="6.5" fill="#fff" transform="matrix(.55606 0 0 .55558 41.2557 -18.16968)"/>
  <circle cx="131.72" cy="164.18" r="6.5" fill="#fff" transform="matrix(.55606 0 0 .55558 41.2557 -18.16968)"/>
  <g>
    <path d="M590.46 285.225c0-29.872-24.182-54.125-53.968-54.125H208.978c-29.786 0-53.968 24.253-53.968 54.125s24.182 54.125 53.968 54.125h327.514c29.786 0 53.968-24.253 53.968-54.125z" fill="url(#_Linear1)" transform="matrix(.98606 0 0 .9832 -134.55633 114.13986)"/>
    <path d="M445.60511 394.58452c0-28.05184-22.77435-50.82682-50.82627-50.82682H71.50959c-28.05192 0-50.82627 22.77498-50.82627 50.82682s22.77435 50.82681 50.82627 50.82681h323.26925c28.05192 0 50.82627-22.77497 50.82627-50.82681z" fill="#fff"/>
    <path d="M208.17876 365.25134c0-1.12039-.9089-2.03063-2.03003-2.03063H134.623c-1.12114 0-2.03004.91024-2.03004 2.03063v15.81336c0 1.12039.9089 2.02949 2.03004 2.02949h71.52572c1.12114 0 2.03003-.9091 2.03003-2.0295v-15.81335z" fill="#ed4500" fill-opacity=".1"/>
    <g font-family="'Averta-Semibold','Averta'" font-weight="600" font-size="13.333">
      <text x="117.581" y="14.323" fill="#ed4500" transform="matrix(1.32609 0 0 1.32492 -22.46957 358.57658)">
        4<tspan x="124.623px 130.545px 133.446px 141.054px 147.874px 155.209px 162.817px 165.776px" y="14.323px 14.323px 14.323px 14.323px 14.323px 14.323px 14.323px 14.323px">7 people</tspan>
      </text>
      <text x="175.498" y="14.323" fill="#3f3d56" transform="matrix(1.32609 0 0 1.32492 -22.46957 358.57658)">
        <tspan x="175.498px 183.106px 190.141px 194.435px 200.865px 208.174px 215.658px 220.974px 227.795px 235.396px 238.297px 243.614px 250.922px 258.257px 265.077px 270.394px 273.295px 276.254px 283.498px 286.399px 290.595px 297.904px" y="14.323px 14.323px 14.323px 14.323px 14.323px 14.323px 14.323px 14.323px 14.323px 14.323px 14.323px 14.323px 14.323px 14.323px 14.323px 14.323px 14.323px 14.323px 14.323px 14.323px 14.323px 14.323px">purchased shoes in the</tspan>
      </text>
      <text x="117.581" y="31.656" fill="#3f3d56" transform="matrix(1.32609 0 0 1.32492 -22.46957 358.57658)">
        l<tspan x="120.541px 128.025px 133.342px 137.538px 140.439px 146.869px 153.911px 156.812px 164.12px 171.455px 178.49px 182.784px" y="31.656px 31.656px 31.656px 31.656px 31.656px 31.656px 31.656px 31.656px 31.656px 31.656px 31.656px 31.656px">ast 24 hours</tspan>
      </text>
    </g>
    <g fill-rule="nonzero">
      <path d="M217.29198 421.7667c.78455 0 1.16493-.15494 1.54532-.3563l-.40416-1.24704c-.26152.13083-.5468.20228-.737.20228-.35661 0-.51114-.23846-.51114-.73672v-2.4709h1.58098v-1.2823H217.185v-2.06635l-1.54532.16609v1.90026h-.68946v1.2823h.68946v2.6843c0 1.30643.65378 1.92439 1.6523 1.92439zM222.65277 415.78107c-.68908 0-1.31918.33218-1.759.95013h-.0119v-.85548h-1.5572v5.79635h1.5572v-2.69637c0-.85549.52304-1.5087 1.4858-1.5087.08358 0 .24981 0 .40397.01206v-1.68685c-.02321-.01114-.07058-.01114-.11887-.01114zM226.96834 415.87572v2.81513c0 1.11621-.60643 1.68592-1.28436 1.68592-.7253 0-1.0457-.3563-1.0457-1.4252v-3.07585h-1.54531v3.49154c0 1.77036.87945 2.39945 2.1276 2.39945.65379 0 1.28436-.27372 1.72362-.80817h.02415v.71353h1.5574v-5.79635h-1.5574zM231.33034 421.7667c1.5221 0 2.25854-.77197 2.25854-1.80561 0-1.13941-.73644-1.41313-1.99665-1.87614-.57114-.2134-.87946-.38042-.87946-.61795 0-.30898.3204-.43888.5702-.43888.42813 0 .9389.19021 1.39117.61703l.74851-1.14034c-.65379-.51033-1.30758-.72374-2.11553-.72374-1.1887 0-2.0923.68848-2.0923 1.73418 0 1.11621.83209 1.56716 1.78305 1.8882.76059.23753 1.05777.36836 1.05777.64115 0 .28485-.26096.47506-.71323.47506-.62964 0-1.12927-.22547-1.60475-.67734l-.76059 1.08096c.64172.54651 1.42645.84343 2.35327.84343zM235.99045 421.7667c.78473 0 1.16456-.15494 1.54532-.3563l-.40398-1.24704c-.26189.13083-.54699.20228-.73737.20228-.35661 0-.51077-.23846-.51077-.73672v-2.4709h1.5806v-1.2823h-1.5806v-2.06635l-1.54532.16609v1.90026h-.69001v1.2823h.69v2.6843c0 1.30643.6538 1.92439 1.65213 1.92439z" fill="#1d58bf"/>
      <path d="M241.36378 415.78107c-.71323 0-1.31965.26073-1.75985.75992h-.02321v-.66527h-1.5574v8.14755h1.5574v-3.00442h.02321c.40398.47414.97511.74786 1.71156.74786 1.61682 0 2.78139-1.18766 2.78139-2.98122 0-1.75737-1.17664-3.00442-2.7331-3.00442zm-.3334 4.5957c-.84417 0-1.51003-.62909-1.51003-1.57922 0-.926.6185-1.62747 1.51003-1.62747.8321 0 1.48589.63002 1.48589 1.62747 0 .93807-.60643 1.57922-1.48589 1.57922zM248.54339 415.87572v2.81513c0 1.11621-.60643 1.68592-1.28437 1.68592-.7253 0-1.04569-.3563-1.04569-1.4252v-3.07585h-1.54532v3.49154c0 1.77036.87946 2.39945 2.1276 2.39945.6538 0 1.28437-.27372 1.72363-.80817h.02415v.71353h1.55739v-5.79635h-1.5574zM251.0991 412.93068h1.55722v8.7412h-1.55721zM255.57998 421.7667c1.5221 0 2.25854-.77197 2.25854-1.80561 0-1.13941-.73644-1.41313-1.99665-1.87614-.57021-.2134-.87946-.38042-.87946-.61795 0-.30898.3204-.43888.5702-.43888.42813 0 .9389.19021 1.39117.61703l.74851-1.14034c-.65379-.51033-1.30758-.72374-2.11553-.72374-1.1887 0-2.0923.68848-2.0923 1.73418 0 1.11621.83209 1.56716 1.78305 1.8882.76059.23753 1.05777.36836 1.05777.64115 0 .28485-.26096.47506-.71323.47506-.62964 0-1.12927-.22547-1.60475-.67734l-.7606 1.08096c.64173.54651 1.42646.84343 2.35328.84343zM263.79414 418.71404c0-1.69798-1.14135-2.93297-2.84083-2.93297-1.65212 0-2.87704 1.22293-2.87704 2.9803 0 1.81768 1.28436 3.00534 2.98384 3.00534 1.16456 0 2.00873-.463 2.50836-1.09302l-1.0104-.93807c-.32133.39156-.77266.66528-1.39116.65321-.74852 0-1.29551-.42774-1.48589-1.11621h4.07783c.03529-.09557.03529-.36836.03529-.55858zm-2.79347-1.56715c.67794 0 1.09399.40362 1.24815 1.0095h-2.55573c.17831-.66527.67794-1.0095 1.30758-1.0095z" fill="#00aded"/>
    </g>
    <path d="M209.44567 413.91572c-.51699-.13946-1.02178-.325-1.50684-.56284-.41154-.20175-.80851-.4316-1.19748-.67356a5.67728 5.67728 0 0 1-.02266.014c-1.02383.63479-2.11239 1.14752-3.32168 1.37437-.43634.08184-.87767.1332-1.31988.17088l-.0141.00119c-.10892 2.4322.05348 4.93912 1.34626 7.02472.788 1.27123 2.00719 2.22316 3.29839 3.01443l.03367.0205c.5284-.32262 1.04736-.66669 1.53028-1.05096h1.09625c-.777.73064-1.68334 1.34294-2.60475 1.88955-.04317-.02952-.04357 0-.04357 0-1.16223-.68948-2.29372-1.45161-3.17433-2.46354-.59819-.68734-1.07184-1.47718-1.4132-2.33208-.85779-2.14837-.91213-4.54004-.76257-6.7856.95064-.0566 1.91609-.14786 2.82609-.44103.89748-.28913 1.72405-.76926 2.52243-1.28714l.02337-.0152c.01553.01014.03105.02019.04666.03032 1.00696.65172 2.08157 1.2269 3.26496 1.47338a8.89413 8.89413 0 0 0 .20367.03989l-.81097.55872zm-.24051 8.37296h-1.50486c-.25152-.01069-.26847-.13796-.27378-.26215-.00626-.14769.0896-.2775.27378-.28533h1.29588l.40964-1.49206s.07906-.18473.23798-.20001c.12707-.01227.2363.04132.289.19487l.61893 2.09249.37915-1.1905s.12263-.21703.31735-.1849c.10616.02715.11043.03206.17199.1166l.4407.6635h1.0552c.00127.00017.19583.02644.25422.17168.06757.16796-.03937.3667-.25422.3758h-1.20223c-.13072-.00537-.16803-.03933-.22824-.12236l-.20597-.31003-.4765 1.4965s-.08398.17824-.24067.18995c-.12525.00934-.2314-.04416-.28321-.19542l-.59946-2.02664-.21048.76673s-.09562.19392-.2642.20128zm2.9491-7.97523c.05324 1.29537.0134 2.59271-.20874 3.87328-.10124.58397-.32194 1.3898-.51524 1.95129l-.69555-.2259c.5905-1.5564.73334-3.2495.70775-4.90659l.71179-.69208z" fill="#00aded" fill-rule="nonzero"/>
    <path d="M206.46654 417.64628c.0415-.04726.05226-.07829.11412-.16818.35676-.51863 1.41349-1.91681 2.75625-2.99226.5843-.46801 1.21582-.89348 1.77446-1.17236.93102-.4648 1.23082-.52146 1.6632-.62212.08212-.0191.37952-.07213.42887.04495.0476.11302-.1379.23211-.20751.28676-.07825.06143-1.86768 1.39838-3.37313 3.38386-1.30996 1.72755-2.1672 3.99424-2.1672 3.99424-.02634.05034-.32425.58226-.72395.60816-.3694.024-.84382-.45608-.84382-.45608-.0912-.08502-.53596-.61239-.90605-1.26466-.472-.83164-.87842-1.81746-.87842-1.81746s-.42192-.82925.37349-1.2853c.78425-.44972 1.13359.00686 1.3038.2764.14545.23037.43852.78997.58015 1.06368.04935.09534.08125.14821.10574.12037z" fill="#1d58bf" fill-rule="nonzero"/>
    <text x="35.99" y="29.951" font-family="'Averta-Semibold','Averta'" font-weight="600" font-size="9.333" fill="#a9b6d4" transform="matrix(1.32609 0 0 1.32492 85.82303 382.12314)">
      P<tspan x="41.398px 46.532px 53.261px 58.035px 61.041px 65.816px 71.137px 73.167px 78.493px" y="29.951px 29.951px 29.951px 29.951px 29.951px 29.951px 29.951px 29.951px 29.951px">owered by</tspan>
    </text>
    <g transform="matrix(1.65338 0 0 1.65193 -72.73905 -214.22319)">
      <circle cx="88.506" cy="368.331" r="25.699" fill="#fbdacc"/>
    </g>
    <g>
      <path d="M82.59618 363.67917s-11.32535-7.08874-18.21024 4.27682c-3.5109 5.79554 1.17403 15.15523.27864 14.9812-5.81647-1.07132-9.50927-.2043-11.2456 2.44845 4.29815 1.24284 6.031 3.61604 3.63081 8.96978-2.0534 4.58068-5.72688 8.81428-5.49883 13.79354.41265 10.44028 6.36082 16.26746 15.61442 18.82201-4.59957-3.9992-6.4701-11.62813-5.20686-15.30822 1.99199-5.80287 6.70453-8.3854 9.77304-12.6273 1.51407-2.09326 1.54188-4.4902.39855-8.23453 8.4594 6.90391 7.9336 13.55914 3.0409 19.8754 3.2894 1.83917 6.41797.62392 9.3546-4.23959 2.88757 8.62733-.73493 14.87915-5.78115 20.34324 10.97276-3.12504 16.84813-10.5294 16.90432-22.5237-.3974-9.45403-5.24742-17.835-15.56963-27.42021-5.80933-5.39464-3.66904-12.79978 2.51703-13.15689z" fill="#ed4500"/>
    </g>
  </g>
  <defs>
    <linearGradient id="_Linear1" x2="1" gradientUnits="userSpaceOnUse" gradientTransform="rotate(-90 356.05 -16.69) scale(108.26)">
      <stop offset="0" stop-color="gray" stop-opacity=".24706"/>
      <stop offset=".54" stop-color="gray" stop-opacity=".11765"/>
      <stop offset="1" stop-color="gray" stop-opacity=".09804"/>
    </linearGradient>
  </defs>
</svg>
