<?xml version="1.0" encoding="utf-8"?>
<svg viewBox="0 0 562 412" xmlns="http://www.w3.org/2000/svg" xmlns:serif="http://www.serif.com/" fill-rule="evenodd" clip-rule="evenodd" stroke-linejoin="round" stroke-miterlimit="1.41421">
  <g opacity=".5" transform="matrix(.7821 0 0 .7821 -149.3014 -85.4476)">
    <path d="M909.09 158.88v420.67c-.01 10.694-8.82 19.485-19.51 19.48H210.4c-10.697 0-19.5-8.803-19.5-19.5V158.88c0-10.703 8.807-19.51 19.51-19.51h679.17c10.7 0 19.51 8.807 19.51 19.51z" fill="#fff" fill-rule="nonzero"/>
    <path fill="#1d58bf" fill-opacity=".3" d="M224.9963 186.33337h649.99992v80.00016H224.9963z"/>
    <path fill="#1d58bf" fill-opacity=".2" d="M225.03963 289.74781h199.99914v120.00024H225.03963zM674.99493 289.74781h199.99914v120.00024H674.99493zM449.99493 289.74781h199.99914v120.00024H449.99493zM225.03963 434.74781h199.99914v120.00024H225.03963zM674.99493 434.74781h199.99914v120.00024H674.99493zM449.99493 434.74781h199.99914v120.00024H449.99493z"/>
    <path d="M909.09 158.89H190.9v-.01c0-10.697 8.803-19.5 19.5-19.5H889.59c10.7 0 19.5 8.803 19.5 19.5v.01z" fill="#c8cad7" fill-rule="nonzero"/>
    <circle cx="210.41" cy="149.13" r="4.88" fill="#ededf4"/>
    <circle cx="225.04" cy="149.13" r="4.88" fill="#ededf4"/>
    <circle cx="239.67" cy="149.13" r="4.88" fill="#ededf4"/>
  </g>
  <path d="M590.46 285.225c0-29.872-24.253-54.125-54.125-54.125h-327.2c-29.872 0-54.125 24.253-54.125 54.125s24.253 54.125 54.125 54.125h327.2c29.872 0 54.125-24.253 54.125-54.125z" fill="url(#_Linear1)" transform="matrix(.74209 0 0 .74209 82.16726 159.83489)"/>
  <path d="M519.43452 371.50403c0-21.17248-17.1897-38.36218-38.36218-38.36218H237.36359c-21.17248 0-38.36218 17.1897-38.36218 38.36218 0 21.17248 17.1897 38.36218 38.36218 38.36218h243.70875c21.17248 0 38.36218-17.1897 38.36218-38.36218z" fill="#fff"/>
  <path d="M480.95184 352.25763c0-2.27186-1.84484-4.11652-4.11671-4.11652H285.58108c-2.27243 0-4.11671 1.84466-4.11671 4.11652v8.23348c0 2.27229 1.84428 4.11695 4.1167 4.11695h191.25406c2.27187 0 4.1167-1.84466 4.1167-4.11695v-8.23348z" fill="#3f3d56"/>
  <path d="M480.95184 371.02555c0-1.51458-1.23008-2.74435-2.74448-2.74435H284.20884c-1.51495 0-2.74447 1.22977-2.74447 2.74435v5.48898c0 1.51486 1.22952 2.74463 2.74447 2.74463h193.99852c1.5144 0 2.74448-1.22977 2.74448-2.74463v-5.48898z" fill="#00aded"/>
  <path d="M342.00676 386.05141c0-1.51458-1.2299-2.74435-2.74448-2.74435h-55.05373c-1.51476 0-2.74449 1.22977-2.74449 2.74435v5.48898c0 1.51487 1.22973 2.74464 2.74449 2.74464h55.05373c1.51459 0 2.74448-1.22977 2.74448-2.74464v-5.48898z" fill="#9795b1"/>
  <g fill-rule="nonzero">
    <path d="M358.2531 392.02014c.59163 0 .87848-.11696 1.16533-.26893l-.30478-.94122c-.1972.09875-.41235.15267-.55577.15267-.26892 0-.38545-.17998-.38545-.55605v-1.86494h1.19221v-.96784h-1.19221v-1.5596l-1.16533.12536v1.43424h-.51991v.96784h.51991v2.02601c0 .98605.49302 1.45246 1.246 1.45246zM362.29567 387.5024c-.51963 0-.9948.25072-1.32647.71713h-.00896v-.6457h-1.17429v4.37487h1.17429v-2.03511c0-.6457.39442-1.13871 1.12043-1.13871.06303 0 .18839 0 .30464.0091v-1.27317c-.0175-.0084-.05322-.0084-.08964-.0084zM365.55004 387.57383v2.12476c0 .84248-.45731 1.27247-.96854 1.27247-.54695 0-.78855-.26892-.78855-1.07568v-2.32155h-1.16533v2.6353c0 1.3362.6632 1.811 1.60442 1.811.49302 0 .96854-.20659 1.29979-.60997h.0182v.53854h1.17443v-4.37487h-1.17442zM368.83942 392.02014c1.14781 0 1.70316-.58267 1.70316-1.36282 0-.85998-.55535-1.06658-1.50568-1.41603-.43069-.16108-.6632-.28713-.6632-.46641 0-.2332.24162-.33125.43-.33125.32285 0 .70802.14356 1.04907.4657l.56446-.86068c-.49303-.38517-.98605-.54625-1.59532-.54625-.8964 0-1.57781.51964-1.57781 1.3089 0 .84247.62748 1.18282 1.3446 1.42513.57356.17928.79766.27803.79766.48392 0 .215-.19679.35856-.53784.35856-.47481 0-.85158-.17017-1.21014-.51123l-.57356.81587c.48392.41249 1.07568.63659 1.7746.63659zM372.3536 392.02014c.59176 0 .8782-.11696 1.16532-.26893l-.30464-.94122c-.19748.09875-.41248.15267-.55605.15267-.26892 0-.38517-.17998-.38517-.55605v-1.86494h1.19194v-.96784h-1.19194v-1.5596l-1.16532.12536v1.43424h-.52034v.96784h.52034v2.02601c0 .98605.49302 1.45246 1.24586 1.45246z" fill="#1d58bf"/>
    <path d="M376.40562 387.5024c-.53784 0-.99515.1968-1.3271.57356h-.0175v-.50213h-1.17443v6.14947h1.17443v-2.26762h.0175c.30464.35786.73533.56446 1.29068.56446 1.21925 0 2.09745-.8964 2.09745-2.25012 0-1.3264-.8873-2.26762-2.06103-2.26762zm-.25141 3.46866c-.63659 0-1.13871-.47481-1.13871-1.19193 0-.69892.4664-1.22836 1.1387-1.22836.62749 0 1.12051.47552 1.12051 1.22836 0 .70802-.4573 1.19193-1.1205 1.19193zM381.81976 387.57383v2.12476c0 .84248-.4573 1.27247-.96854 1.27247-.54694 0-.78855-.26892-.78855-1.07568v-2.32155h-1.16533v2.6353c0 1.3362.6632 1.811 1.60442 1.811.49303 0 .96854-.20659 1.29979-.60997h.0182v.53854h1.17444v-4.37487h-1.17443zM383.74702 385.35103h1.1743v6.59753h-1.1743zM387.12605 392.02014c1.14781 0 1.70316-.58267 1.70316-1.36282 0-.85998-.55535-1.06658-1.50568-1.41603-.42999-.16108-.6632-.28713-.6632-.46641 0-.2332.24161-.33125.43-.33125.32284 0 .70802.14356 1.04907.4657l.56446-.86068c-.49303-.38517-.98605-.54625-1.59532-.54625-.8964 0-1.57781.51964-1.57781 1.3089 0 .84247.62748 1.18282 1.3446 1.42513.57356.17928.79766.27803.79766.48392 0 .215-.19679.35856-.53784.35856-.47481 0-.85158-.17017-1.21015-.51123l-.57355.81587c.48391.41249 1.07568.63659 1.7746.63659zM393.32033 389.7161c0-1.28158-.86068-2.2137-2.14226-2.2137-1.24586 0-2.16958.92302-2.16958 2.24942 0 1.37191.96854 2.26832 2.25011 2.26832.8782 0 1.51479-.34946 1.89156-.82498l-.76195-.70801c-.2423.29553-.58266.50212-1.04907.49302-.56445 0-.97694-.32285-1.1205-.84248h3.07508c.02661-.07213.02661-.27803.02661-.4216zm-2.10655-1.18283c.51123 0 .82498.30463.94123.76194h-1.92727c.13446-.50213.51123-.76194.98604-.76194z" fill="#00aded"/>
  </g>
  <path d="M352.3362 386.0945c-.38985-.10526-.77051-.24529-1.1363-.4248-.31034-.15228-.6097-.32576-.90302-.50839a4.28059 4.28059 0 0 1-.01708.01058c-.77208.4791-1.59296.8661-2.50488 1.03731-.32904.06177-.66185.10054-.99532.12898l-.01063.0009c-.08214 1.83573.04032 3.72786 1.01521 5.302.59423.95947 1.51362 1.67795 2.48731 2.27517l.0254.01547c.39845-.2435.7898-.50318 1.15398-.79322h.82667c-.58592.55146-1.2694 1.0136-1.96423 1.42616-.03256-.02228-.03286 0-.03286 0-.87643-.52039-1.7297-1.09562-2.39376-1.85939-.45109-.51878-.80827-1.11492-1.06569-1.76016-.64686-1.62151-.68784-3.42666-.57505-5.12153.71687-.04271 1.44492-.11159 2.13114-.33286.6768-.21823 1.30011-.58061 1.90217-.97149l.01762-.01147c.01171.00765.02342.01524.03519.02288.75935.4919 1.56971.92602 2.4621 1.11205a6.70181 6.70181 0 0 0 .15359.03011l-.61155.4217zm-.18136 6.3196h-1.13481c-.18968-.00806-.20246-.10413-.20646-.19786-.00472-.11147.06756-.20944.20646-.21536h.97722l.3089-1.12615s.05963-.13943.17947-.15096c.09582-.00926.1782.03119.21793.14708l.46674 1.57933.28591-.89854s.09248-.1638.23932-.13955c.08005.0205.08328.0242.1297.088l.33232.5008h.79573c.00096.00011.14768.01995.1917.12957.05096.12676-.02968.27677-.1917.28364h-.9066c-.09857-.00406-.12671-.0297-.17211-.09236l-.15532-.234-.35934 1.1295s-.06332.13453-.18149.14337c-.09444.00705-.1745-.03333-.21356-.1475l-.45205-1.52962-.15873.5787s-.0721.14635-.19923.15191zm2.22392-6.0194c.04014.97769.0101 1.95688-.15741 2.9234-.07635.44076-.24279 1.04897-.38855 1.47276l-.52451-.1705c.4453-1.17471.553-2.4526.53371-3.7033l.53676-.52237z" fill="#00aded" fill-rule="nonzero"/>
  <path d="M350.08965 388.9102c.03129-.03568.0394-.0591.08606-.12695.26903-.39144 1.0659-1.44673 2.07848-2.25844.44062-.35324.91685-.67436 1.33812-.88486.70208-.35081.92816-.39358 1.25422-.46954.06193-.01442.2862-.05445.3234.03392.0359.0853-.10399.17519-.15647.21643-.05901.04637-1.40842 1.05545-2.54368 2.55402-.98784 1.30389-1.63428 3.0147-1.63428 3.0147-.01986.03799-.24452.43946-.54593.45902-.27857.0181-.63633-.34424-.63633-.34424-.06877-.06417-.40417-.4622-.68325-.95451-.35593-.6277-.66242-1.37176-.66242-1.37176s-.31816-.62588.28165-.9701c.59141-.33942.85484.00518.9832.20862.10969.17388.33069.59624.4375.80283.0372.07196.06126.11186.07973.09085z" fill="#1d58bf" fill-rule="nonzero"/>
  <g transform="translate(128.5517 -88.00126) scale(1.24681)">
    <circle cx="88.506" cy="368.331" r="25.699" fill="#00aded"/>
  </g>
  <g>
    <path d="M251.8583 391.91583c-1.13193 2.18277-3.0103 3.8883-5.2925 4.80302-1.34914.49253-2.77016.76175-4.20647.7954-1.55257.11472-3.11126-.07801-4.58888-.56596-1.9671-.77399-3.65733-2.12312-4.8489-3.86995-1.17629-1.74683-2.12312-3.63898-2.81451-5.62902-.46501-.99272-.65927-2.08946-.56597-3.18162 1.2084-.14684 2.30974-.7694 3.05925-1.72847.44512-.9652.47266-2.07264.07648-3.05925-.09177-.30592-.18355-.59655-.29062-.87188-.22945-.67304-1.02485-1.94263-.47419-2.50859.55067-.56596 1.83555-.55066 2.34033-.7801 1.49597-.8933 3.0929-1.60764 4.75713-2.12618 1.5082-.20039 3.04242-.10249 4.51239.29062.20038.03366.39311.10555.56596.21415.19273.16061.33652.37323.413.61185.4283 1.04015.67303 2.18736 1.00955 3.2581a6.71716 6.71716 0 0 0 1.68259 2.98277c.69904.5935 1.48832 1.06768 2.34032 1.40725l2.0497.93307c.35946.14379.6868.3564.96366.62715.26157.37017.42065.80305.45889 1.2543.37935 2.4428-.02141 4.9422-1.14722 7.14334z" fill="#a0616a" fill-rule="nonzero"/>
    <path d="M245.49506 377.61384c-3.33764 3.46613-8.63167 4.25388-12.83355 1.91203-.09178-.30592-.18356-.59655-.29063-.87189-.22944-.67303-1.02485-1.94262-.47418-2.50858.55066-.56596 1.83554-.55066 2.34032-.7801 1.49597-.8933 3.0929-1.60764 4.75713-2.12619 1.50821-.20038 3.04242-.10248 4.5124.29063.20037.03365.3931.10555.56595.21415.19274.16061.33652.37323.413.61185.4283 1.08603.67304 2.18736 1.00956 3.2581z" fill-opacity=".1" fill-rule="nonzero"/>
    <circle cx="263.84" cy="289.36" r="6.94" fill="#a0616a" transform="matrix(1.52962 0 0 1.52962 -165.72867 -72.81407)"/>
    <path d="M264.63677 390.3036c-11.84082 16.48476-36.14502 16.80904-49.00304 2.93382.1652-.8107.47418-1.59387.90554-2.30055.44818-.69904 1.2191-1.1304 2.0497-1.14722.44359 0 .94836.16826 1.26958-.15296.32122-.32123.21415-.58126.4436-.7954.22944-.21416.7801-.21416 1.2084-.18356.93307.03059 1.82025-.413 2.35562-1.17781.16367-.28451.36405-.54761.59655-.78011.4023-.1958.83824-.30899 1.28489-.33652 1.239-.27533 1.97321-1.52962 2.90628-2.30973.45736-.51549 1.17934-.71434 1.83555-.50478.1499.07801.27992.18662.3824.32122.25087.38547.42218.81682.50478 1.2696.55373 2.5407 1.96404 4.81372 3.99232 6.4397 1.57246 1.18853 3.4906 1.8325 5.46076 1.8325 3.51967 0 6.73188-2.05123 8.21408-5.24355.73881-1.84932 1.16405-3.80877 1.2543-5.79728v-.26004c1.25888-.31204 2.59424-.04894 3.6405.71893 1.01567.77705 2.10017 1.45926 3.2428 2.0344 1.36137.53537 3.05925.53537 3.99232 1.52962.3977.3977.67304.94837 1.17781 1.1931.31358.12238.64398.20039.97896.22945 1.73.46654 1.3063 2.48717 1.3063 2.48717z" fill="#f86d70" fill-rule="nonzero"/>
    <path d="M230.52003 352.5739c-.7388.59807-1.36595 1.32312-1.85084 2.14147a10.5459 10.5459 0 0 1-3.7017 3.6405c-.63632.22333-1.21604.58279-1.69787 1.05544-.2371.35946-.38853.76634-.4436 1.1931a22.36596 22.36596 0 0 0-.47418 4.5124c-.0566.76328.06883 1.5281.36711 2.23325.30593.64244.88718 1.1931.99426 1.89674.02294.55678-.03977 1.11356-.18356 1.65199-.14684.57667.07954 1.18699.56596 1.52962.27686.0979.56443.1652.8566.19885 1.52962.33652 2.04969 2.14148 2.27913 3.62521.52007 0 .74952-.62714.87189-1.11662l1.52962-7.11275c.18356-.76482.45889-1.6673 1.239-1.92733a3.86232 3.86232 0 0 1 1.6214 0c2.11088.18355 3.88524-1.45314 5.95024-1.91203.66538-.12543 1.343-.16673 2.0191-.12237 1.6214 0 3.51814.74952 3.86995 2.26384 0 .24474.09178.55067.32122.67304.23403.06883.4849.06883.71893 0 1.02484-.10708 1.6367 1.05544 1.94262 2.0038l1.07073 3.47225c.16826.52007.4436 1.14722 1.00956 1.2084.53384-.00305.9866-.40382 1.05544-.93307.02294-.51854-.04895-1.03708-.21415-1.52962-.50478-2.26384.27533-4.58887.74952-6.86801.47418-2.27914.55066-4.8948-1.04015-6.65387-.58126-.62714-1.34607-1.10133-1.88144-1.77436-.53536-.67304-.7801-1.39196-1.30018-2.0191-2.07723-1.82179-4.66994-2.95524-7.41867-3.2428-3.0669-.27075-6.14603.39616-8.82594 1.91202z" fill="#3f3d56" fill-rule="nonzero"/>
    <g opacity=".1">
      <path d="M223.71365 367.62592c-.10707-.70363-.68833-1.2543-.99426-1.89673a3.90032 3.90032 0 0 1-.35181-1.37666v.7648c-.0566.76329.06883 1.5281.36711 2.23326.24474.52007.67303.97896.88718 1.52962.1086-.4084.1392-.83364.09178-1.25429zM251.04803 362.71583c-.60726 1.98086-.90247 4.04585-.87188 6.1185.19885-1.50516.48948-2.99654.87188-4.4665.25392-1.12275.34264-2.27762.26004-3.42637-.04895.59656-.1346 1.18852-.26004 1.77437z" fill-rule="nonzero"/>
    </g>
  </g>
  <g>
    <path d="M590.46 285.225c0-29.872-24.253-54.125-54.125-54.125h-327.2c-29.872 0-54.125 24.253-54.125 54.125s24.253 54.125 54.125 54.125h327.2c29.872 0 54.125-24.253 54.125-54.125z" fill="url(#_Linear2)" transform="matrix(.74209 0 0 .74209 -79.40377 49.16549)"/>
    <path d="M357.86349 260.83463c0-21.17248-17.1897-38.36218-38.36218-38.36218H75.79256c-21.17248 0-38.36218 17.1897-38.36218 38.36218 0 21.17248 17.1897 38.36218 38.36218 38.36218h243.70875c21.17248 0 38.36218-17.1897 38.36218-38.36218z" fill="#fff"/>
    <path d="M319.3808 241.58823c0-2.27186-1.84483-4.11652-4.1167-4.11652H124.01005c-2.27243 0-4.11671 1.84466-4.11671 4.11652v8.23348c0 2.27229 1.84428 4.11695 4.1167 4.11695H315.2641c2.27187 0 4.1167-1.84466 4.1167-4.11695v-8.23348z" fill="#3f3d56"/>
    <path d="M319.3808 260.35615c0-1.51458-1.23007-2.74435-2.74447-2.74435H122.63781c-1.51495 0-2.74447 1.22977-2.74447 2.74435v5.48898c0 1.51486 1.22952 2.74463 2.74447 2.74463h193.99852c1.5144 0 2.74448-1.22977 2.74448-2.74463v-5.48898z" fill="#1d58bf"/>
    <path d="M180.43573 275.38201c0-1.51458-1.2299-2.74435-2.74448-2.74435h-55.05373c-1.51476 0-2.74449 1.22977-2.74449 2.74435v5.48898c0 1.51487 1.22973 2.74464 2.74449 2.74464h55.05373c1.51459 0 2.74448-1.22977 2.74448-2.74464v-5.48898z" fill="#9795b1"/>
    <g serif:id="text" fill-rule="nonzero">
      <path d="M196.68207 281.35074c.59163 0 .87848-.11696 1.16533-.26893l-.30478-.94122c-.1972.09875-.41235.15267-.55577.15267-.26892 0-.38545-.17998-.38545-.55605v-1.86494h1.19221v-.96784h-1.19221v-1.5596l-1.16533.12536v1.43424h-.51991v.96784h.51991v2.02601c0 .98605.49302 1.45246 1.246 1.45246zM200.72464 276.833c-.51963 0-.9948.25072-1.32647.71713h-.00896v-.6457h-1.17429v4.37487h1.17429v-2.03511c0-.6457.39442-1.13871 1.12043-1.13871.06303 0 .18839 0 .30464.0091v-1.27317c-.0175-.0084-.05322-.0084-.08964-.0084zM203.979 276.90443v2.12476c0 .84248-.4573 1.27247-.96853 1.27247-.54695 0-.78855-.26892-.78855-1.07568v-2.32155h-1.16533v2.6353c0 1.3362.6632 1.811 1.60442 1.811.49302 0 .96854-.20659 1.29979-.60997h.0182v.53854h1.17443v-4.37487h-1.17442zM207.26839 281.35074c1.14781 0 1.70316-.58267 1.70316-1.36282 0-.85998-.55535-1.06658-1.50568-1.41603-.43069-.16108-.6632-.28713-.6632-.46641 0-.2332.24162-.33125.43-.33125.32285 0 .70802.14356 1.04907.4657l.56446-.86068c-.49303-.38517-.98605-.54625-1.59532-.54625-.8964 0-1.57781.51964-1.57781 1.3089 0 .84247.62748 1.18282 1.3446 1.42513.57356.17928.79766.27803.79766.48392 0 .215-.19679.35856-.53784.35856-.47481 0-.85158-.17017-1.21014-.51123l-.57356.81587c.48392.41249 1.07568.63659 1.7746.63659zM210.78257 281.35074c.59176 0 .8782-.11696 1.16532-.26893l-.30464-.94122c-.19748.09875-.41248.15267-.55605.15267-.26892 0-.38517-.17998-.38517-.55605v-1.86494h1.19194v-.96784h-1.19194v-1.5596l-1.16532.12536v1.43424h-.52034v.96784h.52034v2.02601c0 .98605.49302 1.45246 1.24586 1.45246z" fill="#1d58bf"/>
      <path d="M214.8346 276.833c-.53785 0-.99516.1968-1.3271.57356h-.01751v-.50213h-1.17443v6.14947h1.17443v-2.26762h.0175c.30464.35786.73533.56446 1.29068.56446 1.21925 0 2.09745-.8964 2.09745-2.25012 0-1.3264-.8873-2.26762-2.06103-2.26762zm-.25142 3.46866c-.63659 0-1.13871-.47481-1.13871-1.19193 0-.69892.4664-1.22836 1.1387-1.22836.62749 0 1.12051.47552 1.12051 1.22836 0 .70802-.4573 1.19193-1.1205 1.19193zM220.24873 276.90443v2.12476c0 .84248-.4573 1.27247-.96854 1.27247-.54694 0-.78855-.26892-.78855-1.07568v-2.32155h-1.16533v2.6353c0 1.3362.6632 1.811 1.60442 1.811.49303 0 .96854-.20659 1.29979-.60997h.0182v.53854h1.17444v-4.37487h-1.17443zM222.176 274.68163h1.17428v6.59753H222.176zM225.55502 281.35074c1.14781 0 1.70316-.58267 1.70316-1.36282 0-.85998-.55535-1.06658-1.50568-1.41603-.42999-.16108-.6632-.28713-.6632-.46641 0-.2332.24161-.33125.43-.33125.32284 0 .70802.14356 1.04907.4657l.56446-.86068c-.49303-.38517-.98605-.54625-1.59532-.54625-.8964 0-1.57781.51964-1.57781 1.3089 0 .84247.62748 1.18282 1.3446 1.42513.57356.17928.79766.27803.79766.48392 0 .215-.19679.35856-.53784.35856-.47481 0-.85158-.17017-1.21015-.51123l-.57355.81587c.48391.41249 1.07568.63659 1.7746.63659zM231.7493 279.0467c0-1.28158-.86068-2.2137-2.14226-2.2137-1.24586 0-2.16958.92302-2.16958 2.24942 0 1.37191.96854 2.26832 2.25011 2.26832.8782 0 1.51479-.34946 1.89156-.82498l-.76195-.70801c-.2423.29553-.58266.50212-1.04907.49302-.56445 0-.97694-.32285-1.1205-.84248h3.07508c.02661-.07213.02661-.27803.02661-.4216zm-2.10655-1.18283c.51123 0 .82498.30463.94123.76194h-1.92727c.13446-.50213.51123-.76194.98604-.76194z" fill="#00aded"/>
    </g>
    <g serif:id="mark">
      <path d="M190.76518 275.4251c-.38986-.10526-.77052-.24529-1.1363-.4248-.31035-.15228-.6097-.32576-.90303-.50839a4.28059 4.28059 0 0 1-.01708.01058c-.77208.4791-1.59296.8661-2.50488 1.03731-.32904.06177-.66185.10054-.99532.12898l-.01063.0009c-.08214 1.83573.04032 3.72786 1.01521 5.302.59423.95947 1.51362 1.67795 2.48731 2.27517l.0254.01547c.39845-.2435.7898-.50318 1.15398-.79322h.82667c-.58592.55146-1.2694 1.0136-1.96423 1.42616-.03256-.02228-.03286 0-.03286 0-.87643-.52039-1.7297-1.09562-2.39376-1.85939-.45109-.51878-.80827-1.11492-1.06569-1.76016-.64686-1.62151-.68784-3.42666-.57505-5.12153.71687-.04271 1.44492-.11159 2.13114-.33286.6768-.21823 1.30011-.58061 1.90217-.97149l.01762-.01147c.01171.00765.02342.01524.03519.02288.75935.4919 1.56971.92602 2.4621 1.11205a6.70181 6.70181 0 0 0 .15359.03011l-.61155.4217zm-.18137 6.3196H189.449c-.18968-.00806-.20246-.10413-.20646-.19786-.00472-.11147.06756-.20944.20646-.21536h.97722l.3089-1.12615s.05963-.13943.17947-.15096c.09582-.00926.1782.03119.21793.14708l.46674 1.57933.28591-.89854s.09248-.1638.23932-.13955c.08005.0205.08328.0242.1297.088l.33232.5008h.79573c.00096.00011.14768.01995.1917.12957.05096.12676-.02968.27677-.1917.28364h-.9066c-.09857-.00406-.12671-.0297-.17211-.09236l-.15532-.234-.35934 1.1295s-.06332.13453-.18149.14337c-.09444.00705-.1745-.03333-.21356-.1475l-.45205-1.52962-.15873.5787s-.0721.14635-.19923.15191zm2.22392-6.0194c.04014.97769.0101 1.95688-.15741 2.9234-.07635.44076-.24279 1.04897-.38855 1.47276l-.52451-.1705c.4453-1.17471.553-2.4526.53371-3.7033l.53676-.52237z" fill="#00aded" fill-rule="nonzero"/>
      <path d="M188.51862 278.2408c.03129-.03568.0394-.0591.08606-.12695.26903-.39144 1.0659-1.44673 2.07848-2.25844.44062-.35324.91685-.67436 1.33812-.88486.70208-.35081.92816-.39358 1.25422-.46954.06193-.01442.2862-.05445.3234.03392.0359.0853-.10399.17519-.15647.21643-.05901.04637-1.40842 1.05545-2.54368 2.55402-.98784 1.30389-1.63428 3.0147-1.63428 3.0147-.01986.03799-.24452.43946-.54593.45902-.27857.0181-.63633-.34424-.63633-.34424-.06877-.06417-.40417-.4622-.68325-.95451-.35593-.6277-.66242-1.37176-.66242-1.37176s-.31816-.62588.28165-.9701c.59141-.33942.85484.00518.9832.20862.10969.17388.33069.59624.4375.80283.0372.07196.06126.11186.07973.09085z" fill="#1d58bf" fill-rule="nonzero"/>
    </g>
    <circle cx="88.506" cy="368.331" r="25.699" fill="#1d58bf" transform="translate(-33.01933 -198.67066) scale(1.24681)"/>
    <g>
      <path d="M90.30982 281.9644c-1.13192 2.18278-3.0103 3.88831-5.2925 4.80303-1.34913.49254-2.77015.76175-4.20647.7954-1.55256.11472-3.11125-.078-4.58887-.56596-1.9671-.77399-3.65733-2.12312-4.8489-3.86995-1.17629-1.74683-2.12313-3.63897-2.81452-5.62902-.465-.99272-.65926-2.08946-.56596-3.18161 1.2084-.14685 2.30974-.7694 3.05925-1.72848.44512-.9652.47266-2.07264.07648-3.05925-.09177-.30592-.18355-.59655-.29063-.87188-.22944-.67304-1.02484-1.94263-.47418-2.50859.55067-.56596 1.83555-.55066 2.34033-.7801 1.49597-.8933 3.0929-1.60764 4.75713-2.12618 1.5082-.20038 3.04242-.10249 4.51239.29063.20038.03365.39311.10554.56596.21414.19273.16061.33652.37323.413.61185.4283 1.04015.67303 2.18736 1.00955 3.2581a6.71716 6.71716 0 0 0 1.68259 2.98277c.69904.5935 1.48832 1.06768 2.34032 1.40725l2.0497.93307c.35946.14379.6868.3564.96366.62715.26157.37017.42065.80305.45889 1.2543.37935 2.4428-.02142 4.9422-1.14722 7.14334z" fill="#cc959f" fill-rule="nonzero"/>
      <path d="M83.94658 267.66242c-3.33764 3.46613-8.63167 4.25389-12.83354 1.91203-.09178-.30592-.18356-.59655-.29063-.87188-.22945-.67304-1.02485-1.94263-.47419-2.50859.55067-.56596 1.83555-.55066 2.34033-.7801 1.49597-.8933 3.0929-1.60764 4.75713-2.12618 1.50821-.20039 3.04242-.10249 4.5124.29062.20037.03366.3931.10555.56595.21415.19274.16061.33652.37323.413.61185.4283 1.08603.67304 2.18736 1.00955 3.2581z" fill-opacity=".1" fill-rule="nonzero"/>
      <circle cx="263.84" cy="289.36" r="6.94" fill="#d7a5ad" transform="matrix(1.52962 0 0 1.52962 -327.27714 -182.76549)"/>
      <path d="M103.0883 280.35218c-11.84082 16.48476-36.14502 16.80904-49.00304 2.93382.1652-.8107.47418-1.59387.90554-2.30055.44818-.69904 1.2191-1.1304 2.0497-1.14722.44359 0 .94836.16826 1.26958-.15296.32122-.32122.21415-.58126.4436-.7954.22944-.21416.7801-.21416 1.2084-.18356.93307.03059 1.82025-.413 2.35562-1.17781.16367-.28451.36405-.5476.59655-.78011.4023-.1958.83824-.30899 1.28489-.33652 1.239-.27533 1.97321-1.52962 2.90628-2.30973.45736-.51548 1.17934-.71434 1.83555-.50478.1499.07801.27992.18662.3824.32122.25087.38547.42218.81682.50478 1.2696.55373 2.5407 7.78426 7.73836 9.81254 9.36435 1.57246 1.18852 9.01867-10.14447 9.10891-12.13298v-.26003c1.25888-.31205 2.59425-.04895 3.64051.71892 1.01567.77705 2.10017 1.45926 3.2428 2.0344 1.36137.53537 3.05925.53537 3.99232 1.52962.3977.3977.67304.94837 1.17781 1.19311.31358.12237.64397.20038.97896.22944 1.73.46654 1.3063 2.48717 1.3063 2.48717z" fill="#fff" fill-rule="nonzero"/>
      <path d="M68.97156 242.62247c-.7388.59809-1.19157 1.4562-1.85084 2.14148-1.14416 1.19004-3.4753 6.8726-3.57167 8.3808-.29981 4.70207 1.2344 10.37545 2.74567 9.9961l1.78966-5.06917c.18356-.76482.45889-1.6673 1.239-1.92733a3.86232 3.86232 0 0 1 1.6214 0c2.11088.18356 4.01985.05966 6.10779-1.16251.66538-.12543 3.7537-3.6344 4.42826-3.59156 1.6214 0 .95143 3.46919 1.30324 4.98351 0 .24474.09178.55067.32122.67304.23403.06883.4849.06883.71892 0 1.02485-.10708 1.6367 1.05544 1.94263 2.0038l1.07073 3.47225c.16826.52008 1.6933-.76022 1.85085-1.25429.72351-2.26231 1.17016-4.58734.74952-6.86801-.42218-2.28985.55066-4.8948-1.04015-6.65387-.58126-.62714-1.34607-1.10133-1.88144-1.77436-.53537-.67304-.7801-1.39196-1.30018-2.0191-2.07723-1.82179-4.66994-2.95524-7.41868-3.2428-3.0669-.27075-6.14603.39616-8.82593 1.91202z" fill="#e4d2aa" fill-rule="nonzero"/>
    </g>
  </g>
  <g>
    <path d="M590.46 285.225c0-29.872-24.253-54.125-54.125-54.125h-327.2c-29.872 0-54.125 24.253-54.125 54.125s24.253 54.125 54.125 54.125h327.2c29.872 0 54.125-24.253 54.125-54.125z" fill="url(#_Linear3)" transform="matrix(.74209 0 0 .74209 82.16726 -61.16541)"/>
    <path d="M519.43452 150.50373c0-21.17248-17.1897-38.36218-38.36218-38.36218H237.36359c-21.17248 0-38.36218 17.1897-38.36218 38.36218 0 21.17248 17.1897 38.36218 38.36218 38.36218h243.70875c21.17248 0 38.36218-17.1897 38.36218-38.36218z" fill="#fff"/>
    <path d="M480.95184 131.25733c0-2.27186-1.84484-4.11652-4.11671-4.11652H285.58108c-2.27243 0-4.11671 1.84466-4.11671 4.11652v8.23348c0 2.27229 1.84428 4.11695 4.1167 4.11695h191.25406c2.27187 0 4.1167-1.84466 4.1167-4.11695v-8.23348z" fill="#3f3d56"/>
    <path d="M480.95184 150.02525c0-1.51458-1.23008-2.74435-2.74448-2.74435H284.20884c-1.51495 0-2.74447 1.22977-2.74447 2.74435v5.48898c0 1.51486 1.22952 2.74463 2.74447 2.74463h193.99852c1.5144 0 2.74448-1.22977 2.74448-2.74463v-5.48898z" fill="#16bd83"/>
    <path d="M342.00676 165.05111c0-1.51458-1.2299-2.74435-2.74448-2.74435h-55.05373c-1.51476 0-2.74449 1.22977-2.74449 2.74435v5.48898c0 1.51487 1.22973 2.74464 2.74449 2.74464h55.05373c1.51459 0 2.74448-1.22977 2.74448-2.74464v-5.48898z" fill="#9795b1"/>
    <g serif:id="text" fill-rule="nonzero">
      <path d="M358.2531 171.01984c.59163 0 .87848-.11696 1.16533-.26893l-.30478-.94122c-.1972.09875-.41235.15267-.55577.15267-.26892 0-.38545-.17998-.38545-.55605v-1.86494h1.19221v-.96784h-1.19221v-1.5596l-1.16533.12536v1.43424h-.51991v.96784h.51991v2.02601c0 .98605.49302 1.45246 1.246 1.45246zM362.29567 166.5021c-.51963 0-.9948.25072-1.32647.71713h-.00896v-.6457h-1.17429v4.37487h1.17429v-2.03511c0-.6457.39442-1.13871 1.12043-1.13871.06303 0 .18839 0 .30464.0091v-1.27317c-.0175-.0084-.05322-.0084-.08964-.0084zM365.55004 166.57353v2.12476c0 .84248-.45731 1.27247-.96854 1.27247-.54695 0-.78855-.26892-.78855-1.07568v-2.32155h-1.16533v2.6353c0 1.3362.6632 1.811 1.60442 1.811.49302 0 .96854-.20659 1.29979-.60997h.0182v.53854h1.17443v-4.37487h-1.17442zM368.83942 171.01984c1.14781 0 1.70316-.58267 1.70316-1.36282 0-.85998-.55535-1.06658-1.50568-1.41603-.43069-.16108-.6632-.28713-.6632-.46641 0-.2332.24162-.33125.43-.33125.32285 0 .70802.14356 1.04907.4657l.56446-.86068c-.49303-.38517-.98605-.54625-1.59532-.54625-.8964 0-1.57781.51964-1.57781 1.3089 0 .84247.62748 1.18282 1.3446 1.42513.57356.17928.79766.27803.79766.48392 0 .215-.19679.35856-.53784.35856-.47481 0-.85158-.17017-1.21014-.51123l-.57356.81587c.48392.41249 1.07568.63659 1.7746.63659zM372.3536 171.01984c.59176 0 .8782-.11696 1.16532-.26893l-.30464-.94122c-.19748.09875-.41248.15267-.55605.15267-.26892 0-.38517-.17998-.38517-.55605v-1.86494h1.19194v-.96784h-1.19194v-1.5596l-1.16532.12536v1.43424h-.52034v.96784h.52034v2.02601c0 .98605.49302 1.45246 1.24586 1.45246z" fill="#1d58bf"/>
      <path d="M376.40562 166.5021c-.53784 0-.99515.1968-1.3271.57356h-.0175v-.50213h-1.17443v6.14947h1.17443v-2.26762h.0175c.30464.35786.73533.56446 1.29068.56446 1.21925 0 2.09745-.8964 2.09745-2.25012 0-1.3264-.8873-2.26762-2.06103-2.26762zm-.25141 3.46866c-.63659 0-1.13871-.47481-1.13871-1.19193 0-.69892.4664-1.22836 1.1387-1.22836.62749 0 1.12051.47552 1.12051 1.22836 0 .70802-.4573 1.19193-1.1205 1.19193zM381.81976 166.57353v2.12476c0 .84248-.4573 1.27247-.96854 1.27247-.54694 0-.78855-.26892-.78855-1.07568v-2.32155h-1.16533v2.6353c0 1.3362.6632 1.811 1.60442 1.811.49303 0 .96854-.20659 1.29979-.60997h.0182v.53854h1.17444v-4.37487h-1.17443zM383.74702 164.35073h1.1743v6.59753h-1.1743zM387.12605 171.01984c1.14781 0 1.70316-.58267 1.70316-1.36282 0-.85998-.55535-1.06658-1.50568-1.41603-.42999-.16108-.6632-.28713-.6632-.46641 0-.2332.24161-.33125.43-.33125.32284 0 .70802.14356 1.04907.4657l.56446-.86068c-.49303-.38517-.98605-.54625-1.59532-.54625-.8964 0-1.57781.51964-1.57781 1.3089 0 .84247.62748 1.18282 1.3446 1.42513.57356.17928.79766.27803.79766.48392 0 .215-.19679.35856-.53784.35856-.47481 0-.85158-.17017-1.21015-.51123l-.57355.81587c.48391.41249 1.07568.63659 1.7746.63659zM393.32033 168.7158c0-1.28158-.86068-2.2137-2.14226-2.2137-1.24586 0-2.16958.92302-2.16958 2.24942 0 1.37191.96854 2.26832 2.25011 2.26832.8782 0 1.51479-.34946 1.89156-.82498l-.76195-.70801c-.2423.29553-.58266.50212-1.04907.49302-.56445 0-.97694-.32285-1.1205-.84248h3.07508c.02661-.07213.02661-.27803.02661-.4216zm-2.10655-1.18283c.51123 0 .82498.30463.94123.76194h-1.92727c.13446-.50213.51123-.76194.98604-.76194z" fill="#00aded"/>
    </g>
    <g serif:id="mark">
      <path d="M352.3362 165.0942c-.38985-.10526-.77051-.24529-1.1363-.4248-.31034-.15228-.6097-.32576-.90302-.50839a4.28059 4.28059 0 0 1-.01708.01058c-.77208.4791-1.59296.8661-2.50488 1.03731-.32904.06177-.66185.10054-.99532.12898l-.01063.0009c-.08214 1.83573.04032 3.72786 1.01521 5.302.59423.95947 1.51362 1.67795 2.48731 2.27517l.0254.01547c.39845-.2435.7898-.50318 1.15398-.79322h.82667c-.58592.55146-1.2694 1.0136-1.96423 1.42616-.03256-.02228-.03286 0-.03286 0-.87643-.52039-1.7297-1.09562-2.39376-1.85939-.45109-.51878-.80827-1.11492-1.06569-1.76016-.64686-1.62151-.68784-3.42666-.57505-5.12153.71687-.04271 1.44492-.11159 2.13114-.33286.6768-.21823 1.30011-.58061 1.90217-.97149l.01762-.01147c.01171.00765.02342.01524.03519.02288.75935.4919 1.56971.92602 2.4621 1.11205a6.70181 6.70181 0 0 0 .15359.03011l-.61155.4217zm-.18136 6.3196h-1.13481c-.18968-.00806-.20246-.10413-.20646-.19786-.00472-.11147.06756-.20944.20646-.21536h.97722l.3089-1.12615s.05963-.13943.17947-.15096c.09582-.00926.1782.03119.21793.14708l.46674 1.57933.28591-.89854s.09248-.1638.23932-.13955c.08005.0205.08328.0242.1297.088l.33232.5008h.79573c.00096.00011.14768.01995.1917.12957.05096.12676-.02968.27677-.1917.28364h-.9066c-.09857-.00406-.12671-.0297-.17211-.09236l-.15532-.234-.35934 1.1295s-.06332.13453-.18149.14337c-.09444.00705-.1745-.03333-.21356-.1475l-.45205-1.52962-.15873.5787s-.0721.14635-.19923.15191zm2.22392-6.0194c.04014.97769.0101 1.95688-.15741 2.9234-.07635.44076-.24279 1.04897-.38855 1.47276l-.52451-.1705c.4453-1.17471.553-2.4526.53371-3.7033l.53676-.52237z" fill="#00aded" fill-rule="nonzero"/>
      <path d="M350.08965 167.9099c.03129-.03568.0394-.0591.08606-.12695.26903-.39144 1.0659-1.44673 2.07848-2.25844.44062-.35324.91685-.67436 1.33812-.88486.70208-.35081.92816-.39358 1.25422-.46954.06193-.01442.2862-.05445.3234.03392.0359.0853-.10399.17519-.15647.21643-.05901.04637-1.40842 1.05545-2.54368 2.55402-.98784 1.30389-1.63428 3.0147-1.63428 3.0147-.01986.03799-.24452.43946-.54593.45902-.27857.0181-.63633-.34424-.63633-.34424-.06877-.06417-.40417-.4622-.68325-.95451-.35593-.6277-.66242-1.37176-.66242-1.37176s-.31816-.62588.28165-.9701c.59141-.33942.85484.00518.9832.20862.10969.17388.33069.59624.4375.80283.0372.07196.06126.11186.07973.09085z" fill="#1d58bf" fill-rule="nonzero"/>
    </g>
    <g>
      <circle cx="88.506" cy="368.331" r="25.699" fill="#16bd83" transform="matrix(1.24515 0 0 1.24515 128.79025 -308.60286)"/>
      <g transform="matrix(.06627 0 0 .06536 219.03341 123.08496)">
        <clipPath id="a">
          <ellipse cx="301.161" cy="412.162" rx="482.83" ry="489.567"/>
        </clipPath>
        <g clip-path="url(#a)">
          <path d="M204.8661 153.28986c56.75005-49.87448 141.04683-49.80035 197.71882.17006C516.35825 253.78882 687.788 404.96022 687.788 404.96022l-768.05126-1.10318S91.0711 253.29174 204.8661 153.28986z" fill="#caeafd"/>
          <path d="M188.84657 730.71631c28.67426 34.82609 71.12188 54.94595 115.86795 54.91574 44.74173-.03625 87.16333-20.21049 115.78989-55.08491 112.74986-137.3407 267.28817-325.58526 267.28817-325.58526l-768.0556-1.10568S75.46356 593.00705 188.84658 730.7163z" fill="#b2e2fc"/>
          <path d="M400.72664 653.43536l276.23198 247.19779c9.5224 8.55156 12.75423 22.0308 8.1293 33.91464-4.62491 11.88385-16.14612 19.7235-28.99552 19.7235H-48.07247c-12.90565 0-24.4831-7.87396-29.12532-19.80927-4.64223-11.9396-1.39743-25.47887 8.16824-34.06475l281.47126-247.18492 188.28493.22301z" fill="#eff9ff"/>
          <path d="M212.44437 653.43536l-288.78911-243.8269-2.94202 515.45712c.61328 6.08131 5.11207 14.26834 7.90399 18.52697l283.82714-290.15719z" fill="#caeafd"/>
          <path d="M212.4412 653.43536L-80.26343 403.85737l1.02498 521.20821 291.67967-271.63022z" fill="#f8fcff"/>
          <path d="M399.64663 653.43536l288.14581-248.4758-.61756 522.13885c-.61328 6.0813-2.40593 9.1434-5.19784 13.40203L399.64663 653.43536z" fill="#caeafd"/>
          <path d="M399.64663 653.43536l288.14581-248.4758-.83628 522.13885-287.30953-273.66305z" fill="#f8fcff"/>
        </g>
      </g>
    </g>
  </g>
  <g>
    <path d="M590.46 285.225c0-29.872-24.253-54.125-54.125-54.125h-327.2c-29.872 0-54.125 24.253-54.125 54.125s24.253 54.125 54.125 54.125h327.2c29.872 0 54.125-24.253 54.125-54.125z" fill="url(#_Linear5)" transform="matrix(.74209 0 0 .74209 -79.40377 -171.49611)"/>
    <path d="M357.86349 40.17303c0-21.17248-17.1897-38.36218-38.36218-38.36218H75.79256c-21.17248 0-38.36218 17.1897-38.36218 38.36218 0 21.17248 17.1897 38.36218 38.36218 38.36218h243.70875c21.17248 0 38.36218-17.1897 38.36218-38.36218z" fill="#fff"/>
    <path d="M319.3808 20.92663c0-2.27186-1.84483-4.11652-4.1167-4.11652H124.01005c-2.27243 0-4.11671 1.84466-4.11671 4.11652v8.23348c0 2.27229 1.84428 4.11695 4.1167 4.11695H315.2641c2.27187 0 4.1167-1.84466 4.1167-4.11695v-8.23348z" fill="#3f3d56"/>
    <path d="M319.3808 39.69455c0-1.51458-1.23007-2.74435-2.74447-2.74435H122.63781c-1.51495 0-2.74447 1.22977-2.74447 2.74435v5.48898c0 1.51486 1.22952 2.74463 2.74447 2.74463h193.99852c1.5144 0 2.74448-1.22977 2.74448-2.74463v-5.48898z" fill="#6c63ff"/>
    <path d="M180.43573 54.72041c0-1.51458-1.2299-2.74435-2.74448-2.74435h-55.05373c-1.51476 0-2.74449 1.22977-2.74449 2.74435v5.48898c0 1.51487 1.22973 2.74464 2.74449 2.74464h55.05373c1.51459 0 2.74448-1.22977 2.74448-2.74464v-5.48898z" fill="#9795b1"/>
    <g serif:id="text" fill-rule="nonzero">
      <path d="M196.68207 60.68914c.59163 0 .87848-.11696 1.16533-.26893l-.30478-.94122c-.1972.09875-.41235.15267-.55577.15267-.26892 0-.38545-.17998-.38545-.55605v-1.86494h1.19221v-.96784h-1.19221v-1.5596l-1.16533.12536v1.43424h-.51991v.96784h.51991v2.02601c0 .98605.49302 1.45246 1.246 1.45246zM200.72464 56.1714c-.51963 0-.9948.25072-1.32647.71713h-.00896v-.6457h-1.17429v4.37487h1.17429V58.5826c0-.6457.39442-1.13871 1.12043-1.13871.06303 0 .18839 0 .30464.0091v-1.27317c-.0175-.0084-.05322-.0084-.08964-.0084zM203.979 56.24283v2.12476c0 .84248-.4573 1.27247-.96853 1.27247-.54695 0-.78855-.26892-.78855-1.07568v-2.32155h-1.16533v2.6353c0 1.3362.6632 1.811 1.60442 1.811.49302 0 .96854-.20659 1.29979-.60997h.0182v.53854h1.17443v-4.37487h-1.17442zM207.26839 60.68914c1.14781 0 1.70316-.58267 1.70316-1.36282 0-.85998-.55535-1.06658-1.50568-1.41603-.43069-.16108-.6632-.28713-.6632-.46641 0-.2332.24162-.33125.43-.33125.32285 0 .70802.14356 1.04907.4657l.56446-.86068c-.49303-.38517-.98605-.54625-1.59532-.54625-.8964 0-1.57781.51964-1.57781 1.3089 0 .84247.62748 1.18282 1.3446 1.42513.57356.17928.79766.27803.79766.48392 0 .215-.19679.35856-.53784.35856-.47481 0-.85158-.17017-1.21014-.51123l-.57356.81587c.48392.41249 1.07568.63659 1.7746.63659zM210.78257 60.68914c.59176 0 .8782-.11696 1.16532-.26893l-.30464-.94122c-.19748.09875-.41248.15267-.55605.15267-.26892 0-.38517-.17998-.38517-.55605v-1.86494h1.19194v-.96784h-1.19194v-1.5596l-1.16532.12536v1.43424h-.52034v.96784h.52034v2.02601c0 .98605.49302 1.45246 1.24586 1.45246z" fill="#1d58bf"/>
      <path d="M214.8346 56.1714c-.53785 0-.99516.1968-1.3271.57356h-.01751v-.50213h-1.17443v6.14947h1.17443v-2.26762h.0175c.30464.35786.73533.56446 1.29068.56446 1.21925 0 2.09745-.8964 2.09745-2.25012 0-1.3264-.8873-2.26762-2.06103-2.26762zm-.25142 3.46866c-.63659 0-1.13871-.47481-1.13871-1.19193 0-.69892.4664-1.22836 1.1387-1.22836.62749 0 1.12051.47552 1.12051 1.22836 0 .70802-.4573 1.19193-1.1205 1.19193zM220.24873 56.24283v2.12476c0 .84248-.4573 1.27247-.96854 1.27247-.54694 0-.78855-.26892-.78855-1.07568v-2.32155h-1.16533v2.6353c0 1.3362.6632 1.811 1.60442 1.811.49303 0 .96854-.20659 1.29979-.60997h.0182v.53854h1.17444v-4.37487h-1.17443zM222.176 54.02003h1.17428v6.59753H222.176zM225.55502 60.68914c1.14781 0 1.70316-.58267 1.70316-1.36282 0-.85998-.55535-1.06658-1.50568-1.41603-.42999-.16108-.6632-.28713-.6632-.46641 0-.2332.24161-.33125.43-.33125.32284 0 .70802.14356 1.04907.4657l.56446-.86068c-.49303-.38517-.98605-.54625-1.59532-.54625-.8964 0-1.57781.51964-1.57781 1.3089 0 .84247.62748 1.18282 1.3446 1.42513.57356.17928.79766.27803.79766.48392 0 .215-.19679.35856-.53784.35856-.47481 0-.85158-.17017-1.21015-.51123l-.57355.81587c.48391.41249 1.07568.63659 1.7746.63659zM231.7493 58.3851c0-1.28158-.86068-2.2137-2.14226-2.2137-1.24586 0-2.16958.92302-2.16958 2.24942 0 1.37191.96854 2.26832 2.25011 2.26832.8782 0 1.51479-.34946 1.89156-.82498l-.76195-.70801c-.2423.29553-.58266.50212-1.04907.49302-.56445 0-.97694-.32285-1.1205-.84248h3.07508c.02661-.07213.02661-.27803.02661-.4216zm-2.10655-1.18283c.51123 0 .82498.30463.94123.76194h-1.92727c.13446-.50213.51123-.76194.98604-.76194z" fill="#00aded"/>
    </g>
    <g serif:id="mark">
      <path d="M190.76518 54.7635c-.38986-.10526-.77052-.24529-1.1363-.4248-.31035-.15228-.6097-.32576-.90303-.50839a4.28059 4.28059 0 0 1-.01708.01058c-.77208.4791-1.59296.8661-2.50488 1.03731-.32904.06177-.66185.10054-.99532.12898l-.01063.0009c-.08214 1.83573.04032 3.72786 1.01521 5.302.59423.95947 1.51362 1.67795 2.48731 2.27517l.0254.01547c.39845-.2435.7898-.50318 1.15398-.79322h.82667c-.58592.55146-1.2694 1.0136-1.96423 1.42616-.03256-.02228-.03286 0-.03286 0-.87643-.52039-1.7297-1.09562-2.39376-1.85939-.45109-.51878-.80827-1.11492-1.06569-1.76016-.64686-1.62151-.68784-3.42666-.57505-5.12153.71687-.04271 1.44492-.11159 2.13114-.33286.6768-.21823 1.30011-.58061 1.90217-.97149l.01762-.01147c.01171.00765.02342.01524.03519.02288.75935.4919 1.56971.92602 2.4621 1.11205a6.70181 6.70181 0 0 0 .15359.03011l-.61155.4217zm-.18137 6.3196H189.449c-.18968-.00806-.20246-.10413-.20646-.19786-.00472-.11147.06756-.20944.20646-.21536h.97722l.3089-1.12615s.05963-.13943.17947-.15096c.09582-.00926.1782.03119.21793.14708l.46674 1.57933.28591-.89854s.09248-.1638.23932-.13955c.08005.0205.08328.0242.1297.088l.33232.5008h.79573c.00096.00011.14768.01995.1917.12957.05096.12676-.02968.27677-.1917.28364h-.9066c-.09857-.00406-.12671-.0297-.17211-.09236l-.15532-.234-.35934 1.1295s-.06332.13453-.18149.14337c-.09444.00705-.1745-.03333-.21356-.1475l-.45205-1.52962-.15873.5787s-.0721.14635-.19923.15191zm2.22392-6.0194c.04014.97769.0101 1.95688-.15741 2.9234-.07635.44076-.24279 1.04897-.38855 1.47276l-.52451-.1705c.4453-1.17471.553-2.4526.53371-3.7033l.53676-.52237z" fill="#00aded" fill-rule="nonzero"/>
      <path d="M188.51862 57.5792c.03129-.03568.0394-.0591.08606-.12695.26903-.39144 1.0659-1.44673 2.07848-2.25844.44062-.35324.91685-.67436 1.33812-.88486.70208-.35081.92816-.39358 1.25422-.46954.06193-.01442.2862-.05445.3234.03392.0359.0853-.10399.17519-.15647.21643-.05901.04637-1.40842 1.05545-2.54368 2.55402-.98784 1.30389-1.63428 3.0147-1.63428 3.0147-.01986.03799-.24452.43946-.54593.45902-.27857.0181-.63633-.34424-.63633-.34424-.06877-.06417-.40417-.4622-.68325-.95451-.35593-.6277-.66242-1.37176-.66242-1.37176s-.31816-.62588.28165-.9701c.59141-.33942.85484.00518.9832.20862.10969.17388.33069.59624.4375.80283.0372.07196.06126.11186.07973.09085z" fill="#1d58bf" fill-rule="nonzero"/>
    </g>
    <circle cx="88.506" cy="368.331" r="25.699" fill="#d1ceff" transform="translate(-33.01933 -419.33226) scale(1.24681)"/>
    <g>
      <path d="M72.70322 31.51997c-1.28829-2.16884-1.71512-4.9399-.9589-7.68535 1.39848-5.07718 6.31646-8.1573 10.97559-6.87397 4.65912 1.28332 7.30633 6.44723 5.90785 11.5244-.75622 2.74546-2.54174 4.90713-4.75886 6.11044 1.49218-1.30606 2.69146-3.18496 3.3083-5.42441 1.39844-5.07701-.7234-10.0962-4.73527-11.20125-4.01187-1.10504-8.4043 2.11984-9.80272 7.19685-.61685 2.23945-.54878 4.46744.064 6.3533z" fill="#4a41df"/>
      <path d="M67.54961 23.68095l-2.53994-.31091-6.84307 32.05362 1.20437 2.33145 8.17864-34.07416z" fill="#342ada" fill-rule="nonzero"/>
      <path d="M66.75708 23.13525l-7.36405 34.43968 26.80336 5.51828 7.2562-33.5586-26.69551-6.39936z" fill="#6c63ff" fill-rule="nonzero"/>
      <path d="M67.8951 48.228l2.56138-1.89506c.5772.91782 1.27595 1.6768 2.09644 2.27698.82034.59993 1.65499 1.00499 2.50418 1.21502.83984.20772 1.56524.18375 2.17584-.07219.6108-.25589.99733-.71233 1.15991-1.36968.0926-.37435.10477-.71773.03673-1.03012-.06808-.31219-.23693-.6181-.50702-.91741-.2699-.29928-.58302-.5801-.9395-.8427-.35647-.26261-.83858-.57552-1.44626-.9389-.48891-.29537-.89627-.54865-1.22181-.76-.32555-.21135-.69053-.46883-1.09499-.77224-.40466-.30346-.73194-.5855-.98247-.8461-.25034-.26054-.49876-.56896-.74481-.92538-.24606-.35641-.42252-.71008-.52958-1.06105-.10687-.35093-.16607-.74835-.17745-1.19202-.01143-.44348.04273-.90731.1624-1.39112.35454-1.4335 1.11367-2.51478 2.27749-3.24423 1.16381-.72945 2.58532-.96402 4.26491-.70362l.8739-3.5333 2.53355.62663-.90776 3.67022c.82439.38805 1.61423.87648 2.36953 1.4653.7555.58885 1.3814 1.21117 1.87813 1.86686l-2.49301 1.91197c-.6086-.7123-1.27213-1.30031-1.99062-1.76386-.7185-.46355-1.41559-.77878-2.09124-.9459-.82173-.20323-1.51227-.19235-2.0716.03266-.5595.22477-.91604.6477-1.06962 1.26863-.149.60242-.00324 1.1496.43693 1.64124.4404.4915 1.20655 1.07576 2.29862 1.75282.42956.26126.79095.48395 1.0846.66798.29365.18403.61867.39752.975.64067.35652.24319.64851.46319.87597.65999.2275.1966.46861.42593.72363.68762.255.2617.4553.50986.6007.74424.14536.23457.28301.50113.41257.7996.12951.29865.21188.60238.24687.91135.03498.30896.04162.6448.0197 1.0075-.02195.36287-.08255.74492-.18193 1.14673-.36582 1.47908-1.13688 2.57932-2.31317 3.30072-1.17634.7216-2.61107.97956-4.304.77393l-.82982 3.3551-2.53356-.62663.83324-3.36892c-2.09856-.83857-3.75578-2.24653-4.972-4.22333z" fill="#fff" fill-rule="nonzero"/>
    </g>
  </g>
  <defs>
    <linearGradient id="_Linear1" x2="1" gradientUnits="userSpaceOnUse" gradientTransform="rotate(-90 356.05 -16.69) scale(108.26)">
      <stop offset="0" stop-color="gray" stop-opacity=".24706"/>
      <stop offset=".54" stop-color="gray" stop-opacity=".11765"/>
      <stop offset="1" stop-color="gray" stop-opacity=".09804"/>
    </linearGradient>
    <linearGradient id="_Linear2" x2="1" gradientUnits="userSpaceOnUse" gradientTransform="rotate(-90 356.05 -16.69) scale(108.26)">
      <stop offset="0" stop-color="gray" stop-opacity=".24706"/>
      <stop offset=".54" stop-color="gray" stop-opacity=".11765"/>
      <stop offset="1" stop-color="gray" stop-opacity=".09804"/>
    </linearGradient>
    <linearGradient id="_Linear3" x2="1" gradientUnits="userSpaceOnUse" gradientTransform="rotate(-90 356.05 -16.69) scale(108.26)">
      <stop offset="0" stop-color="gray" stop-opacity=".24706"/>
      <stop offset=".54" stop-color="gray" stop-opacity=".11765"/>
      <stop offset="1" stop-color="gray" stop-opacity=".09804"/>
    </linearGradient>
    <linearGradient id="_Linear5" x2="1" gradientUnits="userSpaceOnUse" gradientTransform="rotate(-90 356.05 -16.69) scale(108.26)">
      <stop offset="0" stop-color="gray" stop-opacity=".24706"/>
      <stop offset=".54" stop-color="gray" stop-opacity=".11765"/>
      <stop offset="1" stop-color="gray" stop-opacity=".09804"/>
    </linearGradient>
  </defs>
</svg>
