<?xml version="1.0" encoding="utf-8"?>
<svg viewBox="0 0 600 500" xmlns="http://www.w3.org/2000/svg" xmlns:xlink="http://www.w3.org/1999/xlink" xmlns:serif="http://www.serif.com/" fill-rule="evenodd" clip-rule="evenodd" stroke-linecap="round" stroke-linejoin="round" stroke-miterlimit="1.5">
  <path d="M272.91048 457.96044c43.8601-24.27188 93.96317-32.02863 142.92805-21.62559 69.38399 14.75093 156.58632 8.96893 173.47704-104.83287 28.84739-194.3571-92.03964-245.65527-92.03964-245.65527s-80.39026-6.73239-127.92672-32.3644C301.82617 17.06027 224.6456 12.42216 156.7811 43.23861c-43.39914 19.69067-79.13826 47.10964-85.24464 84.75523C54.4636 233.27629 82.50289 291.28408 30.04947 325.65169c-52.45343 34.3676-7.62587 128.72345 32.58634 125.45685 40.2122-3.2666 131.0795-39.10247 166.48855 2.40727 12.57699 14.72247 28.48887 12.91275 43.78612 4.44463z" fill="#1d58bf" fill-opacity=".1" fill-rule="nonzero"/>
  <path fill="url(#_Linear1)" d="M155.01 231.1h435.45v108.25H155.01z" transform="matrix(.74209 0 0 .74209 49.55684 49.0428)"/>
  <path fill="#fff" d="M166.39116 222.35002h320.43358v76.72447H166.39116z"/>
  <path d="M448.34178 241.46528c0-2.27186-1.84483-4.11653-4.1167-4.11653H252.97083c-2.27242 0-4.1167 1.84467-4.1167 4.11653v8.2335c0 2.27229 1.84428 4.11695 4.1167 4.11695h191.25423c2.27188 0 4.11671-1.84466 4.11671-4.11696v-8.23349z" fill="#3f3d56"/>
  <path d="M448.34178 260.23417c0-1.51458-1.23007-2.74435-2.74447-2.74435H251.5986c-1.51495 0-2.74448 1.22977-2.74448 2.74435v5.48898c0 1.51487 1.22953 2.74464 2.74448 2.74464h193.9987c1.5144 0 2.74447-1.22977 2.74447-2.74464v-5.48898z" fill="#16bd83"/>
  <path d="M309.39697 275.25996c0-1.51457-1.2299-2.74435-2.7445-2.74435H251.5985c-1.51476 0-2.7445 1.22978-2.7445 2.74435v5.489c0 1.51485 1.22974 2.74463 2.7445 2.74463h55.05397c1.5146 0 2.7445-1.22978 2.7445-2.74464v-5.48899z" fill="#9795b1"/>
  <g fill-rule="nonzero">
    <path d="M325.6426 281.2279c.59162 0 .87847-.11696 1.16532-.26893l-.30477-.94122c-.19721.09874-.41235.15267-.55578.15267-.26892 0-.38545-.17998-.38545-.55605v-1.86494h1.19222v-.96784h-1.19222v-1.5596l-1.16532.12535v1.43425h-.51992v.96784h.51992v2.02601c0 .98604.49302 1.45246 1.246 1.45246zM329.68517 276.71016c-.51963 0-.9948.25071-1.32647.71712h-.00896v-.64569h-1.1743v4.37487h1.1743v-2.03511c0-.6457.39442-1.13872 1.12043-1.13872.06303 0 .18839 0 .30464.0091v-1.27317c-.0175-.0084-.05322-.0084-.08964-.0084zM332.93954 276.78159v2.12476c0 .84248-.4573 1.27247-.96854 1.27247-.54695 0-.78855-.26892-.78855-1.07568v-2.32155h-1.16533v2.63529c0 1.3362.6632 1.81102 1.60442 1.81102.49303 0 .96854-.2066 1.29979-.60998h.0182v.53854h1.17444v-4.37487h-1.17443zM336.22892 281.2279c1.14782 0 1.70317-.58267 1.70317-1.36282 0-.85999-.55535-1.06658-1.50568-1.41604-.4307-.16107-.6632-.28713-.6632-.4664 0-.23321.24161-.33126.43-.33126.32284 0 .70801.14357 1.04907.46571l.56445-.86069c-.49302-.38517-.98604-.54624-1.59532-.54624-.8964 0-1.5778.51963-1.5778 1.30889 0 .84248.62748 1.18283 1.3446 1.42514.57356.17928.79766.27803.79766.48392 0 .215-.19679.35856-.53784.35856-.47482 0-.85159-.17018-1.21015-.51123l-.57356.81587c.48392.41248 1.07569.63659 1.7746.63659zM339.7431 281.2279c.59177 0 .8782-.11696 1.16533-.26893l-.30464-.94122c-.19748.09874-.41248.15267-.55605.15267-.26892 0-.38517-.17998-.38517-.55605v-1.86494h1.19194v-.96784h-1.19194v-1.5596l-1.16533.12535v1.43425h-.52033v.96784h.52033v2.02601c0 .98604.49303 1.45246 1.24587 1.45246z" fill="#1d58bf"/>
    <path d="M343.79513 276.71016c-.53784 0-.99514.19679-1.3271.57356h-.0175v-.50213h-1.17443v6.14947h1.17443v-2.26762h.0175c.30464.35786.73534.56446 1.29069.56446 1.21925 0 2.09744-.8964 2.09744-2.25012 0-1.3264-.8873-2.26762-2.06103-2.26762zm-.25141 3.46866c-.63659 0-1.13871-.47481-1.13871-1.19194 0-.69891.4664-1.22835 1.13871-1.22835.62748 0 1.1205.47551 1.1205 1.22835 0 .70802-.4573 1.19194-1.1205 1.19194zM349.20928 276.78159v2.12476c0 .84248-.45731 1.27247-.96854 1.27247-.54695 0-.78856-.26892-.78856-1.07568v-2.32155h-1.16532v2.63529c0 1.3362.6632 1.81102 1.60442 1.81102.49302 0 .96854-.2066 1.29979-.60998h.0182v.53854h1.17444v-4.37487h-1.17443zM351.13654 274.55879h1.1743v6.59753h-1.1743zM354.51557 281.2279c1.14782 0 1.70317-.58267 1.70317-1.36282 0-.85999-.55535-1.06658-1.50568-1.41604-.43-.16107-.6632-.28713-.6632-.4664 0-.23321.2416-.33126.43-.33126.32284 0 .70801.14357 1.04907.46571l.56445-.86069c-.49302-.38517-.98604-.54624-1.59532-.54624-.8964 0-1.57781.51963-1.57781 1.30889 0 .84248.62748 1.18283 1.3446 1.42514.57356.17928.79767.27803.79767.48392 0 .215-.1968.35856-.53785.35856-.47481 0-.85158-.17018-1.21014-.51123l-.57356.81587c.48392.41248 1.07568.63659 1.7746.63659zM360.70986 278.92386c0-1.28158-.86069-2.2137-2.14226-2.2137-1.24587 0-2.16958.92301-2.16958 2.24941 0 1.37192.96853 2.26833 2.25011 2.26833.8782 0 1.51479-.34946 1.89156-.82498l-.76195-.70802c-.2423.29554-.58266.50213-1.04907.49303-.56446 0-.97694-.32285-1.1205-.84248h3.07508c.02661-.07214.02661-.27803.02661-.4216zm-2.10655-1.18284c.51123 0 .82497.30464.94123.76195h-1.92727c.13446-.50213.51123-.76195.98604-.76195z" fill="#00aded"/>
  </g>
  <path d="M319.7257 275.30226c-.38986-.10527-.77052-.2453-1.1363-.42481-.31036-.15228-.60971-.32576-.90303-.50838a4.2806 4.2806 0 0 1-.01709.01057c-.77207.47911-1.59295.8661-2.50487 1.03732-.32905.06177-.66186.10054-.99532.12897l-.01064.0009c-.08214 1.83573.04033 3.72786 1.01522 5.302.59422.95948 1.51362 1.67796 2.48731 2.27518l.02539.01547c.39846-.2435.78982-.50318 1.15399-.79322h.82667c-.58592.55146-1.2694 1.0136-1.96423 1.42616-.03256-.02228-.03286 0-.03286 0-.87644-.52039-1.7297-1.09562-2.39376-1.85939-.4511-.51878-.80828-1.11492-1.0657-1.76017-.64685-1.6215-.68783-3.42665-.57505-5.12152.71688-.04272 1.44492-.1116 2.13115-.33287.67679-.21823 1.30011-.58061 1.90217-.97149l.01762-.01147c.0117.00765.02342.01524.03519.02289.75934.49189 1.56971.92602 2.4621 1.11205a6.70182 6.70182 0 0 0 .15359.0301l-.61155.4217zm-.18137 6.3196h-1.13481c-.18968-.00807-.20246-.10413-.20646-.19786-.00472-.11147.06756-.20944.20646-.21536h.97721l.30892-1.12615s.05962-.13943.17946-.15096c.09582-.00926.1782.03118.21793.14708l.46674 1.57933.28591-.89854s.09248-.1638.23932-.13955c.08005.02049.08328.0242.1297.088l.33232.5008h.79574c.00095.00011.14767.01994.1917.12957.05096.12676-.0297.27677-.1917.28364h-.90661c-.09857-.00406-.1267-.0297-.17211-.09236l-.15532-.234-.35934 1.1295s-.06332.13453-.18149.14337c-.09444.00705-.1745-.03333-.21356-.1475l-.45205-1.52962-.15873.5787s-.0721.14635-.19923.1519zm2.22392-6.01941c.04015.9777.0101 1.95688-.15741 2.92341-.07635.44076-.24278 1.04897-.38855 1.47276l-.52451-.1705c.4453-1.17472.553-2.4526.53371-3.70331l.53676-.52236z" fill="#00aded" fill-rule="nonzero"/>
  <path d="M317.47913 278.11795c.0313-.03567.03942-.0591.08607-.12694.26902-.39144 1.0659-1.44674 2.07848-2.25845.44062-.35324.91685-.67436 1.33812-.88485.70208-.35082.92816-.39358 1.25422-.46955.06193-.01441.2862-.05444.3234.03392.0359.0853-.10398.1752-.15647.21644-.05901.04636-1.40842 1.05544-2.54368 2.55401-.98784 1.3039-1.63428 3.0147-1.63428 3.0147-.01987.038-.24452.43947-.54593.45902-.27857.01812-.63633-.34423-.63633-.34423-.06877-.06417-.40417-.4622-.68325-.95452-.35593-.62769-.66242-1.37175-.66242-1.37175s-.31816-.62589.28165-.9701c.5914-.33943.85484.00518.9832.20862.10968.17387.33068.59624.4375.80282.0372.07196.06126.11187.07972.09086z" fill="#1d58bf" fill-rule="nonzero"/>
  <g>
    <circle cx="88.506" cy="368.331" r="25.699" fill="#16bd83" transform="matrix(1.18365 0 0 1.18365 100.94546 -175.28964)"/>
    <use xlink:href="#_Image2" x="181.346" y="244.303" width="49.842" height="52.476" transform="matrix(.99684 0 0 .99012 -.00022 -.0002)"/>
  </g>
  <g>
    <path d="M170.49794 160.88521a7.8653 7.8653 0 0 1-2.90097 1.10064c-3.78148.11007-6.89472-10.12589-6.89472-10.12589s1.07705-1.08491 2.7909-2.61008c5.06295-4.51263 15.72343-12.83032 20.67631-8.17619 5.57396 5.22018-7.16988 16.28947-13.67152 19.81152zM113.06026 404.85777l-13.93881 15.02374s-12.90108.1415-10.37747-6.97334a26.13126 26.13126 0 0 0 1.0692-4.71703c.64073-5.05273.94498-10.1424.91196-15.236 0-3.34123-.05504-5.68402-.05504-5.68402s20.31467-8.89946 18.23918.3695c-.25944 1.1596-.39938 2.342-.41667 3.5299-.00393 3.434.7901 6.82319 2.3192 9.8979.62344 1.33414 1.3766 2.60302 2.24845 3.78935z" fill="#ecb4b6" fill-rule="nonzero"/>
    <path d="M145.41122 427.53095c-4.72961 4.02992-10.77684 6.19032-16.98917 6.06925-11.49382-.17296-33.0192-.50315-37.97994-.71542-6.66673-.28302-4.45759-5.98276-4.23746-9.91362v-.39309c.07076-3.93085.88837-12.45295 2.19342-13.78944 1.30504-1.3365 5.88842 5.92773 5.88842 5.92773s8.89946 2.60223 11.34446-5.18873c2.44499-7.79096 7.42931-8.51424 7.42931-8.51424 2.26418-.98271 2.35852 4.88999 2.35852 4.88999l18.86811 9.70922 11.05357 1.7453c.35378.1651.68397.33019.98272.48742 4.95287 2.75946 2.74373 6.51736-.91196 9.68563z" fill="#6c63ff" fill-rule="nonzero"/>
    <circle cx="169.35" cy="649.12" r="1.04" fill="#fff" fill-opacity=".25" transform="translate(-22.52281 -98.55965) scale(.78617)"/>
    <circle cx="179.06" cy="653.93" r="1.04" fill="#fff" fill-opacity=".25" transform="translate(-22.52281 -98.55965) scale(.78617)"/>
    <circle cx="184.06" cy="656.17" r="1.04" fill="#fff" fill-opacity=".25" transform="translate(-22.52281 -98.55965) scale(.78617)"/>
    <circle cx="194.44" cy="660.15" r="1.04" fill="#fff" fill-opacity=".25" transform="translate(-22.52281 -98.55965) scale(.78617)"/>
    <circle cx="189.16" cy="658.45" r="1.04" fill="#fff" fill-opacity=".25" transform="translate(-22.52281 -98.55965) scale(.78617)"/>
    <path d="M145.41122 427.53095c-4.72961 4.02992-10.77684 6.19032-16.98917 6.06925-11.49382-.17296-33.0192-.50315-37.97994-.71542-6.66673-.28302-4.45759-5.98276-4.23746-9.91362l41.9108 2.5865s17.16212-2.60222 18.18414-7.7202c4.97646 2.76732 2.76732 6.52522-.88837 9.6935z" fill="#6c63ff" fill-rule="nonzero"/>
    <path d="M145.41122 427.358c-4.72647 4.0362-10.77527 6.19738-16.98917 6.06924-11.49382-.1651-33.0192-.49529-37.97207-.70756-6.6746-.29088-4.46546-5.99062-4.24533-9.92148l41.9108 2.5865s17.16212-2.60222 18.18414-7.71234c4.97646 2.76733 2.76732 6.52523-.88837 9.68564z" fill="#fff" fill-opacity=".25" fill-rule="nonzero"/>
    <path d="M67.3837 367.04293c-1.5464 1.25316-2.956 2.66512-4.206 4.21388-4.15886 4.83495-9.30042 12.06773-11.85547 15.72342l-1.57235 2.31135-5.57395-.85693s-6.00635-9.19034-5.92773-9.43406c.07861-.2437 4.71703-10.08657 4.71703-10.08657l1.80819-2.1148 5.69188-6.65888 2.57864-3.0189s19.38699 6.28938 14.33977 9.92149z" fill="#ecb4b6" fill-rule="nonzero"/>
    <path d="M45.08789 398.65488s-3.71073 8.01109-5.71547 12.57874c-2.00473 4.56766-1.25787 7.93247-1.25787 7.93247a7.31259 7.31259 0 0 1-.6368 1.72172c-.91196 1.81605-3.0189 4.46545-7.59442 4.8035a2.65628 2.65628 0 0 1-.35377 0c-6.76108-.18082-8.90732-19.80365-8.90732-19.80365s1.02988-37.3746 2.956-39.74883c.26966-.26572.61164-.44654.98271-.51887 1.9678-.34199 3.97567-.39545 5.95918-.15724 6.11642.44026 13.97027 1.94185 13.97027 1.94185h1.4151c-4.97646 5.18873.36165 16.60394.36165 16.60394s2.35851.22799 4.2296 3.56135c1.87109 3.33337-5.40886 11.08502-5.40886 11.08502z" fill="#6c63ff" fill-rule="nonzero"/>
    <circle cx="75.64" cy="618.27" r="1.04" fill="#fff" fill-opacity=".25" transform="translate(-22.52281 -98.55965) scale(.78617)"/>
    <circle cx="75.13" cy="626.51" r="1.04" fill="#fff" fill-opacity=".25" transform="translate(-22.52281 -98.55965) scale(.78617)"/>
    <path d="M36.94315 420.73843c-1.44734 2.87818-4.37347 4.73197-7.59441 4.81137h-.35378c-6.76107-.1651-8.91518-19.81938-8.91518-19.81938s1.03774-37.36672 2.96386-39.74096c.26573-.27202.60929-.45598.98272-.52674 1.96621-.33412 3.97016-.3868 5.95131-.15723-.11006 6.7139-.43239 27.9484.03931 30.05533.4717 2.10694 4.23747 19.7329 6.92617 25.37761z" fill="#6c63ff" fill-rule="nonzero"/>
    <path d="M37.43058 420.87994c-1.44813 2.8766-4.37504 4.72725-7.59442 4.80351a2.65628 2.65628 0 0 1-.35377 0c-6.76894-.18082-8.91519-19.80366-8.91519-19.80366s1.03775-37.37458 2.96387-39.74882c.26494-.2673.60535-.44812.97485-.51887 1.96779-.34199 3.97567-.39466 5.95918-.15724-.11006 6.7139-.4324 27.9484 0 30.05533.4324 2.10694 4.26891 19.71718 6.96548 25.36975z" fill="#fff" fill-opacity=".25" fill-rule="nonzero"/>
    <path d="M28.99496 425.5498c-6.76107-.1651-8.91518-19.81938-8.91518-19.81938s1.03774-37.36672 2.96386-39.74096c.26573-.27202.60929-.45598.98272-.52674 1.4151 2.1148 2.65726 6.78466 1.57234 17.05992-2.1148 19.4656.4324 20.68417.4324 20.68417s3.1211 16.53318 2.96386 22.343z" fill="#6c63ff" fill-rule="nonzero"/>
    <path d="M28.93993 425.5498c-6.76108-.1651-8.91518-19.81938-8.91518-19.81938s1.03774-37.36672 2.96386-39.74096c.26573-.27202.60928-.45598.98272-.52674 1.4151 2.1148 2.65725 6.78466 1.57234 17.05992-2.1148 19.4656.4324 20.68417.4324 20.68417s3.11323 16.53318 2.96386 22.343z" fill-opacity=".1" fill-rule="nonzero"/>
    <path d="M146.24456 157.20593s3.14468.22013 5.11797-1.11636c1.9733-1.3365 10.56615-5.00792 10.78627-7.4529 0 0 5.11798 12.4608 8.0111 12.90106 0 0-8.89947 7.01265-9.56771 9.23752-.66825 2.22486-18.01905 7.67303-18.01905 7.67303l3.67142-21.24235z" fill="#ff748e" fill-rule="nonzero"/>
    <path d="M146.24456 157.20593s3.14468.22013 5.11797-1.11636c1.9733-1.3365 10.56615-5.00792 10.78627-7.4529 0 0 5.11798 12.4608 8.0111 12.90106 0 0-8.89947 7.01265-9.56771 9.23752-.66825 2.22486-18.01905 7.67303-18.01905 7.67303l3.67142-21.24235z" fill="#6c63ff" fill-rule="nonzero"/>
    <path d="M99.12145 303.94481S88.24083 318.47326 84.2628 320.1085c-3.97803 1.63523-33.63241 37.96421-33.63241 37.96421s6.37585 11.71396 18.08194 13.64008c0 0 6.37585-2.52361 8.75009-8.1526 2.37423-5.62899 21.08511-21.50965 21.08511-21.50965l.5739-38.10573z" fill="#5e5a6b" fill-rule="nonzero"/>
    <path d="M99.12145 303.94481S88.24083 318.47326 84.2628 320.1085c-3.97803 1.63523-33.63241 37.96421-33.63241 37.96421s6.37585 11.71396 18.08194 13.64008c0 0 6.37585-2.52361 8.75009-8.1526 2.37423-5.62899 21.08511-21.50965 21.08511-21.50965l.5739-38.10573z" fill-opacity=".1" fill-rule="nonzero"/>
    <path d="M144.93165 194.20315l-.22799 4.10382-1.83178 34.46575s-1.48586 7.71234-.88837 22.5474c.59749 14.83505-8.30983 38.2551-8.30983 38.2551s-4.30036 15.8728-5.63685 23.13702c-1.3365 7.26422-5.5032 9.48909-5.5032 9.48909s1.03775 8.16045-1.92612 11.0064c-2.96387 2.84594-3.14469 7.56296-3.14469 7.56296s-4.5991 25.5034-6.0771 28.02701c-1.478 2.52361-1.3365 15.8728-1.3365 15.8728-9.63845 11.41521-23.72664 1.03775-23.72664 1.03775l.14937-35.73935s4.00161-32.92486 6.96548-37.52396c2.96386-4.5991 2.96386-17.20143 2.96386-17.20143l-1.3129-29.3635s-1.05347-3.14469-.14938-4.88999c.9041-1.7453-2.53933-6.6746-2.53933-6.6746-8.30197-10.08657-9.48909-32.77548-7.07554-37.2252 2.41354-4.44974 9.61487-22.2408 9.61487-22.2408l9.92149-5.78621 17.9247.5346 22.14645.60534z" fill="#5e5a6b" fill-rule="nonzero"/>
    <path d="M142.57314 141.18376v9.82714l-6.46233-2.78305-6.43874-2.77518-14.01744-13.78945s-11.08502-7.20919-17.02061-13.77372c-3.3884-3.74218-5.09439-7.27995-2.10694-9.14317 1.44341-.9497 2.74767-2.09594 3.87583-3.40413a63.32041 63.32041 0 0 0 7.73592-11.40734l.27516-.50315c2.88525-5.29094 4.79565-9.81928 4.79565-9.81928s8.129 2.61009 13.36491 6.28937c.42453.29088.82548.59749 1.20284.9041 2.9167 2.39782 4.36325 5.16514 1.6824 7.9246a19.3845 19.3845 0 0 0-1.91825 2.28776c-.4316.603-.82862 1.23036-1.18712 1.87895-.1651.28302-.31447.5739-.45598.86479-1.79954 3.67928-2.42062 7.82634-1.77674 11.87119l18.45144 25.55057z" fill="#ecb4b6" fill-rule="nonzero"/>
    <path d="M129.45194 98.69906a19.3845 19.3845 0 0 0-1.91826 2.28776c-.4316.60299-.82863 1.23035-1.18712 1.87894-.1651.28303-.31447.57391-.45598.8648-6.93717-.37816-13.3539-3.84203-17.47659-9.43406-.09434-.13365-.18868-.25944-.27516-.39309l.27516-.50315c2.88525-5.29093 4.79565-9.81928 4.79565-9.81928s8.129 2.61009 13.36491 6.28937c.42453.29089.82548.5975 1.20284.9041 2.90884 2.39782 4.3554 5.20445 1.67455 7.9246z" fill-opacity=".1" fill-rule="nonzero"/>
    <path d="M150.56064 79.52434v.01572c0 12.80437-10.53706 23.34143-23.34143 23.34143h-.9041c-12.48911-.4544-22.51594-10.85231-22.51594-23.3493 0-12.81773 10.54727-23.365 23.365-23.365 12.81775 0 23.36502 10.54727 23.36502 23.365v.00787l.03145-.01572z" fill="#ecb4b6" fill-rule="nonzero"/>
    <path d="M130.70981 137.2529s11.79257 6.64315 8.75009 1.03775l-15.34607-22.65746 17.42156 22.39802s11.12433 15.2753 5.03936 25.80214c0 0-.88837 8.7501.14937 10.82558 1.03775 2.0755-.29874 24.17477-.29874 24.17477s-4.15099-3.8601-6.37585-3.14468c-2.22487.71541-17.91685 2.07549-17.91685 2.07549l8.57713-60.51161z" fill="#464353" fill-rule="nonzero"/>
    <path d="M136.99918 148.65238c-.69183 7.12272-3.62425 15.6055-3.62425 15.6055s-2.06763 21.06154-4.71703 27.29588c-2.6494 6.23434-1.48586 14.82719-2.96386 30.66068-.5346 5.71547-2.35852 9.63846-4.85854 12.28786-4.0881 4.35539-9.91362 5.26735-14.52059 5.00005l-1.09277-.08648c-7.4136-.739-14.52845-36.47835-14.52845-36.47835s-3.41198-30.40125-2.0755-34.55223c1.3365-4.15099-1.33648-27.8855-2.22486-33.07423-.56604-3.2862 1.13209-8.64789 2.45286-12.16207.78617-2.0126 1.39938-3.41199 1.39938-3.41199s2.52361-8.00322 6.6746-12.1542c1.15567-1.18713 2.7461-1.85459 4.40256-1.84751 1.9552.06997 3.85617.6651 5.5032 1.72172l.18868.12578s26.98926 27.5789 29.505 33.95474c.67612 1.80034.74687 4.34753.47957 7.11485z" fill-opacity=".1" fill-rule="nonzero"/>
    <path d="M136.1108 148.18854c-.69182 7.13058-3.62424 15.61337-3.62424 15.61337s-2.0755 21.06153-4.71703 27.288c-2.64153 6.22648-1.48586 14.8272-2.97173 30.66069-.52673 5.7076-2.35851 9.6306-4.85854 12.28786-4.08023 4.35539-9.90576 5.25948-14.51272 4.99218-.37736 0-.73114-.04717-1.09278-.08647-7.4136-.739-14.52844-36.47836-14.52844-36.47836s-3.41199-30.40124-2.0755-34.55223c1.3365-4.15098-1.33649-27.87763-2.22486-33.07423-.56605-3.2862 1.13208-8.64788 2.45285-12.1542.78617-2.02047 1.39939-3.41199 1.39939-3.41199s2.5236-8.01109 6.6746-12.16207c1.1541-1.18476 2.74059-1.85222 4.3947-1.8475 1.95441.07468 3.85459.66903 5.50319 1.72171l.19654.12579s26.98927 27.58675 29.50501 33.9626c.65253 1.81606.74687 4.36325.47957 7.11485z" fill="#6c63ff" fill-rule="nonzero"/>
    <path d="M105.8668 256.74309s-6.11642 5.45603-8.23122 5.22804c-2.1148-.228 8.23122-5.22804 8.23122-5.22804zM107.49417 261.97899s-6.4466 2.99531-8.37272 3.44343c-1.92612.44812 5.88842-4.21388 8.37272-3.44343zM110.54452 252.427s-6.10856 26.58046 6.17144 28.24714c12.28 1.66669 8.50638-30.25187 8.50638-30.25187l-14.67782 2.00474z" fill-opacity=".1" fill-rule="nonzero"/>
    <path d="M110.0964 251.96316s-6.10855 26.58046 6.1793 28.255c12.28786 1.67455 8.49852-30.25973 8.49852-30.25973l-14.67782 2.00473z" fill="#ecb4b6" fill-rule="nonzero"/>
    <path d="M120.60751 140.374c-.62894-15.975-22.98765-19.27692-28.19997-4.1667l-.11006.3066c-3.40412 10.22023-1.92612 36.16388-1.92612 36.16388s.44812 17.39797 2.0755 23.17633c1.62737 5.77836 6.22647 22.39803 6.22647 25.06315 0 2.66512 4.26105 12.90107 6.06138 13.64793 1.80033.74686 2.70443 6.52522 3.14469 7.56297.44025 1.03775 1.76888 14.52845 1.76888 14.52845s16.76117-1.03775 17.05992-3.70287c.29874-2.66512-3.71073-15.72343-3.71073-15.72343s-2.956-5.3381-3.33337-9.63846c-.37736-4.30036-2.74373-6.22648-2.30348-9.19034.44026-2.96387-1.33649-4.44973-1.33649-6.38371s-1.32863-7.11485-1.32863-7.11485-2.82235-2.22487-2.35851-4.88999c.46384-2.66512-4.00162-8.01109-2.8145-9.9372 1.18712-1.92613 1.478-6.6746 1.478-6.6746s1.47015-21.38386 2.4843-27.16222c1.01417-5.77836 7.07555-15.12594 7.07555-15.12594s.0629-.2673.04717-.739z" fill-opacity=".1" fill-rule="nonzero"/>
    <path d="M119.91568 234.07777c-4.08023 4.35538-9.90576 5.25948-14.51272 4.99218-.52674-2.02046-1.30505-4.50476-2.445-4.97646-1.80033-.739-6.06138-11.0064-6.06138-13.64007 0-2.63368-4.5991-19.28479-6.22648-25.06315-1.62737-5.77836-2.07549-23.15274-2.07549-23.15274s-1.48586-25.94366 1.92612-36.16389c.03931-.1022.07076-.2044.1022-.31447 5.22018-15.1102 27.57103-11.79257 28.20783 4.17457v.73114s-6.08496 9.33972-7.07554 15.12594c-.99058 5.78622-2.52361 27.13864-2.52361 27.13864s-.29875 4.71702-1.48586 6.6746c-1.18712 1.95756 3.2626 7.27208 2.82235 9.9372-.44025 2.66512 2.35852 4.89784 2.35852 4.89784s1.33649 5.18087 1.33649 7.11486c0 1.93398 1.77674 3.41198 1.33649 6.37585-.44026 2.96386 1.92612 4.88998 2.30348 9.1982a24.11451 24.11451 0 0 0 2.0126 6.94976z" fill-opacity=".1" fill-rule="nonzero"/>
    <path d="M119.71914 139.93374c-.6368-15.975-22.98765-19.28478-28.20783-4.1667 0 .1022-.0629.2044-.1022.3066-3.41199 10.22023-1.92612 36.16389-1.92612 36.16389s.44811 17.3901 2.07549 23.17633c1.62737 5.78622 6.20289 22.36657 6.20289 25.03956 0 2.67298 4.26105 12.90107 6.06138 13.64007 1.80033.739 2.70443 6.52522 3.14469 7.56297.44025 1.03774 1.80033 14.5363 1.80033 14.5363s16.76117-1.03774 17.05206-3.71072c.29088-2.67299-3.70287-15.72343-3.70287-15.72343s-2.956-5.3381-3.33337-9.63846c-.37736-4.30036-2.7516-6.23434-2.30348-9.1982.44812-2.96387-1.3365-4.44974-1.3365-6.37586s-1.32862-7.1227-1.32862-7.1227-2.82236-2.22487-2.35852-4.89c.46385-2.66512-4.00947-8.01108-2.82235-9.9372 1.18712-1.92612 1.48586-6.6746 1.48586-6.6746s1.48587-21.35241 2.52361-27.13863c1.03775-5.78622 7.07555-15.12594 7.07555-15.12594s.05503-.25157 0-.72328z" fill="#6c63ff" fill-rule="nonzero"/>
    <path d="M83.71249 106.19913c.20047.22956.3522.49686.44812.78617.32783-1.02595.16195-2.14782-.44812-3.03462-.39309-.44812-.97485-.72328-1.32863-1.20284 0-.03931-.04717-.08648-.07862-.12579-.39702.74293-.36636 1.64389.07862 2.35852.35378.51887.93554.78617 1.32863 1.21856zM95.03336 77.39381c0-.8412.0393-1.6824 0-2.51575-.14938-3.02676-.71542-6.13213-.8412-9.16675-.18083 3.71859.65251 7.618.8412 11.39162v.29088z" fill-rule="nonzero"/>
    <path d="M173.73697 154.53295l.45598.31447c-.82784-.5692-1.0409-1.71936-.4717-2.5472l20.61341-29.92168c.57233-.82941 1.72486-1.04168 2.55506-.4717l-.46384-.31447c.80897.54796 1.29482 1.46385 1.29482 2.44106 0 .58963-.17767 1.16668-.50865 1.65489l-19.35554 28.0899c-.54482.80661-1.45678 1.2909-2.43006 1.2909-.60456 0-1.19498-.1879-1.68948-.53617z" fill="#464353" fill-rule="nonzero"/>
    <path d="M196.52585 121.6438l.47911.33001-22.69098 32.94175-.45968-.31663c-.6183-.4259-.77646-1.28423-.35056-1.90254l21.139-30.68866c.42055-.61054 1.26544-.77413 1.88311-.36394z" fill="#9f9eff" fill-rule="nonzero"/>
    <path d="M192.32025 126.13702c.05378-.07735.03471-.18335-.04265-.23713l-.0232-.01613c-.07736-.05378-.18336-.03471-.23714.04265l-1.6652 2.39557c-.05378.07735-.03471.18335.04265.23713l.0232.01613c.07737.05378.18336.03471.23714-.04265l1.6652-2.39557z" fill="#464353"/>
    <path d="M153.4852 75.79788c-.3302-1.57234-1.63524-2.77518-2.53148-4.1274-2.24845-3.3884-1.89467-7.8617-.8412-11.79257a8.41365 8.41365 0 0 0 .4717-3.34122c-.30031-1.45206-1.20048-2.7123-2.47644-3.46702-2.7516-1.81606-6.28937-1.83964-9.38688-2.97959-4.4969-1.66668-8.56927-5.7705-13.26271-4.77206-2.56292.54246-4.53621 2.52361-6.75322 3.93086-2.44577 1.54482-5.26105 2.40804-8.1526 2.50002-2.42926.07076-4.88998-.40094-7.27994 0-.43003.07312-.85142.18868-1.25787.34592-2.02282-.69734-4.1502-1.0409-6.28937-1.01416-2.10616-.04796-4.18008.52988-5.95918 1.65882-3.23117 2.2799-4.0881 6.69032-4.04092 10.64476.04717 3.95444.71541 8.01895-.4953 11.79257-1.50158 4.67772-5.7469 8.2548-6.59597 13.09761-.58963 3.2862.50315 6.6117 1.47014 9.81142 2.78305 9.19035 4.62269 19.34768.92768 28.2157-.93554 2.24844-2.35851 4.4733-4.55193 5.5032l7.86171-.46385c.34513 2.31056-1.2673 4.49769-3.57708 4.85068a18.21192 18.21192 0 0 0 5.75478-1.3129c1.85222-.78382 3.20758-2.42692 3.62425-4.3947.14937-1.05347-.07076-2.16198.22013-3.19186.511-1.76102 2.35851-2.73588 3.78148-3.8601 3.82866-2.9796 5.63685-8.00323 5.78622-12.8539.14938-4.85068-1.13995-9.62274-2.51575-14.27688-1.3758-4.65413-2.8538-9.34757-3.07393-14.19039a18.40753 18.40753 0 0 1 .48743-5.28307c.28302.52673.5975 1.0456.91982 1.57234 1.89467 2.89311 4.11168 5.63685 5.27521 8.8916.40645 1.54011.95913 3.03855 1.65096 4.47331.78617 1.3758 2.31134 2.51575 3.89155 2.27204 1.5802-.24371 2.75946-1.94184 3.27833-3.56136.51888-1.6195.74687-3.3884 1.72958-4.77206 1.87109-2.61009 5.6054-2.84594 8.81298-2.7516 6.76108.21227 16.08507 1.24215 21.376-3.93085 1.0063-.98272 1.48586-2.49217 3.0582-2.12267 1.40725.3302 2.19343 2.61796 3.69501 3.14469 2.41355.77045 5.53465-1.52517 4.9686-4.24533z" fill="#464353" fill-rule="nonzero"/>
    <path d="M85.72509 61.87479c0 .51101-.03931 1.02988 0 1.53303 0 1.65096.1415 3.31765.19654 4.97647.04717-2.14625-.12579-4.33967-.19654-6.5095zM83.04424 113.825c.2044-6.10856-1.18712-12.41365-2.97173-18.32566a34.98924 34.98924 0 0 1-1.57234-6.52522c-.3302 3.06606.65252 6.14786 1.57234 9.11958a63.14764 63.14764 0 0 1 2.97173 15.7313zM149.34207 64.18613a23.36905 23.36905 0 0 1 .78617-4.30822 8.41365 8.41365 0 0 0 .4717-3.34122c-.03065-.20048-.07782-.3978-.1415-.58963-.09434.44812-.21227.89623-.3302 1.34435-.65566 2.23587-.92139 4.56844-.78617 6.89472z" fill-rule="nonzero"/>
  </g>
  <g>
    <path d="M590.46 285.225c0-29.872-24.253-54.125-54.125-54.125h-327.2c-29.872 0-54.125 24.253-54.125 54.125s24.253 54.125 54.125 54.125h327.2c29.872 0 54.125-24.253 54.125-54.125z" fill="url(#_Linear3)" transform="matrix(.74209 0 0 .74209 82.6893 -118.21955)"/>
    <path d="M519.95786 93.45023c0-21.17255-17.18975-38.3623-38.36229-38.3623H237.8861c-21.17254 0-38.3623 17.18975-38.3623 38.3623 0 21.17254 17.18976 38.36229 38.3623 38.36229h243.70947c21.17254 0 38.3623-17.18975 38.3623-38.3623z" fill="#fff"/>
    <path d="M481.47507 74.20377c0-2.27187-1.84484-4.11654-4.11672-4.11654H286.10373c-2.27243 0-4.11672 1.84467-4.11672 4.11654v8.2335c0 2.2723 1.84429 4.11696 4.11672 4.11696h191.25462c2.27188 0 4.11672-1.84466 4.11672-4.11696v-8.2335z" fill="#3f3d56"/>
    <path d="M481.47507 92.97174c0-1.51458-1.23008-2.74436-2.74448-2.74436h-193.9991c-1.51496 0-2.74448 1.22978-2.74448 2.74436v5.489c0 1.51486 1.22952 2.74464 2.74448 2.74464h193.9991c1.5144 0 2.74448-1.22978 2.74448-2.74464v-5.489z" fill="#6c63ff"/>
    <path d="M342.52958 107.99765c0-1.51458-1.2299-2.74436-2.7445-2.74436H284.7312c-1.51476 0-2.74449 1.22978-2.74449 2.74436v5.489c0 1.51486 1.22973 2.74464 2.7445 2.74464h55.05389c1.5146 0 2.74449-1.22978 2.74449-2.74464v-5.489z" fill="#9795b1"/>
    <g serif:id="text" fill-rule="nonzero">
      <path d="M358.77597 113.96639c.59162 0 .87847-.11695 1.16532-.26892l-.30477-.94123c-.19721.09875-.41235.15267-.55578.15267-.26892 0-.38545-.17998-.38545-.55605v-1.86495h1.19222v-.96783h-1.19222v-1.55961l-1.16533.12536v1.43425h-.51991v.96783h.51991v2.02602c0 .98605.49303 1.45246 1.246 1.45246zM362.81855 109.44864c-.51964 0-.9948.25072-1.32647.71713h-.00897v-.6457h-1.17429v4.37489h1.1743v-2.03512c0-.6457.39441-1.13872 1.12043-1.13872.06303 0 .18839 0 .30464.0091v-1.27317c-.0175-.0084-.05323-.0084-.08964-.0084zM366.07292 109.52008v2.12476c0 .84248-.4573 1.27247-.96854 1.27247-.54694 0-.78855-.26892-.78855-1.07568v-2.32155h-1.16533v2.63529c0 1.3362.6632 1.81102 1.60443 1.81102.49302 0 .96853-.2066 1.29978-.60998h.01821v.53855h1.17443v-4.37488h-1.17443zM369.36231 113.96639c1.14782 0 1.70317-.58266 1.70317-1.36282 0-.85999-.55535-1.06658-1.50568-1.41604-.4307-.16107-.6632-.28713-.6632-.46641 0-.2332.24161-.33125.43-.33125.32284 0 .70802.14356 1.04907.46571l.56446-.86069c-.49303-.38517-.98605-.54625-1.59533-.54625-.8964 0-1.57781.51964-1.57781 1.3089 0 .84248.62748 1.18283 1.3446 1.42514.57357.17928.79767.27803.79767.48392 0 .215-.19679.35856-.53784.35856-.47482 0-.85159-.17017-1.21015-.51123l-.57356.81587c.48392.41249 1.07569.63659 1.7746.63659zM372.8765 113.96639c.59177 0 .8782-.11695 1.16533-.26892l-.30464-.94123c-.19749.09875-.41248.15267-.55605.15267-.26892 0-.38517-.17998-.38517-.55605v-1.86495h1.19194v-.96783h-1.19194v-1.55961l-1.16533.12536v1.43425h-.52034v.96783h.52034v2.02602c0 .98605.49302 1.45246 1.24586 1.45246z" fill="#1d58bf"/>
      <path d="M376.92854 109.44864c-.53784 0-.99515.1968-1.3271.57356h-.01751v-.50212h-1.17443v6.14948h1.17443v-2.26763h.0175c.30465.35787.73534.56446 1.2907.56446 1.21925 0 2.09744-.8964 2.09744-2.25012 0-1.3264-.8873-2.26763-2.06103-2.26763zm-.25141 3.46867c-.6366 0-1.13872-.47481-1.13872-1.19194 0-.69891.46641-1.22835 1.13872-1.22835.62748 0 1.1205.47551 1.1205 1.22835 0 .70803-.4573 1.19194-1.1205 1.19194zM382.3427 109.52008v2.12476c0 .84248-.45732 1.27247-.96855 1.27247-.54694 0-.78855-.26892-.78855-1.07568v-2.32155h-1.16533v2.63529c0 1.3362.6632 1.81102 1.60443 1.81102.49302 0 .96853-.2066 1.29978-.60998h.01821v.53855h1.17443v-4.37488h-1.17443zM384.26997 107.29727h1.17429v6.59755h-1.1743zM387.649 113.96639c1.14782 0 1.70317-.58266 1.70317-1.36282 0-.85999-.55535-1.06658-1.50568-1.41604-.43-.16107-.6632-.28713-.6632-.46641 0-.2332.2416-.33125.42999-.33125.32285 0 .70802.14356 1.04907.46571l.56446-.86069c-.49302-.38517-.98605-.54625-1.59532-.54625-.8964 0-1.57782.51964-1.57782 1.3089 0 .84248.62749 1.18283 1.34461 1.42514.57356.17928.79766.27803.79766.48392 0 .215-.19679.35856-.53784.35856-.47482 0-.85159-.17017-1.21015-.51123l-.57356.81587c.48392.41249 1.07569.63659 1.7746.63659zM393.8433 111.66235c0-1.28158-.86069-2.2137-2.14227-2.2137-1.24586 0-2.16958.92301-2.16958 2.24941 0 1.37192.96854 2.26833 2.25012 2.26833.8782 0 1.51478-.34946 1.89155-.82497l-.76194-.70802c-.24231.29553-.58266.50212-1.04908.49302-.56445 0-.97694-.32285-1.1205-.84248h3.07509c.02661-.07214.02661-.27803.02661-.4216zm-2.10655-1.18284c.51123 0 .82497.30464.94122.76195h-1.92727c.13446-.50213.51123-.76195.98605-.76195z" fill="#00aded"/>
    </g>
    <g serif:id="mark">
      <path d="M352.85905 108.04074c-.38986-.10526-.77052-.2453-1.1363-.42481-.31035-.15228-.6097-.32576-.90303-.50838a4.2806 4.2806 0 0 1-.01708.01057c-.77208.47911-1.59296.8661-2.50489 1.03732-.32904.06177-.66185.10054-.99532.12898l-.01063.0009c-.08214 1.83573.04032 3.72787 1.01521 5.302.59423.95948 1.51363 1.67797 2.48732 2.27519l.0254.01547c.39846-.2435.78981-.50319 1.15398-.79322h.82668c-.58593.55145-1.2694 1.0136-1.96424 1.42616-.03256-.02228-.03286 0-.03286 0-.87644-.52039-1.7297-1.09562-2.39376-1.8594-.4511-.51877-.80828-1.11491-1.0657-1.76016-.64686-1.62152-.68784-3.42667-.57505-5.12154.71687-.04271 1.44492-.1116 2.13115-.33287.67679-.21823 1.30011-.5806 1.90217-.97149l.01762-.01147c.01171.00765.02342.01524.03519.02288.75935.4919 1.56972.92603 2.4621 1.11206a6.70183 6.70183 0 0 0 .1536.0301l-.61156.4217zm-.18137 6.31962h-1.1348c-.18968-.00807-.20247-.10413-.20647-.19786-.00472-.11148.06757-.20945.20646-.21536h.97722l.30892-1.12616s.05962-.13943.17945-.15096c.09583-.00926.1782.03119.21793.14708l.46675 1.57934.28591-.89855s.09248-.1638.23932-.13955c.08005.0205.08328.0242.1297.088l.33233.5008h.79573c.00095.00012.14767.01995.1917.12957.05096.12677-.02969.27677-.1917.28365h-.90661c-.09857-.00407-.1267-.0297-.17211-.09236l-.15532-.234-.35934 1.1295s-.06332.13453-.18149.14337c-.09444.00705-.1745-.03334-.21357-.1475l-.45205-1.52963-.15872.5787s-.0721.14636-.19924.15192zm2.22393-6.01943c.04015.9777.0101 1.9569-.15741 2.92342-.07635.44076-.24278 1.04897-.38855 1.47276l-.52451-.1705c.4453-1.17472.553-2.4526.53371-3.70332l.53676-.52236z" fill="#00aded" fill-rule="nonzero"/>
      <path d="M350.61249 110.85644c.03129-.03568.03941-.0591.08606-.12694.26903-.39144 1.06591-1.44674 2.07849-2.25845.44062-.35324.91685-.67437 1.33812-.88486.70209-.35082.92816-.39358 1.25422-.46955.06193-.01441.2862-.05444.32341.03392.0359.0853-.10399.1752-.15648.21644-.059.04636-1.40842 1.05544-2.54368 2.55402-.98784 1.3039-1.63429 3.0147-1.63429 3.0147-.01986.038-.24452.43948-.54593.45903-.27857.01811-.63633-.34424-.63633-.34424-.06877-.06416-.40417-.4622-.68325-.95451-.35593-.6277-.66242-1.37177-.66242-1.37177s-.31817-.62588.28165-.9701c.5914-.33942.85484.00518.9832.20863.10969.17387.33069.59623.4375.80282.0372.07196.06126.11187.07973.09086z" fill="#1d58bf" fill-rule="nonzero"/>
    </g>
    <circle cx="88.506" cy="368.331" r="25.699" fill="#d1ceff" transform="matrix(1.24682 0 0 1.24682 129.07388 -366.05644)"/>
    <g>
      <path d="M234.79674 84.79714c-1.28828-2.16885-1.71512-4.93991-.9589-7.68538 1.39849-5.07719 6.31648-8.15732 10.97562-6.87399 4.65914 1.28333 7.30636 6.44725 5.90788 11.52444-.75623 2.74547-2.54175 4.90715-4.75888 6.11045 1.49218-1.30605 2.69147-3.18496 3.30831-5.42442 1.39844-5.07703-.7234-10.09624-4.73528-11.20128-4.01188-1.10505-8.40432 2.11984-9.80276 7.19687-.61684 2.23946-.54878 4.46745.06401 6.35331z" fill="#4a41df"/>
      <path d="M229.64312 76.9581l-2.53994-.31092-6.8431 32.05372 1.20438 2.33146 8.17866-34.07426z" fill="#342ada" fill-rule="nonzero"/>
      <path d="M228.85059 76.4124l-7.36407 34.43978 26.80343 5.5183 7.25622-33.5587-26.69558-6.39939z" fill="#6c63ff" fill-rule="nonzero"/>
      <path d="M229.98862 101.50522l2.56138-1.89507c.5772.91783 1.27595 1.6768 2.09644 2.27698.82035.59994 1.655 1.005 2.5042 1.21503.83984.20772 1.56523.18376 2.17584-.07218.6108-.2559.99734-.71234 1.15992-1.3697.09259-.37434.10476-.71773.03673-1.03012-.06809-.31219-.23693-.61809-.50703-.91741-.2699-.29928-.58302-.5801-.9395-.8427-.35648-.26262-.83858-.57552-1.44626-.9389-.48892-.29537-.89628-.54866-1.22182-.76-.32555-.21136-.69053-.46883-1.095-.77225-.40465-.30346-.73193-.5855-.98246-.8461-.25034-.26054-.49876-.56897-.74482-.92538-.24605-.35642-.42252-.71009-.52958-1.06106-.10687-.35093-.16607-.74835-.17745-1.19202-.01143-.44348.04273-.90732.1624-1.39112.35454-1.4335 1.11368-2.51479 2.2775-3.24424 1.16382-.72945 2.58533-.96402 4.26492-.70362l.8739-3.53332 2.53356.62663-.90776 3.67024c.82439.38805 1.61423.87648 2.36954 1.4653.7555.58885 1.3814 1.21118 1.87813 1.86687l-2.49302 1.91197c-.6086-.7123-1.27213-1.30032-1.99062-1.76387-.7185-.46355-1.4156-.77878-2.09125-.94589-.82173-.20324-1.51227-.19235-2.07161.03265-.55949.22477-.91604.64771-1.06962 1.26864-.149.60242-.00324 1.1496.43693 1.64125.44041.4915 1.20656 1.07575 2.29863 1.75282.42956.26126.79095.48395 1.0846.66798.29366.18403.61867.39752.975.64067.35653.2432.64852.46319.87598.66.2275.1966.46861.42592.72363.68762.25501.2617.4553.50985.6007.74423.14536.23458.28302.50114.41258.7996.1295.29866.21188.6024.24686.91136.03499.30896.04162.64481.01971 1.0075-.02196.36288-.08255.74493-.18193 1.14674-.36583 1.47908-1.13688 2.57932-2.31318 3.30073-1.17635.7216-2.61108.97956-4.30402.77394l-.82982 3.3551-2.53356-.62663.83324-3.36893c-2.09857-.83857-3.7558-2.24653-4.97201-4.22334z" fill="#fff" fill-rule="nonzero"/>
    </g>
  </g>
  <g transform="matrix(.9544 0 0 .9544 -317.20694 -197.00686)">
    <path d="M926.79 654.4s-3.59 21.65-21.79 24.86c-18.2 3.21-78.94 2.56-78.94 2.56s-34.73-5-47.29-34.34c-12.56-29.34-20.63-41-9.87-41.53 10.76-.53 68.82 19.61 72.15 19.87 3.33.26 88.94-44.6 85.74 28.58z" fill="#65617d" fill-rule="nonzero"/>
    <path d="M926.79 654.4s-3.59 21.65-21.79 24.86c-18.2 3.21-78.94 2.56-78.94 2.56s-34.73-5-47.29-34.34c-12.56-29.34-20.63-41-9.87-41.53 10.76-.53 68.82 19.61 72.15 19.87 3.33.26 88.94-44.6 85.74 28.58z" fill-opacity=".05" fill-rule="nonzero"/>
    <path d="M763.9 678.49s1.81 4.77 6.8 5.12c.732.052 1.468.011 2.19-.12 6.67-1.16 22.3-3.85 27.81-2.82 3.32.61 9.45-.3 13.82-1.12 2.9-.55 5-1.06 5-1.06s-5.12-17-5.77-17.56c-.65-.56-23.06-14-23.06-14l-17.79-1.24c-2.379.367-4.528 1.635-6 3.54-1.87 2.27-3.48 6-3.59 12.1-.31 14.98.59 17.16.59 17.16z" fill="#3f3d56" fill-rule="nonzero"/>
    <path d="M763.9 678.49s1.81 4.77 6.8 5.12a73.811 73.811 0 0 1-4.82-7l.09-12.43c-.728-6.907 1.874-13.764 7-18.45h-.07s-9.35.64-9.61 15.64c-.26 15 .61 17.12.61 17.12z" fill-opacity=".05" fill-rule="nonzero"/>
    <path d="M840.9 651.32l16.53-12.94 26-25.63s-2.81-.14-7.05-.32c-1 .67-4 2.78-4.12 5.35-.12 3.14-7 .22-10.62 2-3.62 1.78-21.1 24.28-24.18 24.12-3.08-.16-5.51-1.56-6.79.62l-.09.14 10.32 6.66z" fill-opacity=".1" fill-rule="nonzero"/>
    <path d="M731.99 612.49c1.67 4.1 15.64 19.86 15.64 19.86s8.84 11.54 21.4 16.92c12.56 5.38 28.06 16.66 29.22 18.71.74 1.32 10.75 7.35 17.8 11.49l1.58.92 3.5 2 1.85 1.07s4.29-3.45 8.57-6.92c4.28-3.47 8.41-6.86 8.48-7 .12-.38 1.79-4.74 1.4-5-.2-.13-1.08-1.91-2.69-4-1.723-2.287-3.96-4.137-6.53-5.4-5.9-2.69-8.46-8.82-8.46-8.82s-.56-.4-1.41-.94c-1.747-1.208-3.704-2.079-5.77-2.57-2.82-.35-8.07-6.12-8.07-6.12s-3.59-2.31-5-5.25c-1.41-2.94-21.22-16.46-23.06-17.73l48.18 30.95 11.53 7.41 16.54-12.94 26-25.63s-3.5-.17-8.58-.39c-12.65-.55-35.1-1.41-37.94-.77-2.292.536-4.657.692-7 .46-2.343-.232-6.4.29-10.63-1.94s-10.9-3.28-11.67-4.93c-.77-1.65-23.45-9.61-23.45-9.61s-30.88-16.4-41.91-6.66c-11.03 9.74-11.18 18.73-9.52 22.83z" fill="#65617d" fill-rule="nonzero"/>
    <path d="M831.57 518.43l4 13.19 5.13 29.74 18.83 1.28 5.46-9 5.44-9s3.39-12 5.83-23.64c2.15-10.28 3.56-20.26 1.22-21.34-2.08-1-3.45-4.43-4.34-8.15-.11-.46-.22-.93-.31-1.39-.624-3.156-1.042-6.35-1.25-9.56-.208-3.21-39.47-2.05-34 14.23.987 2.777 1.491 5.703 1.49 8.65-.01.735-.056 1.469-.14 2.2-.567 5.099-3.236 9.738-7.36 12.79z" fill="#ee8e9e" fill-rule="nonzero"/>
    <path d="M823.36 516.25l1.42 22.42 3.2 19.1 3.59 8.84 3.2 48.38s30.9 3.57 38.42-.06c.54-.231 1.009-.6 1.36-1.07 9.07-13.7 6.1-53.4 6.1-53.4l3.46-25.63-2.31-13.3-5.57-.6-4.29-.45s-1 1.19-2.37 3c-3.8 5-10.79 14.88-10.32 19 .64 5.64-.77 11.4-3 12.3-2.23.9-4 2.44-4.35.9-.35-1.54-.77-1.92-.39-4.1.38-2.18-1.67-8.85-1.67-8.85s-3.46-7.81-3.2-11.15c.26-3.34-.38-7.17-1.41-8.07-1.03-.9-2.43-1.79-1.28-5.89 1.15-4.1-5.05-12.05-5.05-12.05l-15.54 10.68z" fill="#e3e8f4" fill-rule="nonzero"/>
    <path d="M872.9 490.58s6.46.8 8.51 3.5 7.43 3.07 7.43 3.07 6.15 2 6 2.56c-.15.56 1.79 1.29 5.63 2.31s10.26 4.74 10.26 5.64c0 .9 10.17 10.89 10.17 11.92 0 1.03 3.08 4.87 2.69 11.66-.39 6.79-.77 15.38.77 16.79 1.54 1.41 0 6.92 0 6.92-.844 1.22-.895 2.829-.13 4.1 1.28 2.31-.25 11.92-.25 11.92l.12 10s-1.41 6.28.26 6.54c1.67.26-.26 3.08-.26 3.08s-1.41 5.12.39 7.43c1.8 2.31 2.31 12.17 2.31 12.17l27.42 39.86s.39 7.3-8.33 7.18c-8.72-.12-8.59 1.66-8.33 3.33.26 1.67-2.43 3.46-2.43 3.46s-3.46 1.79-1.41 4 7.94 7.18-1.8 10.51c-1.148-1.587-2.095-3.31-2.82-5.13-.826-2.262-1.511-4.573-2.05-6.92-.539-2.347-.9-9.74-2.69-11-1.79-1.26-1.54-7.43-1.54-7.43s2.57-5-1-7.05-55.62-30.89-55.62-30.89l-1.3-38.37s-.9-28.32 4.48-37.81c0 0-.64-4.1.26-6.41.9-2.31-.13-9.74-.13-9.74l3.39-27.2zM838.9 505.57s-12.88-2.65-16.34-.86c-3.46 1.79-10.22 3.19-11.24 4.19-1.02 1-3.59.26-5.9 6.28-2.31 6.02-2.56 12.18-5.51 15-2.95 2.82-4.48 4.74-4.61 6.79-.13 2.05.38 2.56-.77 3.2-1.15.64-2.82 3.33-2.31 4.36.51 1.03 26.68 23.62 26.68 23.62s1.28 8.58 2.44 10.76c1.16 2.18-1.29 32.17-3.85 34.22-2.56 2.05 17.3 1.86 17.3 1.86s.9-19.67 1.67-20.7c.77-1.03-.52-22-.52-22s-.12-17.94 1.54-22.68c1.66-4.74 1.42-20.55 1.42-20.55s1.47-9.46 3.26-11.66c1.79-2.2-3.26-11.83-3.26-11.83z" fill="#3f3d56" fill-rule="nonzero"/>
    <path d="M837.59 494.72c.987 2.777 1.491 5.703 1.49 8.65 12.923 3.846 26.914-1.681 33.72-13.32-.624-3.156-1.042-6.35-1.25-9.56-.208-3.21-39.47-2.05-33.96 14.23z" fill-opacity=".1" fill-rule="nonzero"/>
    <path d="M818.11 474.47c.002 16.099 13.251 29.346 29.35 29.346 16.101 0 29.35-13.249 29.35-29.35s-13.249-29.35-29.35-29.35c-13.809 0-25.842 9.746-28.71 23.254-.426 2.005-.64 4.05-.64 6.1z" fill="#ee8e9e" fill-rule="nonzero"/>
    <path d="M799.27 542.39l-7 2.18s.65 2.56-1.41 3.84c-1.233.876-1.915 2.342-1.79 3.85s-.77 2.82-2.56 3.46c-1.79.64-2.95 4.87-2.95 4.87l-5.9 6.79s-2.17 1.79-1.79 2.69c.38.9-2.31 1.15-2.31 1.15l1.34 22.82 12.18 2.3 7.56-.77 6.15-2.3 5.38-3.21 2.44-6.28 10.76-16.4-20.1-24.99z" fill="#3f3d56" fill-rule="nonzero"/>
    <path d="M775.31 573.02s-15.64-22.56-27.3-10.38c-11.66 12.18 4.74 31.91 8.59 31.27 3.85-.64 22.17-1.67 22.17-1.67l-3.46-19.22z" fill="#ee8e9e" fill-rule="nonzero"/>
    <path d="M813.29749 565.70272c.40506-.7936.08977-1.76626-.70383-2.17132L742.58372 527.798c-.7936-.40506-1.76625-.08978-2.17131.70383l-27.41856 53.71923c-.40506.7936-.08978 1.76626.70383 2.17132l70.00993 35.73341c.7936.40506 1.76626.08978 2.17132-.70383l27.41856-53.71923z" fill="#3f3d56"/>
    <path fill="#16bd83" d="M744.3983 535.1576l61.2616 31.26821-23.56254 46.16441-61.2616-31.26821z"/>
    <circle cx="730.3" cy="557" r="1.13" fill="#e6e8ec"/>
    <circle cx="796.61" cy="590.97" r="1.86" fill="#e6e8ec"/>
    <path d="M765.18 577.76c-.12 16.92 34.86 20.5 34.86 20.5l8.94 1.42 4 .64 1.67-16.54s-1.83-.27-4.12-.8c-3.39-.79-7.78-2.16-8.7-4.07-1.53-3.2-36.52-18.07-36.65-1.15z" fill="#ee8e9e" fill-rule="nonzero"/>
    <path d="M855.96 486.61c-.143-.605-.143-1.235 0-1.84.327-1.764-.117-3.585-1.22-5-1.65-1.86-4.42-2-6.88-2.34-2.46-.34-5.3-1.26-6-3.64-.51-1.71.26-3.8-.84-5.21-.508-.575-1.166-.997-1.9-1.22-1.797-.814-3.819-.99-5.73-.5-3.27 1.06-5.24 4.91-8.65 5.39-.516.097-1.05.034-1.53-.18-1.29-.64-1.34-2.5-2.33-3.55-1.56-1.65-4.51-.58-6.42-1.81-1.24-.8-1.72-2.36-2.07-3.79-.67-2.79-1.22-5.71-.56-8.5 1.11-4.77 5.37-8 8.09-12.11 2.54-3.79 4-8.59 7.77-11.11 3.77-2.52 8.7-1.94 13-.66 1.982.698 4.019 1.23 6.09 1.59 3.46.43 6.94-.51 10.43-.63 4.923-.155 9.763 1.315 13.77 4.18.903.592 1.67 1.37 2.25 2.28.581 1.287.92 2.67 1 4.08.412 2.651 1.332 5.198 2.71 7.5 1.07 1.8 2.43 3.43 3.4 5.3 1.083 1.827 1.413 4.005.92 6.07-.33 1.05-1 2-1.23 3.09-.57 2.5 1.08 4.89 2.21 7.2 1.089 2.106 1.606 4.461 1.5 6.83-.13 2.384-1.247 4.61-3.08 6.14-1.898 1.334-4.17 2.035-6.49 2-2.811.086-5.614-.345-8.27-1.27-.983-.445-2.064-.631-3.14-.54-1.49.3-1.3 1.22-1.94 2.32-.86 1.56-4.18 1.85-4.86-.07z" fill="#3f3d56" fill-rule="nonzero"/>
    <path d="M840.15 652.09l16.54-12.94 26-25.63s-3.5-.17-8.58-.39c-1.009.909-1.655 2.152-1.82 3.5-.12 3.13-7 .22-10.62 2-3.62 1.78-21.13 24.27-24.21 24.13-3.08-.14-5.51-1.56-6.79.62l-.09.14c-.525.591-1.226.998-2 1.16l11.57 7.41z" fill-opacity=".1" fill-rule="nonzero"/>
    <path d="M806.83 651.19l8.31 26.52 1.3 4.16 4-1.08 8.72-2.4L868 667.72c4.882-.211 9.66-1.484 14-3.73 7.346-4.108 15.751-5.939 24.14-5.26 5.13.48 10.84-1.73 15.58-10.49 0 0 10.76-31.78-16.41-40.88-27.17-9.1-28.46 4.84-28.46 4.84l-.37.23c-1 .67-4 2.78-4.12 5.35-.12 3.14-7 .22-10.62 2-3.62 1.78-21.2 24.28-24.28 24.12-3.08-.16-5.51-1.56-6.79.62l-.09.14c-.95 1.31-3.81 1.61-5.69 1.67h-1.78l-.24.07-2 .59-14.04 4.2z" fill="#65617d" fill-rule="nonzero"/>
    <path d="M913.46 519.83s11.92-3.46 9 30.38c-2.92 33.84-25 55.23-25 55.23s-25.38 11.15-36.78 9.36c-11.4-1.79-19.78-2.18-19.78-2.18a28.99603 28.99603 0 0 0-11.53-3.08c-6.41-.25-19.86-4.23-20.12-5.51-.26-1.28 3.33-20.12 1.79-21.53 0 0 17.94.74 19.74 2 1.8 1.26 4.36.36 6.28 0s7.82-5.5 19.48-1c0 0 4 .38 5.51-.64 1.51-1.02 4-.26 4-.26.987-.339 1.923-.814 2.78-1.41.38-.51 3.46 0 3.46 0 .186.091.391.139.598.139.626 0 1.174-.431 1.322-1.039.409-1.049 1.021-2.007 1.8-2.82.779-.813 3.46-19.48 10-26.78 0 0 1.93-1.67 1.41-3.72-.52-2.05 10.66-31.24 26.04-27.14z" fill="#3f3d56" fill-rule="nonzero"/>
    <path d="M820.9 646.98l16.92 20.48c.07-.06.11-.1.11-.12.13-.38 1.79-4.74 1.41-5-.38-.26-3.33-6.67-9.23-9.36-2.992-1.465-5.505-3.756-7.24-6.6l-1.97.6z" fill-opacity=".1" fill-rule="nonzero"/>
    <path d="M835.28 688.9l2.44 1.41 24.73.64c2.776 1.684 5.71 3.094 8.76 4.21.405.128.82.221 1.24.28 2.292.179 4.593.222 6.89.13 1.9 0 3.36-.13 3.36-.13s-1.17-31.2-2-34.48c-.42-1.57-2.5-1.22-4.54-.44-1.536.623-3.018 1.372-4.43 2.24-1.412.868-10.51 1-12.18 1.93-1.67.93-6.4-.52-9.35 0-2.95.52-8.2-3.47-8.2-3.47-14.36-4.74-6.28 4.1-5.26 4.48 0 0-14-3.2-14.73 12-.73 15.2 13.27 11.2 13.27 11.2z" fill="#3f3d56" fill-rule="nonzero"/>
    <path d="M871.04 676.82c.27 6.46 5.3 14.48 8.3 18.72 1.9 0 3.36-.13 3.36-.13s-1.17-31.2-2-34.48c-.42-1.57-2.5-1.22-4.54-.44-2.53 4.65-5.34 11.13-5.12 16.33z" fill="#565387" fill-rule="nonzero"/>
    <path d="M871.04 676.82c.27 6.46 5.3 14.48 8.3 18.72 1.9 0 3.36-.13 3.36-.13s-1.17-31.2-2-34.48c-.42-1.57-2.5-1.22-4.54-.44-2.53 4.65-5.34 11.13-5.12 16.33z" fill-opacity=".1" fill-rule="nonzero"/>
    <path d="M866.81 677.68c1.7 6.23 1.68 13.22 4.4 17.45.405.128.82.221 1.24.28 2.292.179 4.593.222 6.89.13 1.9 0 3.36-.13 3.36-.13s-1.17-31.2-2-34.48c-.42-1.57-2.5-1.22-4.54-.44-1.536.623-3.018 1.372-4.43 2.24-1.412.868-7.1 6.97-4.92 14.95z" fill-opacity=".05" fill-rule="nonzero"/>
    <path d="M781.48 614.45s12.29 4 22.7 18.16l-22.7-18.16z" fill-opacity=".1" fill-rule="nonzero"/>
    <path d="M881.31 460.67c0 .1 0 .19-.07.28-.124.364-.268.721-.43 1.07.126-.464.294-.916.5-1.35z" fill-rule="nonzero"/>
    <path d="M883.3 557.03c-2.35 3.17-5 6.1-7.11 9.45-2.11 3.35-3.54 7.27-3.11 11.19 2.15-2.2 3.13-5.25 4.49-8 2.29-4.68 5.72-8.65 8.62-13 .55-.82 4.09-5.57 2.3-5.8-1.48-.17-4.39 5.08-5.19 6.16z" fill-opacity=".1" fill-rule="nonzero"/>
  </g>
  <defs>
    <linearGradient id="_Linear1" x2="1" gradientUnits="userSpaceOnUse" gradientTransform="rotate(-90 356.05 -16.69) scale(108.26)">
      <stop offset="0" stop-color="gray" stop-opacity=".24706"/>
      <stop offset=".54" stop-color="gray" stop-opacity=".11765"/>
      <stop offset="1" stop-color="gray" stop-opacity=".09804"/>
    </linearGradient>
    <linearGradient id="_Linear3" x2="1" gradientUnits="userSpaceOnUse" gradientTransform="rotate(-90 356.05 -16.69) scale(108.26)">
      <stop offset="0" stop-color="gray" stop-opacity=".24706"/>
      <stop offset=".54" stop-color="gray" stop-opacity=".11765"/>
      <stop offset="1" stop-color="gray" stop-opacity=".09804"/>
    </linearGradient>
  </defs>
</svg>
