<?xml version="1.0" encoding="utf-8"?>
<svg viewBox="0 0 561 420" xmlns="http://www.w3.org/2000/svg" fill-rule="evenodd" clip-rule="evenodd" stroke-linecap="round" stroke-linejoin="round" stroke-miterlimit="1.5">
  <path d="M541.04438 349.44386c0 3.9122-3.17788 7.0878-7.0878 7.0878H10.49218c-3.91163 0-7.0878-3.1756-7.0878-7.0878V10.53238c0-3.91163 3.1756-7.0878 7.0878-7.0878h523.4644c3.90992 0 7.0878 3.17617 7.0878 7.0878v338.91148z" fill="#f5f5f7"/>
  <path d="M538.31483-.00001H6.11126c-1.49757 0-2.72957 1.232-2.72957 2.72957v11.5425h537.64V2.72956c0-1.48906-1.22007-2.71709-2.70686-2.72957z" fill="#3f3d56" fill-rule="nonzero"/>
  <circle cx="96.72" cy="164.18" r="6.5" fill="#fff" transform="translate(-40.74542 -86.03535) scale(.56748)"/>
  <circle cx="114.22" cy="164.18" r="6.5" fill="#fff" transform="translate(-40.74542 -86.03535) scale(.56748)"/>
  <circle cx="131.72" cy="164.18" r="6.5" fill="#fff" transform="translate(-40.74542 -86.03535) scale(.56748)"/>
  <path fill="#dcdbdc" d="M28.37284 38.86226h488.82123V161.9703H28.37284z"/>
  <path fill="#fff" d="M32.93322 42.81193h479.8486v114.89474H32.93323z"/>
  <path d="M478.03484 71.437c0-3.40211-2.76264-6.16449-6.16477-6.16449h-286.4028c-3.40296 0-6.16477 2.76238-6.16477 6.1645v12.32963c0 3.40276 2.76181 6.16513 6.16476 6.16513h286.4028c3.40214 0 6.16478-2.76237 6.16478-6.16513V71.437z" fill="#16bd83"/>
  <path d="M478.03484 99.54337c0-2.26808-1.84204-4.10966-4.10985-4.10966H183.41234c-2.26863 0-4.10984 1.84158-4.10984 4.10966v8.21975c0 2.2685 1.8412 4.11008 4.10984 4.11008H473.925c2.26781 0 4.10985-1.84158 4.10985-4.11008v-8.21975z" fill="#6c63ff"/>
  <path d="M269.96526 122.04447c0-2.26808-1.84177-4.10966-4.10987-4.10966h-82.44321c-2.26835 0-4.10987 1.84158-4.10987 4.10966v8.21974c0 2.2685 1.84152 4.1101 4.10987 4.1101h82.4432c2.2681 0 4.10988-1.8416 4.10988-4.1101v-8.21974z" fill="#9795b1"/>
  <g fill-rule="nonzero">
    <path d="M294.29306 130.98143c.88596 0 1.31552-.17513 1.74507-.4027l-.4564-1.40949c-.29532.14787-.61749.22862-.83226.22862-.40271 0-.57722-.26952-.57722-.83268v-2.79275h1.78534v-1.44933h-1.78534v-2.3355l-1.74507.18772v2.14778h-.77857v1.44933h.77857v3.03395c0 1.4766.7383 2.17505 1.86588 2.17505zm6.05374-6.7653c-.77814 0-1.4897.37544-1.98638 1.0739h-.01342v-.96693h-1.7585v6.55136h1.7585v-3.04758c0-.96692.59064-1.70522 1.67785-1.70522.09438 0 .2821 0 .4562.01363v-1.90658c-.02623-.01258-.07971-.01258-.13424-.01258zm4.87342.10697v3.18182c0 1.26161-.68482 1.90553-1.45039 1.90553-.81905 0-1.18086-.40271-1.18086-1.61084v-3.47651h-1.74507v3.94634c0 2.00096.99314 2.712 2.40262 2.712.7383 0 1.45038-.30938 1.94643-.91344h.02727v.80646h1.7587v-6.55136h-1.7587zm4.92584 6.65833c1.71885 0 2.5505-.87253 2.5505-2.04081 0-1.28783-.83165-1.5972-2.25476-2.12051-.64496-.24121-.99314-.42998-.99314-.69845 0-.34923.3618-.49605.64392-.49605.48346 0 1.06025.21499 1.57098.6974l.84527-1.28888c-.7383-.5768-1.4766-.818-2.38899-.818-1.34236 0-2.36277.77815-2.36277 1.96006 0 1.26161.93966 1.7713 2.01355 2.13415.8589.26847 1.1945.41634 1.1945.72467 0 .32195-.2947.53694-.80543.53694-.71103 0-1.27524-.25484-1.81219-.76557l-.8589 1.22176c.72467.6177 1.61084.9533 2.65746.9533zm5.26248 0c.88617 0 1.3151-.17513 1.74508-.4027l-.4562-1.40949c-.29574.14787-.6177.22862-.83268.22862-.40271 0-.5768-.26952-.5768-.83268v-2.79275h1.78493v-1.44933h-1.78493v-2.3355l-1.74507.18772v2.14778h-.7792v1.44933h.7792v3.03395c0 1.4766.7383 2.17505 1.86567 2.17505z" fill="#1d58bf"/>
    <path d="M321.47645 124.21613c-.80542 0-1.49024.2947-1.98733.8589h-.02622v-.75193h-1.7587v9.20882h1.7587v-3.39576h.02622c.4562.5359 1.10116.84527 1.9328.84527 1.82582 0 3.14091-1.34236 3.14091-3.36954 0-1.98628-1.32873-3.39576-3.08638-3.39576zm-.3765 5.19432c-.95328 0-1.70522-.71104-1.70522-1.78493 0-1.04662.69845-1.83945 1.70523-1.83945.93965 0 1.67795.71208 1.67795 1.83945 0 1.06026-.68481 1.78493-1.67795 1.78493zm8.48416-5.08735v3.18182c0 1.26161-.68481 1.90553-1.45038 1.90553-.81905 0-1.18086-.40271-1.18086-1.61084v-3.47651h-1.74507v3.94634c0 2.00096.99314 2.712 2.40262 2.712.7383 0 1.45038-.30938 1.94643-.91344h.02726v.80646h1.7587v-6.55136h-1.7587zm2.88609-3.32864h1.7585v9.8798h-1.7585zm5.06008 9.98697c1.71885 0 2.55049-.87253 2.55049-2.04081 0-1.28783-.83164-1.5972-2.25476-2.12051-.64391-.24121-.99313-.42998-.99313-.69845 0-.34923.3618-.49605.64391-.49605.48346 0 1.06026.21499 1.57099.6974l.84527-1.28888c-.7383-.5768-1.4766-.818-2.389-.818-1.34236 0-2.36276.77815-2.36276 1.96006 0 1.26161.93965 1.7713 2.01354 2.13415.8589.26847 1.1945.41634 1.1945.72467 0 .32195-.2947.53694-.80542.53694-.71103 0-1.27525-.25484-1.8122-.76557l-.8589 1.22176c.72467.6177 1.61084.9533 2.65747.9533zm9.27594-3.45029c0-1.91916-1.28888-3.31501-3.20804-3.31501-1.86568 0-3.24894 1.38222-3.24894 3.3685 0 2.05444 1.45038 3.3968 3.36954 3.3968 1.3151 0 2.26839-.52331 2.8326-1.2354l-1.14101-1.06025c-.36286.44256-.87254.75193-1.57099.7383-.84527 0-1.46296-.48346-1.67795-1.26161h4.60494c.03985-.10802.03985-.41634.03985-.63133zm-3.15456-1.7713c.76557 0 1.2354.4562 1.40948 1.14102h-2.88608c.20136-.75194.76557-1.14101 1.4766-1.14101z" fill="#00aded"/>
  </g>
  <path d="M285.43252 122.1078c-.58382-.15763-1.15386-.36732-1.70162-.63615-.46474-.22803-.91303-.48782-1.35227-.7613a6.41018 6.41018 0 0 1-.02559.01583c-1.15618.71747-2.38544 1.297-3.75105 1.55338-.49274.0925-.99112.15056-1.49049.19315l-.01592.00134c-.123 2.749.06038 5.58247 1.52028 7.93973.88986 1.43682 2.26664 2.51275 3.72475 3.40708l.03802.02317c.5967-.36464 1.18274-.75352 1.7281-1.18785h1.23794c-.87743.8258-1.90094 1.51787-2.94144 2.13568-.04876-.03337-.0492 0-.0492 0-1.31247-.77929-2.59022-1.6407-3.58466-2.78444-.6755-.77687-1.21039-1.66959-1.59587-2.63584-.96867-2.42821-1.03004-5.13142-.86114-7.66948 1.07352-.06396 2.16376-.16711 3.19139-.49847 1.01349-.3268 1.94691-.86946 2.84849-1.4548l.02639-.01717c.01753.01145.03506.02281.05269.03426 1.13712.73661 2.35064 1.38672 3.687 1.6653.07648.01592.15315.03095.23.04508l-.9158.6315zm-.2716 9.4636h-1.69938c-.28404-.01208-.30318-.15594-.30918-.2963-.00706-.16693.10118-.31364.30918-.3225h1.46338l.4626-1.6864s.08928-.2088.26873-.22607c.1435-.01387.26686.0467.32635.22025l.69895 2.36505.42816-1.34557s.13848-.2453.35837-.20898c.11988.03069.12471.03624.19422.13178l.49767.74994h1.1916c.00143.00018.22114.02988.28708.19404.0763.18983-.04447.41447-.28708.42475h-1.35764c-.14761-.00608-.18975-.04446-.25774-.1383l-.2326-.35042-.5381 1.69142s-.09482.20146-.27177.2147c-.14144.01056-.26131-.04991-.31982-.22087l-.67694-2.29062-.2377.8666s-.10797.21917-.29834.2275zm3.33032-9.01406c.06011 1.4641.01511 2.93043-.23573 4.3778-.11433.66003-.36357 1.57082-.58185 2.20545l-.78545-.25532c.66683-1.75913.82812-3.67277.79923-5.5457l.8038-.78223z" fill="#00aded" fill-rule="nonzero"/>
  <path d="M282.0683 126.3243c.04685-.05343.05901-.0885.12887-.1901.40287-.58618 1.5962-2.16649 3.11253-3.38201.65983-.52898 1.37298-1.00987 2.00383-1.32508 1.05137-.52534 1.38992-.58938 1.8782-.70314.09273-.02159.42857-.08153.4843.0508.05375.12774-.15573.26235-.23434.3241-.08836.06943-2.1091 1.58053-3.80914 3.82464-1.4793 1.95257-2.44735 4.51451-2.44735 4.51451-.02974.0569-.36616.6581-.81752.68738-.41715.02713-.9529-.51549-.9529-.51549-.103-.09609-.60524-.69215-1.02317-1.42938-.533-.93997-.99197-2.0542-.99197-2.0542s-.47645-.93727.42177-1.45273c.88563-.50829 1.28012.00776 1.47234.31241.16425.26038.4952.89287.65514 1.20223.05573.10776.09175.16752.1194.13605z" fill="#1d58bf" fill-rule="nonzero"/>
  <path fill="#dce0ed" fill-opacity=".5" d="M27.83207 174.56487h487.8311v1.6297H27.83207zm0 37.84138h487.8311v1.6297H27.83207zm0 37.85225h487.8311v1.62968H27.83207zm0 37.84137h487.8311v1.6297H27.83207zm0 37.84138h487.8311v1.6297H27.83207z"/>
  <path d="M515.67403 327.56008H27.23451v-13.98165c15.2137 5.88861 31.87998 8.9231 48.09973 6.38404 15.89056-4.09052 30.1775-8.70472 42.61745-13.9208l37.54478-24.79084c14.09355-11.14598 27.834-21.49125 39.00063-25.99897 9.17406-4.4534 18.35682-8.61019 27.68733-8.6254l26.3021-1.60905 26.03156-.08148 20.54386-.67904 37.2786-20.43304 39.30048-13.03968c12.74417-3.0258 26.2456-4.53814 38.4335-3.72873l32.83606 1.0267 26.49223-2.35218c8.68624-1.30267 18.27098-5.0792 28.54889-10.76464l17.72232-20.20054v152.7953z" fill="#16bd83" fill-opacity=".3" fill-rule="nonzero"/>
  <path d="M370.919 601.569s60.278 43.615 172.315-49.33c75.552-62.676 139.168-17.37 179.667-44.589 117.436-78.927 199.455 3.832 256.65-77.309" fill="none" stroke="#16bd83" stroke-width="5" transform="matrix(.79937 0 0 .80095 -268.1162 -169.22389)"/>
  <circle cx="647.55" cy="275.37" r="11.13" fill="#16bd83" transform="translate(-490.77973 -52.8303) scale(1.08646)"/>
  <circle cx="647.55" cy="275.37" r="11.13" fill="#16bd83" transform="translate(-362.86099 -81.7835) scale(1.08646)"/>
  <circle cx="647.55" cy="275.37" r="11.13" fill="#16bd83" transform="translate(-607.09042 9.68565) scale(1.08646)"/>
  <circle cx="647.55" cy="275.37" r="11.13" fill="#16bd83" transform="translate(-246.76292 -94.28274) scale(1.08646)"/>
  <g>
    <circle cx="88.506" cy="368.331" r="25.699" fill="#6c63ff" transform="matrix(2.15937 0 -.44436 2.15937 80.43453 -678.27047)"/>
    <path d="M121.98366 154.09019c-2.61326 3.6077-6.29794 6.42663-10.3811 7.93848-2.39737.81407-4.83762 1.25903-7.22302 1.31465-2.60512.18961-5.11578-.12894-7.39204-.93543-2.988-1.27925-5.32277-3.5091-6.69809-6.39629-1.35004-2.88718-2.27143-6.01454-2.73732-9.3037-.43092-1.64078-.37897-3.45349.1467-5.2586 2.04721-.24271 4.07924-1.27168 5.64425-2.85685 1.06398-1.59528 1.48615-3.42568 1.16692-5.05636-.04764-.50563-.10049-.98599-.18381-1.44106-.15032-1.1124-1.03316-3.21079.06948-4.14621 1.10264-.93543 3.2211-.91015 4.13344-1.28938 2.77639-1.47645 5.65877-2.65711 8.58579-3.51416 2.56094-.3312 5.0634-.1694 7.35928.48035.31975.05562.61384.17444.8626.35394.26391.26546.42925.61688.4745 1.01128.35412 1.71916.36843 3.6153.56046 5.38502.10354 1.85568.7121 3.55462 1.7665 4.92995.95352.98093 2.09678 1.76467 3.38948 2.32592l3.0704 1.54219c.54522.23765 1.01394.58907 1.37945 1.03655.30642.61182.42212 1.3273.33185 2.07311-.20386 4.0375-1.71634 8.16855-4.32572 11.8066z" fill="#f2bfc8" fill-rule="nonzero"/>
    <path d="M116.3308 130.45171c-6.69538 5.72886-15.71333 7.03087-21.86173 3.16023-.04764-.50564-.10048-.986-.18381-1.44107-.15032-1.1124-1.03316-3.21078.06948-4.1462 1.10264-.93543 3.2211-.91015 4.13344-1.28938 2.77639-1.47646 5.65877-2.65712 8.5858-3.51417 2.56093-.33119 5.0634-.16939 7.35927.48036.31975.05562.61385.17444.8626.35394.26392.26546.42925.61688.4745 1.01127.3385 1.795.36843 3.6153.56046 5.38502z" fill-opacity=".1" fill-rule="nonzero"/>
    <circle cx="263.84" cy="289.36" r="6.94" fill="#eebdbc" transform="matrix(2.52818 0 -.52025 2.52818 -410.14515 -614.02026)"/>
    <path d="M143.65241 151.42549c-25.1774 27.24618-65.45793 27.78215-81.99058 4.84904.54877-1.33993 1.32584-2.63436 2.27914-3.80238.97851-1.15538 2.39943-1.86832 3.77795-1.89613.73317 0 1.51024.2781 2.15041-.25282.64017-.53092.55164-.9607 1.0037-1.31465.45207-.35395 1.36221-.35395 2.0597-.30339 1.53178.05057 3.149-.6826 4.29399-1.9467.36728-.47023.78796-.90508 1.25132-1.28936.7315-.32361 1.49053-.5107 2.23812-.5562 2.14148-.45508 3.7816-2.52818 5.58913-3.81755.93125-.852 2.19218-1.18066 3.2055-.8343.22122.12893.39918.30843.52279.53091.28352.6371.41996 1.35005.40249 2.0984.05106 4.1993-1.27003 4.6114 1.52931 7.29885 2.19473 1.9644 23.10548 2.98325 26.64105-2.29306 1.8501-3.05657 3.21938-6.29517 4.04487-9.5818l.08844-.4298c2.18682-.51574 4.30444-.0809 5.77255 1.18825 1.41442 1.28432 2.97487 2.41189 4.6678 3.36248 2.06799.88486 4.87427.88486 6.0783 2.52818.52205.65733.78983 1.56747 1.5409 1.97198.47665.20225.9962.3312 1.53999.37923 2.7007.7711 1.31313 4.11082 1.31313 4.11082z" fill="#3f3d56" fill-rule="nonzero"/>
    <path d="M100.09649 89.06542c-1.42453.98852-2.46474 2.40683-3.78745 3.53945-2.29584 1.96693-8.08153 11.35911-8.75377 13.8519-2.09478 7.77162-1.48864 17.14863 1.13822 16.52165-3.0469-2.197 6.9098-20.07627 11.56564-18.14222.92388-.1896 15.01883 4.82124 18.886 2.7987 1.1419-.20478-.8238-1.2919.31469-1.43095 4.97034-.6017 3.88945 8.11545 2.80855 10.01412l.58875 5.73896c.10121.85958 3.05726-1.2565 3.4857-2.0731 1.96528-3.73918 3.4943-7.58201 3.57475-11.35153.08104-3.78468 2.57495-8.09017.54394-10.99758-.7474-1.03655-1.85022-1.82029-2.50617-2.93268-.65595-1.1124-.81594-2.30065-1.46221-3.3372-2.81365-3.01106-6.7134-4.88444-11.15873-5.35974-4.97692-.44749-10.29297.6548-15.23791 3.16022z" fill="#6e2e16" fill-rule="nonzero"/>
  </g>
  <g>
    <ellipse cx="140.04" cy="838.19" rx="100.11" ry="24.73" fill="#1d58bf" fill-opacity=".1" transform="translate(-25.71766 -135.89034) scale(.64406)"/>
    <path d="M78.778 409.97841l9.09264-2.84603c2.55246-1.90823 1.85114-4.21605.6687-5.93672-.82528-1.11476-2.09824-1.81608-3.48212-1.91638-.60753-.1003-1.18653-.33109-1.6962-.67685-.55535-.33598-1.0218-.8008-1.36186-1.3537-.61243-1.06503-.92068-2.27846-.88888-3.50658.0318-1.22812-9.73686-3.26193-12.54212-.48114-.49582.50479-.9158 1.07889-1.2477 1.70436-.96226 1.96042-1.4752 4.11167-1.50048 6.29553-.02528 2.18386-.61977 3.10699-1.57388 6.65434-.95412 3.54735 14.5319 2.06317 14.5319 2.06317zm-43.71804-6.10796l9.09264-2.84604c2.55246-1.90823 1.85114-4.21605.6687-5.92856-.82527-1.12047-2.10232-1.82424-3.49027-1.92454-.3523-.04648-.69398-.15168-1.0112-.30988-.23241-.10846-.45912-.2316-.67685-.36697-2.44645-1.47602-2.25889-4.8929-2.25889-4.8929s-9.73687-3.26193-12.54213-.48113c-.37593.37512-.71028.79102-.99489 1.23953-1.14004 2.07214-1.74513 4.39545-1.76144 6.76035-.0163 2.3649-.62792 3.11515-1.57388 6.65434-.94596 3.5392 14.54821 2.0958 14.54821 2.0958z" fill="#2d293d" fill-rule="nonzero"/>
    <path d="M22.55046 376.4213c.6483 1.23055 1.19305 2.5125 1.63096 3.83276l-.39959 9.89996c2.3486 4.24051 15.44525 3.3598 17.28824 1.1743 1.843-2.1855 3.94694-8.0162 1.98163-9.09264-1.96532-1.07643-3.40872-6.16505-3.40872-6.16505s2.1121.58715 5.65945-3.26193 2.87865-12.82754 2.32413-14.98042c-.55453-2.15287.36696-9.2802.36696-9.2802s.06524-5.02337 1.13352-6.61356c1.06829-1.5902 3.5555-10.78884 3.5555-10.78884s.11418-3.1396 1.9327-4.69718c1.81853-1.55757 3.1967-7.91834 3.1967-7.91834 1.0903-1.55676 1.6065-3.44623 1.45971-5.34141-.2528-3.14777 2.38121-6.44232 2.38121-6.44232l4.78689-13.37392 4.4036-10.00597 2.03056 5.97749s.09785 13.82243-.51376 16.68478c-.61161 2.86234-1.63096 10.4871-1.63096 10.4871s2.31597 5.11308 1.0275 9.33729c-1.28846 4.2242-1.27215 13.38207-1.27215 13.38207s-1.8593 18.89474-.91334 20.436c.94596 1.54126.67685 5.30064.67685 5.30064s-5.5616 10.83777-3.99587 12.41165c1.56573 1.57388.91335 5.70838.91335 5.70838s-3.50658-.13863-2.06318 1.4271c1.4434 1.56572 2.21812 9.45144 2.21812 9.45144l15.09459 2.34044a31.93975 31.93975 0 0 0 3.63705-6.27106c2.1855-4.55855-.21203-4.15081-2.20996-4.7298-1.99793-.579-.67685-1.78591 1.76144-3.1967 2.4383-1.41078 1.1906-4.85212 1.1906-4.85212s-3.40055-6.28737-2.12025-6.73589c1.28031-.44852 1.72883-9.10079 1.72883-9.10079s2.90312-10.19354 2.3812-12.97433c-.5219-2.7808 2.37306-9.32913 2.37306-9.32913l1.1743-7.86125c2.85827-4.37588 4.04316-9.63901 3.33532-14.81733l.47298-12.167s4.43623-23.3962 5.43112-35.33488c.61977-7.6166.92965-18.03032 1.06828-24.52972.08155-3.65337.11417-6.0672.11417-6.0672l-53.9605-7.73077c-.18757 2.70332-.6214 5.38381-1.29662 8.00804-.66054 2.9602-1.6799 6.77666-3.26193 11.53908-4.41992 13.64303-2.44645 24.01597-2.44645 24.01597l-.17125 17.45134s-5.2191 11.482-4.36284 15.53495a33.17357 33.17357 0 0 1 .71763 7.33934c-.03425 2.4652-11.61248 25.01902-10.76438 32.43176.8481 7.41274-4.24866 18.92736-4.24866 18.92736s-1.57388 8.25268-.40774 10.5605z" fill="#575988" fill-rule="nonzero"/>
    <path d="M56.04234 312.2754l-16.40752-2.85418s8.97847 9.91627 16.40752 2.85419z" fill-opacity=".05" fill-rule="nonzero"/>
    <path d="M76.29078 318.39153s10.3811 2.78895 10.53604 6.99684c.15494 4.2079-10.53604-6.99684-10.53604-6.99684z" fill-opacity=".1" fill-rule="nonzero"/>
    <path d="M46.34625 117.0488l.76655 4.61563-.13048 2.0387-.09785 1.5005 5.21093.74209.62792-1.06013c1.15799-1.91639 3.5555-5.82255 4.3139-6.4097.9949-.7747 3.21301-13.43916 1.10906-12.77046-1.28275.442-2.35756 1.34228-3.01728 2.528-.65973 1.1857-10.32402.78286-8.78275 8.81537z" fill="#ffcdd3" fill-rule="nonzero"/>
    <path d="M46.88447 125.20363l5.21093.74209.62792-1.06013c-1.3806-1.6856-3.77487-2.17816-5.70838-1.1743l-.13047 1.49234z" fill-opacity=".1" fill-rule="nonzero"/>
    <path d="M45.46553 127.63376l6.8419 1.86746.1794-1.0275.49745-2.74819c-.88806-1.27541-2.34778-2.03789-3.90209-2.03789-.98265 0-1.94166.30418-2.7441.87175l-.39143 1.39448-.48113 1.6799z" fill="#dce6f2" fill-rule="nonzero"/>
    <path d="M157.62705 121.86015l7.20886 4.2405s.30173-.57899.72578-1.37c.7584-1.4434 1.88377-3.6126 2.2018-4.39546.48114-1.19876 3.6126-2.62585 3.6126-2.62585 7.99988-7.07024-.94596-13.74904-.94596-13.74904-4.48516-9.97336-10.40557 2.91942-10.40557 2.91942s-1.01935 6.87453-.5056 7.33935c.51376.46483.44037 2.37306.44037 2.37306a27.72058 27.72058 0 0 0-1.94085 4.14265c-.2528.67685-.39143 1.12537-.39143 1.12537z" fill="#ffcdd3" fill-rule="nonzero"/>
    <path d="M156.7871 124.03749l8.15483 4.39545.22833-1.77775.1631-1.22323s-4.63194-4.28944-6.05088-4.19158a7.70816 7.70816 0 0 1-2.16919-.0897l-.14679 1.48417-.1794 1.40264z" fill="#dce6f2" fill-rule="nonzero"/>
    <path d="M65.24099 148.23286s35.93833 5.46374 29.27583 3.01729c-4.6401-1.71251-6.39338-4.77058-6.65434-8.09775-.0897-2.855.46809-5.69288 1.63097-8.30161.94433-2.24258 2.11047-4.38404 3.48211-6.39339 1.37164-2.00935-27.0088-16.23626-22.01804-2.22627a22.1168 22.1168 0 0 1 1.31293 6.59726 18.6016 18.6016 0 0 1-.96227 6.5891c-1.17185 3.44053-3.27172 6.49206-6.0672 8.81537z" fill="#ffcdd3" fill-rule="nonzero"/>
    <path d="M70.99014 126.23113a22.1168 22.1168 0 0 1 1.31293 6.59726c2.51169 2.2752 5.36588 2.24258 9.0274 2.38121 2.81341.11417 5.89594.91334 8.15482-.35881.94433-2.24258 2.11047-4.38404 3.48212-6.39339 1.37164-2.00935-26.96802-16.23626-21.97727-2.22627z" fill-opacity=".1" fill-rule="nonzero"/>
    <circle cx="183.01" cy="496.73" r="18.31" fill="#ffcdd3" transform="translate(-66.88348 -283.81029) scale(.81548)"/>
    <path d="M65.24099 148.23286s35.93833 5.46374 29.27583 3.01729c-4.6401-1.71251-6.39338-4.77058-6.65434-8.09775-1.72067-2.01424-5.27617-3.5555-7.56768-4.39545-2.086-.7853-4.36446-.9109-6.52386-.35881a8.9808 8.9808 0 0 0-2.44645 1.01935c-1.17593 3.44297-3.28232 6.4945-6.0835 8.81537zm-19.77546-20.5991l6.8419 1.86746.1794-1.0275c-1.42465-2.12353-4.04153-3.13472-6.52386-2.51985l-.49744 1.6799zm111.32157-3.59627l8.15483 4.39545.22833-1.77775c-2.64298-1.52822-5.39605-2.85827-8.23638-3.97956l-.14678 1.36186z" fill-opacity=".1" fill-rule="nonzero"/>
    <path d="M33.65733 234.80453s45.71597 9.67163 50.71489 8.3587c4.9989-1.31293 30.29519 1.28846 30.29519 1.28846 11.11503 8.0896 6.78481-3.3761 6.78481-3.3761s1.23138-5.85516 0-10.67467c-.78857-3.53022-1.28275-7.11998-1.47602-10.73175-.19327-3.61178.54637-7.51876-.76655-9.32097-1.31293-1.80222-2.44645-14.41774-2.44645-14.41774s-.9215-8.57073-.72578-10.44634c.19571-1.8756-.09786-7.1681-.09786-7.1681l-1.29662-8.83983c9.45145-.88887 38.71913-17.34532 38.71913-17.34532 1.63097-5.83886 12.79493-19.22909 12.79493-19.22909.2006-1.1539.53985-2.27927 1.0112-3.35163.81548-1.97347-10.29955-6.41785-10.29955-6.41785s-8.81537 9.95705-10.64206 12.64814c-1.82668 2.6911-8.08143 7.6003-8.08143 7.6003-.93128-.12966-1.8805-.04322-2.77264.2528h-.1468a22.42072 22.42072 0 0 0-5.70837 3.00913c-2.82402-.17614-5.6089.75106-7.7634 2.58508-2.1545 1.83402-5.11308-.94596-6.01826-.10601-.90519.83995-5.26802-.20387-5.26802-.20387s-4.07742-9.4433-7.02131-6.85821c-2.9439 2.58508-15.22507 1.98978-15.22507 1.98978-1.54126-2.23443-5.45558-3.93879-7.90202-4.83582-2.0852-.7902-4.36447-.91497-6.52387-.35881-.93699.23078-1.8275.61977-2.634 1.14983l-7.69817 6.98053s-2.03055-2.83788-1.75328-3.45764c.27726-.61977-2.44645-1.22323-2.44645-1.22323s-3.59628-1.27215-4.95814-1.6962c-1.36186-.42405-2.6911 1.0112-2.80526 1.14167.62221-1.7598.89948-3.62319.81548-5.4882-.28542-2.39752 1.67174-4.46069 1.67174-4.46069-3.9714-10.95193-14.22202-2.29966-14.22202-2.29966s-1.36186 5.84701-.44036 8.15483c.9215 2.30782-1.27215 6.98053-1.07644 8.24453.19572 1.264-.62792 3.36795-.71762 5.74916-.0897 2.3812.98673 6.94791 1.63096 8.9703.64423 2.0224 6.52387 6.78483 6.52387 6.78483s.106 7.15994 2.57692 11.41676.30173 18.34836.30173 18.34836-2.93574 10.93563-6.20582 14.32804c-3.2701 3.3924-8.7012 23.3065-8.7012 23.3065z" fill="#656691" fill-rule="nonzero"/>
    <path d="M102.54933 188.85207c.12232-.13864-29.52048 34.47046-50.6741 12.9988 0 0 34.49492 6.03457 50.6741-12.9988z" fill-opacity=".1" fill-rule="nonzero"/>
    <path d="M110.25564 170.95222c-1.8854 3.93144-4.23072 7.62395-6.98869 11.00086-3.0132 3.7341-6.61682 6.95118-10.66651 9.52484-4.04969 2.57367 17.28008-18.24235 17.6552-20.5257z" fill-opacity=".1" fill-rule="nonzero"/>
    <path d="M85.8727 134.94865c-.1533.79101-.59856 1.4964-1.24769 1.97347-.44606.19571-.9329.28215-1.41894.2528-4.55854.11416-9.30466.13047-13.43915-1.78591a5.0721 5.0721 0 0 1-1.99794-1.43525c-.71762-.94596-.81548-2.19365-1.06828-3.35164-.5056-2.25073-1.68805-4.28128-2.51169-6.44231-1.38713-3.63787-1.74513-7.58889-1.03566-11.41676a7.63626 7.63626 0 0 1 1.264-3.26193c1.27215-1.67174 3.49842-2.28336 5.1457-3.59628 1.64727-1.31293 2.75633-3.36795 4.66456-4.33022 1.71251-.86441 3.75937-.67685 5.64314-.27726 3.6974.7747 7.21295 2.25073 10.35663 4.34652 1.05198.70947 2.20996 1.5168 3.4658 1.32924 1.07644-.29847 2.01588-.96146 2.65848-1.87561.80733 2.07377 1.10416 4.31146.86441 6.52386a2.81735 2.81735 0 0 0 0 .97858 2.98752 2.98752 0 0 0 .65239 1.06828c1.06828 1.34555 1.6962 3.43319.53822 4.70534-.5056.55453-1.264.81548-1.7533 1.41078-.88071 1.0112-.66053 2.528-.69315 3.87355.02935.46727-.10275.93128-.37512 1.31293-.51376.43546-1.21834.5741-1.8593.36696-.62874-.21447-1.29418-.30336-1.95716-.26095-.70703.20305-1.32598.64015-1.7533 1.23953-2.20995 2.56062-3.1233 5.4719-4.14265 8.65228z" fill="#2d293d" fill-rule="nonzero"/>
    <path d="M88.18052 144.09836s-18.7561 1.7533-20.30552-1.1172" fill-opacity=".1" fill-rule="nonzero"/>
  </g>
  <g>
    <path fill="#535461" d="M526.25682 301.60485h2.1798v49.02164h-2.1798z"/>
    <path d="M542.11714 350.47574l-.13758 2.20989-.18918 3.11705-.08169 1.28982-.19347 3.11706-.08169 1.28981-.19347 3.11276-2.19699 35.44847c-.19605 3.148-2.83501 5.6352-5.98905 5.6451h-11.41487c-3.14974-.00903-5.78655-2.48892-5.98905-5.6322l-2.2013-35.44847-.18916-3.11276-.0817-1.28981-.19776-3.11706-.0774-1.28982-.19347-3.11706-.13758-2.20988a3.07748 3.07748 0 0 1-.00559-.18917c0-1.70514 1.4029-3.10846 3.10846-3.10846h23.34827c1.7004 0 3.09986 1.39945 3.09986 3.09986 0 .06148-.00172.12339-.0056.18487z" fill="#3f3d56" fill-rule="nonzero"/>
    <path d="M541.98399 352.6859l-.19347 3.11705h-28.8876l-.18917-3.11705h29.27024zm-.27086 4.41547l-.19348 3.12135h-28.34157l-.19347-3.12135h28.72852zm-.27946 4.41977l-.18918 3.11706h-27.79125l-.19347-3.11706h28.1739z" fill="#9d9cb5" fill-rule="nonzero"/>
    <path d="M509.38586 319.98049c12.6789 9.1706 17.95856 23.52196 17.95856 23.52196s-15.28004-.52452-27.94604-9.69942-17.99295-23.52197-17.99295-23.52197 15.29723.52453 27.98043 9.69943z" fill="#16bd83" fill-rule="nonzero"/>
    <path d="M481.40543 310.28106s15.86045 8.80515 20.94663 16.09262c5.08618 7.28747 24.97516 17.12877 24.97516 17.12877" fill="none" stroke="#fff" stroke-width=".85988" stroke-linecap="butt" stroke-linejoin="miter" stroke-miterlimit="10"/>
    <path d="M517.5676 301.4974c6.90482 4.9916 9.77682 12.8036 9.77682 12.8036s-8.31502-.28807-15.21985-5.27966c-6.90482-4.9916-9.77251-12.80358-9.77251-12.80358s8.31502.28376 15.21554 5.27965z" fill="#16bd83" fill-rule="nonzero"/>
    <path d="M502.35206 296.21776s8.62888 4.79382 11.40198 8.75785c2.77311 3.96404 13.59038 9.32538 13.59038 9.32538" fill="none" stroke="#fff" stroke-width=".85988" stroke-linecap="butt" stroke-linejoin="miter" stroke-miterlimit="10"/>
    <path d="M537.3749 313.90115c-7.92808 8.71486-9.60484 20.09965-9.60484 20.09965s11.17841-2.74301 19.10649-11.45788c7.92807-8.71486 9.60483-20.09535 9.60483-20.09535s-11.17841 2.73871-19.10649 11.45358z" fill="#16bd83" fill-rule="nonzero"/>
    <path d="M556.48138 302.44757s-10.31853 8.92984-12.95406 15.08656c-2.63552 6.15673-15.75726 16.46667-15.75726 16.46667" fill="none" stroke="#fff" stroke-width=".85988" stroke-linecap="butt" stroke-linejoin="miter" stroke-miterlimit="10"/>
  </g>
</svg>
