<svg width="566" height="78" viewBox="0 0 566 78" fill="none" xmlns="http://www.w3.org/2000/svg">
<path d="M40.3702 10.8501C59.1801 10.8501 73.2402 21.3001 77.8001 38.4001H56.7102C53.4802 31.5601 47.4002 28.3301 40.1802 28.3301C28.4002 28.3301 20.2302 37.0701 20.2302 51.1301C20.2302 65.1901 28.4002 73.9301 40.1802 73.9301C47.4002 73.9301 53.4802 70.5101 56.7102 63.8601H77.8001C73.2402 80.9601 59.1801 91.4101 40.3702 91.4101C17.0002 91.2201 0.660156 74.6901 0.660156 50.9401C0.660156 27.1901 17.0002 10.8501 40.3702 10.8501Z" fill="#404041"/>
<path d="M116.179 91.6C97.7489 91.6 83.8789 79.25 83.8789 59.3C83.8789 39.35 98.1289 27 116.559 27C134.989 27 149.239 39.35 149.239 59.3C149.239 79.25 134.609 91.6 116.179 91.6ZM116.179 74.88C123.019 74.88 129.479 69.75 129.479 59.3C129.479 48.66 123.209 43.72 116.369 43.72C109.339 43.72 103.259 48.66 103.259 59.3C103.449 69.75 109.149 74.88 116.179 74.88Z" fill="#404041"/>
<path d="M187.429 91.6C168.999 91.6 155.129 79.25 155.129 59.3C155.129 39.35 169.379 27 187.809 27C206.239 27 220.489 39.35 220.489 59.3C220.489 79.25 205.859 91.6 187.429 91.6ZM187.429 74.88C194.269 74.88 200.729 69.75 200.729 59.3C200.729 48.66 194.459 43.72 187.619 43.72C180.589 43.72 174.509 48.66 174.509 59.3C174.509 69.75 180.399 74.88 187.429 74.88Z" fill="#404041"/>
<path d="M227.332 10.8501H246.522V53.4101L265.522 27.9501H289.272L263.242 59.3001L289.652 90.6501H265.902L246.712 64.2401V90.6501H227.522V10.8501H227.332Z" fill="#404041"/>
<path d="M293.832 11.0398C293.832 5.14985 298.392 0.589844 305.232 0.589844C312.072 0.589844 316.632 5.14985 316.632 11.0398C316.632 16.7398 312.072 21.2998 305.232 21.2998C298.392 21.2998 293.832 16.7398 293.832 11.0398ZM295.732 27.7598H314.922V90.4599H295.732V27.7598Z" fill="#404041"/>
<path d="M353.679 91.6C335.249 91.6 321.949 79.25 321.949 59.3C321.949 39.35 335.059 27 353.679 27C371.919 27 385.029 39.16 385.029 58.35C385.029 60.06 384.839 62.15 384.649 64.05H341.139C341.899 72.22 346.839 76.02 353.109 76.02C358.429 76.02 361.469 73.36 363.179 69.94H383.699C380.469 82.1 369.449 91.6 353.679 91.6ZM341.329 53.22H365.459C365.459 46.38 360.139 42.39 353.679 42.39C347.219 42.39 342.469 46.19 341.329 53.22Z" fill="#404041"/>
<path d="M473.761 91.6C455.331 91.6 442.031 79.25 442.031 59.3C442.031 39.35 455.141 27 473.761 27C492.001 27 505.111 39.16 505.111 58.35C505.111 60.06 504.921 62.15 504.731 64.05H461.221C461.981 72.22 466.921 76.02 473.191 76.02C478.511 76.02 481.551 73.36 483.261 69.94H503.781C500.551 82.1 489.341 91.6 473.761 91.6ZM461.221 53.22H485.351C485.351 46.38 480.031 42.39 473.571 42.39C467.301 42.39 462.361 46.19 461.221 53.22Z" fill="#404041"/>
<path d="M539.88 91.6C523.16 91.6 511.95 82.29 511 70.13H530C530.38 74.5 534.37 77.35 539.69 77.35C544.63 77.35 547.29 75.07 547.29 72.22C547.29 62.15 513.09 69.37 513.09 46.38C513.09 35.74 522.21 27 538.55 27C554.7 27 563.82 35.93 564.96 48.28H547.1C546.53 44.1 543.3 41.25 537.79 41.25C533.23 41.25 530.76 42.96 530.76 46C530.76 56.07 564.77 48.85 565.15 72.41C565.34 83.24 555.65 91.6 539.88 91.6Z" fill="#404041"/>
<path d="M404.981 28.8999H385.031L403.271 62.7199H423.221L404.981 28.8999Z" fill="#0056A7"/>
<path d="M402.891 61.7698L403.461 62.7198H423.411L410.301 38.9697L402.891 61.7698Z" fill="#2E3191"/>
<path d="M439.371 0.399902L403.461 62.7199H423.411L459.321 0.399902H439.371Z" fill="#0056A7"/>
<path d="M403.461 72.0298H422.841V91.5998H403.461V72.0298Z" fill="#0056A7"/>
</svg>
